<svg id="media-production" xmlns="http://www.w3.org/2000/svg" xmlns:xlink="http://www.w3.org/1999/xlink" viewBox="0 0 500 500" shape-rendering="geometricPrecision" text-rendering="geometricPrecision"><g id="media-production-u-freepik-floor-inject-99"><ellipse id="media-production-u-freepik-floor-inject-992" rx="228.09" ry="133.13" transform="translate(249.37 342.74)" fill="#f0f0f0"/></g><g id="media-production-u-freepik-shadows-inject-99"><ellipse id="media-production-u-freepik-shadow-inject-99" rx="78.8" ry="45.5" transform="translate(155.89 385.95)" fill="#e0e0e0"/><ellipse id="media-production-u-freepik-shadow-inject-992" rx="78.8" ry="45.5" transform="translate(346.8 383.6)" fill="#e0e0e0"/></g><g id="media-production-u-freepik-plants-inject-99"><g id="media-production-u-freepik-plants-inject-992" transform="matrix(.994092-.108545 0.108545 0.994092-31.297312 7.68839)"><g id="media-production-u-plant-2" transform="translate(.000006 0.000001)"><path id="media-production-s-path1" d="M72,329.17l9.59-5.48c0,0,4.6-25.35,1.16-47.15-4.84-30.64-25.7-41.2-33.28-38.16s-9.35,12.12,4.33,29.83c8.08,10.44,18.47,32.53,18.2,60.96Z" fill="#ff6366"/><g id="media-production-s-g1" opacity="0.15"><path id="media-production-s-path2" d="M72,329.17l9.59-5.48c0,0,4.6-25.35,1.16-47.15-4.84-30.64-25.7-41.2-33.28-38.16s-9.35,12.12,4.33,29.83c8.08,10.44,18.47,32.53,18.2,60.96Z"/></g><path id="media-production-s-path3" d="M75.49,317h-.1c-.370301-.056666-.627744-.398443-.58-.77c4-28.69-7.57-60.12-20.54-72.79-.178633-.178633-.248397-.438996-.183013-.683013s.255983-.434616.5-.5.50438.00438.683013.183013c13.2,12.89,25,44.83,20.93,73.94-.036631.361307-.347052.632379-.71.62Z" fill="#fff"/></g><g id="media-production-u-plant-1" transform="translate(.000002 0)"><path id="media-production-s-path4" d="M45.4,344.55c-1.52.87-4.64-1-5.84-1.84-2.052139-1.394856-3.709029-3.296318-4.81-5.52-1.236617-2.522566-1.656076-5.367897-1.2-8.14.22908-1.465444.563276-2.912511,1-4.33.41-1.4.81-2.8,1.21-4.2.492072-1.356662.703016-2.799245.62-4.24-.37-2.87-2.92-4.89-5.24-6.62-2.56-1.92-5.23-4.46-5.22-7.92c0-2.67,1.39-5.15,3-7.24s3.62-3.95,5.11-6.16c1.198372-1.519486,1.837473-3.405012,1.81-5.34-.159068-1.187525-.557074-2.330515-1.17-3.36-1.22-2.26-2.83-4.32-3.67-6.74s-.73-5.43,1.16-7.16c1.55-1.42,3.86-1.62,6-1.48c1.966799.238108,3.857682.903672,5.54,1.95c5.49,3.05,8.63,9.56,14.46,11.91c2.24.9,4.71,1.1,7,1.72s4.73,1.82,5.82,4c2.14,4.28-1.83,9.54-.33,14.08c1.33,4,5.23,5.55,7.42,9.17.883096,1.599149,1.233389,3.438187,1,5.25-.189918,3.07098-.942407,6.080939-2.22,8.88-1.420075,2.785212-3.048017,5.45945-4.87,8-.06.04-26.35,15.19-26.58,15.33Z" fill="#ff6366"/><path id="media-production-s-path5" d="M61,336.25v0c-.378742-.016203-.675762-.330956-.67-.71c1.13-27.15-11.66-57.13-21-65.84-.139675-.128744-.219131-.310042-.219131-.5s.079456-.371256.219131-.5c.130253-.136964.310989-.2145.5-.2145s.369747.077536.5.2145c9.49,8.89,22.55,39.36,21.4,66.89-.007725.184886-.089389.35892-.226652.483021s-.318622.187868-.503348.176979Z" fill="#fff"/><path id="media-production-s-path6" d="M56.9,304.17c-.066255.010481-.133745.010481-.2,0C48,301.44,37.1,301,37,301c-.182236-.007721-.35373-.088331-.475956-.22372s-.184937-.314206-.174044-.49628c.002238-.182317.079798-.355587.214283-.478707s.313911-.18512.495717-.171293c.11,0,11.15.48,20.05,3.24.321748.098875.522743.418263.47269.751119s-.336092.579005-.67269.578881l-.01-.03Z" fill="#fff"/></g></g><g id="media-production-u-freepik-plants-inject-993"><g id="media-production-u-plant-22" transform="translate(0 0.000003)"><path id="media-production-s-path7" d="M438.84,336.53L425,329.21c0,0-1.05-21.17.6-37.95c2.31-23.57,19.84-50.94,38-44.28s-8.32,30.67-14.22,50.66-10.54,38.89-10.54,38.89Z" fill="#ff6366"/><path id="media-production-s-path8" d="M438.84,336.53L425,329.21c0,0-1.05-21.17.6-37.95c2.31-23.57,19.84-50.94,38-44.28s-8.32,30.67-14.22,50.66-10.54,38.89-10.54,38.89Z" opacity="0.3"/><path id="media-production-s-path9" d="M432.07,334.08v0c.338538-.016211.601321-.301263.59-.64-1.78-52.38,24.3-78.73,24.56-79c.191066-.145157.281218-.387531.231455-.622266s-.230505-.41968-.464034-.474825-.47791.029412-.627421.217091c-.27.27-26.72,27-24.93,79.9.002631.167093.071543.326295.191571.442572s.281336.180101.448429.177428Z" fill="#fff"/></g><g id="media-production-u-plant-12" transform="translate(.000002 0)"><path id="media-production-s-path10" d="M445.94,340.71l-7.19-4.15c-1.11235-11.836408.410795-23.772263,4.46-34.95c6.67-18.1,23.91-28,31.84-25.27c9.68,3.29,9.74,12.56,6.22,18.66-4.15,7.18-30.1,25.36-35.33,45.71Z" fill="#ff6366"/><path id="media-production-s-path11" d="M445.94,340.71l-7.19-4.15c-1.11235-11.836408.410795-23.772263,4.46-34.95c6.67-18.1,23.91-28,31.84-25.27c9.68,3.29,9.74,12.56,6.22,18.66-4.15,7.18-30.1,25.36-35.33,45.71Z" opacity="0.1"/><path id="media-production-s-path12" d="M442.15,339.13v0c.161782,0,.316938-.064268.431335-.178665s.178665-.269553.178665-.431335c-.14-33.12,30.95-55.5,31.27-55.73.276142-.196061.341061-.578858.145-.855s-.578858-.341061-.855-.145c-.32.22-31.93,23-31.79,56.72c0,.164434.065321.322134.181594.438406s.273972.181594.438406.181594Z" fill="#fff"/></g></g></g><g id="media-production-u-freepik-character-inject-99"><g id="media-production-u-freepik-character-inject-992"><g id="media-production-u-left-hand" transform="matrix(.982213-.187768 0.187768 0.982213-19.171124 36.751504)"><path id="media-production-s-path13" d="M283.25,137.46c.518095-.761861.586837-1.743358.18-2.57-.539932-.778293-1.45668-1.20611-2.4-1.12-.921283.086304-1.820967.329827-2.66.72-5.149094,2.022568-10.484838,3.53319-15.93,4.51-1.188969.323386-2.452983.228056-3.58-.27-.377347-.230234-.628043-.621025-.68-1.06-.14-1.24.54-2.64,1-3.9.666423-1.877315.756959-3.91089.26-5.84-.3-1.14-1.53-3.31-2.87-1.5-1.878635,2.714807-4.048166,5.216306-6.47,7.46-4.32,4.13-3.87,7.22-8.09,11.22-.87.83-5.74,2.58-11.67,6l6,17.06c4.033071-2.868048,8.263588-5.447794,12.66-7.72c2.2-1.08,6.88-1.46,9.09-2c2.4-.54,4.79-1.12,7.2-1.63c3.594737-.768284,7.095301-1.925079,10.44-3.45c1.640697-.616206,3.091946-1.650351,4.21-3c.686359-1.068476,1.14586-2.266582,1.35-3.52.24-1.09.84-2,1.09-3.11.441812-1.550636.065088-3.219522-1-4.43.730212-.498347,1.36383-1.125188,1.87-1.85Z" fill="#ffa8a7"/><path id="media-production-s-path14" d="M174.37,108.38c5.29,0,10.64.51,14.87,2.8s5.43,3.39,12.56,18.18s13.2,27.53,13.2,27.53l21.84-9.65c.59,5.11,5.48,14.27,8.26,16.18c0,0-11.82,7.67-20.48,13.06-6.48,4-11.85,7.25-15.3,6.59s-6.09-2.09-12.78-12.28c-6.102914-9.251398-11.714029-18.817998-16.81-28.66s-7.43-19.68-5.36-33.75Z" fill="#455a64"/><path id="media-production-s-path15" d="M215,156.89c-3.67,2-7.57,4.6-9.63,9.66c0,0-.14-7.07,8.33-12.37l1.3,2.71Z" fill="#37474f"/></g><path id="media-production-s-path16" d="M131.45,402.92c-.4,1.6-1.26,6.14-9.69,6.14s-13.29-3.46-15-7.74-.7-7.47-.55-11.21-2.57-6.11-3.21-8.11c-.91-3,1.58-7.08,1.58-7.08l26.87,28Z" fill="#263238"/><path id="media-production-s-path17" d="M210.57,379.64c.31.22.5,2.85-.39,4.06-.62.83-6.27,4.93-13.26,4.08-5.122761-.499339-10.052517-2.213441-14.38-5-4.08-2.41-6.9-2.76-11-2.75s-7-.77-7.34-1.81c-.61-1.83-.65-3,.23-3l46.14,4.42Z" fill="#263238"/><path id="media-production-s-path18" d="M107.41,368.75c0,7.69,14.73,9.1,14.37,2.9l5.13-18-16.65-1.76-2.85,16.86Z" fill="#ffa8a7"/><path id="media-production-s-path19" d="M131.37,399.07c-.55-1.46-2.41-3.71-3.19-5.07-4.094395-7.001039-6.038451-15.052006-5.59-23.15c0-.45.09-1.32-.31-1.65s-.91,0-1.41.13v0v0c-.862045.240182-1.755562.348079-2.65.32-3-.08-6.13-1.23-6.88-1.23-.58,0-1,1.74-1.21,3.66-1-.81-1.12-2.16-2-3.06-.45-.48-.67-.52-.57-1.2.07-.44.15-.83.22-1.28-.72-.32-1.75,2.48-2.67,4.6-1.07,2.45-2.36,5.21-1.71,7.94.439794,1.498578,1.036428,2.946589,1.78,4.32c1.28346,2.380033,1.96979,5.03613,2,7.74c0,1.18-.3,2.35-.29,3.53.001669,4.053513,2.376178,7.730676,6.07,9.4c4.84,2.28,12.45,3.07,17.39.15c1.74-1.01,1.56-3.69,1.02-5.15Z" fill="#ff6366"/><path id="media-production-s-path20" d="M131.37,399.07c-.55-1.46-2.41-3.71-3.19-5.07-4.094395-7.001039-6.038451-15.052006-5.59-23.15c0-.45.09-1.32-.31-1.65s-.91,0-1.41.13v0v0c-.862045.240182-1.755562.348079-2.65.32-3-.08-6.13-1.23-6.88-1.23-.58,0-1,1.74-1.21,3.66-1-.81-1.12-2.16-2-3.06-.45-.48-.67-.52-.57-1.2.07-.44.15-.83.22-1.28-.72-.32-1.75,2.48-2.67,4.6-1.07,2.45-2.36,5.21-1.71,7.94.439794,1.498578,1.036428,2.946589,1.78,4.32c1.28346,2.380033,1.96979,5.03613,2,7.74c0,1.18-.3,2.35-.29,3.53.001669,4.053513,2.376178,7.730676,6.07,9.4c4.84,2.28,12.45,3.07,17.39.15c1.74-1.01,1.56-3.69,1.02-5.15Z" opacity="0.4"/><path id="media-production-s-path21" d="M167.32,362.48c4.16,3,8,3.36,12.9.91l2.47-26.23h-18l2.63,25.32Z" fill="#ffa8a7"/><path id="media-production-s-path22" d="M127.87,194.33c-3.32,30.53-7.74,91.14-7.74,91.14s-5,9.18-6.95,23.91c-2.41,18.18-5.24,52.77-5.24,52.77s8.51,5.52,16.78,2.85c0,0,18.92-54.6,22.7-72.5c3.29-15.62,9.13-47.71,9.13-47.71l7.29,43.67c-1.896623,6.925788-2.689689,14.107251-2.35,21.28.35,8.41,3.66,40.55,3.66,40.55c2.74,2.59,13.26,2.94,16.78.7c0,0,5-53.52,5.79-62.36c1-11.62,2.76-95,2.76-95l-62.61.7Z" fill="#263238"/><path id="media-production-s-path23" d="M156.55,244.79L160.62,226c0,0,9.1-2.08,15.6-7.29c0,0-2.38,6-12.35,10.57l-4.16,17.59l3.58,38.58-6.74-40.66Z"/><path id="media-production-s-path24" d="M207,374.39c-6.89-2.58-13.6-5.59-17.85-8.58-1.19-.84-2.1-1.54-2.87-2.2-1.75-1.77-2.82-5.6-3.58-6-.25-.14-.6,0-1.1.34-.194895-.261939-.486649-.43483-.81-.48l-.09,1.06c-1.429669.909478-3.040381,1.496433-4.72,1.72-4.23.54-4.4-.31-4.53,1.06-.043999.512391-.043999,1.027609,0,1.54-2.25-.29-4-.94-4.17-1.79l-.38-2.7c-2.23-.12-2.23,3.88-2.8,8.39-.46,3.65-1.23,6.31-.13,9c3.49,2.82,9.41,1.88,12.82,2.31c4.83.62,7.2,4.08,14,6.14c10.89,3.32,17.52-1.22,19.47-3.17c1.21-2.52.49-5.24-3.26-6.64Z" fill="#ff6366"/><path id="media-production-s-path25" d="M207,374.39c-6.89-2.58-13.6-5.59-17.85-8.58-1.19-.84-2.1-1.54-2.87-2.2-1.75-1.77-2.82-5.6-3.58-6-.25-.14-.6,0-1.1.34-.194895-.261939-.486649-.43483-.81-.48l-.09,1.06c-1.429669.909478-3.040381,1.496433-4.72,1.72-4.23.54-4.4-.31-4.53,1.06-.043999.512391-.043999,1.027609,0,1.54-2.25-.29-4-.94-4.17-1.79l-.38-2.7c-2.23-.12-2.23,3.88-2.8,8.39-.46,3.65-1.23,6.31-.13,9c3.49,2.82,9.41,1.88,12.82,2.31c4.83.62,7.2,4.08,14,6.14c10.89,3.32,17.52-1.22,19.47-3.17c1.21-2.52.49-5.24-3.26-6.64Z" opacity="0.4"/><path id="media-production-s-path26" d="M150,107.78c-6.809765.396724-13.595102,1.137671-20.33,2.22-6.52.89-5.93,6-5.93,17.13c0,16.44,5.35,44.92,5.35,44.92l-2.28,28c7.65,8.18,44.29,11.76,63.83-.23c0,0,.53-55.78,0-65.18-.92-16.55-11.67-26.06-17.78-26.52-7.600046-.698634-15.242538-.812302-22.86-.34Z" fill="#37474f"/><g id="media-production-u-haed" transform="matrix(.983354-.181701 0.181701 0.983354-17.097756 30.129434)"><path id="media-production-s-path27" d="M165.83,76.49l-29.54-2.18c-5.71,4.32-16.33,13.43-16.32,16v0v1.69v0c.008012.072883.028299.143885.06.21c1,2,4.81,3.22,10.68,3.32c7,.11,17.76-.52,20.6-3c4.28-3.67,14.52-14.43,14.52-14.43l-1.49-.1l1.49-1.51Z" opacity="0.2"/><path id="media-production-s-path28" d="M136.29,76c-6,4.52-17.3,14.26-16.26,16.25s4.81,3.22,10.68,3.32c7,.11,17.76-.52,20.6-3c4.28-3.67,14.52-14.43,14.52-14.43L136.29,76Z" fill="#ff6366"/><path id="media-production-s-path29" d="M136.29,76c-6,4.52-17.3,14.26-16.26,16.25s4.81,3.22,10.68,3.32c7,.11,17.76-.52,20.6-3c4.28-3.67,14.52-14.43,14.52-14.43L136.29,76Z" opacity="0.4"/><path id="media-production-s-path30" d="M136.29,76c-.09.86,2.92,2.64,2.92,2.64l-.84-5.18L136.29,76Z" fill="#ff6366"/><path id="media-production-s-path31" d="M165.83,76.49l-29.54-2.18c-5.71,4.32-16.33,13.43-16.32,16v0v1.69v0c.008012.072883.028299.143885.06.21c1,2,4.81,3.22,10.68,3.32c7,.11,17.76-.52,20.6-3c4.28-3.67,14.52-14.43,14.52-14.43l-1.49-.1l1.49-1.51Z" fill="#ff6366"/><path id="media-production-s-path32" d="M136.29,76c-.09.86,2.92,2.64,2.92,2.64l-.84-5.18L136.29,76Z" opacity="0.3"/><path id="media-production-u-hair" d="M144.05,58.72c0,0-4.61.65-6.3,4.12-1.47,3-.94,10.33,1,18.28s3.81,12.75,5,14.95c.761928,1.362017,2.024567,2.373564,3.52,2.82L147,89.45l-.34-6.57c0,0,4.22-5.77,4.69-10.5.59-6.08-.69-8.57-.69-8.57l-6.61-5.09Z" fill="#263238"/><path id="media-production-s-path33" d="M151.5,67.86c.015886,4.675775,1.88858,9.153729,5.206104,12.448749s7.808121,5.137191,12.483896,5.121251c9.73,0,17-8,17-17.75s-7.38-17.54-17.12-17.51c-4.675775.015886-9.153729,1.88858-12.448749,5.206104s-5.137191,7.808121-5.121251,12.483896Z" fill="#263238"/><path id="media-production-s-path34" d="M146.93,81.83c-1.59,1.37-2.88-2.19-4.21-3.58s-5.72-3.25-7.84,1.3s2,11,5.24,12.5c4.77,2.21,6.9-2.6,6.9-2.6l.51,19.86c5,9,12.15,10.68,16.87,10.17s5.77-5.43,2.31-9.39v-6.47c0,0,5.34.79,7.94.38c4.33-.69,6.6-4,7.9-8.65c2.09-7.54,2.92-20.22,0-34.86-4.85-3.75-21.67-3.13-31.86,3.32.74,12.99-2.17,16.64-3.76,18.02Z" fill="#ffa8a7"/><path id="media-production-s-path35" d="M180.72,54.09c-2.001388-2.133479-4.435802-3.814383-7.14-4.93-2.179625-.932116-4.519743-1.431387-6.89-1.47-3.08,0-6.14-.45-9.21-.36-5.34.17-11.78,2.35-14.19,7.54-1.1,2.37-1.29,4.87.89,6.51c1.944524,1.311637,4.171919,2.14434,6.5,2.43c4,.69,7.88,1.56,11.85,2.09c4.258963.722336,8.614255.657939,12.85-.19c2.000763-.450318,3.904339-1.256459,5.62-2.38.867962-.580606,1.672394-1.250966,2.4-2c.28-.29,1-.88,1.12-1.28s-.42-1.17-.62-1.56c-.852408-1.606054-1.922515-3.086706-3.18-4.4Z" fill="#263238"/><path id="media-production-s-path36" d="M166.68,103.62c0,0-9.68-1.92-13.07-3.71-1.994594-1.025587-3.630252-2.633344-4.69-4.61.514853,1.977582,1.422926,3.831139,2.67,5.45c2.48,3.15,15.1,5.44,15.1,5.44l-.01-2.57Z" fill="#f28f8f"/><path id="media-production-s-path37" d="M164.93,78.61c-.033168,1.055072-.903829,1.889993-1.959364,1.878936s-1.908514-.864036-1.919572-1.919572.823864-1.926196,1.878936-1.959364c1.104569,0,2,.895431,2,2Z" fill="#263238"/><path id="media-production-s-path38" d="M163,71.86l-4.33,1.94c-.505995-1.229499.038855-2.639957,1.24-3.21.577235-.250477,1.231238-.256838,1.813235-.017635s1.042505.703631,1.276765,1.287635Z" fill="#263238"/><path id="media-production-s-path39" d="M165.12,91.83l6.19,2.3c-.272724.838061-.873145,1.529994-1.664412,1.918092s-1.705957.43929-2.535588.141908c-1.725449-.684272-2.603552-2.608156-1.99-4.36Z" fill="#b16668"/><path id="media-production-s-path40" d="M167.11,96.19c.551467.196011,1.145336.240897,1.72.13-.064444-1.609812-1.388899-2.881289-3-2.88-.282099.005031-.561859.05222-.83.14.191202,1.182404.993898,2.175312,2.11,2.61Z" fill="#f28f8f"/><path id="media-production-s-path41" d="M181.12,73l-4.48-1.65c.187767-.603189.616373-1.102017,1.184415-1.378463s1.22505-.305953,1.815585-.081537c1.238959.481286,1.887923,1.844989,1.48,3.11Z" fill="#263238"/><path id="media-production-s-path42" d="M180.88,78c.00066,1.0778-.85286,1.962277-1.93,2-.814689.028531-1.565168-.440248-1.896905-1.184884s-.178338-1.616095.387731-2.202694s1.431511-.770936,2.187489-.465927s1.251186,1.038317,1.251685,1.853505Z" fill="#263238"/><polygon id="media-production-s-polygon1" points="170.5,75.97 171.45,88.83 177.53,86.73 170.5,75.97" fill="#f28f8f"/><path id="media-production-s-path43" d="M135,68.79c.068344,2.490914.492641,4.959245,1.26,7.33.497235-.770145,1.107381-1.461194,1.81-2.05c3.94406-3.296344,8.439944-5.86929,13.28-7.6v0c11.16-4.31,24.19-5,34.58-1.32-.171368-2.134448-.639196-4.234625-1.39-6.24-3.8-9.89-11.46-15.07-23.71-13.8C146.5,46.6,134.65,54.58,135,68.79Z" fill="#ff6366"/><path id="media-production-s-path44" d="M161.33,60c3.33-1.12,11.84-1.78,14.33-1c1.153217-.946475,2.163652-2.054586,3-3.29c1.16-1.85.77-4.18-.33-4.65s-1.16,1-5.39,3c0,0,1-2.55.34-4.27s-2.14,1.37-5.29,3.35-6.26,3.09-6.66,6.86Z" fill="#263238"/></g><g id="media-production-u-right-hand" transform="matrix(.980046 0.198773-.198773 0.980046 27.394959-22.730389)"><path id="media-production-s-path45" d="M130.19,110.65c-8.227539.430186-15.309917,5.95468-17.73,13.83-2.57,7.5-8.92,26.66-12.77,38.51-6.73-3.26-23-11.15-26.29-14-3.06247-2.683688-5.843501-5.672459-8.3-8.92-3.375646-4.16154-5.823577-8.996033-7.18-14.18-.86-2.52-4.09.13-4,4.61.088116,2.450413.567501,4.870971,1.42,7.17-1.61-.15-6.32-.63-7-.69-2.54-.2-10.33-.07-9.55,4.06.18.92.8,1.77.72,2.71-.12136.434894-.292492.854334-.51,1.25-.510849,1.653713-.081751,3.454396,1.12,4.7.571033.501249.969867,1.16947,1.14,1.91.09422.80445.345653,1.582534.74,2.29.44694.476723.939266.908764,1.47,1.29.627474.591083,1.145452,1.288492,1.53,2.06.355508.767131.816649,1.480721,1.37,2.12c1.4,1.44,3.63,1.06,5.44,1c2.744424-.086287,5.49148-.029544,8.23.17c4.78,1.11,22.06,16,37,24.11c5.11,2.78,9.29,4.16,12.53,2.45v0c2.74-1.08,4.08-4.07,5.82-8.36c4-10,14.22-36.78,14.22-36.78c3.82-11.07,3.49-25.91.58-31.31Z" fill="#ffa8a7"/><path id="media-production-s-path46" d="M52.66,139.05c2.41,0,3.5,1.21,4.48,4.37.59,1.87,2.29,5.12,4.77,5.82-1.003295.218519-2.049258.127869-3-.26-1.29-.66-1.59-.69-1.93.05-.268617.505276-.652274.940315-1.12,1.27.95194.58317,1.413876,1.717748,1.14,2.8-.43,1.93-4.78,3.42-9,2.77c0,0,6.4-.13,7.12-2.42s-3.11-3.57-5.6-3.43c0,0,6-.54,6.27-2.66s-2.53-2.74-6.1-2.48c0,0,4.9-.7,5.17-2.54.39-2.23-1.38-2.86-2.2-3.29Z" fill="#f28f8f"/><path id="media-production-s-path47" d="M132.41,109.58c-5.24.74-9.37,1-13.27,3.84s-6,5-11.16,20.56-8.91,28.15-8.91,28.15L77,151.36c.09,5.15-4.49,14.53-7,16.78c0,0,15.06,10.64,21.42,14.64s13.48,7.57,16.82,6.46s5.12-3.9,10.41-14.88c4.83983-9.97074,9.145913-20.191844,12.9-30.62s4.76-20.48.86-34.16Z" fill="#455a64"/><path id="media-production-s-path48" d="M99.07,162.13c7.19,4,9.91,9.16,9.91,9.16s-.98-7.29-8.87-12.29l-1.04,3.13Z" fill="#37474f"/></g></g></g><g id="media-production-u-freepik-speech-bubble-inject-99" transform="matrix(0 0 0 0 205.37 89.135033)"><g id="media-production-u-freepik-speech-bubble-inject-992"><g id="media-production-u-freepik-speech-bubble-inject-993"><g id="media-production-u-freepik-speach-bubble-inject-99"><path id="media-production-s-path49" d="M259,33.74L214.46,59.45c-.870733.59135-1.411772,1.558551-1.46,2.61v43.25c.056834,1.058695.62342,2.024129,1.52,2.59l3.54,2c.945221.468097,2.054779.468097,3,0L265.6,84.19c.889754-.580364,1.450368-1.549373,1.51-2.61v-43.24c-.055313-1.061801-.621874-2.03092-1.52-2.6l-3.54-2c-.958878-.484777-2.091122-.484777-3.05,0Z" fill="#ff6366"/><path id="media-production-s-path50" d="M219.52,109v-43.21c.052809-1.055099.601665-2.023015,1.48-2.61l44.6-25.71c.83-.49,1.51-.1,1.51.87v43.24c-.059632,1.060627-.620246,2.029636-1.51,2.61L221,109.9c-.8.48-1.48.1-1.48-.9Z" fill="#ff6366"/><path id="media-production-s-path51" d="M221,109.9c-.946984.460502-2.053016.460502-3,0l-3.53-2c-.89658-.565871-1.463166-1.531305-1.52-2.59v-43.25c.023625-.546294.189049-1.077029.48-1.54L220,64.3c-.278473.448428-.433697.962393-.45,1.49v43.21c-.03.91.59,1.42,1.45.9Z" opacity="0.2"/><path id="media-production-s-path52" d="M267.09,38.06c-.12-.76-.74-1-1.49-.6L221,63.18c-.42288.282535-.76699.667939-1,1.12l-6.55-3.78c.241483-.432591.584711-.799845,1-1.07L259,33.74c.945221-.468097,2.054779-.468097,3,0l3.54,2c.831358.509163,1.397842,1.357062,1.55,2.32Z" opacity="0.5" fill="#fff"/></g><path id="media-production-s-path53" d="M213,76.88L202.71,87.71c-.284916.284334-.425735.682404-.38299,1.082649s.264453.759599.60299.977351c.25.17,6.54,3.82,6.54,3.82l10.05-12.86L213,76.88Z" fill="#ff6366"/><path id="media-production-s-path54" d="M213,76.88L202.71,87.71c-.284916.284334-.425735.682404-.38299,1.082649s.264453.759599.60299.977351c.25.17,6.54,3.82,6.54,3.82l10.05-12.86L213,76.88Z" opacity="0.1"/><path id="media-production-s-path55" d="M219.52,80.73L209.28,91.56c-.401591.407022-.498089,1.025172-.239661,1.535228s.81394.797855,1.379661.714772l9.1-.08c1.18,0,1.18-13,0-13Z" fill="#ff6366"/></g><path id="media-production-u-freepik-clapperboard-inject-99" d="M255.41,59.81L234.83,71.69l20.4-17.8c.641045-.622823.971002-1.499042.9-2.39l-.4-2.92c-.11-.79-.68-1-1.28-.49L230.94,68.61c-.655733.615497-1.000745,1.492708-.94,2.39l.4,2.92c.021309.230241.11595.447565.27.62-.218082.41025-.337896.865546-.35,1.33v18.64c0,.89.54,1.29,1.2.91l23.85-13.77c.739397-.530819,1.184344-1.379928,1.2-2.29v-18.64c.04-.88-.5-1.29-1.16-.91Zm-8-.92L249,54.62c.196591-.494912.492705-.944188.87-1.32L253,50.58c.3-.26.4-.09.22.37l-1.56,4.28c-.199296.493497-.495072.942261-.87,1.32l-3.11,2.71c-.3.27-.4.1-.23-.37h-.04Zm-7.51,6.56l1.57-4.27c.198122-.497062.49396-.94932.87-1.33l3.11-2.71c.3-.26.4-.1.22.37l-1.57,4.27c-.191913.49788-.48471.950695-.86,1.33l-3.11,2.71c-.27.26-.37.1-.19-.37h-.04ZM232.43,72L234,67.73c.192096-.494842.484958-.94435.86-1.32L238,63.7c.31-.27.41-.1.23.37l-1.57,4.27c-.196591.494912-.492705.944188-.87,1.32l-3.11,2.72c-.33.26-.43.1-.25-.38Zm6,.29l-1.69,3.26c-.228788.46302-.573235.859134-1,1.15l-3.17,1.84c-.31.18-.39,0-.17-.51l1.7-3.26c.230348-.464696.574315-.863698,1-1.16l3.17-1.83c.28-.17.35.06.13.52l.03-.01Zm7.68-4.43l-1.7,3.26c-.214797.457201-.541564.852761-.95,1.15l-3.18,1.84c-.31.17-.38-.05-.16-.52l1.7-3.25c.227358-.466673.571919-.866364,1-1.16L246,67.35c.23-.17.3.06.08.52l.03-.01Zm7.67-4.43l-1.69,3.25c-.227358.466673-.571919.866364-1,1.16l-3.17,1.83c-.31.18-.38-.05-.17-.51l1.7-3.26c.228788-.46302.573235-.859134,1-1.15l3.17-1.84c.28-.16.38.09.13.53l.03-.01Z" fill="#455a64"/></g></g><g id="media-production-u-freepik-video-camera-inject-99" transform="translate(.000001-30.407721)"><g id="media-production-u-freepik-video-camera-inject-992"><path id="media-production-u-leg" d="M327.78,414c-.33-.07-.55-.73-.5-1.48L341.75,179.6l7.21.76-20.44,232.42c-.07.75-.4,1.3-.74,1.22Z" transform="translate(.000008 0.000003)" fill="#37474f"/><path id="media-production-u-leg2" d="M395.41,373.94c.14.74,0,1.34-.32,1.34s-.73-.59-.91-1.32L349.24,184l8.3-1.67l37.87,191.61Z" transform="translate(0 0.000001)" fill="#37474f"/><path id="media-production-u-leg3" d="M302.87,359.54l28.91-183.46l7.61,5.21L304.15,359.6c-.2.73-.63,1.31-1,1.3s-.44-.62-.28-1.36Z" transform="translate(.000003 0)" fill="#37474f"/><path id="media-production-s-path56" d="M276.94,123.12c-1.28-.75-3.06-.65-5,.48-4.201694,2.724162-6.850706,7.290272-7.13,12.29c0,2.22.76,3.79,2,4.55.42.25,5.43,2.82,5.82,3.05c1.29.75,3.06.65,5-.48c4.199283-2.726455,6.847518-7.291226,7.13-12.29c0-2.24-.77-3.81-2-4.56-.43-.25-5.43-2.81-5.82-3.04Z" fill="#455a64"/><path id="media-production-s-path57" d="M265.62,139.25c.034151.0637.074335.123976.12.18l-.14-.19v0l.02.01Z" fill="#455a64"/><path id="media-production-s-path58" d="M270.54,138.9c0,4.53,3.17,6.37,7.1,4.11c4.199283-2.726455,6.847518-7.291226,7.13-12.29c0-4.53-3.17-6.37-7.1-4.11-4.201694,2.724162-6.850706,7.290272-7.13,12.29Z" fill="#263238"/><path id="media-production-s-path59" d="M272.44,143.39h-.07-.05l-.12-.06-.1-.06-.21-.11-.48-.27c-.56-.31-3.43-1.72-3.92-2l-.4-.22-.3-.18c-.162523-.091816-.313579-.202591-.45-.33-.07046-.051999-.134271-.112451-.19-.18-.107843-.102606-.208106-.212895-.3-.33-.040017-.050951-.076758-.104392-.11-.16-.045665-.056024-.085849-.1163-.12-.18v0c-.574654-1.020253-.855048-2.179908-.81-3.35.039614-1.611819.378716-3.202205,1-4.69.08-.2.16-.4.25-.59s.12-.3.19-.44l.21-.43c0,0,0,0,0,0l5.72,3.08c-.996304,1.879785-1.547155,3.963439-1.61,6.09-.043531,1.157921.229605,2.305784.79,3.32.279175.435374.647218.806825,1.08,1.09Z" opacity="0.15"/><path id="media-production-s-path60" d="M308.64,146.94c-.191919,3.392502-1.989665,6.490271-4.84,8.34-.649922.405046-1.394683.632612-2.16.66-.43388.000992-.860782-.109176-1.24-.32v0l-24.9-14.08h-.07c-.132238-.084733-.256128-.181836-.37-.29-.713332-.758608-1.076049-1.78147-1-2.82.191985-3.395149,1.989327-6.495935,4.84-8.35.863368-.578535,1.928959-.770631,2.94-.53.137271.042906.271006.0964.4.16v0l.13.08l24.85,14.06v0c.993083.70093,1.534879,1.879909,1.42,3.09Z" fill="#37474f"/><path id="media-production-s-path61" d="M298.39,148.61c-.442116,1.069646-.679559,2.212766-.7,3.37-.035026.841686.165862,1.676412.58,2.41l-3.22-1.86h-.07v0l-17.65-9.9-.08-.05v0l-1.71-1v0c-.981266-.716737-1.506981-1.9015-1.38-3.11.019693-1.088657.24357-2.163944.66-3.17l23.57,13.31Z" opacity="0.15"/><path id="media-production-s-path62" d="M385.11,118v0c-.036467-.411604-.292811-.771251-.67-.94l-58-33.51c-1.027897-.520356-2.242103-.520356-3.27,0l-36.58,21.12c-.379691.16766-.639576.526912-.68.94v0v14.16c.023476.433713.285286.818728.68,1l58,33.5c1.027897.520356,2.242103.520356,3.27,0l36.58-21.12c.377189-.168749.633533-.528396.67-.94v0-6.53l.26-.14c-.172761-.304806-.26242-.649647-.26-1v-6.54Zm-94.06-8.85" fill="#37474f"/><path id="media-production-s-path63" d="M286.55,106.56l58,33.51c1.027897.520356,2.242103.520356,3.27,0L384.44,119c.402777-.139404.67293-.518781.67293-.945s-.270153-.805596-.67293-.945l-58-33.51c-1.027897-.520356-2.242103-.520356-3.27,0l-36.58,21.12c-.37235.148905-.619733.505847-.628449.906773s.222922.768281.588449.933227Z" fill="#455a64"/><path id="media-production-s-path64" d="M344.59,140.06l-58-33.5c-.377189-.168749-.633533-.528396-.67-.94v14.15c.019382.432193.277663.817687.67,1l58,33.5c.499382.271602,1.061766.40616,1.63.39v-14.2c-.569088.012625-1.131405-.125367-1.63-.4Z" fill="#263238"/><path id="media-production-s-path65" d="M397.38,134.59v38.71c-.069011,1.146889-.672582,2.194808-1.63,2.83l-35.64,20.56c-1.025555.515393-2.234445.515393-3.26,0l-1-.58-2.18-1.26v-.51l-2.67-1.5-.43.25v0l-2.19-1.26-.43-.25v0l-.11-.06c-.360921-.214607-.671311-.504532-.91-.85-.237866-.298681-.420713-.637287-.54-1l-.07-.22c-.078059-.245841-.118516-.502068-.12-.76v-40.6l.26-.15l38.89-22.45c.166647.283052.404546.517502.69.68l9.69,5.59c.96503.630804,1.576426,1.679442,1.65,2.83Z" fill="#455a64"/><path id="media-production-s-path66" d="M360.11,196.69c-.494665.289885-1.056675.445041-1.63.45-.571806-.00642-1.132635-.15781-1.63-.44l-1-.58-2.18-1.26v-.51L351,192.84l-.43.25v0l-2.19-1.26-.43-.25v0c-.39025-.234194-.730147-.543501-1-.91-.237866-.298681-.420713-.637287-.54-1l-.07-.22c-.079849-.300141-.120189-.609419-.12-.92l-.16-48.06.16,6.54c-.000465.331152.08943.656155.26.94.166696.282251.400213.519201.68.69l11.8,6.81c-.290989.488579-.455937,1.041841-.48,1.61v38.7l1.63.93Z" fill="#263238"/><path id="media-production-s-path67" d="M294.25,158.78c-.968391-.626205-1.578167-1.67844-1.64-2.83v-14l56.68,32.72v15.93l-55.04-31.82Z" fill="#263238"/><path id="media-production-s-path68" d="M395.74,133.65l-35.62,20.57c-.968391.626205-1.578167,1.67844-1.64,2.83v38.7c0,1,.73,1.46,1.64.94l35.62-20.57c.970839-.62387,1.58141-1.677477,1.64-2.83v-38.7c0-1.04-.73-1.46-1.64-.94Z" fill="#37474f"/><path id="media-production-s-path69" d="M292.58,122.43c-.923352.625781-1.491959,1.655221-1.53,2.77v21c.062766,1.148753.667837,2.199275,1.63,2.83l48.84,28.2c.991586.524475,2.178414.524475,3.17,0c.919102-.665948,1.482802-1.715977,1.53-2.85v-20.94c-.062766-1.148753-.667837-2.199275-1.63-2.83l-48.84-28.13c-.988517-.520117-2.165571-.538683-3.17-.05Z" fill="#ff6366"/><path id="media-production-s-path70" d="M292.58,122.43c-.923352.625781-1.491959,1.655221-1.53,2.77v21c.062766,1.148753.667837,2.199275,1.63,2.83l48.84,28.2c.991586.524475,2.178414.524475,3.17,0c.919102-.665948,1.482802-1.715977,1.53-2.85v-20.94c-.062766-1.148753-.667837-2.199275-1.63-2.83l-48.84-28.13c-.988517-.520117-2.165571-.538683-3.17-.05Z" opacity="0.2"/><path id="media-production-s-path71" d="M292.68,124.25l48.85,28.2c.962163.630725,1.567234,1.681247,1.63,2.83v21c0,1-.73,1.46-1.64.94L292.68,149c-.962163-.630725-1.567234-1.681247-1.63-2.83v-21c0-1.01.73-1.44,1.63-.92Z" fill="#ff6366"/><path id="media-production-s-path72" d="M292.68,124.25l48.85,28.2c.962163.630725,1.567234,1.681247,1.63,2.83v21c0,1-.73,1.46-1.64.94L292.68,149c-.962163-.630725-1.567234-1.681247-1.63-2.83v-21c0-1.01.73-1.44,1.63-.92Z" opacity="0.4"/><path id="media-production-s-path73" d="M346.22,153.44v20.92c-.051554,1.132826-.614302,2.181082-1.53,2.85-.898274.486639-1.969159.538159-2.91.14.78.32,1.38-.12,1.38-1.06v-21c-.019142-.57038-.188141-1.125664-.49-1.61v0l3.1-1.78c.272896.469147.427351.997729.45,1.54Z" opacity="0.15"/><path id="media-production-s-path74" d="M310.42,138l13.36,7.71c.590161.370127.963232,1.004348,1,1.7v1.26c0,.63-.44.88-1,.57l-13.34-7.71c-.584936-.370495-.956802-.99895-1-1.69v-1.24c0-.6.44-.88.98-.6Z" fill="#e6e6e6"/><path id="media-production-s-path75" d="M309.43,161.41c-.028619-.572595-.329779-1.096836-.81-1.41l-3-1.71c-.169251-.120813-.389602-.143608-.58-.06l-1.53.89c-.169231.120865-.260802.323083-.24.53v1.65c.032544.576628.336843,1.103585.82,1.42l3,1.7c.163741.125241.38377.148402.57.06l1.54-.88c.166033-.123467.256736-.323769.24-.53l-.01-1.66Z" fill="#ff6366"/><path id="media-production-s-path76" d="M304.13,159.18l3,1.7c.480552.317497.781309.844751.81,1.42v1.7c0,.52-.36.73-.81.47l-3-1.7c-.483157-.316415-.787456-.843372-.82-1.42v-1.65c0-.57.37-.78.82-.52Z" fill="#ff6366"/><path id="media-production-s-path77" d="M309.43,161.41v1.66c.018724.206571-.072399.407802-.24.53l-1.48.85c.134453-.130174.204074-.313386.19-.5v-1.65c-.009601-.281541-.088608-.556349-.23-.8l1.53-.89c.139173.244591.21802.518841.23.8Z" opacity="0.15"/><path id="media-production-s-path78" d="M309.2,160.61l-1.53.89c-.136593-.250606-.336595-.460953-.58-.61l-3-1.71c-.157359-.110214-.357445-.139857-.54-.08.26-.15,1.35-.79,1.5-.86.175178-.106135.394822-.106135.57,0l3,1.71c.247828.165374.447842.392976.58.66Z" opacity="0.25"/><path id="media-production-s-path79" d="M318.63,166.73c-.032544-.576628-.336843-1.103585-.82-1.42l-2.95-1.7c-.167698-.124858-.390294-.147885-.58-.06l-1.54.89c-.162198.121288-.249382.318398-.23.52v1.66c.029238.574949.334736,1.100257.82,1.41l2.95,1.71c.178274.107918.401726.107918.58,0l1.53-.88c.169231-.120865.260802-.323083.24-.53v-1.6Z" fill="#ff6366"/><path id="media-production-s-path80" d="M313.33,164.49l2.95,1.71c.482818.312082.787519.836019.82,1.41v1.66c0,.52-.37.73-.82.47L313.33,168c-.485264-.309743-.790762-.835051-.82-1.41v-1.59c0-.56.36-.77.82-.51Z" fill="#ff6366"/><path id="media-production-s-path81" d="M318.63,166.73v1.65c.022975.207268-.069072.410537-.24.53l-1.48.85c.136924-.128533.207011-.312972.19-.5v-1.65c-.010948-.28269-.09353-.557966-.24-.8l1.54-.88c.140263.244131.219188.518652.23.8Z" opacity="0.15"/><path id="media-production-s-path82" d="M318.4,165.93l-1.54.88c-.136209-.250885-.336297-.461322-.58-.61l-3-1.7c-.154346-.116747-.356133-.150379-.54-.09l1.5-.86c.179988-.101588.400012-.101588.58,0l2.95,1.71c.263049.166743.479745.397197.63.67Z" opacity="0.25"/><path id="media-production-s-path83" d="M327.83,172c-.032481-.573981-.337182-1.097918-.82-1.41l-3-1.71c-.166155-.119039-.382701-.141833-.57-.06l-1.54.89c-.169231.120865-.260802.323083-.24.53v1.65c.032544.576628.336843,1.103585.82,1.42l3,1.7c.166155.119039.382701.141833.57.06l1.54-.89c.171054-.114723.263675-.315402.24-.52v-1.66Z" fill="#ff6366"/><path id="media-production-s-path84" d="M322.52,169.81l3,1.7c.480552.317497.781309.844751.81,1.42v1.65c0,.52-.36.73-.81.47l-3-1.7c-.483157-.316415-.787456-.843372-.82-1.42v-1.65c0-.52.37-.73.82-.47Z" fill="#ff6366"/><path id="media-production-s-path85" d="M327.83,172v1.66c.019244.206228-.076914.406238-.25.52l-1.48.86c.139583-.126736.210192-.312549.19-.5v-1.65c-.009601-.281541-.088608-.556349-.23-.8l1.53-.89c.141965.24401.224204.518139.24.8Z" opacity="0.15"/><path id="media-production-s-path86" d="M327.59,171.24l-1.53.89c-.133789-.252636-.334426-.463651-.58-.61l-3-1.71c-.157359-.110214-.357445-.139857-.54-.08.26-.15,1.36-.79,1.5-.86.175178-.106135.394822-.106135.57,0l3,1.71c.247828.165374.447842.392976.58.66Z" opacity="0.25"/><path id="media-production-s-path87" d="M355.85,169.69v26.43l-2.18-1.26v-.51L351,192.84l-.43.25v0l-2.19-1.26v-26.43c0-1,.74-1.47,1.63-1l4.17,2.41c.991267.6319,1.613974,1.70579,1.67,2.88Z" fill="#455a64"/><path id="media-production-s-path88" d="M353.67,185v9.33L351,192.84l-.43.25v0-9.84c0-.34.18-.51.46-.45.063066.014518.123696.038096.18.07l1.77,1c.398582.243543.655433.664183.69,1.13Z" fill="#263238"/><path id="media-production-s-path89" d="M353.67,185v9.33L351,192.84v-9.84c-.010481-.066255-.010481-.133745,0-.2.063066.014518.123696.038096.18.07l1.77,1c.410076.236546.678857.658382.72,1.13Z" fill="#37474f"/><path id="media-production-s-path90" d="M351.94,184.72l-.34.2v0c-.043078.072395-.063941.15585-.06.24.016882.366647.210788.702254.52.9.072214.044572.155148.068761.24.07v0l.33-.19v0c.112943-.074301.174738-.205614.16-.34-.021705-.365217-.214437-.69879-.52-.9-.107028-.045581-.22926-.038173-.33.02Z" fill="#ff6366"/><path id="media-production-s-path91" d="M351.94,184.72l-.34.2v0c-.043078.072395-.063941.15585-.06.24.016882.366647.210788.702254.52.9.072214.044572.155148.068761.24.07v0l.33-.19v0c.112943-.074301.174738-.205614.16-.34-.021705-.365217-.214437-.69879-.52-.9-.107028-.045581-.22926-.038173-.33.02Z" opacity="0.15"/><path id="media-production-s-path92" d="M352.49,185.85c0,.34-.23.47-.52.31-.30952-.202124-.503003-.54072-.52-.91c0-.33.23-.46.52-.3.306756.200083.499867.534313.52.9Z" fill="#ff6366"/><path id="media-production-s-path93" d="M351.7,169.4l-.74.43v.06c-.089669.165588-.134485.351745-.13.54.037742.813296.46609,1.55825,1.15,2c.159141.098629.342775.150601.53.15v.07l.75-.43v0c.232695-.171297.358061-.45242.33-.74-.035494-.811424-.459902-1.556-1.14-2-.221575-.148538-.502079-.178459-.75-.08Z" fill="#ff6366"/><path id="media-production-s-path94" d="M351.7,169.4l-.74.43v.06c-.089669.165588-.134485.351745-.13.54.037742.813296.46609,1.55825,1.15,2c.159141.098629.342775.150601.53.15v.07l.75-.43v0c.232695-.171297.358061-.45242.33-.74-.035494-.811424-.459902-1.556-1.14-2-.221575-.148538-.502079-.178459-.75-.08Z" opacity="0.15"/><path id="media-production-s-path95" d="M352.91,171.89c0,.73-.51,1-1.14.66-.681449-.444082-1.109005-1.187657-1.15-2c0-.73.52-1,1.15-.66.680098.444,1.104506,1.188576,1.14,2Z" fill="#ff6366"/><path id="media-production-s-path96" d="M351.94,188.3l-.34.19v0c-.041895.076507-.062608.162812-.06.25.020133.365687.213244.699917.52.9.072214.044572.155148.068761.24.07v0l.33-.19v0c.109558-.077189.170354-.206382.16-.34-.021705-.365217-.214437-.69879-.52-.9-.107028-.045581-.22926-.038173-.33.02Z" fill="#ff6366"/><path id="media-production-s-path97" d="M351.94,188.3l-.34.19v0c-.041895.076507-.062608.162812-.06.25.020133.365687.213244.699917.52.9.072214.044572.155148.068761.24.07v0l.33-.19v0c.109558-.077189.170354-.206382.16-.34-.021705-.365217-.214437-.69879-.52-.9-.107028-.045581-.22926-.038173-.33.02Z" opacity="0.15"/><path id="media-production-s-path98" d="M352.49,189.43c0,.34-.23.47-.52.3-.309212-.197746-.503118-.533353-.52-.9c0-.33.23-.46.52-.3.306756.200083.499867.534313.52.9Z" fill="#ff6366"/><path id="media-production-s-path99" d="M351.87,174.68l-.46.27v0c-.055815.104435-.083392.221634-.08.34.027018.497087.291149.950947.71,1.22.095459.062088.206174.096686.32.1v0l.46-.27v0c.142674-.107688.218554-.282213.2-.46-.026359-.494752-.28617-.947567-.7-1.22-.144976-.063525-.311231-.056136-.45.02Z" fill="#263238"/><path id="media-production-s-path100" d="M352.61,176.22c0,.45-.31.63-.7.41-.4168-.275651-.679765-.73121-.71-1.23c0-.45.32-.63.71-.41.415373.275619.67517.73212.7,1.23Z" fill="#37474f"/><path id="media-production-s-path101" d="M351.87,178.55l-.46.26v0c-.055815.104435-.083392.221634-.08.34.027018.497087.291149.950947.71,1.22.095459.062088.206174.096686.32.1v0l.46-.27v0c.142674-.107688.218554-.282213.2-.46-.023144-.495696-.283734-.949866-.7-1.22-.145962-.063727-.313789-.052538-.45.03Z" fill="#263238"/><path id="media-production-s-path102" d="M352.61,180.09c0,.45-.31.63-.7.41-.4168-.275651-.679765-.73121-.71-1.23c0-.45.32-.63.71-.41.415373.275619.67517.73212.7,1.23Z" fill="#37474f"/><path id="media-production-s-path103" d="M365.37,147.15c-.023172-.314895-.193703-.600349-.46-.77l-4.34-2.49c-.288461-.149441-.631539-.149441-.92,0l-6,3.44c-.266135.167002-.431236.455929-.44.77.024538.322295.203344.612854.48.78l4.32,2.48c.288461.149441.631539.149441.92,0l6-3.45c.256007-.171936.418366-.452374.44-.76Z" fill="#ff6366"/><path id="media-production-s-path104" d="M365.37,147.15c-.023172-.314895-.193703-.600349-.46-.77l-4.34-2.49c-.288461-.149441-.631539-.149441-.92,0l-6,3.44c-.266135.167002-.431236.455929-.44.77.024538.322295.203344.612854.48.78l4.32,2.48c.288461.149441.631539.149441.92,0l6-3.45c.256007-.171936.418366-.452374.44-.76Z" opacity="0.2" fill="#fff"/><path id="media-production-s-path105" d="M364.91,146.91l-6,3.44c-.288461.149441-.631539.149441-.92,0l-4.34-2.49c-.25-.15-.25-.39,0-.53l6-3.44c.288461-.149441.631539-.149441.92,0l4.34,2.49c.26.15.26.39,0,.53Z" fill="#ff6366"/><path id="media-production-s-path106" d="M364.91,146.91l-6,3.44c-.288461.149441-.631539.149441-.92,0l-4.34-2.49c-.25-.15-.25-.39,0-.53l6-3.44c.288461-.149441.631539-.149441.92,0l4.34,2.49c.26.15.26.39,0,.53Z" opacity="0.5" fill="#fff"/><path id="media-production-s-path107" d="M358,151.36l-4.32-2.48c-.276656-.167146-.455462-.457705-.48-.78.004702-.289582.145491-.560044.38-.73-.19.15-.17.35.06.49l4.34,2.49c.138975.081614.299138.119913.46.11v0v1c-.152779.00457-.304204-.029845-.44-.1Z" opacity="0.15"/><path id="media-production-s-path108" d="M363.39,145.17v1.11c-.014722.231178-.136848.442124-.33.57l-4.46,2.57c-.206194.110223-.453806.110223-.66,0L355.53,148c-.195442-.107053-.316956-.31216-.316956-.535s.121514-.427947.316956-.535l2.41-1.39c.214801-.132128.410032-.293699.58-.48l1.55-1.78c.14595-.165241.387142-.206826.58-.1l2.41,1.39c.201485.134014.324718.358074.33.6Z" fill="#ff6366"/><path id="media-production-s-path109" d="M363.39,145.17v1.11c-.014722.231178-.136848.442124-.33.57l-4.46,2.57c-.206194.110223-.453806.110223-.66,0L355.53,148c-.195442-.107053-.316956-.31216-.316956-.535s.121514-.427947.316956-.535l2.41-1.39c.214801-.132128.410032-.293699.58-.48l1.55-1.78c.14595-.165241.387142-.206826.58-.1l2.41,1.39c.201485.134014.324718.358074.33.6Z" opacity="0.3"/><path id="media-production-s-path110" d="M358.6,148.73l2.41-1.39c.211739-.132245.403651-.293855.57-.48l1.56-1.79c.063705-.068416.091875-.162619.076189-.254777s-.073437-.171735-.156189-.215223l-2.41-1.39c-.192858-.106826-.43405-.065241-.58.1l-1.55,1.78c-.169968.186301-.365199.347872-.58.48L355.53,147c-.18.1-.18.27,0,.38l2.42,1.39c.211204.087845.451161.073079.65-.04Z" fill="#ff6366"/><path id="media-production-s-path111" d="M363.06,144.6l-2.41-1.39c-.192858-.106826-.43405-.065241-.58.1l-1.55,1.78c-.086.097308-.17963.187595-.28.27l3.06,1.77c.10037-.082405.194-.172692.28-.27l1.56-1.79c.063705-.068416.091875-.162619.076189-.254777s-.073437-.171735-.156189-.215223Z" opacity="0.15"/><path id="media-production-s-path112" d="M358.24,148.8v.7c-.104532-.005152-.206782-.032419-.3-.08l-2.4-1.39c-.189761-.114002-.315489-.309989-.34-.53.016636-.196592.119074-.375859.28-.49-.12.09-.1.24.06.33l2.4,1.39c.093882.044408.196159.068272.3.07Z" opacity="0.15"/><path id="media-production-s-path113" d="M361.3,147.13l-3.06-1.77c-.094434.077632-.194734.147842-.3.21L355.53,147c-.18.1-.18.27,0,.38l2.42,1.39c.20507.100251.44493.100251.65,0l2.41-1.39.29-.25Z" opacity="0.05"/><path id="media-production-s-path114" d="M342.13,130.78v-.78h.19c.23578-.418383.581617-.76422,1-1c1.816946-.919556,3.963054-.919556,5.78,0c.420618.232823.767177.579382,1,1h.19v.78v0c-.061262.735426-.52253,1.377358-1.2,1.67-1.816946.919556-3.963054.919556-5.78,0-.669684-.298321-1.122475-.939135-1.18-1.67Z" fill="#263238"/><path id="media-production-s-path115" d="M349.11,131.67c1.6-.92,1.6-2.42,0-3.34-1.816946-.919556-3.963054-.919556-5.78,0-1.59.92-1.59,2.42,0,3.34c1.816946.919556,3.963054.919556,5.78,0Z" fill="#37474f"/><path id="media-production-s-path116" d="M343.05,129.69v-1.35h.15c.186146-.316922.456024-.576421.78-.75c1.409785-.706443,3.070215-.706443,4.48,0c.326151.174181.599122.433331.79.75h.14v1.35v0c-.051783.569746-.407506,1.066993-.93,1.3-1.409785.706443-3.070215.706443-4.48,0-.522494-.233007-.878217-.730254-.93-1.3Z" fill="#ff6366"/><path id="media-production-s-path117" d="M343.05,129.69v-1.35h.15c.186146-.316922.456024-.576421.78-.75c1.409785-.706443,3.070215-.706443,4.48,0c.326151.174181.599122.433331.79.75h.14v1.35v0c-.051783.569746-.407506,1.066993-.93,1.3-1.409785.706443-3.070215.706443-4.48,0-.522494-.233007-.878217-.730254-.93-1.3Z" opacity="0.15"/><path id="media-production-s-path118" d="M348.46,129.64c1.24-.72,1.24-1.87,0-2.59-1.409785-.706443-3.070215-.706443-4.48,0-1.24.72-1.24,1.87,0,2.59c1.409785.706443,3.070215.706443,4.48,0Z" fill="#ff6366"/><path id="media-production-s-path119" d="M358.13,126.15l-3.35,1.94c-.384586.189519-.835414.189519-1.22,0l-3.35-1.94c-.14955-.051274-.25-.191904-.25-.35s.10045-.298726.25-.35l3.35-1.93c.382272-.199202.837728-.199202,1.22,0l3.35,1.93c.14955.051274.25.191904.25.35s-.10045.298726-.25.35Z" fill="#263238"/><path id="media-production-s-path120" d="M358.13,126.15l-3.35,1.94c-.384586.189519-.835414.189519-1.22,0l-3.35-1.94l3.35-1.93c.384586-.189519.835414-.189519,1.22,0l3.35,1.93Z" fill="#37474f"/><path id="media-production-s-path121" d="M352.71,126.11v-.62h.07c.085641-.147466.21018-.268546.36-.35.649378-.320032,1.410622-.320032,2.06,0c.154043.075591.280101.198147.36.35h.07v.62v0c-.024205.263074-.188657.492542-.43.6-.647137.329508-1.412863.329508-2.06,0-.241343-.107458-.405795-.336926-.43-.6Z" fill="#ff6366"/><path id="media-production-s-path122" d="M352.71,126.11v-.62h.07c.085641-.147466.21018-.268546.36-.35.649378-.320032,1.410622-.320032,2.06,0c.154043.075591.280101.198147.36.35h.07v.62v0c-.024205.263074-.188657.492542-.43.6-.647137.329508-1.412863.329508-2.06,0-.241343-.107458-.405795-.336926-.43-.6Z" opacity="0.15"/><path id="media-production-s-path123" d="M355.2,126.09c.26089-.083526.437906-.326065.437906-.6s-.177016-.516474-.437906-.6c-.649378-.320032-1.410622-.320032-2.06,0-.26089.083526-.437906.326065-.437906.6s.177016.516474.437906.6c.649378.320032,1.410622.320032,2.06,0Z" fill="#ff6366"/><path id="media-production-s-path124" d="M364.72,122.35l-3.35,1.93c-.384586.189519-.835414.189519-1.22,0l-3.35-1.93c-.33-.2-.33-.51,0-.7l3.35-1.94c.384586-.189519.835414-.189519,1.22,0l3.35,1.94c.34.19.34.5,0,.7Z" fill="#263238"/><path id="media-production-s-path125" d="M364.72,122.35l-3.35,1.93c-.384586.189519-.835414.189519-1.22,0l-3.35-1.93l3.35-1.93c.382272-.199202.837728-.199202,1.22,0l3.35,1.93Z" fill="#37474f"/><path id="media-production-s-path126" d="M359.3,122.31v-.62h.07c.085641-.147466.21018-.268546.36-.35.647137-.329508,1.412863-.329508,2.06,0c.154043.075591.280101.198147.36.35h.07v.62v0c-.023497.26094-.188788.487734-.43.59-.647137.329508-1.412863.329508-2.06,0-.238445-.105723-.402365-.330636-.43-.59Z" fill="#ff6366"/><path id="media-production-s-path127" d="M359.3,122.31v-.62h.07c.085641-.147466.21018-.268546.36-.35.647137-.329508,1.412863-.329508,2.06,0c.154043.075591.280101.198147.36.35h.07v.62v0c-.023497.26094-.188788.487734-.43.59-.647137.329508-1.412863.329508-2.06,0-.238445-.105723-.402365-.330636-.43-.59Z" opacity="0.15"/><path id="media-production-s-path128" d="M361.79,122.28c.25323-.088125.422937-.326874.422937-.595s-.169707-.506875-.422937-.595c-.647137-.329508-1.412863-.329508-2.06,0-.25323.088125-.422937.326874-.422937.595s.169707.506875.422937.595c.647137.329508,1.412863.329508,2.06,0Z" fill="#ff6366"/><path id="media-production-s-path129" d="M392.88,152.29v0l-.39-.23c-2.29-1.2-5.39-1-8.82,1-7.07,4.06-12.81,14-12.82,22.12-.026107,1.35384.159464,2.703448.55,4c.403968,1.408225,1.19783,2.673551,2.29,3.65.24668.207587.50729.398033.78.57v0v0h.05l.22.12l8.58,5c-.356497-.221315-.691314-.475776-1-.76-1.67-1.53-2.65-4.09-2.65-7.48c0-8.15,5.76-18.06,12.83-22.12c2.94-1.68,5.64-2.1,7.8-1.41.347233.108566.68234.252662,1,.43l-8.42-4.89Z" fill="#ff6366"/><path id="media-production-s-path130" d="M392.88,152.29v0l-.39-.23c-2.29-1.2-5.39-1-8.82,1-7.07,4.06-12.81,14-12.82,22.12-.026107,1.35384.159464,2.703448.55,4c.403968,1.408225,1.19783,2.673551,2.29,3.65.24668.207587.50729.398033.78.57v0v0h.05l.22.12l8.58,5c-.356497-.221315-.691314-.475776-1-.76-1.67-1.53-2.65-4.09-2.65-7.48c0-8.15,5.76-18.06,12.83-22.12c2.94-1.68,5.64-2.1,7.8-1.41.347233.108566.68234.252662,1,.43l-8.42-4.89Z" opacity="0.25"/><path id="media-production-s-path131" d="M373.68,182.84c.244854.209903.505638.400476.78.57l-4.52-2.63v0h-.05c-2.27-1.36-3.67-4.21-3.67-8.25c0-8.15,5.76-18.05,12.83-22.11c1.719346-1.067319,3.687623-1.66711,5.71-1.74c1.166208-.010295,2.314616.286291,3.33.86l4.42,2.56c-2.29-1.2-5.39-1-8.82,1-7.07,4.06-12.81,14-12.82,22.12-.026107,1.35384.159464,2.703448.55,4c.393165,1.397293,1.177252,2.65322,2.26,3.62Z" fill="#455a64"/><path id="media-production-s-path132" d="M419.26,173.7c0,8.15-5.75,18.05-12.82,22.11-1.719346,1.067319-3.687623,1.66711-5.71,1.74-1.15871.011241-2.300074-.281859-3.31-.85v0l-13.84-8-.18-.1c-.356497-.221315-.691314-.475776-1-.76-1.67-1.53-2.65-4.09-2.65-7.48c0-8.15,5.76-18.06,12.83-22.12c2.94-1.68,5.64-2.1,7.8-1.41.347233.108566.68234.252662,1,.43h.06l.36.21l13.69,7.94v0c2.35,1.33,3.78,4.2,3.77,8.29Z" fill="#37474f"/><path id="media-production-s-path133" d="M379,185c-.062046.018056-.127954.018056-.19,0l-4.84-2.78c-.149745-.119645-.190352-.330367-.095793-.497091s.296254-.240022.475793-.172909l4.84,2.78c.183049.108619.248977.341563.15.53-.085799.096433-.211175.148058-.34.14Z" fill="#37474f"/><path id="media-production-s-path134" d="M378,181.52c-.066243-.002469-.131122-.019542-.19-.05L373,178.69c-.183895-.108546-.246301-.344798-.14-.53.050222-.090445.135148-.156504.235171-.182925s.206493-.01092.294829.042925l4.84,2.78c.14585.091787.21417.268416.168047.434458s-.195752.282129-.368047.285542h-.03Z" fill="#37474f"/><path id="media-production-s-path135" d="M377.65,178.26c-.06586.014668-.13414.014668-.2,0l-4.84-2.79c-.087682-.050241-.15174-.133339-.178012-.23092s-.012593-.201608.038012-.28908c.105124-.187537.342188-.25463.53-.15l4.84,2.79c.144584.090694.2134.264866.169852.429891s-.189344.282564-.359852.290109v-.05Z" fill="#37474f"/><path id="media-production-s-path136" d="M377.83,175.29c-.062046.018056-.127954.018056-.19,0l-4.84-2.78c-.090445-.050222-.156504-.135148-.182925-.235171s-.01092-.206493.042925-.294829c.050241-.087682.133339-.15174.23092-.178012s.201608-.012593.28908.038012l4.84,2.78c.183049.108619.248977.341563.15.53-.085799.096433-.211175.148058-.34.14Z" fill="#37474f"/><path id="media-production-s-path137" d="M378.65,172.45c-.062046.018056-.127954.018056-.19,0l-4.84-2.78c-.149745-.119645-.190352-.330367-.095793-.497091s.296254-.240022.475793-.172909l4.84,2.78c.183049.108619.248977.341563.15.53-.083898.099078-.210663.151276-.34.14Z" fill="#37474f"/><path id="media-production-s-path138" d="M379.79,169.65c-.068003.000054-.134362-.020901-.19-.06l-4.85-2.78c-.136849-.060562-.226976-.194089-.231957-.343657s.076063-.288796.208579-.358328.293135-.057104.413378.031985l4.84,2.79c.089802.048223.155733.131358.182232.229784s.01122.203424-.042232.290216c-.06545.121712-.191816.198298-.33.2Z" fill="#37474f"/><path id="media-production-s-path139" d="M381.21,166.93c-.069458-.002295-.137633-.019339-.2-.05l-4.84-2.79c-.183895-.108546-.246301-.344798-.14-.53.111894-.179416.344099-.240753.53-.14l4.84,2.79c.089802.048223.155733.131358.182232.229784s.01122.203424-.042232.290216c-.06545.121712-.191816.198298-.33.2Z" fill="#37474f"/><path id="media-production-s-path140" d="M382.88,164.36c-.07113.000198-.140725-.020681-.2-.06l-4.84-2.78c-.183895-.108546-.246301-.344798-.14-.53.111894-.179416.344099-.240753.53-.14l4.84,2.79c.144584.090694.2134.264866.169852.429891s-.189344.282564-.359852.290109Z" fill="#37474f"/><path id="media-production-s-path141" d="M384.76,162c-.06645-.001022-.131655-.018181-.19-.05l-4.85-2.79c-.178053-.108127-.239698-.337094-.14-.52.108619-.183049.341563-.248977.53-.15l4.84,2.79c.090445.050222.156504.135148.182925.235171s.01092.206493-.042925.294829c-.069505.11638-.194455.188321-.33.19Z" fill="#37474f"/><path id="media-production-s-path142" d="M386.83,159.88c-.065248.019453-.134752.019453-.2,0l-4.84-2.78c-.159691-.118316-.204866-.337794-.104883-.509559s.313139-.240871.494883-.160441l4.84,2.78c.183895.108546.246301.344798.14.53-.080766.09745-.203799.149646-.33.14Z" fill="#37474f"/><path id="media-production-s-path143" d="M389,158.1c-.062611.013523-.127389.013523-.19,0L384,155.26c-.090445-.050222-.156504-.135148-.182925-.235171s-.01092-.206493.042925-.294829c.108127-.178053.337094-.239698.52-.14l4.84,2.79c.089389.048539.155586.130889.183778.228622s.016025.202687-.033778.291378c-.073738.133157-.218206.211248-.37.2Z" fill="#37474f"/><path id="media-production-s-path144" d="M391.68,156.54c-.062611.013523-.127389.013523-.19,0l-4.84-2.79c-.090445-.050222-.156504-.135148-.182925-.235171s-.01092-.206493.042925-.294829c.078763-.192044.294147-.288747.49-.22l4.84,2.79c.089389.048539.155586.130889.183778.228622s.016025.202687-.033778.291378c-.057057.124752-.174064.211563-.31.23Z" fill="#37474f"/><path id="media-production-s-path145" d="M394.77,155.5c-.069591-.001321-.137975-.018417-.2-.05l-4.84-2.78c-.136849-.060562-.226976-.194089-.231957-.343657s.076063-.288796.208579-.358328.293135-.057104.413378.031985l4.84,2.78c.144584.090694.2134.264866.169852.429891s-.189344.282564-.359852.290109Z" fill="#37474f"/><path id="media-production-s-path146" d="M392.4,178.31c-1.161718,2.83373-1.788948,5.857993-1.85,8.92-.089516,2.228454.443766,4.437762,1.54,6.38l-8.52-4.93-.19-.11v0l-8.56-5-.21-.12h-.06v0v0l-4.53-2.63v0h-.06c-2.27-1.36-3.67-4.21-3.66-8.25.05803-2.886466.647895-5.73748,1.74-8.41l24.36,14.15Z" opacity="0.15"/><path id="media-production-s-path147" d="M414.5,160.47c-2.77-1.62-6.59-1.41-10.83,1-8.48,4.87-15.36,16.75-15.38,26.52c0,4.79,1.63,8.17,4.31,9.81.9.56,6.92,3.82,7.77,4.32c2.77,1.62,6.6,1.41,10.85-1c8.47-4.87,15.36-16.74,15.38-26.52c0-4.82-1.67-8.22-4.38-9.85-.88-.53-6.87-3.75-7.72-4.28Z" fill="#455a64"/><path id="media-production-s-path148" d="M390.07,195.27c.078507.138463.165333.272041.26.4-.1-.13-.19-.27-.29-.42v0l.03.02Z" fill="#455a64"/><path id="media-production-s-path149" d="M395.9,192.24c0,9.78,6.84,13.76,15.31,8.88s15.37-16.74,15.39-26.52-6.84-13.75-15.32-8.88-15.36,16.75-15.38,26.52Z" fill="#37474f"/><path id="media-production-s-path150" d="M404.37,199.43c-4.25,0-4.7-5-4.69-7.18c0-8.41,6.19-19.06,13.48-23.25c1.50148-.951286,3.22453-1.49577,5-1.58c4.25,0,4.7,5,4.69,7.18c0,8.41-6.19,19.06-13.49,23.25-1.502257.949615-3.224855,1.493956-5,1.58h.01Z" fill="#263238"/><path id="media-production-s-path151" d="M417.8,169.56c.000539-.702349-.046234-1.403938-.14-2.1-1.595364.174524-3.132216.70047-4.5,1.54-7.29,4.19-13.47,14.84-13.48,23.25-.000539.702349.046234,1.403938.14,2.1c1.592498-.173351,3.126345-.699436,4.49-1.54c7.3-4.19,13.47-14.81,13.49-23.25Z" fill="#ff6366"/><path id="media-production-s-path152" d="M417.8,169.56c.000539-.702349-.046234-1.403938-.14-2.1-1.595364.174524-3.132216.70047-4.5,1.54-7.29,4.19-13.47,14.84-13.48,23.25-.000539.702349.046234,1.403938.14,2.1c1.592498-.173351,3.126345-.699436,4.49-1.54c7.3-4.19,13.47-14.81,13.49-23.25Z" opacity="0.3"/><path id="media-production-s-path153" d="M409.21,173.72c2.88-3.48,6.6-4.63,7.18-3.34s-1.26,13.85-13.4,21.22c0,0,6.57-5.66,9.76-12.8c1.88-4.18.17-7.6-3.54-5.08Z" fill="#e0e0e0"/><path id="media-production-s-path154" d="M400,201.94c-.05,0-.1-.06-.16-.08l-.12-.07-.25-.14-.21-.12-.46-.24-1-.58-3.66-2-.85-.48-.66-.38c-.354339-.205597-.689074-.443259-1-.71l-.42-.39c-.228574-.226664-.439206-.470731-.63-.73-.088864-.105698-.172305-.21584-.25-.33-.094667-.127959-.181493-.261537-.26-.4v0c-1.2444-2.20034-1.850439-4.704146-1.75-7.23.072704-3.470423.784602-6.897704,2.1-10.11q.25-.66.54-1.29c.14-.31.27-.63.43-.94s.3-.62.45-.93l7.55,4.38c-2.141295,4.05896-3.328089,8.553045-3.47,13.14-.097247,2.500255.490591,4.979552,1.7,7.17.604281.983877,1.416631,1.823533,2.38,2.46Z" opacity="0.15"/><path id="media-production-s-path155" d="M331.33,99.08v-1.08h.26c.336285-.571597.824329-1.038873,1.41-1.35c2.528444-1.289373,5.521556-1.289373,8.05,0c.587554.308516,1.076241.776409,1.41,1.35h.26v1.09v0c-.096493,1.018307-.734972,1.905294-1.67,2.32-2.528444,1.289373-5.521556,1.289373-8.05,0-.937953-.416423-1.576971-1.307988-1.67-2.33Z" fill="#263238"/><path id="media-production-s-path156" d="M341.05,100.32c2.22-1.29,2.22-3.37,0-4.65-2.530771-1.27965-5.519229-1.27965-8.05,0-2.22,1.28-2.22,3.36,0,4.65c2.530771,1.27965,5.519229,1.27965,8.05,0Z" fill="#37474f"/><path id="media-production-s-path157" d="M368.34,95.62l-26-15c-1.367888-.789751-3.053244-.789544-4.420939.000542s-2.209836,2.249957-2.209061,3.829458v13.06c.034782.225273.18171.41741.39.51.598772.303261,1.307744.295798,1.9-.02.209478-.088895.354737-.283847.38-.51v-13.06c-.002131-.633497.338271-1.218683.89-1.53.547202-.330886,1.232798-.330886,1.78,0l26,15c.301885.177026.66205.225901,1.000195.13573s.62615-.311894.799805-.61573c.352045-.638373.124585-1.441172-.51-1.8Z" fill="#263238"/><path id="media-production-s-path158" d="M403.89,114.47v0c-1.63-2.8-31.46-22-39.21-26.49-1.007893-.519945-2.222836-.427083-3.14.24-2.562327,1.671873-4.174299,4.464967-4.34,7.52-.125879,1.128974.396707,2.232212,1.35,2.85c7.81,4.5,38.63,20.91,42.84,20.72.813298.000004,1.59314-.32376,2.16729-.899786s.895368-1.35692.89271-2.170214c.005174-.634369-.190883-1.25405-.56-1.77Z" fill="#ff6366"/><path id="media-production-s-path159" d="M404.32,117.1c-.87,1.22-2.4,1.85-7.22-.24-4.48-2-30.52-17.16-39.74-22.51-.098223.453472-.148499.916014-.15,1.38-.125879,1.128974.396707,2.232212,1.35,2.85c7.81,4.5,38.63,20.91,42.84,20.72c1.359368.012958,2.557547-.88978,2.92-2.2Z" opacity="0.1"/><path id="media-production-s-path160" d="M329.68,126.5c.026214-.311275.19638-.592418.46-.76l4.34-2.5c.288461-.149441.631539-.149441.92,0l3.1,1.79c.269053.16894.434567.462351.44.78-.027646.318662-.206062.60487-.48.77l-4.32,2.49c-.290684.140017-.629316.140017-.92,0l-3.08-1.8c-.266297-.169651-.436828-.455105-.46-.77Z" fill="#ff6366"/><path id="media-production-s-path161" d="M329.68,126.5c.026214-.311275.19638-.592418.46-.76l4.34-2.5c.288461-.149441.631539-.149441.92,0l3.1,1.79c.269053.16894.434567.462351.44.78-.027646.318662-.206062.60487-.48.77l-4.32,2.49c-.290684.140017-.629316.140017-.92,0l-3.08-1.8c-.266297-.169651-.436828-.455105-.46-.77Z" opacity="0.2" fill="#fff"/><path id="media-production-s-path162" d="M330.14,126.27l3.1,1.79c.288461.149441.631539.149441.92,0l4.34-2.5c.26-.14.26-.38,0-.53l-3.1-1.79c-.288461-.149441-.631539-.149441-.92,0l-4.34,2.5c-.25.14-.25.38,0,.53Z" fill="#ff6366"/><path id="media-production-s-path163" d="M330.14,126.27l3.1,1.79c.288461.149441.631539.149441.92,0l4.34-2.5c.26-.14.26-.38,0-.53l-3.1-1.79c-.288461-.149441-.631539-.149441-.92,0l-4.34,2.5c-.25.14-.25.38,0,.53Z" opacity="0.5" fill="#fff"/><path id="media-production-s-path164" d="M334.14,129.07l4.32-2.49c.273938-.16513.452354-.451338.48-.77-.005372-.287071-.141651-.555945-.37-.73.18.14.16.35-.07.48l-4.34,2.5c-.142332.072922-.300077.110643-.46.11v0v1c.15237.000624.302867-.03358.44-.1Z" opacity="0.15"/><path id="media-production-s-path165" d="M302,110.61c.026214-.311275.19638-.592418.46-.76l4.35-2.5c.290684-.140017.629316-.140017.92,0l3.09,1.79c.265202.173931.432175.463352.45.78-.04028.316966-.215195.601203-.48.78l-4.33,2.48c-.288461.149441-.631539.149441-.92,0l-3.08-1.8c-.266297-.169651-.436828-.455105-.46-.77Z" fill="#ff6366"/><path id="media-production-s-path166" d="M302,110.61c.026214-.311275.19638-.592418.46-.76l4.35-2.5c.290684-.140017.629316-.140017.92,0l3.09,1.79c.265202.173931.432175.463352.45.78-.04028.316966-.215195.601203-.48.78l-4.33,2.48c-.288461.149441-.631539.149441-.92,0l-3.08-1.8c-.266297-.169651-.436828-.455105-.46-.77Z" opacity="0.2" fill="#fff"/><path id="media-production-s-path167" d="M302.48,110.38l3.1,1.79c.288461.149441.631539.149441.92,0l4.34-2.49c.121575-.033394.205838-.143922.205838-.27s-.084263-.236606-.205838-.27l-3.09-1.79c-.290684-.140017-.629316-.140017-.92,0l-4.35,2.5c-.25.15-.25.39,0,.53Z" fill="#ff6366"/><path id="media-production-s-path168" d="M302.48,110.38l3.1,1.79c.288461.149441.631539.149441.92,0l4.34-2.49c.121575-.033394.205838-.143922.205838-.27s-.084263-.236606-.205838-.27l-3.09-1.79c-.290684-.140017-.629316-.140017-.92,0l-4.35,2.5c-.25.15-.25.39,0,.53Z" opacity="0.5" fill="#fff"/><path id="media-production-s-path169" d="M306.48,113.18l4.33-2.49c.270114-.167407.44458-.453234.47-.77-.00078-.288194-.13803-.558984-.37-.73.19.15.16.35-.07.49l-4.34,2.49c-.139839.079447-.299348.117591-.46.11v0v1c.152779.00457.304204-.029845.44-.1Z" opacity="0.15"/><path id="media-production-s-path170" d="M309.12,102.31v7l-2.75,1.59v-9.33c0-.48.34-.68.76-.44l1.99,1.18Z"/><path id="media-production-s-path171" d="M336.58,114v11.38L334,126.85l-1.77-1v-9.33c-.028653-.528061-.307197-1.010872-.75-1.3l-21.53-12.43-2.78-1.61c-.42-.24-.76,0-.76.44v9.33l-1.77-1v-11.42c-.004882-.049881-.004882-.100119,0-.15.06726-.475504.337152-.898578.74-1.16l1.12-.65c.471102-.240408,1.028898-.240408,1.5,0l27.85,16.08c.451869.301355.725228.806882.73,1.35Z" fill="#37474f"/><path id="media-production-s-path172" d="M334,115.47v11.38l-1.77-1v-9.33c-.028653-.528061-.307197-1.010872-.75-1.3l-21.53-12.43-2.78-1.61c-.42-.24-.76,0-.76.44v9.33l-1.77-1v-11.42c-.004882-.049881-.004882-.100119,0-.15.06-.37.37-.5.74-.29l27.85,16.08c.449228.285808.735246.768696.77,1.3Z" fill="#263238"/></g></g>
<script><![CDATA[
!function(t,n){"object"==typeof exports&&"undefined"!=typeof module?module.exports=n():"function"==typeof __SVGATOR_DEFINE__&&__SVGATOR_DEFINE__.amd?__SVGATOR_DEFINE__(n):((t="undefined"!=typeof globalThis?globalThis:t||self).__SVGATOR_PLAYER__=t.__SVGATOR_PLAYER__||{},t.__SVGATOR_PLAYER__["5c7f360c"]=n())}(this,(function(){"use strict";function t(t,n){var e=Object.keys(t);if(Object.getOwnPropertySymbols){var r=Object.getOwnPropertySymbols(t);n&&(r=r.filter((function(n){return Object.getOwnPropertyDescriptor(t,n).enumerable}))),e.push.apply(e,r)}return e}function n(n){for(var e=1;e<arguments.length;e++){var r=null!=arguments[e]?arguments[e]:{};e%2?t(Object(r),!0).forEach((function(t){o(n,t,r[t])})):Object.getOwnPropertyDescriptors?Object.defineProperties(n,Object.getOwnPropertyDescriptors(r)):t(Object(r)).forEach((function(t){Object.defineProperty(n,t,Object.getOwnPropertyDescriptor(r,t))}))}return n}function e(t){return(e="function"==typeof Symbol&&"symbol"==typeof Symbol.iterator?function(t){return typeof t}:function(t){return t&&"function"==typeof Symbol&&t.constructor===Symbol&&t!==Symbol.prototype?"symbol":typeof t})(t)}function r(t,n){if(!(t instanceof n))throw new TypeError("Cannot call a class as a function")}function i(t,n){for(var e=0;e<n.length;e++){var r=n[e];r.enumerable=r.enumerable||!1,r.configurable=!0,"value"in r&&(r.writable=!0),Object.defineProperty(t,r.key,r)}}function u(t,n,e){return n&&i(t.prototype,n),e&&i(t,e),t}function o(t,n,e){return n in t?Object.defineProperty(t,n,{value:e,enumerable:!0,configurable:!0,writable:!0}):t[n]=e,t}function a(t){return(a=Object.setPrototypeOf?Object.getPrototypeOf:function(t){return t.__proto__||Object.getPrototypeOf(t)})(t)}function l(t,n){return(l=Object.setPrototypeOf||function(t,n){return t.__proto__=n,t})(t,n)}function s(){if("undefined"==typeof Reflect||!Reflect.construct)return!1;if(Reflect.construct.sham)return!1;if("function"==typeof Proxy)return!0;try{return Boolean.prototype.valueOf.call(Reflect.construct(Boolean,[],(function(){}))),!0}catch(t){return!1}}function f(t,n,e){return(f=s()?Reflect.construct:function(t,n,e){var r=[null];r.push.apply(r,n);var i=new(Function.bind.apply(t,r));return e&&l(i,e.prototype),i}).apply(null,arguments)}function c(t,n){if(n&&("object"==typeof n||"function"==typeof n))return n;if(void 0!==n)throw new TypeError("Derived constructors may only return object or undefined");return function(t){if(void 0===t)throw new ReferenceError("this hasn't been initialised - super() hasn't been called");return t}(t)}function h(t,n,e){return(h="undefined"!=typeof Reflect&&Reflect.get?Reflect.get:function(t,n,e){var r=function(t,n){for(;!Object.prototype.hasOwnProperty.call(t,n)&&null!==(t=a(t)););return t}(t,n);if(r){var i=Object.getOwnPropertyDescriptor(r,n);return i.get?i.get.call(e):i.value}})(t,n,e||t)}function v(t){return function(t){if(Array.isArray(t))return y(t)}(t)||function(t){if("undefined"!=typeof Symbol&&null!=t[Symbol.iterator]||null!=t["@@iterator"])return Array.from(t)}(t)||function(t,n){if(!t)return;if("string"==typeof t)return y(t,n);var e=Object.prototype.toString.call(t).slice(8,-1);"Object"===e&&t.constructor&&(e=t.constructor.name);if("Map"===e||"Set"===e)return Array.from(t);if("Arguments"===e||/^(?:Ui|I)nt(?:8|16|32)(?:Clamped)?Array$/.test(e))return y(t,n)}(t)||function(){throw new TypeError("Invalid attempt to spread non-iterable instance.\nIn order to be iterable, non-array objects must have a [Symbol.iterator]() method.")}()}function y(t,n){(null==n||n>t.length)&&(n=t.length);for(var e=0,r=new Array(n);e<n;e++)r[e]=t[e];return r}function g(t,n,e){if(Number.isInteger(t))return t;var r=Math.pow(10,n);return Math[e]((+t+Number.EPSILON)*r)/r}Number.isInteger||(Number.isInteger=function(t){return"number"==typeof t&&isFinite(t)&&Math.floor(t)===t}),Number.EPSILON||(Number.EPSILON=2220446049250313e-31);var p=d(Math.pow(10,-6));function d(t){var n=arguments.length>1&&void 0!==arguments[1]?arguments[1]:6;return g(t,n,"round")}function m(t,n){var e=arguments.length>2&&void 0!==arguments[2]?arguments[2]:p;return Math.abs(t-n)<e}d(Math.pow(10,-2)),d(Math.pow(10,-4));var b=Math.PI/180;function w(t){return t*b}function x(t){return t/b}function _(t){return t}function A(t,n,e){var r=1-e;return 3*e*r*(t*r+n*e)+e*e*e}function k(){var t=arguments.length>0&&void 0!==arguments[0]?arguments[0]:0,n=arguments.length>1&&void 0!==arguments[1]?arguments[1]:0,e=arguments.length>2&&void 0!==arguments[2]?arguments[2]:1,r=arguments.length>3&&void 0!==arguments[3]?arguments[3]:1;return t<0||t>1||e<0||e>1?null:m(t,n)&&m(e,r)?_:function(i){if(i<=0)return t>0?i*n/t:0===n&&e>0?i*r/e:0;if(i>=1)return e<1?1+(i-1)*(r-1)/(e-1):1===e&&t<1?1+(i-1)*(n-1)/(t-1):1;for(var u,o=0,a=1;o<a;){var l=A(t,e,u=(o+a)/2);if(m(i,l))break;l<i?o=u:a=u}return A(n,r,u)}}function S(){return 1}function O(t){return 1===t?1:0}function j(){var t=arguments.length>0&&void 0!==arguments[0]?arguments[0]:1,n=arguments.length>1&&void 0!==arguments[1]?arguments[1]:0;if(1===t){if(0===n)return O;if(1===n)return S}var e=1/t;return function(t){return t>=1?1:(t+=n*e)-t%e}}var M=Math.sin,E=Math.cos,P=Math.acos,I=Math.asin,R=Math.tan,F=Math.atan2,N=Math.sqrt,T=function(){function t(){var n=arguments.length>0&&void 0!==arguments[0]?arguments[0]:1,e=arguments.length>1&&void 0!==arguments[1]?arguments[1]:0,i=arguments.length>2&&void 0!==arguments[2]?arguments[2]:0,u=arguments.length>3&&void 0!==arguments[3]?arguments[3]:1,o=arguments.length>4&&void 0!==arguments[4]?arguments[4]:0,a=arguments.length>5&&void 0!==arguments[5]?arguments[5]:0;r(this,t),this.m=[n,e,i,u,o,a],this.i=null,this.w=null,this.s=null}return u(t,[{key:"determinant",get:function(){var t=this.m;return t[0]*t[3]-t[1]*t[2]}},{key:"isIdentity",get:function(){if(null===this.i){var t=this.m;this.i=1===t[0]&&0===t[1]&&0===t[2]&&1===t[3]&&0===t[4]&&0===t[5]}return this.i}},{key:"point",value:function(t,n){var e=this.m;return{x:e[0]*t+e[2]*n+e[4],y:e[1]*t+e[3]*n+e[5]}}},{key:"translateSelf",value:function(){var t=arguments.length>0&&void 0!==arguments[0]?arguments[0]:0,n=arguments.length>1&&void 0!==arguments[1]?arguments[1]:0;if(!t&&!n)return this;var e=this.m;return e[4]+=e[0]*t+e[2]*n,e[5]+=e[1]*t+e[3]*n,this.w=this.s=this.i=null,this}},{key:"rotateSelf",value:function(){var t=arguments.length>0&&void 0!==arguments[0]?arguments[0]:0;if(t%=360){t=w(t);var n=M(t),e=E(t),r=this.m,i=r[0],u=r[1];r[0]=i*e+r[2]*n,r[1]=u*e+r[3]*n,r[2]=r[2]*e-i*n,r[3]=r[3]*e-u*n,this.w=this.s=this.i=null}return this}},{key:"scaleSelf",value:function(){var t=arguments.length>0&&void 0!==arguments[0]?arguments[0]:1,n=arguments.length>1&&void 0!==arguments[1]?arguments[1]:1;if(1!==t||1!==n){var e=this.m;e[0]*=t,e[1]*=t,e[2]*=n,e[3]*=n,this.w=this.s=this.i=null}return this}},{key:"skewSelf",value:function(t,n){if(n%=360,(t%=360)||n){var e=this.m,r=e[0],i=e[1],u=e[2],o=e[3];t&&(t=R(w(t)),e[2]+=r*t,e[3]+=i*t),n&&(n=R(w(n)),e[0]+=u*n,e[1]+=o*n),this.w=this.s=this.i=null}return this}},{key:"resetSelf",value:function(){var t=arguments.length>0&&void 0!==arguments[0]?arguments[0]:1,n=arguments.length>1&&void 0!==arguments[1]?arguments[1]:0,e=arguments.length>2&&void 0!==arguments[2]?arguments[2]:0,r=arguments.length>3&&void 0!==arguments[3]?arguments[3]:1,i=arguments.length>4&&void 0!==arguments[4]?arguments[4]:0,u=arguments.length>5&&void 0!==arguments[5]?arguments[5]:0,o=this.m;return o[0]=t,o[1]=n,o[2]=e,o[3]=r,o[4]=i,o[5]=u,this.w=this.s=this.i=null,this}},{key:"recomposeSelf",value:function(){var t=arguments.length>0&&void 0!==arguments[0]?arguments[0]:null,n=arguments.length>1&&void 0!==arguments[1]?arguments[1]:null,e=arguments.length>2&&void 0!==arguments[2]?arguments[2]:null,r=arguments.length>3&&void 0!==arguments[3]?arguments[3]:null,i=arguments.length>4&&void 0!==arguments[4]?arguments[4]:null;return this.isIdentity||this.resetSelf(),t&&(t.x||t.y)&&this.translateSelf(t.x,t.y),n&&this.rotateSelf(n),e&&(e.x&&this.skewSelf(e.x,0),e.y&&this.skewSelf(0,e.y)),!r||1===r.x&&1===r.y||this.scaleSelf(r.x,r.y),i&&(i.x||i.y)&&this.translateSelf(i.x,i.y),this}},{key:"decompose",value:function(){var t=arguments.length>0&&void 0!==arguments[0]?arguments[0]:0,n=arguments.length>1&&void 0!==arguments[1]?arguments[1]:0,e=this.m,r=e[0]*e[0]+e[1]*e[1],i=[[e[0],e[1]],[e[2],e[3]]],u=N(r);if(0===u)return{origin:{x:d(e[4]),y:d(e[5])},translate:{x:d(t),y:d(n)},scale:{x:0,y:0},skew:{x:0,y:0},rotate:0};i[0][0]/=u,i[0][1]/=u;var o=e[0]*e[3]-e[1]*e[2]<0;o&&(u=-u);var a=i[0][0]*i[1][0]+i[0][1]*i[1][1];i[1][0]-=i[0][0]*a,i[1][1]-=i[0][1]*a;var l,s=N(i[1][0]*i[1][0]+i[1][1]*i[1][1]);return 0===s?{origin:{x:d(e[4]),y:d(e[5])},translate:{x:d(t),y:d(n)},scale:{x:d(u),y:0},skew:{x:0,y:0},rotate:0}:(i[1][0]/=s,i[1][1]/=s,a/=s,i[1][1]<0?(l=x(P(i[1][1])),i[0][1]<0&&(l=360-l)):l=x(I(i[0][1])),o&&(l=-l),a=x(F(a,N(i[0][0]*i[0][0]+i[0][1]*i[0][1]))),o&&(a=-a),{origin:{x:d(e[4]),y:d(e[5])},translate:{x:d(t),y:d(n)},scale:{x:d(u),y:d(s)},skew:{x:d(a),y:0},rotate:d(l)})}},{key:"multiply",value:function(t){return this.clone().multiplySelf(t)}},{key:"preMultiply",value:function(t){return t.multiply(this)}},{key:"multiplySelf",value:function(t){var n=q(this.m,t.m),e=n.a,r=n.b,i=n.c,u=n.d,o=n.tx,a=n.ty;return this.resetSelf(e,r,i,u,o,a),this}},{key:"preMultiplySelf",value:function(t){var n=q(t.m,this.m),e=n.a,r=n.b,i=n.c,u=n.d,o=n.tx,a=n.ty;return this.resetSelf(e,r,i,u,o,a),this}},{key:"clone",value:function(){var t=this.m;return new this.constructor(t[0],t[1],t[2],t[3],t[4],t[5])}},{key:"toString",value:function(){var t=arguments.length>0&&void 0!==arguments[0]?arguments[0]:" ";if(null===this.s){var n=this.m.map((function(t){return d(t)}));1===n[0]&&0===n[1]&&0===n[2]&&1===n[3]?this.s="translate("+n[4]+t+n[5]+")":this.s="matrix("+n.join(t)+")"}return this.s}}],[{key:"create",value:function(t){return t?Array.isArray(t)?f(this,v(t)):t instanceof this?t.clone():(new this).recomposeSelf(t.origin,t.rotate,t.skew,t.scale,t.translate):new this}}]),t}();function q(t,n){return{a:t[0]*n[0]+t[2]*n[1],b:t[1]*n[0]+t[3]*n[1],c:t[0]*n[2]+t[2]*n[3],d:t[1]*n[2]+t[3]*n[3],tx:t[0]*n[4]+t[2]*n[5]+t[4],ty:t[1]*n[4]+t[3]*n[5]+t[5]}}function B(t,n,e){return t>=.5?e:n}function D(t,n,e){return 0===t||n===e?n:t*(e-n)+n}function L(t,n,e){var r=D(t,n,e);return r<=0?0:r}function C(t,n,e){var r=D(t,n,e);return r<=0?0:r>=1?1:r}function V(t,n,e){return 0===t?n:1===t?e:{x:D(t,n.x,e.x),y:D(t,n.y,e.y)}}function G(t,n,e){var r=function(t,n,e){return Math.round(D(t,n,e))}(t,n,e);return r<=0?0:r>=255?255:r}function z(t,n,e){return 0===t?n:1===t?e:{r:G(t,n.r,e.r),g:G(t,n.g,e.g),b:G(t,n.b,e.b),a:D(t,null==n.a?1:n.a,null==e.a?1:e.a)}}function Y(t,n){for(var e=[],r=0;r<t;r++)e.push(n);return e}function $(t,n){if(--n<=0)return t;var e=(t=Object.assign([],t)).length;do{for(var r=0;r<e;r++)t.push(t[r])}while(--n>0);return t}var U,Q=function(){function t(n){r(this,t),this.list=n,this.length=n.length}return u(t,[{key:"setAttribute",value:function(t,n){for(var e=this.list,r=0;r<this.length;r++)e[r].setAttribute(t,n)}},{key:"removeAttribute",value:function(t){for(var n=this.list,e=0;e<this.length;e++)n[e].removeAttribute(t)}},{key:"style",value:function(t,n){for(var e=this.list,r=0;r<this.length;r++)e[r].style[t]=n}}]),t}(),H=/-./g,J=function(t,n){return n.toUpperCase()};function Z(t){return"function"==typeof t?t:B}function K(t){return t?"function"==typeof t?t:Array.isArray(t)?function(t){var n=arguments.length>1&&void 0!==arguments[1]?arguments[1]:_;if(!Array.isArray(t))return n;switch(t.length){case 1:return j(t[0])||n;case 2:return j(t[0],t[1])||n;case 4:return k(t[0],t[1],t[2],t[3])||n}return n}(t,null):function(t,n){var e=arguments.length>2&&void 0!==arguments[2]?arguments[2]:_;switch(t){case"linear":return _;case"steps":return j(n.steps||1,n.jump||0)||e;case"bezier":case"cubic-bezier":return k(n.x1||0,n.y1||0,n.x2||0,n.y2||0)||e}return e}(t.type,t.value,null):null}function W(t,n,e){var r=arguments.length>3&&void 0!==arguments[3]&&arguments[3],i=n.length-1;if(t<=n[0].t)return r?[0,0,n[0].v]:n[0].v;if(t>=n[i].t)return r?[i,1,n[i].v]:n[i].v;var u,o=n[0],a=null;for(u=1;u<=i;u++){if(!(t>n[u].t)){a=n[u];break}o=n[u]}return null==a?r?[i,1,n[i].v]:n[i].v:o.t===a.t?r?[u,1,a.v]:a.v:(t=(t-o.t)/(a.t-o.t),o.e&&(t=o.e(t)),r?[u,t,e(t,o.v,a.v)]:e(t,o.v,a.v))}function X(t,n){var e=arguments.length>2&&void 0!==arguments[2]?arguments[2]:null;return t&&t.length?"function"!=typeof n?null:("function"!=typeof e&&(e=null),function(r){var i=W(r,t,n);return null!=i&&e&&(i=e(i)),i}):null}function tt(t,n){return t.t-n.t}function nt(t,n,r,i,u){var o,a="@"===r[0],l="#"===r[0],s=U[r],f=B;switch(a?(o=r.substr(1),r=o.replace(H,J)):l&&(r=r.substr(1)),e(s)){case"function":if(f=s(i,u,W,K,r,a,n,t),l)return f;break;case"string":f=X(i,Z(s));break;case"object":if((f=X(i,Z(s.i),s.f))&&"function"==typeof s.u)return s.u(n,f,r,a,t)}return f?function(t,n,e){if(arguments.length>3&&void 0!==arguments[3]&&arguments[3])return t instanceof Q?function(r){return t.style(n,e(r))}:function(r){return t.style[n]=e(r)};if(Array.isArray(n)){var r=n.length;return function(i){var u=e(i);if(null==u)for(var o=0;o<r;o++)t[o].removeAttribute(n);else for(var a=0;a<r;a++)t[a].setAttribute(n,u)}}return function(r){var i=e(r);null==i?t.removeAttribute(n):t.setAttribute(n,i)}}(n,r,f,a):null}function et(t,n,r,i){if(!i||"object"!==e(i))return null;var u=null,o=null;return Array.isArray(i)?o=function(t){if(!t||!t.length)return null;for(var n=0;n<t.length;n++)t[n].e&&(t[n].e=K(t[n].e));return t.sort(tt)}(i):(o=i.keys,u=i.data||null),o?nt(t,n,r,o,u):null}function rt(t,n,e){if(!e)return null;var r=[];for(var i in e)if(e.hasOwnProperty(i)){var u=et(t,n,i,e[i]);u&&r.push(u)}return r.length?r:null}function it(t,n){if(!n.settings.duration||n.settings.duration<0)return null;var e,r,i,u,o,a=function(t,n){if(!n)return null;var e=[];if(Array.isArray(n))for(var r=n.length,i=0;i<r;i++){var u=n[i];if(2===u.length){var o=null;if("string"==typeof u[0])o=t.getElementById(u[0]);else if(Array.isArray(u[0])){o=[];for(var a=0;a<u[0].length;a++)if("string"==typeof u[0][a]){var l=t.getElementById(u[0][a]);l&&o.push(l)}o=o.length?1===o.length?o[0]:new Q(o):null}if(o){var s=rt(t,o,u[1]);s&&(e=e.concat(s))}}}else for(var f in n)if(n.hasOwnProperty(f)){var c=t.getElementById(f);if(c){var h=rt(t,c,n[f]);h&&(e=e.concat(h))}}return e.length?e:null}(t,n.elements);return a?(e=a,r=n.settings,i=r.duration,u=e.length,o=null,function(t,n){var a=r.iterations||1/0,l=(r.alternate&&a%2==0)^r.direction>0?i:0,s=t%i,f=1+(t-s)/i;n*=r.direction,r.alternate&&f%2==0&&(n=-n);var c=!1;if(f>a)s=l,c=!0,-1===r.fill&&(s=r.direction>0?0:i);else if(n<0&&(s=i-s),s===o)return!1;o=s;for(var h=0;h<u;h++)e[h](s);return c}):null}function ut(t,n){for(var e=n.querySelectorAll("svg"),r=0;r<e.length;r++)if(e[r].id===t.root&&!e[r].svgatorAnimation)return e[r].svgatorAnimation=!0,e[r];return null}function ot(t){var n=function(t){return t.shadowRoot};return document?Array.from(t.querySelectorAll(":not("+["a","area","audio","br","canvas","circle","datalist","embed","g","head","hr","iframe","img","input","link","object","path","polygon","rect","script","source","style","svg","title","track","video"].join()+")")).filter(n).map(n):[]}function at(t){var n=arguments.length>1&&void 0!==arguments[1]?arguments[1]:document,e=arguments.length>2&&void 0!==arguments[2]?arguments[2]:0,r=ut(t,n);if(r)return r;if(e>=20)return null;for(var i=ot(n),u=0;u<i.length;u++){var o=at(t,i[u],e+1);if(o)return o}return null}function lt(t,n){if(U=n,!t||!t.root||!Array.isArray(t.animations))return null;var e=at(t);if(!e)return null;var r=t.animations.map((function(t){return it(e,t)})).filter((function(t){return!!t}));return r.length?{svg:e,animations:r,animationSettings:t.animationSettings,options:t.options||void 0}:null}function st(t){var n=arguments.length>1&&void 0!==arguments[1]?arguments[1]:null,e=arguments.length>2&&void 0!==arguments[2]?arguments[2]:Number,r=arguments.length>3&&void 0!==arguments[3]?arguments[3]:"undefined"!=typeof BigInt&&BigInt,i="0x"+(t.replace(/[^0-9a-fA-F]+/g,"")||27);return n&&r&&e.isSafeInteger&&!e.isSafeInteger(+i)?e(r(i))%n+n:+i}function ft(t,n,e){return!t||!e||n>t.length?t:t.substring(0,n)+ft(t.substring(n+1),e,e)}function ct(t){var n=arguments.length>1&&void 0!==arguments[1]?arguments[1]:27;return!t||t%n?t%n:[0,1].includes(n)?n:ct(t/n,n)}function ht(t,n,e){if(t&&t.length){var r=st(e),i=ct(r)+5,u=ft(t,ct(r,5),i);return u=u.replace(/\x7c$/g,"==").replace(/\x2f$/g,"="),u=function(t,n,e){var r=+("0x"+t.substring(0,4));t=t.substring(4);for(var i=st(n,r)%r+e%27,u=[],o=0;o<t.length;o+=2)if("|"!==t[o]){var a=+("0x"+t[o]+t[o+1])-i;u.push(a)}else{var l=+("0x"+t.substring(o+1,o+1+4))-i;o+=3,u.push(l)}return String.fromCharCode.apply(String,u)}(u=(u=atob(u)).replace(/[\x41-\x5A]/g,""),n,r),u=JSON.parse(u)}}var vt=[{key:"alternate",def:!1},{key:"fill",def:1},{key:"iterations",def:0},{key:"direction",def:1},{key:"speed",def:1},{key:"fps",def:100}],yt=function(){function t(n,e){var i=this,u=arguments.length>2&&void 0!==arguments[2]?arguments[2]:null;r(this,t),this._id=0,this._running=!1,this._rollingBack=!1,this._animations=n,this._settings=e,(!u||u<"2022-05-02")&&delete this._settings.speed,vt.forEach((function(t){i._settings[t.key]=i._settings[t.key]||t.def})),this.duration=e.duration,this.offset=e.offset||0,this.rollbackStartOffset=0}return u(t,[{key:"alternate",get:function(){return this._settings.alternate}},{key:"fill",get:function(){return this._settings.fill}},{key:"iterations",get:function(){return this._settings.iterations}},{key:"direction",get:function(){return this._settings.direction}},{key:"speed",get:function(){return this._settings.speed}},{key:"fps",get:function(){return this._settings.fps}},{key:"maxFiniteDuration",get:function(){return this.iterations>0?this.iterations*this.duration:this.duration}},{key:"_apply",value:function(t){for(var n=arguments.length>1&&void 0!==arguments[1]?arguments[1]:{},e=this._animations,r=e.length,i=0,u=0;u<r;u++)n[u]?i++:(n[u]=e[u](t,1),n[u]&&i++);return i}},{key:"_rollback",value:function(t){var n=this,e=1/0,r=null;this.rollbackStartOffset=t,this._rollingBack=!0,this._running=!0;this._id=window.requestAnimationFrame((function i(u){if(n._rollingBack){null==r&&(r=u);var o=Math.round(t-(u-r)*n.speed);if(o>n.duration&&e!==1/0){var a=!!n.alternate&&o/n.duration%2>1,l=o%n.duration;o=(l+=a?n.duration:0)||n.duration}var s=(n.fps?1e3/n.fps:0)*n.speed,f=Math.max(0,o);f<=e-s&&(n.offset=f,e=f,n._apply(f));var c=n.iterations>0&&-1===n.fill&&o>=n.maxFiniteDuration;(o<=0||n.offset<o||c)&&n.stop(),n._id=window.requestAnimationFrame(i)}}))}},{key:"_start",value:function(){var t=this,n=arguments.length>0&&void 0!==arguments[0]?arguments[0]:0,e=-1/0,r=null,i={};this._running=!0;var u=function u(o){null==r&&(r=o);var a=Math.round((o-r)*t.speed+n),l=(t.fps?1e3/t.fps:0)*t.speed;if(a>=e+l&&!t._rollingBack&&(t.offset=a,e=a,t._apply(a,i)===t._animations.length))return void t.pause(!0);t._id=window.requestAnimationFrame(u)};this._id=window.requestAnimationFrame(u)}},{key:"_pause",value:function(){this._id&&window.cancelAnimationFrame(this._id),this._running=!1}},{key:"play",value:function(){if(!this._running)return this._rollingBack?this._rollback(this.offset):this._start(this.offset)}},{key:"stop",value:function(){this._pause(),this.offset=0,this.rollbackStartOffset=0,this._rollingBack=!1,this._apply(0)}},{key:"reachedToEnd",value:function(){return this.iterations>0&&this.offset>=this.iterations*this.duration}},{key:"restart",value:function(){var t=arguments.length>0&&void 0!==arguments[0]&&arguments[0];this.stop(t),this.play(t)}},{key:"pause",value:function(){this._pause()}},{key:"reverse",value:function(){this.direction=-this.direction}}],[{key:"build",value:function(t,n){delete t.animationSettings,t.options=ht(t.options,t.root,"5c7f360c"),t.animations.map((function(n){n.settings=ht(n.s,t.root,"5c7f360c"),delete n.s,t.animationSettings||(t.animationSettings=n.settings)}));var e=t.version;if(!(t=lt(t,n)))return null;var r=t.options||{},i=new this(t.animations,t.animationSettings,e);return{el:t.svg,options:r,player:i}}},{key:"push",value:function(t){return this.build(t)}},{key:"init",value:function(){var t=this,n=window.__SVGATOR_PLAYER__&&window.__SVGATOR_PLAYER__["5c7f360c"];Array.isArray(n)&&n.splice(0).forEach((function(n){return t.build(n)}))}}]),t}();function gt(t){return d(t)+""}function pt(t){var n=arguments.length>1&&void 0!==arguments[1]?arguments[1]:" ";return t&&t.length?t.map(gt).join(n):""}function dt(t){return t?null==t.a||t.a>=1?function(t){if(!t)return"transparent";var n=function(t){return parseInt(t).toString(16).padStart(2,"0")};return function(t){for(var n=[],e="#"===t[0]?n.push("#"):0;e<t.length;e+=2){if(t[e]!==t[e+1])return t;n.push(t[e])}return n.join("")}("#"+n(t.r)+n(t.g)+n(t.b)+(null==t.a||t.a>=1?"":n(255*t.a)))}(t):"rgba("+t.r+","+t.g+","+t.b+","+t.a+")":"transparent"}function mt(t){return t?"url(#"+t+")":"none"}!function(){for(var t=0,n=["ms","moz","webkit","o"],e=0;e<n.length&&!window.requestAnimationFrame;++e)window.requestAnimationFrame=window[n[e]+"RequestAnimationFrame"],window.cancelAnimationFrame=window[n[e]+"CancelAnimationFrame"]||window[n[e]+"CancelRequestAnimationFrame"];window.requestAnimationFrame||(window.requestAnimationFrame=function(n){var e=Date.now(),r=Math.max(0,16-(e-t)),i=window.setTimeout((function(){n(e+r)}),r);return t=e+r,i},window.cancelAnimationFrame=window.clearTimeout)}();var bt={f:null,i:function(t,n,e){return 0===t?n:1===t?e:{x:L(t,n.x,e.x),y:L(t,n.y,e.y)}},u:function(t,n){return function(e){var r=n(e);t.setAttribute("rx",gt(r.x)),t.setAttribute("ry",gt(r.y))}}},wt={f:null,i:function(t,n,e){return 0===t?n:1===t?e:{width:L(t,n.width,e.width),height:L(t,n.height,e.height)}},u:function(t,n){return function(e){var r=n(e);t.setAttribute("width",gt(r.width)),t.setAttribute("height",gt(r.height))}}};Object.freeze({M:2,L:2,Z:0,H:1,V:1,C:6,Q:4,T:2,S:4,A:7});var xt={},_t=null;function At(t){var n=function(){if(_t)return _t;if("object"!==("undefined"==typeof document?"undefined":e(document))||!document.createElementNS)return{};var t=document.createElementNS("http://www.w3.org/2000/svg","svg");return t&&t.style?(t.style.position="absolute",t.style.opacity="0.01",t.style.zIndex="-9999",t.style.left="-9999px",t.style.width="1px",t.style.height="1px",_t={svg:t}):{}}().svg;if(!n)return function(t){return null};var r=document.createElementNS(n.namespaceURI,"path");r.setAttributeNS(null,"d",t),r.setAttributeNS(null,"fill","none"),r.setAttributeNS(null,"stroke","none"),n.appendChild(r);var i=r.getTotalLength();return function(t){var n=r.getPointAtLength(i*t);return{x:n.x,y:n.y}}}function kt(t){return xt[t]?xt[t]:xt[t]=At(t)}function St(t,n,e,r){if(!t||!r)return!1;var i=["M",t.x,t.y];if(n&&e&&(i.push("C"),i.push(n.x),i.push(n.y),i.push(e.x),i.push(e.y)),n?!e:e){var u=n||e;i.push("Q"),i.push(u.x),i.push(u.y)}return n||e||i.push("L"),i.push(r.x),i.push(r.y),i.join(" ")}function Ot(t,n,e,r){var i=arguments.length>4&&void 0!==arguments[4]?arguments[4]:1,u=St(t,n,e,r),o=kt(u);try{return o(i)}catch(t){return null}}function jt(t,n,e){return t+(n-t)*e}function Mt(t,n,e){var r=arguments.length>3&&void 0!==arguments[3]&&arguments[3],i={x:jt(t.x,n.x,e),y:jt(t.y,n.y,e)};return r&&(i.a=Et(t,n)),i}function Et(t,n){return Math.atan2(n.y-t.y,n.x-t.x)}function Pt(t,n,e,r){var i=1-r;return i*i*t+2*i*r*n+r*r*e}function It(t,n,e,r){return 2*(1-r)*(n-t)+2*r*(e-n)}function Rt(t,n,e,r){var i=arguments.length>4&&void 0!==arguments[4]&&arguments[4],u=Ot(t,n,null,e,r);return u||(u={x:Pt(t.x,n.x,e.x,r),y:Pt(t.y,n.y,e.y,r)}),i&&(u.a=Ft(t,n,e,r)),u}function Ft(t,n,e,r){return Math.atan2(It(t.y,n.y,e.y,r),It(t.x,n.x,e.x,r))}function Nt(t,n,e,r,i){var u=i*i;return i*u*(r-t+3*(n-e))+3*u*(t+e-2*n)+3*i*(n-t)+t}function Tt(t,n,e,r,i){var u=1-i;return 3*(u*u*(n-t)+2*u*i*(e-n)+i*i*(r-e))}function qt(t,n,e,r,i){var u=arguments.length>5&&void 0!==arguments[5]&&arguments[5],o=Ot(t,n,e,r,i);return o||(o={x:Nt(t.x,n.x,e.x,r.x,i),y:Nt(t.y,n.y,e.y,r.y,i)}),u&&(o.a=Bt(t,n,e,r,i)),o}function Bt(t,n,e,r,i){return Math.atan2(Tt(t.y,n.y,e.y,r.y,i),Tt(t.x,n.x,e.x,r.x,i))}function Dt(t,n,e){var r=arguments.length>3&&void 0!==arguments[3]&&arguments[3];if(Ct(n)){if(Vt(e))return Rt(n,e.start,e,t,r)}else if(Ct(e)){if(Gt(n))return Rt(n,n.end,e,t,r)}else{if(Gt(n))return Vt(e)?qt(n,n.end,e.start,e,t,r):Rt(n,n.end,e,t,r);if(Vt(e))return Rt(n,e.start,e,t,r)}return Mt(n,e,t,r)}function Lt(t,n,e){var r=Dt(t,n,e,!0);return r.a=x(function(t){return arguments.length>1&&void 0!==arguments[1]&&arguments[1]?t+Math.PI:t}(r.a)),r}function Ct(t){return!t.type||"corner"===t.type}function Vt(t){return null!=t.start&&!Ct(t)}function Gt(t){return null!=t.end&&!Ct(t)}var zt=new T;var Yt={f:gt,i:D},$t={f:gt,i:C};function Ut(t,n,e){return t.map((function(t){return function(t,n,e){var r=t.v;if(!r||"g"!==r.t||r.s||!r.v||!r.r)return t;var i=e.getElementById(r.r),u=i&&i.querySelectorAll("stop")||[];return r.s=r.v.map((function(t,n){var e=u[n]&&u[n].getAttribute("offset");return{c:t,o:e=d(parseInt(e)/100)}})),delete r.v,t}(t,0,e)}))}var Qt={gt:"gradientTransform",c:{x:"cx",y:"cy"},rd:"r",f:{x:"x1",y:"y1"},to:{x:"x2",y:"y2"}};function Ht(t,n,r,i,u,o,a,l){return Ut(t,0,l),n=function(t,n,e){for(var r,i,u,o=t.length-1,a={},l=0;l<=o;l++)(r=t[l]).e&&(r.e=n(r.e)),r.v&&"g"===(i=r.v).t&&i.r&&(u=e.getElementById(i.r))&&(a[i.r]={e:u,s:u.querySelectorAll("stop")});return a}(t,i,l),function(i){var u=r(i,t,Jt);if(!u)return"none";if("c"===u.t)return dt(u.v);if("g"===u.t){if(!n[u.r])return mt(u.r);var o=n[u.r];return function(t,n){for(var e=t.s,r=e.length;r<n.length;r++){var i=e[e.length-1].cloneNode();i.id=Wt(i.id),t.e.appendChild(i),e=t.s=t.e.querySelectorAll("stop")}for(var u=0,o=e.length,a=n.length-1;u<o;u++)e[u].setAttribute("stop-color",dt(n[Math.min(u,a)].c)),e[u].setAttribute("offset",n[Math.min(u,a)].o)}(o,u.s),Object.keys(Qt).forEach((function(t){if(void 0!==u[t])if("object"!==e(Qt[t])){var n,r="gt"===t?(n=u[t],Array.isArray(n)?"matrix("+n.join(" ")+")":""):u[t],i=Qt[t];o.e.setAttribute(i,r)}else Object.keys(Qt[t]).forEach((function(n){if(void 0!==u[t][n]){var e=u[t][n],r=Qt[t][n];o.e.setAttribute(r,e)}}))})),mt(u.r)}return"none"}}function Jt(t,e,r){if(0===t)return e;if(1===t)return r;if(e&&r){var i=e.t;if(i===r.t)switch(e.t){case"c":return{t:i,v:z(t,e.v,r.v)};case"g":if(e.r===r.r){var u={t:i,s:Zt(t,e.s,r.s),r:e.r};return e.gt&&r.gt&&(u.gt=function(t,n,e){var r=n.length;if(r!==e.length)return B(t,n,e);for(var i=new Array(r),u=0;u<r;u++)i[u]=D(t,n[u],e[u]);return i}(t,e.gt,r.gt)),e.c?(u.c=V(t,e.c,r.c),u.rd=L(t,e.rd,r.rd)):e.f&&(u.f=V(t,e.f,r.f),u.to=V(t,e.to,r.to)),u}}if("c"===e.t&&"g"===r.t||"c"===r.t&&"g"===e.t){var o="c"===e.t?e:r,a="g"===e.t?n({},e):n({},r),l=a.s.map((function(t){return{c:o.v,o:t.o}}));return a.s="c"===e.t?Zt(t,l,a.s):Zt(t,a.s,l),a}}return B(t,e,r)}function Zt(t,n,e){if(n.length===e.length)return n.map((function(n,r){return Kt(t,n,e[r])}));for(var r=Math.max(n.length,e.length),i=[],u=0;u<r;u++){var o=Kt(t,n[Math.min(u,n.length-1)],e[Math.min(u,e.length-1)]);i.push(o)}return i}function Kt(t,n,e){return{o:C(t,n.o,e.o||0),c:z(t,n.c,e.c||{})}}function Wt(t){return t.replace(/-fill-([0-9]+)$/,(function(t,n){return"-fill-"+(+n+1)}))}var Xt={fill:Ht,"fill-opacity":$t,stroke:Ht,"stroke-opacity":$t,"stroke-width":Yt,"stroke-dashoffset":{f:gt,i:D},"stroke-dasharray":{f:function(t){var n=arguments.length>1&&void 0!==arguments[1]?arguments[1]:" ";return t&&t.length>0&&(t=t.map((function(t){return d(t,4)}))),pt(t,n)},i:function(t,n,e){var r,i,u,o=n.length,a=e.length;if(o!==a)if(0===o)n=Y(o=a,0);else if(0===a)a=o,e=Y(o,0);else{var l=(u=(r=o)*(i=a)/function(t,n){for(var e;n;)e=n,n=t%n,t=e;return t||1}(r,i))<0?-u:u;n=$(n,Math.floor(l/o)),e=$(e,Math.floor(l/a)),o=a=l}for(var s=[],f=0;f<o;f++)s.push(d(L(t,n[f],e[f])));return s}},opacity:$t,transform:function(t,n,r,i){if(!(t=function(t,n){if(!t||"object"!==e(t))return null;var r=!1;for(var i in t)t.hasOwnProperty(i)&&(t[i]&&t[i].length?(t[i].forEach((function(t){t.e&&(t.e=n(t.e))})),r=!0):delete t[i]);return r?t:null}(t,i)))return null;var u=function(e,i,u){var o=arguments.length>3&&void 0!==arguments[3]?arguments[3]:null;return t[e]?r(i,t[e],u):n&&n[e]?n[e]:o};return n&&n.a&&t.o?function(n){var e=r(n,t.o,Lt);return zt.recomposeSelf(e,u("r",n,D,0)+e.a,u("k",n,V),u("s",n,V),u("t",n,V)).toString()}:function(t){return zt.recomposeSelf(u("o",t,Dt,null),u("r",t,D,0),u("k",t,V),u("s",t,V),u("t",t,V)).toString()}},r:Yt,"#size":wt,"#radius":bt,_:function(t,n){if(Array.isArray(t))for(var e=0;e<t.length;e++)this[t[e]]=n;else this[t]=n}},tn=function(t){!function(t,n){if("function"!=typeof n&&null!==n)throw new TypeError("Super expression must either be null or a function");t.prototype=Object.create(n&&n.prototype,{constructor:{value:t,writable:!0,configurable:!0}}),n&&l(t,n)}(o,t);var n,e,i=(n=o,e=s(),function(){var t,r=a(n);if(e){var i=a(this).constructor;t=Reflect.construct(r,arguments,i)}else t=r.apply(this,arguments);return c(this,t)});function o(){return r(this,o),i.apply(this,arguments)}return u(o,null,[{key:"build",value:function(t){var n=h(a(o),"build",this).call(this,t,Xt);if(!n)return null;n.el,n.options,function(t,n,e){t.play()}(n.player)}}]),o}(yt);return tn.init(),tn}));
(function(s,i,o,w,d,a,b){w[o]=w[o]||{};w[o][s]=w[o][s]||[];w[o][s].push(i);})('5c7f360c',{"root":"media-production","version":"2022-05-04","animations":[{"elements":{"media-production-u-plant-2":{"transform":{"data":{"o":{"x":74.216591,"y":329.17,"type":"corner"},"t":{"x":-74.216585,"y":-329.169999}},"keys":{"r":[{"t":0,"v":0,"e":[0.42,0,0.58,1]},{"t":1200,"v":6.50716,"e":[0.42,0,0.58,1]},{"t":3000,"v":0}],"s":[{"t":0,"v":{"x":1,"y":1},"e":[0.42,0,0.58,1]},{"t":1200,"v":{"x":1.047422,"y":1.068922},"e":[0.42,0,0.58,1]},{"t":3000,"v":{"x":1,"y":1}}]}}},"media-production-u-plant-1":{"transform":{"data":{"o":{"x":61.799656,"y":334.08002,"type":"corner"},"t":{"x":-61.799654,"y":-334.08002}},"keys":{"r":[{"t":0,"v":0,"e":[0.42,0,0.58,1]},{"t":1600,"v":10.530976,"e":[0.42,0,0.58,1]},{"t":3000,"v":0}],"s":[{"t":0,"v":{"x":1,"y":1},"e":[0.42,0,0.58,1]},{"t":1600,"v":{"x":0.793282,"y":1.100239},"e":[0.42,0,0.58,1]},{"t":3000,"v":{"x":1,"y":1}}]}}},"media-production-u-plant-22":{"transform":{"data":{"o":{"x":431.361237,"y":330.492364,"type":"corner"},"t":{"x":-431.361237,"y":-330.492361}},"keys":{"r":[{"t":0,"v":0,"e":[0.42,0,0.58,1]},{"t":1000,"v":-9.402556,"e":[0.42,0,0.58,1]},{"t":3000,"v":0}],"s":[{"t":0,"v":{"x":1,"y":1},"e":[0.42,0,0.58,1]},{"t":1000,"v":{"x":0.764106,"y":1.000713},"e":[0.42,0,0.58,1]},{"t":3000,"v":{"x":1,"y":1}}]}}},"media-production-u-plant-12":{"transform":{"data":{"o":{"x":441.529938,"y":339.13,"type":"corner"},"t":{"x":-441.529936,"y":-339.13}},"keys":{"r":[{"t":0,"v":0,"e":[0.42,0,0.58,1]},{"t":1400,"v":7.976835,"e":[0.42,0,0.58,1]},{"t":3000,"v":0}],"s":[{"t":0,"v":{"x":1,"y":1},"e":[0.42,0,0.58,1]},{"t":1400,"v":{"x":1.178888,"y":0.993197},"e":[0.42,0,0.58,1]},{"t":3000,"v":{"x":1,"y":1}}]}}},"media-production-u-left-hand":{"transform":{"data":{"o":{"x":184.402115,"y":119.567856,"type":"corner"},"t":{"x":-184.402114,"y":-119.567856}},"keys":{"r":[{"t":0,"v":-10.822551,"e":[0.42,0,0.58,1]},{"t":1000,"v":0,"e":[0.42,0,0.58,1]},{"t":3000,"v":-10.822551}]}}},"media-production-u-haed":{"transform":{"data":{"o":{"x":155.89,"y":108.38,"type":"corner"},"t":{"x":-155.889998,"y":-108.379996}},"keys":{"r":[{"t":0,"v":-10.468837,"e":[0.42,0,0.58,1]},{"t":700,"v":0,"e":[0.42,0,0.58,1]},{"t":1700,"v":10.467997,"e":[0.42,0,0.58,1]},{"t":3000,"v":-10.468837}]}}},"media-production-u-right-hand":{"transform":{"data":{"o":{"x":126.91,"y":125.08,"type":"corner"},"t":{"x":-126.91,"y":-125.08}},"keys":{"r":[{"t":0,"v":11.465222,"e":[0.42,0,0.58,1]},{"t":730,"v":3.09561,"e":[0.42,0,0.58,1]},{"t":1000,"v":0,"e":[0.42,0,0.58,1]},{"t":3000,"v":11.465222}]}}},"media-production-u-freepik-speech-bubble-inject-99":{"transform":{"data":{"t":{"x":-205.369997,"y":-89.13503}},"keys":{"o":[{"t":0,"v":{"x":205.37,"y":89.135033,"type":"corner"},"e":[0.42,0,0.58,1]},{"t":600,"v":{"x":205.37,"y":71.169156,"type":"corner"},"e":[0.42,0,0.58,1]},{"t":1400,"v":{"x":205.37,"y":89.135033,"type":"corner"},"e":[0.42,0,0.58,1]},{"t":2200,"v":{"x":205.37,"y":71.934501,"type":"corner"},"e":[0.42,0,0.58,1]},{"t":3000,"v":{"x":205.37,"y":89.135033,"type":"corner"}}],"s":[{"t":0,"v":{"x":0,"y":0},"e":[0.175,0.885,0.32,1.275]},{"t":500,"v":{"x":1,"y":1},"e":[0.6,-0.28,0.735,0.045]},{"t":2500,"v":{"x":1,"y":1},"e":[0.6,-0.28,0.735,0.045]},{"t":3000,"v":{"x":0,"y":0}}]}}},"media-production-u-freepik-video-camera-inject-99":{"transform":{"data":{"t":{"x":-345.702682,"y":-247.017769}},"keys":{"o":[{"t":0,"v":{"x":345.702683,"y":216.610048,"type":"corner"},"e":[0.42,0,0.58,1]},{"t":1000,"v":{"x":345.702682,"y":247.017769,"type":"corner"},"e":[0.42,0,0.58,1]},{"t":2000,"v":{"x":345.702682,"y":268.485493,"type":"corner"},"e":[0.42,0,0.58,1]},{"t":2500,"v":{"x":345.702682,"y":247.017769,"type":"corner"},"e":[0.42,0,0.58,1]},{"t":3000,"v":{"x":345.702683,"y":216.610048,"type":"corner"}}]}}},"media-production-u-leg":{"transform":{"data":{"o":{"x":344,"y":187.822693,"type":"corner"},"t":{"x":-343.999992,"y":-187.82269}},"keys":{"r":[{"t":1000,"v":0,"e":[0.42,0,0.58,1]},{"t":2000,"v":2.898007,"e":[0.42,0,0.58,1]},{"t":2500,"v":0,"e":[0.68,-0.55,0.265,1.55]}]}}},"media-production-u-leg2":{"transform":{"data":{"o":{"x":356.552551,"y":197.14,"type":"corner"},"t":{"x":-356.552551,"y":-197.139999}},"keys":{"r":[{"t":1000,"v":0,"e":[0.42,0,0.58,1]},{"t":2000,"v":-9.160629,"e":[0.42,0,0.58,1]},{"t":2500,"v":0,"e":[0.68,-0.55,0.265,1.55]}]}}},"media-production-u-leg3":{"transform":{"data":{"o":{"x":334.323761,"y":181.29493,"type":"corner"},"t":{"x":-334.323758,"y":-181.29493}},"keys":{"r":[{"t":1000,"v":0,"e":[0.42,0,0.58,1]},{"t":2000,"v":7.698759,"e":[0.42,0,0.58,1]},{"t":2500,"v":0,"e":[0.68,-0.55,0.265,1.55]}]}}}},"s":"MWDA1ZDhmMzY3ODg5ODAY3NTg4N2Q4MzgyMzYX0ZUY0N1hDNDQ0NDQ0NNDBRMzY3ODdkTzg2NMzk3Nzg4N2Q4MzgyMzPY0ZTQ1NDBJMzY3ZDgQ4Nzk4Njc1ODhSN2Q4YM044Mjg3MzY0ZTQ0NFDAzNlc3YTdkODBOODIAzNjRlNDU0MDM2NzUU4MDg4NzlSODY4Mjc1SODg3OTM2NGU3YTc1OTDBTODdLNzk0MDM2ODKc4NDc5Nzk3ODM2NGUK0NTQwMzY3YTg0ODczXNjRlNDU0NE00NDkx"}],"options":"MFDAxMDkzM2E4YjhjNzWk4YUs4YzNhNTIzYVAI4NDg3Nzk3YzNhOTU/S"},'__SVGATOR_PLAYER__',window,document)
]]></script>
</svg>
