<svg xmlns="http://www.w3.org/2000/svg" viewBox="0 0 500 500"><g id="freepik--Floor--inject-63"><path id="freepik--floor--inject-63" d="M86.21,259.28c-90.46,52.23-90.46,136.91,0,189.13s237.13,52.23,327.58,0,90.46-136.9,0-189.13S176.66,207.06,86.21,259.28Z" style="fill:#f5f5f5"></path></g><g id="freepik--Shadows--inject-63"><path id="freepik--Shadow--inject-63" d="M449.1,388.52h0a8.14,8.14,0,0,0-.85-.08h-.08a4.41,4.41,0,0,0-.73,0l-.22,0a3.47,3.47,0,0,0-.56.11l-.2.06a3,3,0,0,0-.65.27h0l-3.54,2c-3.91-1.17-8.48-1-11.38.7h0l-90.57,52.18a4.11,4.11,0,0,0-1.14.41l-3.68,2.13h0c-2.75,1.58-9.35,9.21-9.72,12.31h0a.8.8,0,0,0,.11.49,2.13,2.13,0,0,0,.43.5l-4.42,2.45c-.47.26-.42.73.1,1a2,2,0,0,0,1.8.09l4.42-2.46a6.15,6.15,0,0,0,.9.27,4.57,4.57,0,0,0,1,.11c5.32-.2,18.42-3.94,21.31-5.55l.07,0,3.68-2.14a1.86,1.86,0,0,0,.69-.64l90.57-52.18h0c2.85-1.65,3.23-4.24,1.32-6.47l3.59-2.06h0c1.32-.76,1.16-2.09-.36-3A5.57,5.57,0,0,0,449.1,388.52Z" style="fill:#e0e0e0"></path><ellipse id="freepik--shadow--inject-63" cx="433.13" cy="368.74" rx="56.24" ry="34.58" style="fill:#e0e0e0"></ellipse><path id="freepik--shadow--inject-63" d="M309.64,260.18l-16.73-9.66a4,4,0,0,0-3.62,0l-210,121.26a1.1,1.1,0,0,0,0,2.09l16.9,9.83a4,4,0,0,0,3.61,0l35.54-20.56a14.73,14.73,0,0,0,1.57,1L164.1,379.9a26.21,26.21,0,0,0,24.12,0l52.53-30.33c3.9-2.25,6.13-5.61,6.13-9.21s-2.23-7-6.13-9.21l-25.1-14.5,94-54.38A1.1,1.1,0,0,0,309.64,260.18Z" style="fill:#e0e0e0"></path><path id="freepik--shadow--inject-63" d="M307.24,324.41a3.36,3.36,0,0,1-3.26-2.7l-.56-2.91c-1.27-.25-2.52-.56-3.71-.92l-5.66,2.62a3.86,3.86,0,0,1-1.6.34,3.92,3.92,0,0,1-1.94-.5L284.72,317a2.87,2.87,0,0,1-.25-4.89l3-2.19c-.14-.21-.28-.42-.41-.63l-7.08-.45a3.23,3.23,0,0,1-3-3.22V301.3a3.23,3.23,0,0,1,3-3.21l7.08-.45c.13-.21.27-.42.41-.63l-3-2.19a2.87,2.87,0,0,1,.25-4.9l5.79-3.34a4,4,0,0,1,1.94-.5,3.82,3.82,0,0,1,1.6.34l5.66,2.62c1.19-.36,2.44-.67,3.71-.92l.56-2.91a3.37,3.37,0,0,1,3.26-2.71h8.52a3.38,3.38,0,0,1,3.27,2.71l.55,2.91a37.24,37.24,0,0,1,3.71.92l5.67-2.62a3.78,3.78,0,0,1,1.59-.34,3.9,3.9,0,0,1,1.94.5l5.8,3.34a2.88,2.88,0,0,1,.25,4.9l-3,2.19c.14.21.28.42.41.63l7.08.45a3.23,3.23,0,0,1,3,3.21v4.31a3.23,3.23,0,0,1-3,3.22l-7.08.45c-.13.21-.27.42-.41.63l3,2.19a2.9,2.9,0,0,1,1.25,2.52,2.93,2.93,0,0,1-1.49,2.37l-5.8,3.35a3.89,3.89,0,0,1-1.93.5h0a3.82,3.82,0,0,1-1.6-.34l-5.67-2.62a37.24,37.24,0,0,1-3.71.92l-.55,2.91a3.37,3.37,0,0,1-3.27,2.7Zm4.26-26.49a17.67,17.67,0,0,0-8.56,2c-1.8,1-2.83,2.32-2.83,3.53s1,2.49,2.83,3.53a19.25,19.25,0,0,0,17.13,0c1.8-1,2.83-2.33,2.83-3.53s-1-2.49-2.83-3.53A17.71,17.71,0,0,0,311.5,297.92Z" style="fill:#e0e0e0"></path><path id="freepik--shadow--inject-63" d="M370.34,338.64a2.61,2.61,0,0,1-.4,0L364.3,338a3.64,3.64,0,0,1-2.52-1.38,3.7,3.7,0,0,1-.79-2.77l.1-.87c-.47-.18-.94-.36-1.39-.56,0,0,0,0,0,0h-.07l-4.27,1.34a4.31,4.31,0,0,1-1.3.19,4.8,4.8,0,0,1-3-1l-2.87-2.39a3.34,3.34,0,0,1,.65-5.66l1-.49-2.64-.45a3.59,3.59,0,0,1-2.84-4.65l.78-2.49A4.14,4.14,0,0,1,349,314l4.78.19-.61-.65a3.37,3.37,0,0,1,1.22-5.54l4.5-1.8a4.44,4.44,0,0,1,1.68-.31,4.81,4.81,0,0,1,2.62.75l2.93,1.94h0c.85-.15,1.71-.26,2.57-.34l.87-1.7a4.34,4.34,0,0,1,3.78-2.28l.4,0,5.63.59a3.73,3.73,0,0,1,3.32,4.16l-.11.87c.48.17.95.36,1.4.55,0,0,0,0,0,0H384l4.28-1.34a4.59,4.59,0,0,1,1.3-.19,4.75,4.75,0,0,1,3,1l2.88,2.4a3.34,3.34,0,0,1-.66,5.65l-1,.49,2.64.45a3.6,3.6,0,0,1,2.85,4.65l-.78,2.49a4.15,4.15,0,0,1-3.88,2.84l-4.79-.19.62.66a3.43,3.43,0,0,1,.89,3.1,3.47,3.47,0,0,1-2.11,2.43l-4.51,1.8a4.41,4.41,0,0,1-1.68.31,4.73,4.73,0,0,1-2.62-.75l-2.92-1.94h0c-.83.14-1.69.25-2.56.33l-.87,1.7A4.35,4.35,0,0,1,370.34,338.64ZM371.83,318a13.75,13.75,0,0,0-5.1.91c-2,.79-2.8,1.8-2.9,2.42s.54,1.25.92,1.57a11.73,11.73,0,0,0,7.1,2A13.79,13.79,0,0,0,377,324c2-.79,2.8-1.8,2.89-2.42s-.53-1.24-.92-1.56A11.63,11.63,0,0,0,371.83,318Z" style="fill:#e0e0e0"></path><path id="freepik--shadow--inject-63" d="M111,459.05a.84.84,0,0,0-.08-1.51,1.1,1.1,0,0,1,.58-1l42.85-24.74a1.6,1.6,0,0,1,1.55,0l8.87,5.13a1.09,1.09,0,0,1,.58.94,1.08,1.08,0,0,1-.58.94l-7,4,6.51-2.17a1.82,1.82,0,0,1,.52-.08,1.42,1.42,0,0,1,1,.39l6.28,6.28a1,1,0,0,1,.29,1,1.16,1.16,0,0,1-.8.82l-10.87,3.62,10-1.55.25,0a1.32,1.32,0,0,1,1.25.71l3.25,7a1,1,0,0,1,0,.92,1.29,1.29,0,0,1-1,.64L116,469.5a1.14,1.14,0,0,1-.26,0,1.34,1.34,0,0,1-1.25-.7l-3.25-7a1.08,1.08,0,0,1,0-.93,1.15,1.15,0,0,1,.45-.45l-.4-.4A1.07,1.07,0,0,1,111,459.05Z" style="fill:#e0e0e0"></path><path id="freepik--shadow--inject-63" d="M92.88,460.35c-8.79,5.08-23.06,5.08-31.86,0S52.23,447,61,442s23.07-5.08,31.86,0S101.68,455.27,92.88,460.35Z" style="fill:#e0e0e0"></path><ellipse id="freepik--shadow--inject-63" cx="112.82" cy="436.83" rx="22.53" ry="13.01" style="fill:#e0e0e0"></ellipse><path id="freepik--shadow--inject-63" d="M155.52,420.42l143.3-82.73a5.34,5.34,0,0,1,4.86,0L390,387.52c1.34.77,1.34,2,0,2.81L246.7,473.06a5.4,5.4,0,0,1-4.86,0l-86.32-49.83C154.18,422.45,154.18,421.19,155.52,420.42Z" style="fill:#e0e0e0"></path></g><g id="freepik--device-3--inject-63"><g id="freepik--Pen--inject-63"><path d="M449,386.94a2.76,2.76,0,0,0-2.77-4.78h0l-4.2,2.45a1.37,1.37,0,0,0-.57,1.26,4.3,4.3,0,0,0,2,3.38,1.38,1.38,0,0,0,1.38.14l4.2-2.45Z" style="fill:#455a64"></path><path d="M443.44,389.25a1.38,1.38,0,0,0,1.38.14l4.2-2.45h0a2.76,2.76,0,0,0,1.37-2.31h0c-.13.77-3.08,2.49-4.41,3.26s-2.5.85-3.73-1.07c-.89-1.4-.31-2.09.07-2.37l-.27.16a1.37,1.37,0,0,0-.57,1.26A4.3,4.3,0,0,0,443.44,389.25Z" style="fill:#37474f"></path><path d="M441.73,397A7.77,7.77,0,1,0,434,383.57h0a3.88,3.88,0,0,0-1.61,3.56,12.15,12.15,0,0,0,5.51,9.51,3.83,3.83,0,0,0,3.88.38Z" style="fill:#FF6366"></path><path d="M341.61,439.62a12.12,12.12,0,0,0,5.5,9.51,3.87,3.87,0,0,0,3.89.39L441.73,397a3.83,3.83,0,0,0,1.61-3.55,12.15,12.15,0,0,0-5.5-9.51,3.87,3.87,0,0,0-3.89-.39l-90.73,52.5A3.83,3.83,0,0,0,341.61,439.62Z" style="fill:#FF6366"></path><path d="M341.61,439.62a12.12,12.12,0,0,0,5.5,9.51,3.87,3.87,0,0,0,3.89.39L441.73,397a3.83,3.83,0,0,0,1.61-3.55,12.15,12.15,0,0,0-5.5-9.51,3.87,3.87,0,0,0-3.89-.39l-90.73,52.5A3.83,3.83,0,0,0,341.61,439.62Z" style="fill:#fff;opacity:0.35000000000000003"></path><path d="M341.61,439.62a3.83,3.83,0,0,1,1.61-3.55l1.08-.63a4.7,4.7,0,0,1,3,.73,12.5,12.5,0,0,1,5.64,9.79,4.75,4.75,0,0,1-.85,2.93l-1.08.63a3.87,3.87,0,0,1-3.89-.39A12.12,12.12,0,0,1,341.61,439.62Z" style="fill:#FF6366"></path><path d="M358,433.86l16.64-9.63a1,1,0,0,1,1.41.38l.73,1.29a1,1,0,0,1-.38,1.42L359.73,437a1,1,0,0,1-1.41-.38l-.73-1.29A1,1,0,0,1,358,433.86Z" style="fill:#FF6366"></path><path d="M358,433.86l16.64-9.63a1,1,0,0,1,1.41.38l.73,1.29a1,1,0,0,1-.38,1.42L359.73,437a1,1,0,0,1-1.41-.38l-.73-1.29A1,1,0,0,1,358,433.86Z" style="opacity:0.35000000000000003"></path><polygon points="364.43 434.06 362.8 431.19 363.31 430.91 364.95 433.79 364.43 434.06" style="opacity:0.35000000000000003"></polygon><path d="M342.8,451.79a12.5,12.5,0,0,1-5.64-9.78c0-1.8.64-3.07,1.66-3.66l3.7-2.13c1-.59,2.43-.5,4,.4a12.5,12.5,0,0,1,5.64,9.79,4,4,0,0,1-1.66,3.65l-3.69,2.13A4,4,0,0,1,342.8,451.79Z" style="fill:#FF6366"></path><path d="M342.8,451.79a12.5,12.5,0,0,1-5.64-9.78c0-1.8.64-3.07,1.66-3.66l3.7-2.13c1-.59,2.43-.5,4,.4a12.5,12.5,0,0,1,5.64,9.79,4,4,0,0,1-1.66,3.65l-3.69,2.13A4,4,0,0,1,342.8,451.79Z" style="fill:#fff;opacity:0.35000000000000003"></path><path d="M326.13,453.11a2,2,0,0,1,.09-.73c1.6-3.79,9.73-12.31,12.54-14l.06,0c1-.59,2.44-.5,4,.4a12.48,12.48,0,0,1,5.63,9.79,4,4,0,0,1-1.64,3.64h0c-2.74,1.58-14.3,4.44-18.42,3.93h0a1.56,1.56,0,0,1-.61-.2A3.6,3.6,0,0,1,326.13,453.11Z" style="fill:#FF6366"></path><path d="M321.62,457.72h0a1,1,0,0,0,1.32.33l4.75-2.85a1,1,0,0,0,.33-1.32h0a1,1,0,0,0-1.31-.33L322,456.41A1,1,0,0,0,321.62,457.72Z"></path></g></g><g id="freepik--device-2--inject-63"><g id="freepik--Tablet--inject-63"><g id="freepik--tablet--inject-63"><path d="M157.89,411.51l139.35-80.45a5.23,5.23,0,0,1,4.72,0l83.94,48.46a5.22,5.22,0,0,1,2.36,4.09v.94a5.25,5.25,0,0,1-2.36,4.1L246.55,469.1a5.25,5.25,0,0,1-4.73,0l-83.93-48.46a5.25,5.25,0,0,1-2.36-4.09v-.95A5.23,5.23,0,0,1,157.89,411.51Z" style="fill:#263238"></path><path d="M244.19,463.27v6.39a4.87,4.87,0,0,1-2.36-.56l-83.93-48.46a5.27,5.27,0,0,1-2.37-4.09v-.95a5.29,5.29,0,0,1,1.93-3.79c-.85.75-.71,1.77.43,2.43l83.93,48.46a4.8,4.8,0,0,0,2.37.56Z" style="fill:#37474f"></path><path d="M157.89,411.51l139.35-80.45a5.23,5.23,0,0,1,4.72,0l83.94,48.46c1.3.75,1.3,2,0,2.73L246.55,462.7a5.23,5.23,0,0,1-4.72,0l-83.94-48.46C156.59,413.49,156.59,412.26,157.89,411.51Z" style="fill:#455a64"></path><path d="M205.67,419.21l-6.09,3.51a1.21,1.21,0,0,1-1.11,0l-2.64-1.52c-.32-.19-.36-.48-.08-.64l6.09-3.52a1.25,1.25,0,0,1,1.11.05l2.64,1.52C205.92,418.76,206,419.05,205.67,419.21Z" style="fill:#37474f"></path><path d="M199.56,415.68l-6.09,3.52a1.23,1.23,0,0,1-1.1-.05l-2.64-1.52c-.33-.19-.37-.47-.08-.64l6.09-3.51a1.21,1.21,0,0,1,1.11,0l2.63,1.52C199.81,415.23,199.85,415.52,199.56,415.68Z" style="fill:#37474f"></path><path d="M193.46,412.16l-6.09,3.51a1.21,1.21,0,0,1-1.11,0l-2.64-1.52c-.33-.19-.36-.48-.08-.64l6.09-3.52a1.25,1.25,0,0,1,1.11.05l2.64,1.52C193.7,411.71,193.74,412,193.46,412.16Z" style="fill:#37474f"></path><path d="M205.93,422.87c-5.77,3.33-5.77,8.73,0,12.06s15.12,3.34,20.88,0,5.77-8.73,0-12.06S211.7,419.54,205.93,422.87Z" style="fill:#37474f"></path><path d="M211.79,426.26c-2.53,1.46-2.53,3.83,0,5.29a10.15,10.15,0,0,0,9.17,0c2.53-1.46,2.53-3.83,0-5.29A10.15,10.15,0,0,0,211.79,426.26Z" style="fill:#263238"></path><path d="M197.67,428.48a.45.45,0,0,1,0,.85,1.63,1.63,0,0,1-1.46,0,.45.45,0,0,1,0-.85A1.63,1.63,0,0,1,197.67,428.48Z" style="fill:#FF6366"></path><path d="M215.64,418.11a1.63,1.63,0,0,0,1.46,0c.41-.24.41-.61,0-.84a1.57,1.57,0,0,0-1.46,0C215.24,417.5,215.24,417.87,215.64,418.11Z" style="fill:#fafafa"></path><path d="M217.1,439.7a1.63,1.63,0,0,0-1.46,0,.44.44,0,0,0,0,.84,1.57,1.57,0,0,0,1.46,0A.44.44,0,0,0,217.1,439.7Z" style="fill:#fafafa"></path><path d="M235.07,429.33a.45.45,0,0,1,0-.85,1.63,1.63,0,0,1,1.46,0,.45.45,0,0,1,0,.85A1.63,1.63,0,0,1,235.07,429.33Z" style="fill:#fafafa"></path><path d="M249.2,444.34l-6.09,3.52a1.25,1.25,0,0,1-1.11-.05l-2.63-1.52c-.33-.19-.37-.48-.08-.64l6.09-3.52a1.23,1.23,0,0,1,1.1.05l2.64,1.52C249.45,443.89,249.48,444.18,249.2,444.34Z" style="fill:#37474f"></path><path d="M243.09,440.82,237,444.33a1.21,1.21,0,0,1-1.11,0l-2.64-1.53c-.33-.18-.36-.47-.08-.64l6.09-3.51a1.25,1.25,0,0,1,1.11.05l2.64,1.52C243.34,440.37,243.38,440.65,243.09,440.82Z" style="fill:#37474f"></path><path d="M237,437.29l-6.09,3.52a1.25,1.25,0,0,1-1.11-.05l-2.63-1.52c-.33-.19-.37-.48-.08-.64l6.08-3.52a1.25,1.25,0,0,1,1.11.05l2.64,1.52C237.24,436.84,237.27,437.13,237,437.29Z" style="fill:#37474f"></path><polygon points="200.15 400.27 299.94 342.65 365.82 380.69 266.03 438.3 200.15 400.27" style="fill:#37474f"></polygon><path d="M303.79,351.07a.23.23,0,0,1-.11,0l-3.74-2.16L296.2,351a.23.23,0,0,1-.3-.08.22.22,0,0,1,.08-.29l3.85-2.22a.22.22,0,0,1,.22,0l3.85,2.22a.22.22,0,0,1,.08.29A.23.23,0,0,1,303.79,351.07Z" style="fill:#e0e0e0"></path><path d="M214.36,402.7a.2.2,0,0,1-.11,0l-3.85-2.22a.21.21,0,0,1-.11-.18.21.21,0,0,1,.11-.19l3.85-2.22a.21.21,0,0,1,.21.37l-3.53,2,3.53,2a.21.21,0,0,1,.08.3A.22.22,0,0,1,214.36,402.7Z" style="fill:#e0e0e0"></path><path d="M351.63,383.13a.23.23,0,0,1-.19-.1.22.22,0,0,1,.08-.3l3.53-2-3.53-2a.21.21,0,0,1-.08-.29.21.21,0,0,1,.29-.08l3.85,2.22a.21.21,0,0,1,.11.19.21.21,0,0,1-.11.18l-3.85,2.22A.19.19,0,0,1,351.63,383.13Z" style="fill:#e0e0e0"></path><path d="M266,432.54a.19.19,0,0,1-.1,0l-3.85-2.22a.21.21,0,1,1,.21-.37l3.74,2.16,3.75-2.16a.21.21,0,0,1,.21.37l-3.85,2.22A.2.2,0,0,1,266,432.54Z" style="fill:#e0e0e0"></path><polygon points="309.79 335.62 165.75 418.78 166.92 419.45 310.95 336.29 309.79 335.62" style="fill:#263238"></polygon><polygon points="376.83 374.33 232.8 457.49 233.97 458.16 378 375 376.83 374.33" style="fill:#263238"></polygon></g></g></g><g id="freepik--device-1--inject-63"><g id="freepik--Monitor--inject-63"><path d="M238.8,330.85l-27.22-15.71c-5.58-3.23-15-4-21-1.65l-16.15,6.22a92.94,92.94,0,0,0-20.08,11.42l-16.44,12.95a8.24,8.24,0,0,0-3.53,6.33c0,.63,0,3.12,0,3.76,0,2.5,1.52,4.93,4.47,6.63L166,376.51c5.59,3.23,14.65,3.23,20.24,0l52.52-30.32c2.81-1.62,4.19-3.75,4.18-5.87,0-.6,0-3,0-3.63C243,334.58,241.6,332.47,238.8,330.85Z" style="fill:#e6e6e6"></path><path d="M134.36,354.17c0,2.5,1.52,4.93,4.47,6.63L166,376.51a20.75,20.75,0,0,0,10.12,2.42v-3.88l-41.8-24.14C134.36,351.87,134.35,353.65,134.36,354.17Z" style="fill:#e0e0e0"></path><path d="M134.36,354.17c0,2.5,1.52,4.93,4.47,6.63L166,376.51a20.75,20.75,0,0,0,10.12,2.42v-3.88l-41.8-24.14C134.36,351.87,134.35,353.65,134.36,354.17Z" style="opacity:0.1"></path><path d="M190.56,313.49l-16.15,6.22a92.94,92.94,0,0,0-20.08,11.42l-16.44,12.95c-5.07,4-4.65,9.84.94,13.06L166,372.86c5.59,3.22,14.65,3.22,20.24,0l52.52-30.33c5.59-3.22,5.59-8.45,0-11.68l-27.22-15.71C206,311.91,196.59,311.18,190.56,313.49Z" style="fill:#f0f0f0"></path><path d="M211.58,315.14c-5.58-3.23-15-4-21-1.65l-16.15,6.22a92.94,92.94,0,0,0-20.08,11.42l-16.44,12.95a8.24,8.24,0,0,0-3.53,6.33c0,.63,0,3.12,0,3.76,0,2.5,1.52,4.93,4.47,6.63L154,369.55v-3.64l72.77-42Z" style="opacity:0.1"></path><path d="M186.08,331.66c0-8,2.51-33.29,7.78-39.2L177,290.6c-8.29,8.76-18.21,29.68-24.21,41.74,0,0,4.94,2,11,4.53s14.59,2.53,19,0a5.84,5.84,0,0,0,3.27-5.2Z" style="fill:#e0e0e0"></path><path d="M186.08,331.66c0-8,2.51-33.29,7.78-39.2L177,290.6c-8.29,8.76-18.21,29.68-24.21,41.74,0,0,4.94,2,11,4.53s14.59,2.53,19,0a5.84,5.84,0,0,0,3.27-5.2Z" style="opacity:0.1"></path><path d="M182.93,293c3.27,1.35,7.82,1.35,10.16,0s2.34-4,0-5.88l-4.23-3.42A48.55,48.55,0,0,0,177,290.6Z" style="fill:#e0e0e0"></path><path d="M90.77,371.22a9.62,9.62,0,0,0,8.69-.16c30.91-17.84,173.07-99.94,204-117.78a9.92,9.92,0,0,0,4.47-7.76V57a9.6,9.6,0,0,0-4.2-7.59,9.6,9.6,0,0,0-8.68.16l-204,117.78a9.9,9.9,0,0,0-4.48,7.76v188.5A9.58,9.58,0,0,0,90.77,371.22Z" style="fill:#455a64"></path><path d="M99.46,371.06l204-117.79a9.91,9.91,0,0,0,4.48-7.76V57c0-2.86-2-4-4.48-2.59l-204,117.79A9.91,9.91,0,0,0,95,180V368.47C95,371.33,97,372.49,99.46,371.06Z" style="fill:#37474f"></path><path d="M95,353.23v15.24c0,2.86,2,4,4.48,2.59l204-117.79a9.91,9.91,0,0,0,4.48-7.76V230.27Z" style="fill:#ebebeb"></path><path d="M100.9,339.06V182a6.05,6.05,0,0,1,2.76-4.77L299.24,64.26c1.52-.87,2.76-.16,2.76,1.6V222.94a6.11,6.11,0,0,1-2.76,4.77L103.65,340.65C102.13,341.52,100.9,340.81,100.9,339.06Z" style="fill:#263238"></path><path d="M87.89,170.71l8.41,4.84A9.45,9.45,0,0,0,95,180V368.47c0,2.61,1.76,4.07,4.48,2.59a9.5,9.5,0,0,1-8.69.16,8.63,8.63,0,0,1-4.2-7.05v-189A9.32,9.32,0,0,1,87.89,170.71Z" style="fill:#263238"></path><path d="M199,301.69l10.13-5.81c.91-.53,1.65-.15,1.65.83a3.54,3.54,0,0,1-1.65,2.73L199,305.25c-.91.53-1.64.15-1.64-.83A3.53,3.53,0,0,1,199,301.69Z" style="fill:#FF6366"></path></g></g><g id="freepik--paint-cans--inject-63"><g id="freepik--paint-pot--inject-63"><path d="M93.59,404.51l37.64-.51.32,30.74h0c0,2.78-1.77,5.58-5.43,7.74-7.3,4.33-19.22,4.45-26.61.29-3.74-2.1-5.6-4.89-5.59-7.7Z" style="fill:#37474f"></path><path d="M125.63,396.38c7.39,4.17,7.46,11.05.16,15.37s-19.22,4.45-26.62.29S91.7,401,99,396.67,118.23,392.22,125.63,396.38Z" style="fill:#455a64"></path><path d="M95.21,404.39a4.74,4.74,0,0,0,.26,1.47c.58,1.76,2.11,3.4,4.51,4.75a27.83,27.83,0,0,0,25-.26c2.31-1.38,3.83-3,4.36-4.75a4.57,4.57,0,0,0,.27-1.58c0-2.29-1.72-4.51-4.77-6.21A25.23,25.23,0,0,0,112.31,395a25.33,25.33,0,0,0-12.48,3.09C96.82,399.86,95.19,402.09,95.21,404.39Z" style="fill:#263238"></path><path d="M95.47,405.86c.58,1.76,2.11,3.4,4.51,4.75a27.83,27.83,0,0,0,25-.26c2.31-1.38,3.83-3,4.36-4.75-.57-1.77-2.11-3.4-4.5-4.74a27.73,27.73,0,0,0-25,.27A9.24,9.24,0,0,0,95.47,405.86Z" style="fill:#f5f5f5"></path><path d="M100,410.61a13,13,0,0,1-1.71-1.13c6.87,3.69,18.68,2.14,22.37-.76s4.17-7.84-1.81-10.05a21.35,21.35,0,0,1,6,2.19c2.39,1.34,3.93,3,4.5,4.74-.53,1.72-2,3.37-4.36,4.75a27.83,27.83,0,0,1-25,.26Z" style="opacity:0.15"></path><path d="M104.38,416c-.82-.47-1.48-.08-1.47.87a3.3,3.3,0,0,0,1.51,2.56c.83.46,1.49.07,1.48-.88A3.27,3.27,0,0,0,104.38,416Z" style="fill:#263238"></path><path d="M131.29,409.4c2.07,4.08,6.18,13.79.84,17.74-.23.16-.43.31-.66.45l0,2c.54-.32,1.09-.69,1.62-1.08,8-5.92-1-21.11-1.41-21.75a.82.82,0,0,0-.45-.35Z" style="fill:#e0e0e0"></path><path d="M103.68,418.13c.23.47,6,11.59,15.61,13.82a13.72,13.72,0,0,0,3.3.39,16.58,16.58,0,0,0,8.9-2.79l0-2c-4,2.74-7.92,3.68-11.81,2.78-8.83-2.06-14.48-12.9-14.52-13A.83.83,0,0,0,104,417,.81.81,0,0,0,103.68,418.13Z" style="fill:#e0e0e0"></path></g><g id="freepik--paint-pot--inject-63"><path d="M57.72,418.83l37.64-.51.33,30.74h0c0,2.78-1.77,5.58-5.43,7.75-7.3,4.32-19.21,4.45-26.61.28-3.73-2.1-5.6-4.89-5.59-7.7Z" style="fill:#37474f"></path><path d="M89.76,410.7c7.39,4.17,7.47,11.05.16,15.37s-19.22,4.45-26.61.29-7.48-11-.17-15.37S82.36,406.54,89.76,410.7Z" style="fill:#455a64"></path><path d="M59.34,418.71a4.74,4.74,0,0,0,.26,1.47c.58,1.77,2.11,3.4,4.51,4.76a25.75,25.75,0,0,0,12.53,2.82,25.59,25.59,0,0,0,12.45-3.09c2.32-1.37,3.83-3,4.36-4.75a4.53,4.53,0,0,0,.27-1.58c0-2.29-1.72-4.5-4.77-6.2a25.12,25.12,0,0,0-12.51-2.83A25.4,25.4,0,0,0,64,412.4C61,414.18,59.32,416.42,59.34,418.71Z" style="fill:#263238"></path><path d="M59.6,420.18c.58,1.77,2.11,3.4,4.51,4.76a25.75,25.75,0,0,0,12.53,2.82,25.59,25.59,0,0,0,12.45-3.09c2.32-1.37,3.83-3,4.36-4.75-.57-1.76-2.11-3.4-4.5-4.73a25.34,25.34,0,0,0-12.51-2.85A25.62,25.62,0,0,0,64,415.45,9.26,9.26,0,0,0,59.6,420.18Z" style="fill:#FF6366"></path><path d="M64.11,424.94a15.36,15.36,0,0,1-1.71-1.13c6.87,3.68,18.68,2.14,22.37-.76S89,415.2,83,413a21.36,21.36,0,0,1,6,2.2c2.39,1.33,3.93,3,4.5,4.73-.53,1.72-2,3.38-4.36,4.75a25.59,25.59,0,0,1-12.45,3.09A25.75,25.75,0,0,1,64.11,424.94Z" style="opacity:0.15"></path><path d="M68.52,430.35c-.83-.47-1.49-.07-1.48.87a3.3,3.3,0,0,0,1.51,2.56c.83.46,1.49.07,1.48-.87A3.29,3.29,0,0,0,68.52,430.35Z" style="fill:#263238"></path><path d="M95.42,423.73c2.07,4.07,6.18,13.78.84,17.73-.23.17-.43.31-.66.45l0,2c.54-.33,1.09-.7,1.62-1.09,8-5.92-1-21.11-1.41-21.75a.76.76,0,0,0-.45-.34Z" style="fill:#e0e0e0"></path><path d="M67.82,432.45c.22.47,6,11.59,15.6,13.82a13.78,13.78,0,0,0,3.3.39,16.6,16.6,0,0,0,8.9-2.78l0-2c-3.95,2.75-7.92,3.69-11.81,2.79-8.83-2.07-14.48-12.9-14.52-13a.82.82,0,0,0-1.11-.34A.78.78,0,0,0,67.82,432.45Z" style="fill:#e0e0e0"></path></g></g><g id="freepik--color-palette--inject-63"><g id="freepik--Palette--inject-63"><path d="M173.37,456.33h0a.2.2,0,0,0,0-.07l-3.18-6.84a.56.56,0,0,0-.57-.19l-57.2,8.85c-.21,0-.35.15-.35.27h0v1.19h0a.14.14,0,0,0,0,.06l3.17,6.84a.55.55,0,0,0,.58.19L173,457.79c.22,0,.35-.14.35-.26h0Z" style="fill:#37474f"></path><path d="M112.41,458.08l57.2-8.85a.56.56,0,0,1,.57.19l3.18,6.84c.06.15-.09.3-.34.34l-57.19,8.84a.55.55,0,0,1-.58-.19l-3.17-6.84C112,458.27,112.16,458.12,112.41,458.08Z" style="fill:#455a64"></path><polygon points="115.55 459.35 117.45 463.44 124.53 462.34 122.63 458.25 115.55 459.35" style="fill:#FF6366"></polygon><polygon points="115.55 459.35 117.45 463.44 124.53 462.34 122.63 458.25 115.55 459.35" style="opacity:0.6000000000000001"></polygon><polygon points="133.69 456.54 135.59 460.63 142.67 459.54 140.77 455.45 133.69 456.54" style="fill:#FF6366"></polygon><polygon points="133.69 456.54 135.59 460.63 142.67 459.54 140.77 455.45 133.69 456.54" style="opacity:0.35000000000000003"></polygon><polygon points="142.76 455.14 144.66 459.23 151.74 458.13 149.84 454.04 142.76 455.14" style="fill:#FF6366"></polygon><polygon points="142.76 455.14 144.66 459.23 151.74 458.13 149.84 454.04 142.76 455.14" style="opacity:0.25"></polygon><polygon points="151.83 453.74 153.73 457.83 160.81 456.73 158.91 452.64 151.83 453.74" style="fill:#FF6366"></polygon><polygon points="151.83 453.74 153.73 457.83 160.81 456.73 158.91 452.64 151.83 453.74" style="opacity:0.15"></polygon><polygon points="160.9 452.33 162.8 456.42 169.88 455.33 167.99 451.24 160.9 452.33" style="fill:#FF6366"></polygon><polygon points="124.62 457.95 126.52 462.04 133.6 460.94 131.7 456.85 124.62 457.95" style="fill:#FF6366"></polygon><polygon points="124.62 457.95 126.52 462.04 133.6 460.94 131.7 456.85 124.62 457.95" style="opacity:0.45"></polygon><path d="M115.39,465.39v1.19a.35.35,0,0,1-.14-.13l-3.17-6.84a.14.14,0,0,1,0-.06v-1.2a.14.14,0,0,0,0,.06l3.17,6.84A.38.38,0,0,0,115.39,465.39Z" style="fill:#263238"></path><path d="M170.27,445.33h0a.19.19,0,0,0-.06-.13l-6.13-6.13a.67.67,0,0,0-.64-.1l-51.29,17.09c-.14.05-.23.14-.23.23h0v1.19h0a.2.2,0,0,0,.06.14l6.13,6.13a.69.69,0,0,0,.65.1L170,446.77c.15,0,.23-.14.23-.24h0Z" style="fill:#37474f"></path><path d="M112.15,456.06,163.44,439a.67.67,0,0,1,.64.1l6.13,6.13c.13.13,0,.3-.17.37l-51.28,17.1a.71.71,0,0,1-.65-.1L112,456.43C111.85,456.3,111.93,456.14,112.15,456.06Z" style="fill:#455a64"></path><polygon points="115.75 456.82 119.42 460.49 125.78 458.37 122.11 454.7 115.75 456.82" style="fill:#ffa8a7"></polygon><polygon points="132.02 451.4 135.69 455.06 142.04 452.95 138.37 449.28 132.02 451.4" style="fill:#ffa8a7"></polygon><polygon points="132.02 451.4 135.69 455.06 142.04 452.95 138.37 449.28 132.02 451.4" style="fill:#fff;opacity:0.4"></polygon><polygon points="140.15 448.69 143.82 452.36 150.17 450.24 146.5 446.57 140.15 448.69" style="fill:#ffa8a7"></polygon><polygon points="140.15 448.69 143.82 452.36 150.17 450.24 146.5 446.57 140.15 448.69" style="fill:#fff;opacity:0.6000000000000001"></polygon><polygon points="148.28 445.98 151.95 449.64 158.3 447.53 154.64 443.86 148.28 445.98" style="fill:#ffa8a7"></polygon><polygon points="148.28 445.98 151.95 449.64 158.3 447.53 154.64 443.86 148.28 445.98" style="fill:#fff;opacity:0.8"></polygon><polygon points="156.41 443.27 160.08 446.93 166.44 444.81 162.77 441.15 156.41 443.27" style="fill:#ffa8a7"></polygon><polygon points="156.41 443.27 160.08 446.93 166.44 444.81 162.77 441.15 156.41 443.27" style="fill:#fff"></polygon><polygon points="123.89 454.11 127.56 457.78 133.91 455.66 130.24 451.99 123.89 454.11" style="fill:#ffa8a7"></polygon><polygon points="123.89 454.11 127.56 457.78 133.91 455.66 130.24 451.99 123.89 454.11" style="fill:#fff;opacity:0.2"></polygon><path d="M118.38,462.69v1.19a.52.52,0,0,1-.27-.12L112,457.63a.2.2,0,0,1-.06-.14v-1.17a.14.14,0,0,0,.06.11l6.13,6.14A.52.52,0,0,0,118.38,462.69Z" style="fill:#263238"></path><path d="M111.68,455v.43a.73.73,0,0,0,.33.58l8.67,5a.7.7,0,0,0,.66,0l41.88-24.17a.74.74,0,0,0,.33-.57v-.44a.73.73,0,0,0-.33-.57l-8.68-5a.76.76,0,0,0-.66,0L112,454.4A.7.7,0,0,0,111.68,455Z" style="fill:#37474f"></path><path d="M112,454.4l41.87-24.18a.76.76,0,0,1,.66,0l8.68,5a.2.2,0,0,1,0,.38l-41.88,24.18a.76.76,0,0,1-.66,0l-8.67-5C111.82,454.67,111.82,454.5,112,454.4Z" style="fill:#455a64"></path><path d="M121,459.87v1.19a.6.6,0,0,1-.33-.08L112,456a.76.76,0,0,1-.33-.58V455a.77.77,0,0,1,.26-.53c-.11.11-.09.25.07.34l8.67,5A.7.7,0,0,0,121,459.87Z" style="fill:#263238"></path><path d="M112,454.4l41.87-24.18a.76.76,0,0,1,.66,0l8.68,5a.2.2,0,0,1,0,.38l-41.88,24.18a.76.76,0,0,1-.66,0l-8.67-5C111.82,454.67,111.82,454.5,112,454.4Z" style="fill:#455a64"></path><polygon points="115.83 454.59 121.01 457.58 126.2 454.59 121.01 451.59 115.83 454.59" style="fill:#FF6366"></polygon><polygon points="129.1 446.92 134.29 449.92 139.48 446.92 134.29 443.93 129.1 446.92" style="fill:#FF6366"></polygon><polygon points="129.1 446.92 134.29 449.92 139.48 446.92 134.29 443.93 129.1 446.92" style="fill:#fff;opacity:0.4"></polygon><polygon points="135.75 443.09 140.93 446.08 146.12 443.09 140.93 440.09 135.75 443.09" style="fill:#FF6366"></polygon><polygon points="135.75 443.09 140.93 446.08 146.12 443.09 140.93 440.09 135.75 443.09" style="fill:#fff;opacity:0.6000000000000001"></polygon><polygon points="142.38 439.25 147.57 442.25 152.76 439.25 147.57 436.26 142.38 439.25" style="fill:#FF6366"></polygon><polygon points="142.38 439.25 147.57 442.25 152.76 439.25 147.57 436.26 142.38 439.25" style="fill:#fff;opacity:0.8"></polygon><polygon points="149.03 435.42 154.21 438.42 159.4 435.42 154.21 432.43 149.03 435.42" style="fill:#FF6366"></polygon><polygon points="149.03 435.42 154.21 438.42 159.4 435.42 154.21 432.43 149.03 435.42" style="fill:#fff"></polygon><polygon points="122.47 450.75 127.65 453.75 132.84 450.75 127.65 447.76 122.47 450.75" style="fill:#FF6366"></polygon><polygon points="122.47 450.75 127.65 453.75 132.84 450.75 127.65 447.76 122.47 450.75" style="fill:#fff;opacity:0.2"></polygon><path d="M114.6,454.28a.32.32,0,0,1,0,.61,1.14,1.14,0,0,1-1,0,.32.32,0,0,1,0-.61A1.21,1.21,0,0,1,114.6,454.28Z" style="fill:#263238"></path><path d="M114.21,454.17a4.87,4.87,0,1,0-1.86,6l-.27-.59a.14.14,0,0,1,0-.06v-.08a4.11,4.11,0,1,1,1.39-5.12,3.33,3.33,0,0,1,.22.6,1.22,1.22,0,0,0,.8,0A4.2,4.2,0,0,0,114.21,454.17Z" style="fill:#e0e0e0"></path></g></g><g id="freepik--Gears--inject-63"><g id="freepik--Gear--inject-63"><path d="M380.55,307.39a1.23,1.23,0,0,1-.85-1.27L380,304a1,1,0,0,0-.87-1.1l-5.63-.58a1.59,1.59,0,0,0-1.46.78l-1.12,2.19a2,2,0,0,1-1.46,1,28.2,28.2,0,0,0-2.91.36,2.88,2.88,0,0,1-1.82-.36l-3-2a2.19,2.19,0,0,0-1.77-.18l-4.5,1.81a.66.66,0,0,0-.47.57h0v.05h0v4.6h0a.77.77,0,0,0,.22.51l.27.27a2.43,2.43,0,0,1-1.24.39L349,312a1.38,1.38,0,0,0-1.3.92l-.78,2.49a.62.62,0,0,0,0,.3h0v4.65h0a.84.84,0,0,0,.72.81l4,.68-1.55.78a.66.66,0,0,0-.41.56h0v4.66h0a.76.76,0,0,0,.28.52l2.88,2.39a2,2,0,0,0,1.72.34l4.39-1.37a3,3,0,0,1,1.86.12,23.28,23.28,0,0,0,2.35.87,1.24,1.24,0,0,1,.58.4v3.14h0a1,1,0,0,0,.88,1l5.63.59a1.56,1.56,0,0,0,1.45-.78l1.12-2.19a2,2,0,0,1,1.46-1,28.39,28.39,0,0,0,2.92-.36,2.89,2.89,0,0,1,1.82.36l3,2a2.13,2.13,0,0,0,1.76.19l4.51-1.81a.64.64,0,0,0,.46-.6h0v-4.64h0a.75.75,0,0,0-.22-.5l-.26-.28a2.36,2.36,0,0,1,1.24-.38l5.15.21a1.39,1.39,0,0,0,1.3-.92l.78-2.49a.9.9,0,0,0,0-.28h0v-4.63h0a.85.85,0,0,0-.72-.86l-4-.68,1.56-.78a.64.64,0,0,0,.4-.58h0v-4.63h0a.65.65,0,0,0-.28-.54l-2.87-2.39a2,2,0,0,0-1.73-.34l-4.38,1.37a3.15,3.15,0,0,1-1.87-.12A20.92,20.92,0,0,0,380.55,307.39Zm-18.69,11.67a8.39,8.39,0,0,1,3.84-2.79c4.89-1.95,11.59-1.25,15,1.57a6.43,6.43,0,0,1,1.15,1.21,8.41,8.41,0,0,1-3.86,2.79c-4.88,2-11.59,1.26-15-1.56A6.44,6.44,0,0,1,361.86,319.06Z" style="fill:#FF6366"></path><path d="M380.55,307.39a1.23,1.23,0,0,1-.85-1.27L380,304a1,1,0,0,0-.87-1.1l-5.63-.58a1.59,1.59,0,0,0-1.46.78l-1.12,2.19a2,2,0,0,1-1.46,1,28.2,28.2,0,0,0-2.91.36,2.88,2.88,0,0,1-1.82-.36l-3-2a2.19,2.19,0,0,0-1.77-.18l-4.5,1.81a.66.66,0,0,0-.47.57h0v.05h0v4.6h0a.77.77,0,0,0,.22.51l.27.27a2.43,2.43,0,0,1-1.24.39L349,312a1.38,1.38,0,0,0-1.3.92l-.78,2.49a.62.62,0,0,0,0,.3h0v4.65h0a.84.84,0,0,0,.72.81l4,.68-1.55.78a.66.66,0,0,0-.41.56h0v4.66h0a.76.76,0,0,0,.28.52l2.88,2.39a2,2,0,0,0,1.72.34l4.39-1.37a3,3,0,0,1,1.86.12,23.28,23.28,0,0,0,2.35.87,1.24,1.24,0,0,1,.58.4v3.14h0a1,1,0,0,0,.88,1l5.63.59a1.56,1.56,0,0,0,1.45-.78l1.12-2.19a2,2,0,0,1,1.46-1,28.39,28.39,0,0,0,2.92-.36,2.89,2.89,0,0,1,1.82.36l3,2a2.13,2.13,0,0,0,1.76.19l4.51-1.81a.64.64,0,0,0,.46-.6h0v-4.64h0a.75.75,0,0,0-.22-.5l-.26-.28a2.36,2.36,0,0,1,1.24-.38l5.15.21a1.39,1.39,0,0,0,1.3-.92l.78-2.49a.9.9,0,0,0,0-.28h0v-4.63h0a.85.85,0,0,0-.72-.86l-4-.68,1.56-.78a.64.64,0,0,0,.4-.58h0v-4.63h0a.65.65,0,0,0-.28-.54l-2.87-2.39a2,2,0,0,0-1.73-.34l-4.38,1.37a3.15,3.15,0,0,1-1.87-.12A20.92,20.92,0,0,0,380.55,307.39Zm-18.69,11.67a8.39,8.39,0,0,1,3.84-2.79c4.89-1.95,11.59-1.25,15,1.57a6.43,6.43,0,0,1,1.15,1.21,8.41,8.41,0,0,1-3.86,2.79c-4.88,2-11.59,1.26-15-1.56A6.44,6.44,0,0,1,361.86,319.06Z" style="fill:#fff;opacity:0.2"></path><path d="M353.72,318.53a1.7,1.7,0,0,0-1.2-1.14l-4.9-.84a.85.85,0,0,1-.72-.76v4.59a.84.84,0,0,0,.72.81l4,.68,2.06-1a1,1,0,0,0,.41-1.33A6.46,6.46,0,0,1,353.72,318.53Zm1.2-7.47h0a.79.79,0,0,0,.22.51l.27.28a2,2,0,0,0,.42-.33,11.16,11.16,0,0,1,1.24-1.1.87.87,0,0,0,.12-1.32l-2.05-2.17a.75.75,0,0,1-.22-.5Z" style="opacity:0.1"></path><path d="M365.71,311.64c-4.22,1.68-5.7,4.79-3.85,7.42a8.47,8.47,0,0,1,3.84-2.79c4.89-1.95,11.59-1.26,15,1.57a6.05,6.05,0,0,1,1.14,1.21c1.3-1.87,1-4.07-1.14-5.85C377.29,310.38,370.59,309.68,365.71,311.64Z" style="opacity:0.1"></path><path d="M373.27,327.67a1.7,1.7,0,0,0-.47.54l-1.13,2.19a1.54,1.54,0,0,1-.83.69v4.64a1.55,1.55,0,0,0,.83-.69l1.13-2.19a1.5,1.5,0,0,1,.48-.53Zm15.49-.61h0a.66.66,0,0,1-.47.61l-4.5,1.8a2,2,0,0,1-1.18.05v4.63a2.13,2.13,0,0,0,1.18,0l4.51-1.81a.63.63,0,0,0,.46-.6Zm-29.9-1.95-4.32,1.36a1.93,1.93,0,0,1-1.09,0v4.63a2.07,2.07,0,0,0,1.1,0l4.33-1.36Zm37.92-7.33a1.45,1.45,0,0,1,0,.28l-.78,2.49a1.37,1.37,0,0,1-1.3.91l-5.15-.21a2.17,2.17,0,0,0-.8.17v4.63a2.15,2.15,0,0,1,.8-.16l5.15.21a1.39,1.39,0,0,0,1.3-.92l.77-2.49a.69.69,0,0,0,0-.28ZM394,310.27a.41.41,0,0,1,0,.16.54.54,0,0,1-.16.24,1,1,0,0,1-.23.16L390,312.65a.61.61,0,0,0-.22.15.85.85,0,0,0-.24.38,1,1,0,0,0-.06.36c0,.06,0,.12,0,.19a2.34,2.34,0,0,0,.09.24,7.7,7.7,0,0,1,.37,1,1.68,1.68,0,0,0,1.19,1.16l.91.15,1.56-.78a.65.65,0,0,0,.4-.57h0Z" style="fill:#FF6366"></path><path d="M373.27,327.67a1.7,1.7,0,0,0-.47.54l-1.13,2.19a1.54,1.54,0,0,1-.83.69v4.64a1.55,1.55,0,0,0,.83-.69l1.13-2.19a1.5,1.5,0,0,1,.48-.53Zm15.49-.61h0a.66.66,0,0,1-.47.61l-4.5,1.8a2,2,0,0,1-1.18.05v4.63a2.13,2.13,0,0,0,1.18,0l4.51-1.81a.63.63,0,0,0,.46-.6Zm-29.9-1.95-4.32,1.36a1.93,1.93,0,0,1-1.09,0v4.63a2.07,2.07,0,0,0,1.1,0l4.33-1.36Zm37.92-7.33a1.45,1.45,0,0,1,0,.28l-.78,2.49a1.37,1.37,0,0,1-1.3.91l-5.15-.21a2.17,2.17,0,0,0-.8.17v4.63a2.15,2.15,0,0,1,.8-.16l5.15.21a1.39,1.39,0,0,0,1.3-.92l.77-2.49a.69.69,0,0,0,0-.28ZM394,310.27a.41.41,0,0,1,0,.16.54.54,0,0,1-.16.24,1,1,0,0,1-.23.16L390,312.65a.61.61,0,0,0-.22.15.85.85,0,0,0-.24.38,1,1,0,0,0-.06.36c0,.06,0,.12,0,.19a2.34,2.34,0,0,0,.09.24,7.7,7.7,0,0,1,.37,1,1.68,1.68,0,0,0,1.19,1.16l.91.15,1.56-.78a.65.65,0,0,0,.4-.57h0Z" style="fill:#fff;opacity:0.7000000000000001"></path><path d="M389.14,307l-4.38,1.37a3.15,3.15,0,0,1-1.87-.12,20.92,20.92,0,0,0-2.34-.87,1.23,1.23,0,0,1-.85-1.27L380,304a1,1,0,0,0-.87-1.1l-5.63-.58a1.59,1.59,0,0,0-1.46.78l-1.12,2.19a2,2,0,0,1-1.46,1,28.2,28.2,0,0,0-2.91.36,2.88,2.88,0,0,1-1.82-.36l-3-2a2.19,2.19,0,0,0-1.77-.18l-4.5,1.81a.63.63,0,0,0-.24,1.1l2,2.17a.87.87,0,0,1-.13,1.32,12,12,0,0,0-1.23,1.1,2.5,2.5,0,0,1-1.66.71L349,312a1.38,1.38,0,0,0-1.3.92l-.78,2.49a.85.85,0,0,0,.69,1.12l4.89.84a1.66,1.66,0,0,1,1.2,1.15,6.42,6.42,0,0,0,.37,1,1,1,0,0,1-.42,1.33l-3.61,1.81a.61.61,0,0,0-.13,1.09l2.88,2.39a2,2,0,0,0,1.73.34l4.38-1.37a3.11,3.11,0,0,1,1.86.12,21.85,21.85,0,0,0,2.35.87,1.21,1.21,0,0,1,.84,1.27l-.26,2.14a1,1,0,0,0,.88,1.1l5.63.59a1.59,1.59,0,0,0,1.45-.79l1.13-2.19a2,2,0,0,1,1.45-.95,28.39,28.39,0,0,0,2.92-.36,2.88,2.88,0,0,1,1.82.37l3,2a2.17,2.17,0,0,0,1.76.18l4.51-1.81a.63.63,0,0,0,.24-1.1l-2-2.17a.87.87,0,0,1,.12-1.32,11.16,11.16,0,0,0,1.24-1.1,2.53,2.53,0,0,1,1.66-.71l5.15.21a1.39,1.39,0,0,0,1.3-.92l.78-2.48a.86.86,0,0,0-.69-1.13l-4.9-.84A1.67,1.67,0,0,1,390,315a7.28,7.28,0,0,0-.37-1,1,1,0,0,1,.41-1.33l3.62-1.81a.61.61,0,0,0,.12-1.09l-2.87-2.39A2,2,0,0,0,389.14,307Zm-8.46,6.19c3.39,2.82,2.18,6.69-2.71,8.64s-11.59,1.26-15-1.56-2.18-6.69,2.7-8.64S377.29,310.38,380.68,313.2Z" style="fill:#FF6366"></path><g style="opacity:0.55"><path d="M389.14,307l-4.38,1.37a3.15,3.15,0,0,1-1.87-.12,20.92,20.92,0,0,0-2.34-.87,1.23,1.23,0,0,1-.85-1.27L380,304a1,1,0,0,0-.87-1.1l-5.63-.58a1.59,1.59,0,0,0-1.46.78l-1.12,2.19a2,2,0,0,1-1.46,1,28.2,28.2,0,0,0-2.91.36,2.88,2.88,0,0,1-1.82-.36l-3-2a2.19,2.19,0,0,0-1.77-.18l-4.5,1.81a.63.63,0,0,0-.24,1.1l2,2.17a.87.87,0,0,1-.13,1.32,12,12,0,0,0-1.23,1.1,2.5,2.5,0,0,1-1.66.71L349,312a1.38,1.38,0,0,0-1.3.92l-.78,2.49a.85.85,0,0,0,.69,1.12l4.89.84a1.66,1.66,0,0,1,1.2,1.15,6.42,6.42,0,0,0,.37,1,1,1,0,0,1-.42,1.33l-3.61,1.81a.61.61,0,0,0-.13,1.09l2.88,2.39a2,2,0,0,0,1.73.34l4.38-1.37a3.11,3.11,0,0,1,1.86.12,21.85,21.85,0,0,0,2.35.87,1.21,1.21,0,0,1,.84,1.27l-.26,2.14a1,1,0,0,0,.88,1.1l5.63.59a1.59,1.59,0,0,0,1.45-.79l1.13-2.19a2,2,0,0,1,1.45-.95,28.39,28.39,0,0,0,2.92-.36,2.88,2.88,0,0,1,1.82.37l3,2a2.17,2.17,0,0,0,1.76.18l4.51-1.81a.63.63,0,0,0,.24-1.1l-2-2.17a.87.87,0,0,1,.12-1.32,11.16,11.16,0,0,0,1.24-1.1,2.53,2.53,0,0,1,1.66-.71l5.15.21a1.39,1.39,0,0,0,1.3-.92l.78-2.48a.86.86,0,0,0-.69-1.13l-4.9-.84A1.67,1.67,0,0,1,390,315a7.28,7.28,0,0,0-.37-1,1,1,0,0,1,.41-1.33l3.62-1.81a.61.61,0,0,0,.12-1.09l-2.87-2.39A2,2,0,0,0,389.14,307Zm-8.46,6.19c3.39,2.82,2.18,6.69-2.71,8.64s-11.59,1.26-15-1.56-2.18-6.69,2.7-8.64S377.29,310.38,380.68,313.2Z" style="fill:#fff"></path></g><g style="opacity:0.55"><path d="M373.34,302.85h.06l5.63.59a.43.43,0,0,1,.29.16.44.44,0,0,1,.09.31l-.26,2.14a1.8,1.8,0,0,0,1.23,1.88,21.28,21.28,0,0,1,2.29.84,3.55,3.55,0,0,0,1.39.26,2.9,2.9,0,0,0,.87-.12l4.38-1.37a.93.93,0,0,1,.31,0,1.48,1.48,0,0,1,.89.28l2.87,2.39.09.09a.37.37,0,0,1-.1.07l-3.62,1.81a1.54,1.54,0,0,0-.67,2.07,6,6,0,0,1,.34.89,2.23,2.23,0,0,0,1.64,1.54l4.9.84a.32.32,0,0,1,.22.14.28.28,0,0,1,0,.27l-.78,2.49a.81.81,0,0,1-.74.52h0l-5.15-.21h-.07a3.12,3.12,0,0,0-2,.88,10.88,10.88,0,0,1-1.17,1.05,1.49,1.49,0,0,0-.59,1.05,1.4,1.4,0,0,0,.4,1.09l2,2.18a.2.2,0,0,1,.08.12.36.36,0,0,1-.12.07l-4.51,1.81a1.15,1.15,0,0,1-.45.07,1.54,1.54,0,0,1-.79-.2l-3-2a3.4,3.4,0,0,0-1.78-.49,3.14,3.14,0,0,0-.45,0c-.93.16-1.89.28-2.86.35A2.52,2.52,0,0,0,372.3,328l-1.12,2.18a1,1,0,0,1-.84.49h-.06l-5.63-.59a.41.41,0,0,1-.29-.16.44.44,0,0,1-.09-.31l.26-2.14a1.81,1.81,0,0,0-1.23-1.88,22.28,22.28,0,0,1-2.3-.84,3.5,3.5,0,0,0-1.38-.26,2.9,2.9,0,0,0-.87.12l-4.38,1.37a1,1,0,0,1-.31,0,1.45,1.45,0,0,1-.89-.28l-2.88-2.39-.08-.09a.24.24,0,0,1,.1-.07l3.61-1.81a1.53,1.53,0,0,0,.67-2.07,7.4,7.4,0,0,1-.34-.89,2.21,2.21,0,0,0-1.63-1.54l-4.9-.84a.36.36,0,0,1-.23-.14.35.35,0,0,1,0-.27l.78-2.49a.83.83,0,0,1,.74-.52h0l5.14.21h.08a3.08,3.08,0,0,0,2-.88,12.21,12.21,0,0,1,1.18-1.05,1.48,1.48,0,0,0,.58-1.05,1.43,1.43,0,0,0-.39-1.09l-2.05-2.17a.3.3,0,0,1-.07-.12s0-.05.12-.08l4.5-1.81a1.22,1.22,0,0,1,.45-.07,1.6,1.6,0,0,1,.8.2l3,2a3.37,3.37,0,0,0,1.77.49,2.15,2.15,0,0,0,.45,0c.93-.16,1.89-.28,2.87-.35a2.54,2.54,0,0,0,1.91-1.26l1.12-2.18a1,1,0,0,1,.84-.49h0m-1.49,20.66a17.05,17.05,0,0,0,6.33-1.15c2.81-1.12,4.61-2.93,4.93-5a5,5,0,0,0-2.07-4.62c-2.11-1.76-5.55-2.8-9.21-2.8a17,17,0,0,0-6.33,1.15c-2.81,1.12-4.61,2.93-4.93,5a5,5,0,0,0,2.07,4.62c2.11,1.76,5.55,2.8,9.21,2.8m1.49-21.22a1.61,1.61,0,0,0-1.34.79l-1.12,2.19a2,2,0,0,1-1.46,1,28.2,28.2,0,0,0-2.91.36,2,2,0,0,1-.36,0,2.92,2.92,0,0,1-1.46-.39l-3-2a2.11,2.11,0,0,0-1.11-.29,2,2,0,0,0-.66.11l-4.5,1.81a.63.63,0,0,0-.24,1.1l2,2.17a.87.87,0,0,1-.13,1.32,12,12,0,0,0-1.23,1.1,2.56,2.56,0,0,1-1.61.71h-.05L349,312h0a1.38,1.38,0,0,0-1.25.92l-.78,2.49a.85.85,0,0,0,.69,1.12l4.89.84a1.66,1.66,0,0,1,1.2,1.15,6.42,6.42,0,0,0,.37,1,1,1,0,0,1-.42,1.33l-3.61,1.81a.61.61,0,0,0-.13,1.09l2.88,2.39a2,2,0,0,0,1.25.41,1.51,1.51,0,0,0,.48-.07l4.38-1.37a2.48,2.48,0,0,1,.7-.09,3.2,3.2,0,0,1,1.16.21,21.85,21.85,0,0,0,2.35.87,1.21,1.21,0,0,1,.84,1.27l-.26,2.14a1,1,0,0,0,.88,1.1l5.63.59h.12a1.57,1.57,0,0,0,1.33-.79l1.13-2.19a2,2,0,0,1,1.45-.95,28.39,28.39,0,0,0,2.92-.36,2,2,0,0,1,.35,0,2.86,2.86,0,0,1,1.47.4l3,2a2.07,2.07,0,0,0,1.1.29,1.73,1.73,0,0,0,.66-.11l4.51-1.81a.63.63,0,0,0,.24-1.1l-2-2.17a.87.87,0,0,1,.12-1.32,11.16,11.16,0,0,0,1.24-1.1,2.53,2.53,0,0,1,1.61-.71h.05l5.15.21h0a1.38,1.38,0,0,0,1.26-.92l.78-2.48a.86.86,0,0,0-.69-1.13l-4.9-.84A1.67,1.67,0,0,1,390,315a7.28,7.28,0,0,0-.37-1,1,1,0,0,1,.41-1.33l3.62-1.81a.61.61,0,0,0,.12-1.09l-2.87-2.39a2,2,0,0,0-1.25-.41,1.51,1.51,0,0,0-.48.07l-4.38,1.37a2.53,2.53,0,0,1-.7.09,3.3,3.3,0,0,1-1.17-.21,20.92,20.92,0,0,0-2.34-.87,1.23,1.23,0,0,1-.85-1.27L380,304a1,1,0,0,0-.87-1.1l-5.63-.58ZM371.85,323c-3.41,0-6.76-.93-8.85-2.67-3.39-2.82-2.18-6.69,2.7-8.64a16.67,16.67,0,0,1,6.13-1.11c3.41,0,6.76.93,8.85,2.67,3.39,2.82,2.18,6.69-2.71,8.64a16.66,16.66,0,0,1-6.12,1.11Z" style="fill:#fff"></path></g></g><g id="freepik--gear--inject-63"><path d="M337.06,287l-5.79-3.34a1.55,1.55,0,0,0-1.28-.06l-5.88,2.72a2.12,2.12,0,0,1-1.34.08,34,34,0,0,0-4.56-1.08,1.11,1.11,0,0,1-.85-.83l-.74-3.87a.91.91,0,0,0-.86-.71h-8.52a.92.92,0,0,0-.86.71l-.73,3.87a1.14,1.14,0,0,1-.85.83,33.32,33.32,0,0,0-4.56,1.08,2.12,2.12,0,0,1-1.34-.08L293,283.62a1.55,1.55,0,0,0-1.28.06l-5.8,3.34a.47.47,0,0,0-.27.4h0v5h0a.47.47,0,0,0,.23.39l2.67,1.92a1.29,1.29,0,0,1-.66.27l-7.73.49a.79.79,0,0,0-.72.77v3.28h0v6a.77.77,0,0,0,.72.77l7.72.49a1.27,1.27,0,0,1,.67.28l-2.65,1.91a.5.5,0,0,0-.23.39h0v5h0a.47.47,0,0,0,.27.39l5.79,3.34a1.57,1.57,0,0,0,1.29.06l5.87-2.72a2.15,2.15,0,0,1,1.35-.08,33.32,33.32,0,0,0,4.56,1.08,1.14,1.14,0,0,1,.85.83l.73,3.87a.92.92,0,0,0,.86.71h8.52a.92.92,0,0,0,.86-.71l.73-3.87a1.11,1.11,0,0,1,.85-.82,34.87,34.87,0,0,0,4.56-1.09,2.16,2.16,0,0,1,1.35.08l5.87,2.72a1.57,1.57,0,0,0,1.29-.06l5.79-3.34a.45.45,0,0,0,.27-.39h0l0-5h0a.47.47,0,0,0-.23-.39l-2.66-1.92a1.23,1.23,0,0,1,.66-.27l7.72-.49a.77.77,0,0,0,.72-.77v-9.33a.77.77,0,0,0-.72-.77l-7.72-.49a1.27,1.27,0,0,1-.67-.28l2.65-1.91a.5.5,0,0,0,.23-.39h0l0-5h0A.47.47,0,0,0,337.06,287Zm-39.12,13c.42-1.39,1.66-2.75,3.77-4,5.41-3.12,14.18-3.12,19.58,0a8.91,8.91,0,0,1,3.86,3.7,7.77,7.77,0,0,1-3.86,4.32c-5.4,3.12-14.17,3.12-19.58,0A8,8,0,0,1,297.94,300Z" style="fill:#FF6366"></path><path d="M337.06,287l-5.79-3.34a1.55,1.55,0,0,0-1.28-.06l-5.88,2.72a2.12,2.12,0,0,1-1.34.08,34,34,0,0,0-4.56-1.08,1.11,1.11,0,0,1-.85-.83l-.74-3.87a.91.91,0,0,0-.86-.71h-8.52a.92.92,0,0,0-.86.71l-.73,3.87a1.14,1.14,0,0,1-.85.83,33.32,33.32,0,0,0-4.56,1.08,2.12,2.12,0,0,1-1.34-.08L293,283.62a1.55,1.55,0,0,0-1.28.06l-5.8,3.34a.47.47,0,0,0-.27.4h0v5h0a.47.47,0,0,0,.23.39l2.67,1.92a1.29,1.29,0,0,1-.66.27l-7.73.49a.79.79,0,0,0-.72.77v3.28h0v6a.77.77,0,0,0,.72.77l7.72.49a1.27,1.27,0,0,1,.67.28l-2.65,1.91a.5.5,0,0,0-.23.39h0v5h0a.47.47,0,0,0,.27.39l5.79,3.34a1.57,1.57,0,0,0,1.29.06l5.87-2.72a2.15,2.15,0,0,1,1.35-.08,33.32,33.32,0,0,0,4.56,1.08,1.14,1.14,0,0,1,.85.83l.73,3.87a.92.92,0,0,0,.86.71h8.52a.92.92,0,0,0,.86-.71l.73-3.87a1.11,1.11,0,0,1,.85-.82,34.87,34.87,0,0,0,4.56-1.09,2.16,2.16,0,0,1,1.35.08l5.87,2.72a1.57,1.57,0,0,0,1.29-.06l5.79-3.34a.45.45,0,0,0,.27-.39h0l0-5h0a.47.47,0,0,0-.23-.39l-2.66-1.92a1.23,1.23,0,0,1,.66-.27l7.72-.49a.77.77,0,0,0,.72-.77v-9.33a.77.77,0,0,0-.72-.77l-7.72-.49a1.27,1.27,0,0,1-.67-.28l2.65-1.91a.5.5,0,0,0,.23-.39h0l0-5h0A.47.47,0,0,0,337.06,287Zm-39.12,13c.42-1.39,1.66-2.75,3.77-4,5.41-3.12,14.18-3.12,19.58,0a8.91,8.91,0,0,1,3.86,3.7,7.77,7.77,0,0,1-3.86,4.32c-5.4,3.12-14.17,3.12-19.58,0A8,8,0,0,1,297.94,300Z" style="fill:#fff;opacity:0.2"></path><path d="M288.94,302.54a1.46,1.46,0,0,0-1-.7l-7.73-.48a.78.78,0,0,1-.72-.77v5a.78.78,0,0,0,.72.77l7.72.49a1.23,1.23,0,0,1,.68.28l1.94-1.39a.62.62,0,0,0,.08-.95A11.31,11.31,0,0,1,288.94,302.54Zm-3.28-10.1h0a.46.46,0,0,0,.23.39l2.67,1.92a1.5,1.5,0,0,0,.38-.42,11.65,11.65,0,0,1,1.64-2.28.61.61,0,0,0-.09-.94l-4.59-3.3a.59.59,0,0,1-.23-.34Z" style="opacity:0.1"></path><path d="M321.29,292.78c-5.4-3.12-14.17-3.12-19.58,0-3.42,2-4.67,4.72-3.77,7.26.41-1.38,1.65-2.75,3.77-4,5.41-3.12,14.17-3.12,19.58,0a9,9,0,0,1,3.87,3.69C325.88,297.3,324.58,294.68,321.29,292.78Z" style="opacity:0.1"></path><path d="M343.55,300.69a.8.8,0,0,1-.72.67l-7.72.48a1.15,1.15,0,0,0-.39.11v5a1.16,1.16,0,0,1,.38-.11l7.73-.49a.78.78,0,0,0,.72-.77Zm-6.21-13.28h0a.21.21,0,0,1,0,.15.29.29,0,0,1-.09.15.36.36,0,0,1-.11.1l-4.59,3.3a.52.52,0,0,0-.11.1.5.5,0,0,0-.14.28.45.45,0,0,0,0,.2.44.44,0,0,0,0,.1.66.66,0,0,0,.16.26l.08.1a11.88,11.88,0,0,1,1.56,2.18,1.52,1.52,0,0,0,.36.41l2.66-1.91a.5.5,0,0,0,.23-.38h0Zm0,22.08a.52.52,0,0,1-.27.36l-5.8,3.34a1.5,1.5,0,0,1-.9.16v5a1.67,1.67,0,0,0,.9-.15l5.79-3.35a.45.45,0,0,0,.27-.38Zm-37.87.9a2,2,0,0,0-.58.13L293,313.25a1.24,1.24,0,0,1-.52.11l0,5a1.47,1.47,0,0,0,.53-.11l5.87-2.72a1.7,1.7,0,0,1,.58-.13Zm17,6.16a.89.89,0,0,1-.71.39h-8.53a.83.83,0,0,1-.52-.19v5a.88.88,0,0,0,.52.18h8.52a.89.89,0,0,0,.74-.43Z" style="fill:#FF6366"></path><path d="M343.55,300.69a.8.8,0,0,1-.72.67l-7.72.48a1.15,1.15,0,0,0-.39.11v5a1.16,1.16,0,0,1,.38-.11l7.73-.49a.78.78,0,0,0,.72-.77Zm-6.21-13.28h0a.21.21,0,0,1,0,.15.29.29,0,0,1-.09.15.36.36,0,0,1-.11.1l-4.59,3.3a.52.52,0,0,0-.11.1.5.5,0,0,0-.14.28.45.45,0,0,0,0,.2.44.44,0,0,0,0,.1.66.66,0,0,0,.16.26l.08.1a11.88,11.88,0,0,1,1.56,2.18,1.52,1.52,0,0,0,.36.41l2.66-1.91a.5.5,0,0,0,.23-.38h0Zm0,22.08a.52.52,0,0,1-.27.36l-5.8,3.34a1.5,1.5,0,0,1-.9.16v5a1.67,1.67,0,0,0,.9-.15l5.79-3.35a.45.45,0,0,0,.27-.38Zm-37.87.9a2,2,0,0,0-.58.13L293,313.25a1.24,1.24,0,0,1-.52.11l0,5a1.47,1.47,0,0,0,.53-.11l5.87-2.72a1.7,1.7,0,0,1,.58-.13Zm17,6.16a.89.89,0,0,1-.71.39h-8.53a.83.83,0,0,1-.52-.19v5a.88.88,0,0,0,.52.18h8.52a.89.89,0,0,0,.74-.43Z" style="fill:#fff;opacity:0.7000000000000001"></path><path d="M330,283.62l-5.88,2.72a2.12,2.12,0,0,1-1.34.08,34,34,0,0,0-4.56-1.08,1.11,1.11,0,0,1-.85-.83l-.74-3.87a.91.91,0,0,0-.86-.71h-8.52a.92.92,0,0,0-.86.71l-.73,3.87a1.14,1.14,0,0,1-.85.83,33.32,33.32,0,0,0-4.56,1.08,2.12,2.12,0,0,1-1.34-.08L293,283.62a1.55,1.55,0,0,0-1.28.06l-5.8,3.34a.44.44,0,0,0,0,.79l4.6,3.3a.61.61,0,0,1,.08.94,11.65,11.65,0,0,0-1.64,2.28,1.4,1.4,0,0,1-1,.69l-7.73.49a.79.79,0,0,0-.72.77v4.31a.79.79,0,0,0,.72.77l7.73.49a1.4,1.4,0,0,1,1,.69,11.31,11.31,0,0,0,1.64,2.27.62.62,0,0,1-.08.95l-4.6,3.3a.43.43,0,0,0,0,.78l5.8,3.35a1.55,1.55,0,0,0,1.28.06l5.88-2.72a2.12,2.12,0,0,1,1.34-.08,36.54,36.54,0,0,0,4.56,1.08,1.12,1.12,0,0,1,.85.83l.73,3.87a.92.92,0,0,0,.86.71h8.52a.91.91,0,0,0,.86-.71l.74-3.87a1.1,1.1,0,0,1,.85-.83,37.4,37.4,0,0,0,4.56-1.08,2.12,2.12,0,0,1,1.34.08l5.88,2.72a1.55,1.55,0,0,0,1.28-.06l5.79-3.35a.43.43,0,0,0,0-.78l-4.59-3.3a.62.62,0,0,1-.08-.95,11.71,11.71,0,0,0,1.64-2.27,1.4,1.4,0,0,1,1-.69l7.72-.49a.78.78,0,0,0,.72-.77v-4.31a.77.77,0,0,0-.72-.77l-7.72-.49a1.4,1.4,0,0,1-1-.69,12.08,12.08,0,0,0-1.64-2.28.61.61,0,0,1,.08-.94l4.59-3.3a.43.43,0,0,0,0-.79l-5.79-3.34A1.55,1.55,0,0,0,330,283.62Zm-8.7,9.16c5.41,3.12,5.41,8.18,0,11.31s-14.17,3.12-19.58,0-5.41-8.19,0-11.31S315.89,289.66,321.29,292.78Z" style="fill:#FF6366"></path><g style="opacity:0.55"><path d="M330,283.62l-5.88,2.72a2.12,2.12,0,0,1-1.34.08,34,34,0,0,0-4.56-1.08,1.11,1.11,0,0,1-.85-.83l-.74-3.87a.91.91,0,0,0-.86-.71h-8.52a.92.92,0,0,0-.86.71l-.73,3.87a1.14,1.14,0,0,1-.85.83,33.32,33.32,0,0,0-4.56,1.08,2.12,2.12,0,0,1-1.34-.08L293,283.62a1.55,1.55,0,0,0-1.28.06l-5.8,3.34a.44.44,0,0,0,0,.79l4.6,3.3a.61.61,0,0,1,.08.94,11.65,11.65,0,0,0-1.64,2.28,1.4,1.4,0,0,1-1,.69l-7.73.49a.79.79,0,0,0-.72.77v4.31a.79.79,0,0,0,.72.77l7.73.49a1.4,1.4,0,0,1,1,.69,11.31,11.31,0,0,0,1.64,2.27.62.62,0,0,1-.08.95l-4.6,3.3a.43.43,0,0,0,0,.78l5.8,3.35a1.55,1.55,0,0,0,1.28.06l5.88-2.72a2.12,2.12,0,0,1,1.34-.08,36.54,36.54,0,0,0,4.56,1.08,1.12,1.12,0,0,1,.85.83l.73,3.87a.92.92,0,0,0,.86.71h8.52a.91.91,0,0,0,.86-.71l.74-3.87a1.1,1.1,0,0,1,.85-.83,37.4,37.4,0,0,0,4.56-1.08,2.12,2.12,0,0,1,1.34.08l5.88,2.72a1.55,1.55,0,0,0,1.28-.06l5.79-3.35a.43.43,0,0,0,0-.78l-4.59-3.3a.62.62,0,0,1-.08-.95,11.71,11.71,0,0,0,1.64-2.27,1.4,1.4,0,0,1,1-.69l7.72-.49a.78.78,0,0,0,.72-.77v-4.31a.77.77,0,0,0-.72-.77l-7.72-.49a1.4,1.4,0,0,1-1-.69,12.08,12.08,0,0,0-1.64-2.28.61.61,0,0,1,.08-.94l4.59-3.3a.43.43,0,0,0,0-.79l-5.79-3.34A1.55,1.55,0,0,0,330,283.62Zm-8.7,9.16c5.41,3.12,5.41,8.18,0,11.31s-14.17,3.12-19.58,0-5.41-8.19,0-11.31S315.89,289.66,321.29,292.78Z" style="fill:#fff"></path></g><g style="opacity:0.55"><path d="M315.76,280.34h0a.51.51,0,0,1,.46.38l.73,3.87a1.51,1.51,0,0,0,1.19,1.15,35.67,35.67,0,0,1,4.5,1.07,2.26,2.26,0,0,0,.67.09,2.4,2.4,0,0,0,1-.19l5.88-2.72a1.09,1.09,0,0,1,.39-.07,1.07,1.07,0,0,1,.51.11l5.8,3.35.06,0h0a.16.16,0,0,1-.06.05l-4.59,3.31a1,1,0,0,0-.43.73,1.06,1.06,0,0,0,.28.82,11.06,11.06,0,0,1,1.58,2.2,1.86,1.86,0,0,0,1.38.9l7.73.49a.37.37,0,0,1,.33.36v4.31a.36.36,0,0,1-.33.35l-7.73.49a1.9,1.9,0,0,0-1.38.91,10.72,10.72,0,0,1-1.58,2.19,1.08,1.08,0,0,0-.28.83,1,1,0,0,0,.43.73l4.59,3.31.06,0h0l-.06.05-5.8,3.34a1.05,1.05,0,0,1-.5.12.92.92,0,0,1-.4-.08l-5.88-2.72a2.4,2.4,0,0,0-1-.19,2.26,2.26,0,0,0-.67.09,32.86,32.86,0,0,1-4.5,1.07,1.54,1.54,0,0,0-1.19,1.16l-.73,3.87a.51.51,0,0,1-.46.38h-8.52a.5.5,0,0,1-.45-.38l-.74-3.87a1.51,1.51,0,0,0-1.18-1.16,33,33,0,0,1-4.51-1.07,2.24,2.24,0,0,0-.66-.09,2.45,2.45,0,0,0-1,.19l-5.87,2.72a1,1,0,0,1-.4.08,1.13,1.13,0,0,1-.51-.12l-5.79-3.34-.06,0h0l.05-.05,4.6-3.31a1,1,0,0,0,.43-.73,1.08,1.08,0,0,0-.28-.83,10.78,10.78,0,0,1-1.59-2.19,1.86,1.86,0,0,0-1.38-.91l-7.72-.49a.36.36,0,0,1-.33-.35v-4.31a.37.37,0,0,1,.33-.36l7.72-.49a1.81,1.81,0,0,0,1.38-.91,11.8,11.8,0,0,1,1.59-2.19,1.06,1.06,0,0,0,.28-.82,1,1,0,0,0-.43-.73l-4.6-3.31-.05,0h0s0,0,.06-.05l5.79-3.35a1.13,1.13,0,0,1,.51-.11,1.15,1.15,0,0,1,.4.07l5.87,2.72a2.45,2.45,0,0,0,1,.19,2.19,2.19,0,0,0,.66-.09,35.83,35.83,0,0,1,4.51-1.07,1.49,1.49,0,0,0,1.18-1.15l.74-3.87a.5.5,0,0,1,.45-.38h8.52m-4.26,26.5a20.29,20.29,0,0,0,10-2.4c2.75-1.58,4.26-3.72,4.26-6s-1.51-4.42-4.26-6a22.09,22.09,0,0,0-20,0c-2.75,1.59-4.27,3.72-4.27,6s1.52,4.43,4.27,6a20.23,20.23,0,0,0,10,2.4m4.26-26.91h-8.52a.92.92,0,0,0-.86.71l-.73,3.87a1.14,1.14,0,0,1-.85.83,33.32,33.32,0,0,0-4.56,1.08,1.77,1.77,0,0,1-.54.07,2,2,0,0,1-.8-.15L293,283.62a1.29,1.29,0,0,0-.57-.11,1.36,1.36,0,0,0-.71.17l-5.8,3.34a.44.44,0,0,0,0,.79l4.6,3.3a.61.61,0,0,1,.08.94,11.65,11.65,0,0,0-1.64,2.28,1.4,1.4,0,0,1-1,.69l-7.73.49a.79.79,0,0,0-.72.77v4.31a.79.79,0,0,0,.72.77l7.73.49a1.4,1.4,0,0,1,1,.69,11.31,11.31,0,0,0,1.64,2.27.62.62,0,0,1-.08.95l-4.6,3.3a.43.43,0,0,0,0,.78l5.8,3.35a1.55,1.55,0,0,0,1.28.06l5.88-2.72a2,2,0,0,1,.8-.16,1.75,1.75,0,0,1,.54.08,36.54,36.54,0,0,0,4.56,1.08,1.12,1.12,0,0,1,.85.83l.73,3.87a.92.92,0,0,0,.86.71h8.52a.91.91,0,0,0,.86-.71l.74-3.87a1.1,1.1,0,0,1,.85-.83,37.4,37.4,0,0,0,4.56-1.08,1.75,1.75,0,0,1,.54-.08,2,2,0,0,1,.8.16l5.88,2.72a1.45,1.45,0,0,0,.57.11,1.49,1.49,0,0,0,.71-.17l5.79-3.35a.43.43,0,0,0,0-.78l-4.59-3.3a.62.62,0,0,1-.08-.95,11.71,11.71,0,0,0,1.64-2.27,1.4,1.4,0,0,1,1-.69l7.72-.49a.78.78,0,0,0,.72-.77v-4.31a.77.77,0,0,0-.72-.77l-7.72-.49a1.4,1.4,0,0,1-1-.69,12.08,12.08,0,0,0-1.64-2.28.61.61,0,0,1,.08-.94l4.59-3.3a.43.43,0,0,0,0-.79l-5.79-3.34a1.4,1.4,0,0,0-.72-.17,1.27,1.27,0,0,0-.56.11l-5.88,2.72a2,2,0,0,1-.8.15,1.77,1.77,0,0,1-.54-.07,34,34,0,0,0-4.56-1.08,1.11,1.11,0,0,1-.85-.83l-.74-3.87a.91.91,0,0,0-.86-.71Zm-4.26,26.5a20,20,0,0,1-9.79-2.34c-5.41-3.13-5.4-8.19,0-11.31a21.65,21.65,0,0,1,19.58,0c5.41,3.12,5.41,8.18,0,11.31a20,20,0,0,1-9.79,2.34Z" style="fill:#fff"></path></g></g></g><g id="freepik--Color--inject-63"><g id="freepik--color--inject-63"><path id="freepik--shadow--inject-63" d="M61.63,177.57a2.34,2.34,0,0,0-1.13.34L39.47,190a5.62,5.62,0,0,0-2.54,4.4v89.83a3.1,3.1,0,0,0,.27,1.28,2.31,2.31,0,0,0,.66.85,1.37,1.37,0,0,0,.23.11.83.83,0,0,0,.22.08,1.65,1.65,0,0,0,.32,0h0a1.66,1.66,0,0,0,.81-.24l21-12.17a5.61,5.61,0,0,0,2.54-4.4V179.38c0-.11,0-.22,0-.32a.59.59,0,0,0,0-.23,0,0,0,0,0,0-.05.56.56,0,0,0-.06-.23,1.3,1.3,0,0,0-.14-.32.38.38,0,0,0-.09-.13.36.36,0,0,0-.07-.1.87.87,0,0,0-.17-.16l0,0a.88.88,0,0,0-.21-.12,1.27,1.27,0,0,0-.58-.13Z" style="opacity:0.15"></path><g id="freepik--Window--inject-63"><path d="M74.36,182.74a2.36,2.36,0,0,0-1.13.35l-21,12.13a5.6,5.6,0,0,0-2.54,4.39v89.83a3,3,0,0,0,.27,1.28,2.15,2.15,0,0,0,.66.85l.23.12a.81.81,0,0,0,.22.07,1.12,1.12,0,0,0,.32,0h0a1.66,1.66,0,0,0,.8-.24l21-12.17A5.6,5.6,0,0,0,75.77,275V184.55c0-.11,0-.22,0-.32a.62.62,0,0,0,0-.23s0,0,0-.05a.71.71,0,0,0,0-.22,1.66,1.66,0,0,0-.15-.33.38.38,0,0,0-.09-.13.31.31,0,0,0-.07-.09.69.69,0,0,0-.17-.17l0,0a.88.88,0,0,0-.21-.12,1.41,1.41,0,0,0-.58-.13Z" style="fill:#455a64"></path><path d="M74.94,182.87a1.82,1.82,0,0,0-1.71.22l-21,12.12a5.27,5.27,0,0,0-1.77,1.88h0l-6.5-3.71a5,5,0,0,1,1.76-1.84l21-12.14a1.78,1.78,0,0,1,1.84-.15C69,179.53,74.4,182.58,74.94,182.87Z" style="fill:#37474f"></path><path d="M61.38,193.44a3.76,3.76,0,0,0-1.43,3c0,1.22.64,1.83,1.43,1.38a3.8,3.8,0,0,0,1.43-3C62.81,193.6,62.17,193,61.38,193.44Z" style="fill:#fafafa"></path><path d="M66.54,190.45a3.8,3.8,0,0,0-1.43,3c0,1.21.64,1.83,1.43,1.37a3.76,3.76,0,0,0,1.43-3C68,190.61,67.33,190,66.54,190.45Z" style="fill:#fafafa"></path><path d="M71.69,187.47a3.78,3.78,0,0,0-1.43,3c0,1.22.64,1.84,1.43,1.38a3.75,3.75,0,0,0,1.44-3C73.13,187.63,72.49,187,71.69,187.47Z" style="fill:#fafafa"></path><path d="M49.93,290.72a3.41,3.41,0,0,1-.27-1.28V207.9h0v-8.29a5.13,5.13,0,0,1,.75-2.52l-6.5-3.71a5.27,5.27,0,0,0-.77,2.54v8.24h0V285.7a3.18,3.18,0,0,0,.29,1.34,2.22,2.22,0,0,0,.78.86l6.06,3.49.31.18A2.46,2.46,0,0,1,49.93,290.72Z" style="fill:#263238"></path></g><path d="M69.65,209.7c0,5.11-3.1,11.05-6.93,13.26s-6.94-.14-6.94-5.25,3.11-11,6.94-13.25S69.65,204.59,69.65,209.7Z" style="fill:#37474f"></path><path d="M69.65,237.06c0,5.11-3.1,11.05-6.93,13.26s-6.94-.14-6.94-5.24,3.11-11.05,6.94-13.26S69.65,232,69.65,237.06Z" style="fill:#263238"></path><path d="M69.65,264.43c0,5.11-3.1,11-6.93,13.25s-6.94-.13-6.94-5.24,3.11-11.05,6.94-13.26S69.65,259.32,69.65,264.43Z" style="fill:#fafafa"></path></g><g id="freepik--color--inject-63"><path id="freepik--shadow--inject-63" d="M61.63,291.36a2.34,2.34,0,0,0-1.13.34l-21,12.13a5.62,5.62,0,0,0-2.54,4.39v89.83a3,3,0,0,0,.27,1.28,2.15,2.15,0,0,0,.66.85l.23.12a.81.81,0,0,0,.22.07,1.13,1.13,0,0,0,.32.05h0a1.68,1.68,0,0,0,.81-.25L60.5,388A5.6,5.6,0,0,0,63,383.61V293.16a3,3,0,0,0,0-.31.64.64,0,0,0,0-.24s0,0,0-.05a.55.55,0,0,0-.06-.22,1.22,1.22,0,0,0-.14-.33.38.38,0,0,0-.09-.13.31.31,0,0,0-.07-.09.69.69,0,0,0-.17-.17h0a1.48,1.48,0,0,0-.21-.13,1.4,1.4,0,0,0-.58-.12Z" style="opacity:0.15"></path><g id="freepik--window--inject-63"><path d="M74.36,296.53a2.34,2.34,0,0,0-1.13.34L52.2,309a5.62,5.62,0,0,0-2.54,4.4v89.83a3.1,3.1,0,0,0,.27,1.28,2.31,2.31,0,0,0,.66.85l.23.11a.83.83,0,0,0,.22.08,1.65,1.65,0,0,0,.32,0h0a1.66,1.66,0,0,0,.8-.24l21-12.18a5.59,5.59,0,0,0,2.54-4.39V298.34c0-.11,0-.22,0-.32a.59.59,0,0,0,0-.23,0,0,0,0,0,0-.05.78.78,0,0,0,0-.23,1.87,1.87,0,0,0-.15-.32.55.55,0,0,0-.09-.14l-.07-.09a.87.87,0,0,0-.17-.16l0,0a.88.88,0,0,0-.21-.12,1.27,1.27,0,0,0-.58-.13Z" style="fill:#455a64"></path><path d="M74.94,296.65a1.83,1.83,0,0,0-1.71.23L52.2,309a5.23,5.23,0,0,0-1.77,1.87h0l-6.5-3.7a5,5,0,0,1,1.76-1.85l21-12.13a1.76,1.76,0,0,1,1.84-.16C69,293.31,74.4,296.37,74.94,296.65Z" style="fill:#37474f"></path><path d="M61.38,307.22a3.79,3.79,0,0,0-1.43,3c0,1.22.64,1.84,1.43,1.38a3.78,3.78,0,0,0,1.43-3C62.81,307.38,62.17,306.76,61.38,307.22Z" style="fill:#fafafa"></path><path d="M66.54,304.24a3.76,3.76,0,0,0-1.43,3c0,1.22.64,1.84,1.43,1.38a3.79,3.79,0,0,0,1.43-3C68,304.4,67.33,303.78,66.54,304.24Z" style="fill:#fafafa"></path><path d="M71.69,301.26a3.76,3.76,0,0,0-1.43,3c0,1.22.64,1.83,1.43,1.38a3.78,3.78,0,0,0,1.44-3C73.13,301.42,72.49,300.8,71.69,301.26Z" style="fill:#fafafa"></path><path d="M49.93,404.51a3.41,3.41,0,0,1-.27-1.28V321.69h0V313.4a5.13,5.13,0,0,1,.75-2.52l-6.5-3.71a5.2,5.2,0,0,0-.77,2.53v8.24h0v81.53a3.14,3.14,0,0,0,.29,1.34,2.3,2.3,0,0,0,.78.87l6.06,3.48.31.19A2.46,2.46,0,0,1,49.93,404.51Z" style="fill:#263238"></path></g><ellipse cx="62.72" cy="327.49" rx="10.65" ry="6.03" transform="translate(-263.19 256.97) rotate(-66.95)" style="fill:#FF6366"></ellipse><path d="M69.65,350.85c0,5.11-3.1,11-6.93,13.25s-6.94-.13-6.94-5.24,3.11-11,6.94-13.25S69.65,345.74,69.65,350.85Z" style="fill:#FF6366"></path><g style="opacity:0.2"><path d="M69.65,350.85c0,5.11-3.1,11-6.93,13.25s-6.94-.13-6.94-5.24,3.11-11,6.94-13.25S69.65,345.74,69.65,350.85Z"></path></g><path d="M69.65,378.21c0,5.11-3.1,11-6.93,13.26s-6.94-.14-6.94-5.25,3.11-11,6.94-13.25S69.65,373.1,69.65,378.21Z" style="fill:#fafafa"></path></g></g><g id="freepik--Tools--inject-63"><g id="freepik--Pentool--inject-63"><path d="M66.09,100a6.41,6.41,0,0,0-2.67,5.1c0,1.75,1,2.66,2.2,2.23v37.14L52.09,116a2.38,2.38,0,0,1,0-1.74,86.6,86.6,0,0,0,6.8-26,2,2,0,0,1,.91-1.42l12.64-7.3a.56.56,0,0,1,.92.47c.85,7.91,3.27,13.77,6.55,17.72a2,2,0,0,1,.35,1.63c-1.9,6.19-12.87,41.85-13.67,44.45V106.74a6.65,6.65,0,0,0,2.2-4.77C68.76,100,67.57,99.1,66.09,100Z" style="fill:#FF6366"></path><path d="M86.42,103,72.75,147.45l-.93-.54V148l-6.2-3.57L52.09,116a2.38,2.38,0,0,1,0-1.74,86.6,86.6,0,0,0,6.8-26,2,2,0,0,1,.91-1.42l12.64-7.3a1.78,1.78,0,0,1,1.65,0l4.55,2.62a2.12,2.12,0,0,1,.92,1.42c.85,7.91,3.27,13.78,6.55,17.73A1.93,1.93,0,0,1,86.42,103Z" style="fill:#FF6366"></path><path d="M86.42,103,72.75,147.45l-.93-.54V148l-6.2-3.57L52.09,116a2.38,2.38,0,0,1,0-1.74,86.6,86.6,0,0,0,6.8-26,2,2,0,0,1,.91-1.42l12.64-7.3a1.78,1.78,0,0,1,1.65,0l4.55,2.62a2.12,2.12,0,0,1,.92,1.42c.85,7.91,3.27,13.78,6.55,17.73A1.93,1.93,0,0,1,86.42,103Z" style="fill:#fff;opacity:0.4"></path><path d="M75,105.54a6.58,6.58,0,0,1-2.2,4.77v37.14l-.93-.54V110.85c-1.25.43-2.2-.47-2.2-2.22a6.37,6.37,0,0,1,2.67-5.1C73.76,102.68,75,103.58,75,105.54Z" style="fill:#FF6366;opacity:0.35000000000000003"></path><path d="M86.42,103,72.75,147.45V110.31a6.58,6.58,0,0,0,2.2-4.77c0-2-1.19-2.86-2.66-2a6.37,6.37,0,0,0-2.67,5.1c0,1.75.95,2.65,2.2,2.22V148l-13.54-28.4a2.4,2.4,0,0,1,0-1.73,86.9,86.9,0,0,0,6.8-26A2,2,0,0,1,66,90.47l12.64-7.3a.57.57,0,0,1,.92.47c.85,7.91,3.27,13.78,6.55,17.73A1.93,1.93,0,0,1,86.42,103Z" style="fill:#FF6366"></path><g style="opacity:0.8"><path d="M86.42,103,72.75,147.45V110.31a6.58,6.58,0,0,0,2.2-4.77c0-2-1.19-2.86-2.66-2a6.37,6.37,0,0,0-2.67,5.1c0,1.75.95,2.65,2.2,2.22V148l-13.54-28.4a2.4,2.4,0,0,1,0-1.73,86.9,86.9,0,0,0,6.8-26A2,2,0,0,1,66,90.47l12.64-7.3a.57.57,0,0,1,.92.47c.85,7.91,3.27,13.78,6.55,17.73A1.93,1.93,0,0,1,86.42,103Z" style="fill:#fff"></path></g><path d="M79.5,83.51a.55.55,0,0,0-.89-.34L66,90.47a1.94,1.94,0,0,0-.66.7l-6.19-3.58a1.89,1.89,0,0,1,.65-.69l12.64-7.3a1.8,1.8,0,0,1,1.66,0l4.54,2.62A2.1,2.1,0,0,1,79.5,83.51Z" style="opacity:0.15"></path><path d="M56.08,75.56,76.11,64a1.84,1.84,0,0,1,1.65,0l4.54,2.63a1.81,1.81,0,0,1,.83,1.43v8.82a1.81,1.81,0,0,1-.83,1.43l-20,11.57a1.84,1.84,0,0,1-1.65,0l-4.54-2.63a1.81,1.81,0,0,1-.83-1.43V77A1.81,1.81,0,0,1,56.08,75.56Z" style="fill:#37474f"></path><path d="M83.12,67.92c-.06-.43-.4-.59-.82-.35l-20,11.56a1.68,1.68,0,0,0-.59.62l-6.2-3.57a1.76,1.76,0,0,1,.59-.62L76.11,64a1.84,1.84,0,0,1,1.65,0l4.54,2.63A1.83,1.83,0,0,1,83.12,67.92Z" style="fill:#455a64"></path><path d="M62.14,89.93h-.07l0,0-.08,0-.1,0h-.07l-.14,0a1.72,1.72,0,0,1-1-.18l-4.54-2.63a1.81,1.81,0,0,1-.83-1.43V77a1.8,1.8,0,0,1,.24-.81l6.2,3.57a1.68,1.68,0,0,0-.24.81v8.83c0,.37.19.59.46.59A.23.23,0,0,0,62,90,.27.27,0,0,0,62.14,89.93Z" style="fill:#263238"></path><path d="M71.82,148l-6.2-3.57L52.09,116a2.35,2.35,0,0,1-.18-.79l6.2,3.58a2.13,2.13,0,0,0,.17.79Z" style="opacity:0.15"></path><path d="M72.75,110.31v37.14l-.93-.54V110.85c-1.25.43-2.2-.47-2.2-2.22v-.12Z" style="opacity:0.15"></path><path d="M101.38,99.63c0-1-.71-1.41-1.58-.91a3.5,3.5,0,0,0-1.58,2.74c0,.82.47,1.23,1.11,1.09-.89,18.66-14,40.64-29.88,49.84-7.92,4.57-15.34,5.32-20.9,2.11-5.24-3-8.26-9.27-8.58-17.65a3.54,3.54,0,0,0,1.13-2.39c0-1-.71-1.42-1.58-.91a3.48,3.48,0,0,0-1.59,2.73c0,.87.52,1.28,1.22,1.08.42,8.44,3.57,14.75,9,17.87a15.88,15.88,0,0,0,8.07,2.08c4.2,0,8.85-1.41,13.67-4.19,16.29-9.41,29.63-32,30.32-51A3.57,3.57,0,0,0,101.38,99.63Z" style="fill:#455a64"></path><path d="M99.8,133.6a3.55,3.55,0,0,0-1.52,2.22L41,168.89c-.2-.62-.79-.82-1.49-.41a3.48,3.48,0,0,0-1.59,2.74c0,1,.71,1.42,1.59.91a3.54,3.54,0,0,0,1.53-2.29l57.23-33.05c.19.67.79.89,1.52.47a3.51,3.51,0,0,0,1.58-2.74C101.38,133.51,100.67,133.1,99.8,133.6Z" style="fill:#455a64"></path><path d="M41.72,135.35a2.25,2.25,0,1,1-2.25-2.25A2.25,2.25,0,0,1,41.72,135.35Z" style="fill:#455a64"></path><path d="M41.64,170.26A2.25,2.25,0,1,1,39.39,168,2.25,2.25,0,0,1,41.64,170.26Z" style="fill:#455a64"></path><path d="M102.18,135.49a2.25,2.25,0,1,1-2.25-2.25A2.25,2.25,0,0,1,102.18,135.49Z" style="fill:#455a64"></path><circle cx="99.72" cy="100.5" r="2.25" style="fill:#455a64"></circle></g><g id="freepik--Button--inject-63"><g id="freepik--button--inject-63"><path d="M128.29,77.16l35.23-20.37c1.39-.8,2.51-.15,2.51,1.45V99.18a5.52,5.52,0,0,1-2.51,4.34l-35.23,20.37c-1.39.8-2.51.16-2.51-1.44V81.5A5.52,5.52,0,0,1,128.29,77.16Z" style="fill:#FF6366"></path><path d="M128.29,77.16l35.23-20.37c1.39-.8,2.51-.15,2.51,1.45V99.18a5.52,5.52,0,0,1-2.51,4.34l-35.23,20.37c-1.39.8-2.51.16-2.51-1.44V81.5A5.52,5.52,0,0,1,128.29,77.16Z" style="fill:#fff;opacity:0.30000000000000004"></path><path d="M126.52,79l-6.4-3.7a5.13,5.13,0,0,0-.73,2.47v41a1.79,1.79,0,0,0,.71,1.61c.47.27,5.94,3.4,6.37,3.68a1.8,1.8,0,0,1-.68-1.6V81.5A5.17,5.17,0,0,1,126.52,79Z" style="fill:#FF6366"></path><path d="M165.2,56.56c-.9-.55-5.87-3.4-6.28-3.64a1.77,1.77,0,0,0-1.79.16L121.9,73.46a5.18,5.18,0,0,0-1.78,1.87l6.4,3.7a5.07,5.07,0,0,1,1.77-1.87l35.24-20.37A1.84,1.84,0,0,1,165.2,56.56Z" style="fill:#FF6366"></path><path d="M165.2,56.56c-.9-.55-5.87-3.4-6.28-3.64a1.77,1.77,0,0,0-1.79.16L121.9,73.46a5.18,5.18,0,0,0-1.78,1.87l6.4,3.7a5.07,5.07,0,0,1,1.77-1.87l35.24-20.37A1.84,1.84,0,0,1,165.2,56.56Z" style="fill:#fff;opacity:0.45"></path></g><path d="M143.62,74.14l-1.79,3.42-.4-.81a2,2,0,0,0-2.18-1.2,4.82,4.82,0,0,0-2.85,2c-1.83,2.32-2.56,5.74-1.61,7.64l1.48,3-4.45,8.51c-1.24,2.38-1.24,5.07,0,6l8.72,6.6c1.25.94,3.27-.23,4.51-2.61l11.81-22.55Zm-7.21,9a4.2,4.2,0,0,1,.82-3.91,2.54,2.54,0,0,1,1.46-1,1,1,0,0,1,1.12.62l.67,1.35-2.85,5.44Zm6.8,22.18c-.54,1-1.4,1.52-1.94,1.12l-7.3-5.51c-.54-.41-.54-1.56,0-2.58l8-15.23,1.76,3.54c-.92,1.9-.88,4,.1,4.73s2.68-.18,3.71-2.14,1-4.16,0-4.94a1.8,1.8,0,0,0-2.2.28l-2-4.06,1.19-2.27,9.24,7Z" style="fill:#fafafa"></path><path d="M159.6,96h0c-1.16,2.21-3,3.3-4.21,2.42h0c-1-.77-1.16-2.86-.31-4.92l2.42-5.9,2.41,3.11C160.76,91.76,160.62,94,159.6,96Z" style="fill:#fafafa"></path></g><g id="freepik--text-icon--inject-63"><path d="M213.94,25.38V41.84l-1.49.83V37.49c0-2.8-2.28-3.75-5.09-2.13l-7,4V69.07c0,3.24,2,4.72,4.43,3.31l4.34-2.5,0,0,4.75,2.74L190.19,86.31,187,84.46l-1.55.89V83.56L189.82,81c2.45-1.41,4.43-5.18,4.43-8.43V42.93l-7,4c-2.81,1.62-5.08,5.2-5.08,8v5.19l-1.5.89V44.58Z" style="fill:#FF6366"></path><path d="M213.94,25.38V41.84l-1.49.83V37.49c0-2.8-2.28-3.75-5.09-2.13l-7,4V69.07c0,3.24,2,4.72,4.43,3.31l4.34-2.5,0,0,4.75,2.74L190.19,86.31,187,84.46l-1.55.89V83.56L189.82,81c2.45-1.41,4.43-5.18,4.43-8.43V42.93l-7,4c-2.81,1.62-5.08,5.2-5.08,8v5.19l-1.5.89V44.58Z" style="fill:#fff;opacity:0.2"></path><polygon points="217.2 45.42 212.45 42.67 212.45 34.48 217.2 35.38 217.2 45.42" style="fill:#FF6366"></polygon><path d="M218.69,28.13V44.58l-1.49.84V40.23c0-2.8-2.28-3.75-5.09-2.13l-7,4V71.81c0,3.24,2,4.72,4.43,3.31l4.38-2.53v1.79L190.19,88.09V86.31l4.38-2.53C197,82.36,199,78.59,199,75.35V45.67l-7,4c-2.81,1.62-5.08,5.2-5.08,8v5.19l-1.5.89V47.32Z" style="fill:#FF6366"></path><path d="M218.69,28.13V44.58l-1.49.84V40.23c0-2.8-2.28-3.75-5.09-2.13l-7,4V71.81c0,3.24,2,4.72,4.43,3.31l4.38-2.53v1.79L190.19,88.09V86.31l4.38-2.53C197,82.36,199,78.59,199,75.35V45.67l-7,4c-2.81,1.62-5.08,5.2-5.08,8v5.19l-1.5.89V47.32Z" style="fill:#fff;opacity:0.5"></path><polygon points="213.94 25.39 218.69 28.13 185.44 47.33 180.69 44.58 213.94 25.39" style="fill:#FF6366"></polygon><polygon points="213.94 25.39 218.69 28.13 185.44 47.33 180.69 44.58 213.94 25.39" style="fill:#fff;opacity:0.7000000000000001"></polygon><polygon points="180.69 44.58 185.44 47.33 185.44 63.78 180.69 61.04 180.69 44.58" style="fill:#FF6366"></polygon><polygon points="180.69 44.58 185.44 47.33 185.44 63.78 180.69 61.04 180.69 44.58" style="fill:#fff;opacity:0.2"></polygon><polygon points="185.44 83.56 190.19 86.31 190.19 88.09 185.44 85.35 185.44 83.56" style="fill:#FF6366"></polygon></g></g><g id="freepik--Screen--inject-63"><g id="freepik--window--inject-63"><g id="freepik--window--inject-63"><g id="freepik--window--inject-63"><path d="M114.62,329.43a1.66,1.66,0,0,0,.81-.24L313.1,214.88a6.82,6.82,0,0,0,3-5.24V72.6c0-1.13-.48-1.8-1.27-1.8a2.51,2.51,0,0,0-1.2.37L116,185.43a6.76,6.76,0,0,0-3,5.24V326.91a3.29,3.29,0,0,0,.52,1.84A1.42,1.42,0,0,0,114.62,329.43Z" style="fill:#fff"></path><path d="M109.56,327.38c.36.19,2.93,1.66,4.06,2.3a3.38,3.38,0,0,1-1.22-2.78V195.1l-4.23-2.44V324.51A3.22,3.22,0,0,0,109.56,327.38Z" style="fill:#37474f"></path></g><path id="freepik--Outline--inject-63" d="M314.86,71.35c.62,0,.71.78.71,1.25v137a6.14,6.14,0,0,1-2.75,4.75L115.15,328.7a1.16,1.16,0,0,1-.53.17c-.59,0-1.1-.92-1.1-2V190.67a6.17,6.17,0,0,1,2.74-4.76L313.94,71.66a1.91,1.91,0,0,1,.92-.31m0-1.11a3,3,0,0,0-1.48.45L115.71,184.94a7.31,7.31,0,0,0-3.31,5.73V326.91c0,1.66.93,3.08,2.22,3.08a2.18,2.18,0,0,0,1.09-.32L313.38,215.36a7.3,7.3,0,0,0,3.3-5.72V72.6c0-1.5-.74-2.36-1.82-2.36Z" style="fill:#455a64"></path><g id="freepik--up-bar--inject-63"><path d="M316.68,72.53v4.52L112.4,195.1l-4.23-2.44v-4.39a6.77,6.77,0,0,1,1-3.31,6.52,6.52,0,0,1,2.3-2.41L309.16,68.3a2.37,2.37,0,0,1,2.41-.2c.6.37,3.49,2,4.09,2.32a1.1,1.1,0,0,1,.25.17,1.6,1.6,0,0,1,.26.26,2.39,2.39,0,0,1,.21.34,1.59,1.59,0,0,1,.16.4,2.11,2.11,0,0,1,.1.45v0A3.43,3.43,0,0,1,316.68,72.53Z" style="fill:#263238"></path><path d="M316.68,72.53v4.52L112.4,195.1v-4.43a5.83,5.83,0,0,1,.4-2c0-.11.09-.23.14-.34a7.56,7.56,0,0,1,.45-.9,6.58,6.58,0,0,1,2.32-2.44L313.38,70.69a2.2,2.2,0,0,1,2.53-.1,1.6,1.6,0,0,1,.26.26,2.39,2.39,0,0,1,.21.34,1.59,1.59,0,0,1,.16.4,2.11,2.11,0,0,1,.1.45v0A3.43,3.43,0,0,1,316.68,72.53Z" style="fill:#37474f"></path><path d="M305.37,77.93a2.81,2.81,0,0,0-1.08,2.27c0,.92.48,1.38,1.08,1A2.84,2.84,0,0,0,306.44,79C306.44,78.05,306,77.59,305.37,77.93Z" style="fill:#fafafa"></path><path d="M309.24,75.69A2.82,2.82,0,0,0,308.16,78c0,.91.48,1.37,1.08,1a2.83,2.83,0,0,0,1.07-2.27C310.31,75.81,309.83,75.35,309.24,75.69Z" style="fill:#fafafa"></path><path d="M313.11,73.45A2.85,2.85,0,0,0,312,75.73c0,.91.48,1.38,1.08,1a2.83,2.83,0,0,0,1.07-2.27C314.18,73.57,313.7,73.11,313.11,73.45Z" style="fill:#fafafa"></path><path d="M313.38,70.69,115.71,184.94a6.74,6.74,0,0,0-2.33,2.46l-4.2-2.44a6.52,6.52,0,0,1,2.3-2.41L309.16,68.3a2.33,2.33,0,0,1,2.4-.2c.59.36,3.34,1.92,4,2.3A2.38,2.38,0,0,0,313.38,70.69Z" style="fill:#455a64"></path></g></g><polygon points="289.88 184.71 143.46 269.24 143.46 274.64 289.88 190.11 289.88 184.71" style="fill:#263238"></polygon><path d="M146.11,256.65a.72.72,0,0,1-.83,0,1.06,1.06,0,0,1-.34-.9V218.49a2.8,2.8,0,0,1,.34-1.3,2.19,2.19,0,0,1,.83-.93l12.76-7.38a9.3,9.3,0,0,1,4.63-1.54,4.38,4.38,0,0,1,3,1.1,5.94,5.94,0,0,1,1.62,2.76,11.87,11.87,0,0,1,.5,3.43,14.62,14.62,0,0,1-.35,3.29,18.1,18.1,0,0,1-.84,2.79,20.47,20.47,0,0,1-1,2.16,12.87,12.87,0,0,1-.8,1.33,5.06,5.06,0,0,1,2.46,2,8.68,8.68,0,0,1,1.13,5,20.29,20.29,0,0,1-.61,4.7,23.76,23.76,0,0,1-1.77,4.92,21.89,21.89,0,0,1-2.92,4.49,15.28,15.28,0,0,1-4,3.4Zm16.66-38.36c0-1.46-.35-2.37-1-2.72s-1.79-.09-3.29.78l-7.66,4.42v8.88l7.66-4.42a8.84,8.84,0,0,0,3.29-3A7.48,7.48,0,0,0,162.77,218.29Zm-12,28.45,8-4.63a9,9,0,0,0,3.48-3.36,8.49,8.49,0,0,0,1.1-4.19c0-1.46-.38-2.43-1.14-2.92s-1.91-.28-3.44.61l-8,4.62Z" style="fill:#455a64"></path><path d="M187,192.67q5.41-3.12,8.22-1.4t2.82,7.66a22.45,22.45,0,0,1-1.45,8,21.27,21.27,0,0,1-4.27,6.88l6,10.8a1.25,1.25,0,0,1,.14.56,2.26,2.26,0,0,1-.29,1.06,1.75,1.75,0,0,1-.67.76l-3.68,2.13c-.57.33-1,.39-1.27.19a1.86,1.86,0,0,1-.59-.68l-5.67-10.17-5.75,3.33v13.44a2.82,2.82,0,0,1-.35,1.3,2.17,2.17,0,0,1-.82.93l-3.51,2a.7.7,0,0,1-.82,0,1,1,0,0,1-.34-.9V201.35a2.77,2.77,0,0,1,.34-1.3,2.24,2.24,0,0,1,.82-.93Zm-6.49,21.92,6.27-3.62a12.51,12.51,0,0,0,3.94-3.43,8.62,8.62,0,0,0,1.47-5.23q0-3.24-1.47-3.48c-1-.17-2.29.23-3.94,1.18l-6.27,3.62Z" style="fill:#455a64"></path><path d="M230.11,206.19,219.5,175.84a2.39,2.39,0,0,0-.6-1.12c-.23-.19-.58-.16-1,.11l-4.76,2.75a2.54,2.54,0,0,0-1,1.09,8.74,8.74,0,0,0-.61,1.82l-10.6,42.59a1.91,1.91,0,0,0,0,.43,1,1,0,0,0,.34.89.7.7,0,0,0,.83,0l3.11-1.8a2.89,2.89,0,0,0,1.21-1.19,6.15,6.15,0,0,0,.48-1.23l1.86-7.48,1.2-4.84,11.28-6.52,1.2,3.47,1.86,5.33a1.47,1.47,0,0,0,.47.68c.23.19.64.12,1.22-.21l3.11-1.8a2.2,2.2,0,0,0,.82-.94,2.78,2.78,0,0,0,.35-1.29A1.84,1.84,0,0,0,230.11,206.19Zm-14.63-21.1L219,195.32l-7.12,4.11Z" style="fill:#455a64"></path><path d="M253.74,194.51c-.49.28-.87.32-1.13.13a3.91,3.91,0,0,1-.56-.49l-12.12-17v23.77a2.73,2.73,0,0,1-.35,1.3,2.17,2.17,0,0,1-.82.93l-3.5,2a.7.7,0,0,1-.82,0,1,1,0,0,1-.35-.9V167a2.68,2.68,0,0,1,.35-1.3,2.26,2.26,0,0,1,.82-.94l3-1.74c.49-.29.86-.33,1.12-.14a3.91,3.91,0,0,1,.56.49l12.12,17V156.62a2.78,2.78,0,0,1,.35-1.29,2.2,2.2,0,0,1,.82-.94l3.51-2a.69.69,0,0,1,.82,0,1.07,1.07,0,0,1,.34.9v37.28a2.77,2.77,0,0,1-.34,1.29,2.34,2.34,0,0,1-.82.94Z" style="fill:#455a64"></path><path d="M276.54,141a14.64,14.64,0,0,1,5.56-2.09,5.46,5.46,0,0,1,3.94.93,7.31,7.31,0,0,1,2.42,3.62,21.47,21.47,0,0,1,1,6q.18,4.17,0,8.54a36.24,36.24,0,0,1-1,7.17,28.25,28.25,0,0,1-2.4,6.41,24.63,24.63,0,0,1-3.87,5.43,23,23,0,0,1-5.43,4.26l-10.91,6.3a.69.69,0,0,1-.82,0,1,1,0,0,1-.35-.89V149.35a2.78,2.78,0,0,1,.35-1.29,2.27,2.27,0,0,1,.82-.94Zm7.1,11.83a11.64,11.64,0,0,0-.54-3.13,4.07,4.07,0,0,0-1.34-2,3.15,3.15,0,0,0-2.23-.56,8.05,8.05,0,0,0-3.2,1.19l-5.8,3.34v26l6-3.47a13.05,13.05,0,0,0,3.07-2.44,14.13,14.13,0,0,0,2.17-3.07,15.1,15.1,0,0,0,1.32-3.53,20.27,20.27,0,0,0,.54-3.77C283.76,158.4,283.76,155.56,283.64,152.78Z" style="fill:#455a64"></path></g></g><g id="freepik--Character--inject-63"><g id="freepik--character--inject-63"><g id="freepik--character--inject-63"><g id="freepik--Bottom--inject-63"><path d="M441.75,357.82c-.71-2.71,1.83-4.54,3-6.16,1.81-2.51,2.2-6.29,2.08-9.18-.15-3.61.18-6.2-2.08-9.38-2.67-3.77-6.35-8.16-18.55-18.79l14-15.89c3.22,4.9,11.5,22.15,11.5,22.15l.55,1.07a19.48,19.48,0,0,0,4.74,4.43l.83.4c1.42.94,5,1.86,5,5.32s-1.2,4.37-2.59,7.26a10.62,10.62,0,0,0-1.51,6.24c0,2.79.26,4,.37,6.47.1,2.1-1.65,5.22-5.45,6.73C448.17,360.69,442.44,360.49,441.75,357.82Z" style="fill:#ffbda7"></path><path d="M464.89,331.82a39,39,0,0,1,4.47,7.43l-3.68,5.82-3.44-5.6A21.19,21.19,0,0,0,464.89,331.82Z" style="fill:#263238"></path><path d="M465.68,345.07l-5.32-.18a4.92,4.92,0,0,1,.41-3.45,7,7,0,0,1,1.47-2Z"></path><path d="M463.78,330.58a3.93,3.93,0,0,1,1.07,1.11,10.67,10.67,0,0,1-.94,5.9c-1.05,1.76-2.78,3.66-3.14,6.14s.76,6.19-.06,9.66-3.84,7.51-10.69,8.69c-4.9.85-6.79-.05-8.47-1.07-.67-2.2-.63-2.78,2-4.77S463.78,330.58,463.78,330.58Z" style="fill:#263238"></path><path d="M454.31,321.86c2.3,2.67,3.12,3.7,5.2,4.85a9.33,9.33,0,0,1,4.27,3.87c.6,2.95.07,4.2-2.41,8.11a11.51,11.51,0,0,0-2.05,8c.21,4.33,1.75,6.32-3.13,10.94-3.8,3.6-12.36,4.15-14.77,1.85-2.19-5.84,2.93-5.61,3.91-11.91a21.44,21.44,0,0,0-.53-10.37,29,29,0,0,0-1.89-4.47c-.88-1.44-1.65-2.48-1-3.28l1.31,1.56c1.26.24,4.25-.56,6.18-2.31,4.66-4.23,2.89-7,2.89-7l-.55-1.07C452.2,319.94,453,320.35,454.31,321.86Z" style="fill:#37474f"></path><path d="M396.31,186c-.92,8.57-4.48,19.42-6,39.71-1.4,19-2,28.94-.35,38.31.57,3.34,2.36,7.21,5.67,12.06,10.4,15.19,30.64,38.94,30.64,38.94s4.4-.25,9.57-4.9a15.93,15.93,0,0,0,5-10.87s-.64-3.53-9.27-17.56a78.28,78.28,0,0,1-10.2-29.51l3.23-61.05C412.07,192.76,402.37,190.7,396.31,186Z" style="fill:#263238"></path><path d="M435.88,310.09a15.93,15.93,0,0,0,5-10.87s-.64-3.53-9.27-17.56a78.28,78.28,0,0,1-10.2-29.51l2.47-46.73c-9.94-1.23-23.73-.57-23.73-.57,0,6.67,1.66,14.87,11,19.49,0,0-.57,32.83-.46,42.42.09,7.32,2.76,25.86,4,34.24,6.44,7.94,11.59,14,11.59,14S430.71,314.74,435.88,310.09Z"></path><path d="M420.34,345.77l-.11-1.47-2.4-29.86,20.25,4.49-3.64,24.15-.11,1.26s0,6.1-9,6.79C420.78,351.48,420.34,345.77,420.34,345.77Z" style="fill:#ffbda7"></path><polygon points="432.12 372.64 425.06 370.19 424.59 363.26 431.78 365.8 432.12 372.64"></polygon><path d="M438.36,356.81c.38,2.55-1.29,12.42-1.29,12.42l-4.95,3.41-.34-6.84a14.18,14.18,0,0,0-2.72,5c-1.29,3.48-2.37,6.07-5.62,7.92s-6.78,2.43-11.66,1.95c-3.48-.34-5.66-1.81-6.27-2.71a3.34,3.34,0,0,1-.25-1.44Z" style="fill:#263238"></path><path d="M420.23,344.3c-1,0-.85.91-1.83,6.7-.73,4.32-3.8,13.46-6.56,16.68-2.43,2.82-7.14,3.83-6.58,8.82,2.23,2.9,9.76,3.78,14.08,2.42,5.54-1.74,7.22-4.63,9.27-10.25,1.65-4.5,3.21-5,5.54-6.9,1.55-1.24,3.65-3,4.21-5,0-4.21-1.64-6.91-2.26-9s-.37-4.45-1.66-4.72l-.11,1.26s-1.08,3.42-7.32,3.79-6.67-2.36-6.67-2.36Z" style="fill:#37474f"></path><path d="M396.31,186s-1.23,11.07,2.54,21c3.27,8.61,9.15,13.31,15.23,15.13,0,0-.65,39.26-1,44.73S414.65,292,416.22,305s2.07,17.41,2.07,17.41,2.75,2.83,10.18,2.7,9.67-3.44,9.67-3.44,4.18-15.21,4-27c-.12-6.77-1.65-10.08-.65-16.83s9.05-36.94,10.1-51.16-1.68-26.56-11.78-40.67C429.69,193.43,406,192.55,396.31,186Z" style="fill:#263238"></path><path d="M435.62,188.31c5.47,7.33,13.49,22.57,8.93,45-1.29,6.38-2.59,12.54-3.85,18.5-2.95,13.95-5.28,25-5.5,29.15a35.08,35.08,0,0,0,.57,7,61.61,61.61,0,0,1,.57,16.53c-.69,7.16-1.79,14.69-2.59,19.79l.87-.3c.8-5.1,1.86-12.44,2.53-19.41a62.21,62.21,0,0,0-.57-16.73A34.43,34.43,0,0,1,436,281c.22-4.12,2.54-15.11,5.48-29,1.26-6,2.56-12.13,3.85-18.51,4.6-22.6-3.41-38-9-45.53Z"></path></g><g id="freepik--Top--inject-63"><path d="M399.46,135.67c-3.29,2.51-9.22,8.57-13.17,12.78-3.37,3.59-6.88,7.17-6.88,7.17-1.77-4.85-5.54-15.18-6.22-17.24-1.12-3-2.8-8.26-3.1-8.94-2.07-4.67-6-8.06-10-11l-2.06-1.5a9.06,9.06,0,0,1-1-.75c-.29-.26-.54-.48-1-.23a1.42,1.42,0,0,0-.56.86,4.2,4.2,0,0,0,.63,3.32,19.34,19.34,0,0,0,2.21,2.67c.58.67-.42.76-.89.73-2.35-.13-5.4-2.3-7.3-3.62a31.28,31.28,0,0,0-3.72-2.64,4.47,4.47,0,0,0-2.72-.5c-.63.1-1.18.41-1,1.19a3.31,3.31,0,0,0,.83,1.24,3.5,3.5,0,0,1,1.22,2.58,8,8,0,0,0-.08,2.07c.18.86.83,1.55,1.09,2.39a19.16,19.16,0,0,1,.19,2.24,6.51,6.51,0,0,0,1.49,2.24,20.83,20.83,0,0,0,4.05,3.74,22.65,22.65,0,0,0,5.44,3.12c1.4.61,3.64.51,4.67,2.87s1.25,4.86,2.43,14c.88,6.8.23,12.86,7.75,22.43,1.33,1.69,3.87,3,8-.39,3.18-2.6,4.51-3.53,6.15-4.89,2.26-1.86,16.52-14.34,16.52-14.34,6.88-9.07,8-15.8,7.83-24C410.37,133.3,403.76,132.38,399.46,135.67Z" style="fill:#ffbda7"></path><path d="M366.76,133.62a7.06,7.06,0,0,0-1.75-3.21,7.74,7.74,0,0,0-2.74-1.82,4.16,4.16,0,0,0-1.7-.34c-.12,0-.33.06-.27.22s.4.26.5.31a13.79,13.79,0,0,1,1.67.95,7.73,7.73,0,0,1,1.83,1.59,12.28,12.28,0,0,1,2.12,4.13c0,.09.08.2.17.23.3.09.34-.35.34-.55A5.88,5.88,0,0,0,366.76,133.62Z" style="fill:#f0997a"></path><path d="M379.41,155.62c1.85,4.58,2.19,9.69,1.64,12.14,2.53-4.51,1.09-9.79-.08-13.74Z" style="fill:#f0997a"></path><path d="M447.86,165.09s-4.32-1.51-6.48-10.41c-1-4-.21-9.54.79-15.92L430,135s-4-.61-12.62-1.17l-7-.55s-11.07,9.67-16,18c-2,3.36-4.48,10.24.52,18.65.28,6.12,1.39,16,1.39,16s4.74,7.39,20.56,7.33c22.69-.09,25.11-7.49,25.11-7.49C441.67,179.25,446.23,171.63,447.86,165.09Z" style="fill:#FF6366"></path><path d="M447.86,165.09s-4.32-1.51-6.48-10.41c-1-4-.21-9.54.79-15.92L430,135s-4-.61-12.62-1.17l-7-.55s-11.07,9.67-16,18c-2,3.36-4.48,10.24.52,18.65.28,6.12,1.39,16,1.39,16s4.74,7.39,20.56,7.33c22.69-.09,25.11-7.49,25.11-7.49C441.67,179.25,446.23,171.63,447.86,165.09Z" style="fill:#fff;opacity:0.2"></path><path d="M409.49,171S413.37,176.2,422,175s10.49-7.8,10.49-7.8.31,8.49-10,10C412.31,178.54,409.49,171,409.49,171Z" style="fill:#FF6366"></path><g id="freepik--Head--inject-63"><path d="M437.36,89.71a9.18,9.18,0,0,0-4.9-3,27.28,27.28,0,0,1-4.67-1.07c-1.66-.66-3.09-1.8-4.74-2.47-3.64-1.49-8-.45-11,2-1.35,1.1-2.62,2.51-4.32,2.8a18.23,18.23,0,0,1-2.56,0,8.17,8.17,0,0,0-6.57,4.22,14.27,14.27,0,0,0-1.79,6.12c-.17,1.92.66,3.7.66,5.56s-1.79,3.67-2.29,5.53-.18,4.4,1.46,5.61a8,8,0,0,1,2.15-5.08,10.45,10.45,0,0,0,1.7,8,8.37,8.37,0,0,0,7.12,3.49,21.74,21.74,0,0,1,3.21-.28c2.11.17,3.79,1.75,5.39,3.16a8.31,8.31,0,0,0,6.63,2.45c2.7-.26,5.61-.54,8-1.9a31.06,31.06,0,0,0,6.61-4.77,15.35,15.35,0,0,0,4.45-8,19.49,19.49,0,0,0-.19-6.68,8,8,0,0,1,1.5,4.26,11.53,11.53,0,0,0,.37-8.47,16,16,0,0,0-2-3.72c-.25-.37-3-2.39-3.05-2A7.86,7.86,0,0,0,437.36,89.71Z" style="fill:#263238"></path><path d="M437.65,110.29c-2.22-.91-4.12-.09-5.36,2.27-1.07,2-3.25,1.28-2.68-1.93-4.94-4.94.95-7.94-3.11-12.7-2.54-3-8.06-2.28-10.3-.49a5.37,5.37,0,0,0-6.2-2.65c-2.34.79-3.83,2.17-5,5.42s0,4-.63,6.43a18.12,18.12,0,0,0-1.26,5.11c-.36,11.24,1.89,14.12,4.3,16,1.66,1.3,3.79,2,7.43,2.11l-.25,4.9s-4.38,3.36-4.92,13.51a46.25,46.25,0,0,0,12.16-4.38c7.17-3.62,8.14-7.64,8.14-7.64l1.54-16.17h0c.49,1.29,3.59,2.87,6.21.77C441,118.18,441.57,111.88,437.65,110.29Z" style="fill:#ffbda7"></path><path d="M406.17,104.44l3.57-1.41a1.83,1.83,0,0,0-2.42-1.15A2.06,2.06,0,0,0,406.17,104.44Z" style="fill:#263238"></path><path d="M420.12,104.25l3.23,2.1a1.88,1.88,0,0,0-.51-2.66A2,2,0,0,0,420.12,104.25Z" style="fill:#263238"></path><path d="M418,118.54l-5.51,1.1a2.82,2.82,0,0,0,3.56,2.18A2.68,2.68,0,0,0,418,118.54Z" style="fill:#b16668"></path><path d="M414.51,121.8a3,3,0,0,1,3.25-2.29,2,2,0,0,1,.26.06,2.5,2.5,0,0,1-2,2.25A3.24,3.24,0,0,1,414.51,121.8Z" style="fill:#ffa8a7"></path><polygon points="415.12 105.94 413.35 115.95 408.5 113.11 415.12 105.94" style="fill:#f0997a"></polygon><path d="M418.62,109a1.61,1.61,0,1,0,1.68-1.54A1.62,1.62,0,0,0,418.62,109Z" style="fill:#263238"></path><path d="M406.76,107.78a1.61,1.61,0,1,0,1.68-1.55A1.63,1.63,0,0,0,406.76,107.78Z" style="fill:#263238"></path><path d="M414.84,129.86c3.56-.16,9.59-.26,12.58-4.26,0,0-.42,2.4-4.07,4.22-2.56,1.28-8.58,1.74-8.58,1.74Z" style="fill:#f0997a"></path></g></g></g><path d="M387.43,168.1a3.57,3.57,0,0,1-.55-3c.52-1.24,1.77-.2,2.26.47,1.23,1.66,5.08,3.94,6.42,6.13s1.82,4.54,5.16,6.43c3.55,2,25.72,2.77,25.72,2.77L432.62,160s3.68-14.87,9.55-21.27a14.4,14.4,0,0,1,9.6,12.73c.33,5.63-.94,12.3-4.56,23a92.14,92.14,0,0,1-7.45,17.33c-2.74,4.81-4,7.67-13.29,6.48s-18.73-5.47-29-8.89c-4.92-1.65-8.06-2.35-12-4.46a16.16,16.16,0,0,1-4.12-2.92,9.6,9.6,0,0,1-2.52-3.88,2.86,2.86,0,0,0-.3-.8,5.38,5.38,0,0,0-.53-.65,5.69,5.69,0,0,1-1-1.26,8.57,8.57,0,0,1-.45-1.65,7,7,0,0,0-.19-.76,4.14,4.14,0,0,0-.38-.72,6.25,6.25,0,0,1-1-1.89,1.11,1.11,0,0,1,.31-1s-.6-.69-.79-.94a5.51,5.51,0,0,1-.68-1.11.57.57,0,0,1-.07-.5.51.51,0,0,1,.2-.21c1.34-.9,2.8-.15,4,.61,3.12,1.95,4.68,3.84,8,5.45l.77.34c1,.41,2.38,1,3.43.49a1.18,1.18,0,0,0,.53-.46c.29-.54-.45-1.22-.78-1.59a29.38,29.38,0,0,1-2.15-2.71Q387.66,168.48,387.43,168.1Z" style="fill:#ffbda7"></path><path d="M407.12,179.29c-6.11-.71-8.45-1.6-11.15-7.49-1.53-2.56-4.17-3.9-6.16-6-.61-.66-1-1.42-2-1.64-1.78-.14-1.54,2.49-1,3.49a26.73,26.73,0,0,0,2.93,4c.32.39.8.74.74,1.19-.48.69-1.54.51-2.36.28-3.09-1-5.59-3.05-8.16-5-1.4-.93-2.7-2.08-4.45-2.24-.87-.06-2.54.51-1.83,1.63a8.55,8.55,0,0,0,1.33,1.85c-.82,1.24.67,2.61,1.15,3.74.2.59.29,1.32.49,2,.31,1.07,1.23,1.66,1.78,2.5,2.64,8,12.16,9.46,19.06,11.81-6.68-2.48-16.23-4.23-18.64-12-.52-.87-1.46-1.48-1.72-2.44-.19-.66-.26-1.3-.47-2a14.32,14.32,0,0,1-1.32-2.66.88.88,0,0,1,.23-.67l.21-.2c-.12-.16-.82-1-1-1.14a4.08,4.08,0,0,1-.71-1.3,2,2,0,0,1,1.37-.44c1.51.14,2.86,1.3,4.11,2.14,2.58,2,5.17,4.15,8.34,5.14,1,.3,2.57.52,3.19-.67.29-.8-.47-1.45-.88-1.91l-1.51-1.89c-.9-1.12-2.05-2.62-1.6-4.09.12-.35.28-.49.54-.44.68.14,1.18.94,1.65,1.44,1.94,2,4.66,3.42,6.11,5.82,1.39,2.89,3.38,6.14,6.79,6.8,8,1.63,16.12,1.65,24.19,2C420,180.54,413.52,180.09,407.12,179.29Z" style="fill:#f0997a"></path><path d="M426.44,180.88a21.79,21.79,0,0,1,6.65,1.6,10.13,10.13,0,0,0-6.21-3.1Z" style="fill:#f0997a"></path><path d="M374,167.27c.58.72,2.7,3.73,3.34,4.39s1.31,1.3,1.95,2c.33.32.64.66,1,1s.7.61,1.06.89a27,27,0,0,0,2.25,1.6l-1-.9c-.35-.3-.7-.6-1-.91s-.69-.61-1-.93-.64-.65-1-1c-.65-.65-1.32-1.28-2-1.9Z" style="fill:#f0997a"></path><path d="M376.37,173a10.25,10.25,0,0,0,1.21,1.77c.44.56.91,1.09,1.4,1.61s1,1,1.52,1.49a15.07,15.07,0,0,0,1.64,1.35l-1.46-1.54-1.45-1.54-1.45-1.55C377.3,174.07,376.81,173.56,376.37,173Z" style="fill:#f0997a"></path></g></g><g id="freepik--Panel--inject-63"><g id="freepik--Artboard--inject-63"><g id="freepik--window--inject-63"><g id="freepik--window--inject-63"><path id="freepik--outline--inject-63" d="M362.22,130.93a3,3,0,0,0-1.47.45L163.07,245.63a7.33,7.33,0,0,0-3.3,5.73v87.27c0,1.67.92,3.08,2.21,3.08a2.22,2.22,0,0,0,1.1-.32L360.74,227.08a7.28,7.28,0,0,0,3.31-5.72V133.29c0-1.5-.74-2.36-1.83-2.36Z" style="fill:#455a64"></path><g id="freepik--up-bar--inject-63"><path d="M362.94,131.08a2.4,2.4,0,0,0-2.19.3L163.08,245.64a5.54,5.54,0,0,0-1,.73c-.11.09-.2.19-.31.3s-.19.21-.28.33-.19.23-.28.35a6.54,6.54,0,0,0-.48.73l-4.21-2.43h0c.16-.25.32-.5.49-.73a6.23,6.23,0,0,1,1.81-1.68L356.53,129a2.33,2.33,0,0,1,2.4-.2c.41.25,1.84,1.07,2.91,1.67l.54.3s0,0,0,0l.42.24Z" style="fill:#263238"></path><path d="M159.77,338.63V251.36a6.71,6.71,0,0,1,1-3.28l-4.21-2.43a6.89,6.89,0,0,0-1,3.3v87.29a3.22,3.22,0,0,0,1.39,2.87c.36.19,2.93,1.65,4.06,2.29A3.37,3.37,0,0,1,159.77,338.63Z" style="fill:#37474f"></path></g></g></g></g><path d="M186.47,292.57a3.54,3.54,0,0,1-2-.7,4.07,4.07,0,0,0-1.26-.82,5.86,5.86,0,0,1-2.42-1.64,6.68,6.68,0,0,0-.34-.84,4.1,4.1,0,0,1-1.11-2.2.68.68,0,0,1-.15-.17l-.31-.43a4,4,0,0,1-.46-1.19,4.32,4.32,0,0,0-1-1.7l-.2.11a7.94,7.94,0,0,1-.14,1.18v1.29l-.29,3.92-.73,6.68a3.71,3.71,0,0,1,0,1.75,12,12,0,0,1-.24,1.82,5,5,0,0,1-.73,2,4.24,4.24,0,0,1-1.89,1.22c-.32,0-.77-.33-1.35-1-.23,0-.55-.5-1-1.51a7.92,7.92,0,0,0,0-1.48,4.45,4.45,0,0,1,0-.71,2.73,2.73,0,0,1,0-.61q-.09.18,0-1.29v-.46c0-.17.1-.91.3-2.23,0-.91,0-1.55,0-1.92a6.71,6.71,0,0,1,.31-1.51v-1.74l.05-1.77a13.14,13.14,0,0,0,.29-2.88,15.32,15.32,0,0,0,.12-1.59c0-.51.08-1.09.17-1.75a13.37,13.37,0,0,1,.15-2.25c.1-.55.15-.92.17-1.13s0-.53.07-1l.34-3,.15-4.15-.58-.18a3.51,3.51,0,0,1-2.18-.43c-.17,0-.22-.33-.17-.9a3.43,3.43,0,0,1,.65-1.7,8.67,8.67,0,0,0,2-2.25,6.83,6.83,0,0,0,.87-1.15l.87-.89a12,12,0,0,1,1.21-1.41,3.85,3.85,0,0,0,.78-.8,5,5,0,0,1,1.11-1.06c.32-.23,1-.73,2-1.49a6.49,6.49,0,0,1,2.5-1.34,3.61,3.61,0,0,1,1.36-.47,4,4,0,0,1,2.61-.47,1.2,1.2,0,0,1,1,0l.92,0,1.21.59A5,5,0,0,1,191,256.7c.39.29.54.88.44,1.75q-.67,6-5.86,14.56l-1.41,1.65L181.77,278a33.77,33.77,0,0,0,3.15,3.48,3.94,3.94,0,0,0,1.11,1.17l1.65,1.76.58.83,1.31,1.18a1.3,1.3,0,0,0,.82.62l.83.56a1.84,1.84,0,0,1,.92,2.12,3,3,0,0,1-1.36,2.33l-1.16.54-2.33.51Zm-8.24-23.8a77.55,77.55,0,0,1-.63,8.44c.19-.33.49-.86.87-1.6a46.93,46.93,0,0,1,2.72-4.22l.72-1.13,1.46-1.81,1.6-2.34c-.07-.05,0-.31.24-.79a18.61,18.61,0,0,0,1.06-4.36,2.38,2.38,0,0,0-.19-1.15c-.13-.2-.53-.15-1.21.15a2.13,2.13,0,0,0-.92.21,12.27,12.27,0,0,0-2.64,1.85,5.15,5.15,0,0,1-1,.9l-.72.67-.83.54-.19,1.86s-.06.51-.19,1.4A9.33,9.33,0,0,1,178.23,268.77Z" style="fill:#FF6366"></path><g style="opacity:0.2"><path d="M186.47,292.57a3.54,3.54,0,0,1-2-.7,4.07,4.07,0,0,0-1.26-.82,5.86,5.86,0,0,1-2.42-1.64,6.68,6.68,0,0,0-.34-.84,4.1,4.1,0,0,1-1.11-2.2.68.68,0,0,1-.15-.17l-.31-.43a4,4,0,0,1-.46-1.19,4.32,4.32,0,0,0-1-1.7l-.2.11a7.94,7.94,0,0,1-.14,1.18v1.29l-.29,3.92-.73,6.68a3.71,3.71,0,0,1,0,1.75,12,12,0,0,1-.24,1.82,5,5,0,0,1-.73,2,4.24,4.24,0,0,1-1.89,1.22c-.32,0-.77-.33-1.35-1-.23,0-.55-.5-1-1.51a7.92,7.92,0,0,0,0-1.48,4.45,4.45,0,0,1,0-.71,2.73,2.73,0,0,1,0-.61q-.09.18,0-1.29v-.46c0-.17.1-.91.3-2.23,0-.91,0-1.55,0-1.92a6.71,6.71,0,0,1,.31-1.51v-1.74l.05-1.77a13.14,13.14,0,0,0,.29-2.88,15.32,15.32,0,0,0,.12-1.59c0-.51.08-1.09.17-1.75a13.37,13.37,0,0,1,.15-2.25c.1-.55.15-.92.17-1.13s0-.53.07-1l.34-3,.15-4.15-.58-.18a3.51,3.51,0,0,1-2.18-.43c-.17,0-.22-.33-.17-.9a3.43,3.43,0,0,1,.65-1.7,8.67,8.67,0,0,0,2-2.25,6.83,6.83,0,0,0,.87-1.15l.87-.89a12,12,0,0,1,1.21-1.41,3.85,3.85,0,0,0,.78-.8,5,5,0,0,1,1.11-1.06c.32-.23,1-.73,2-1.49a6.49,6.49,0,0,1,2.5-1.34,3.61,3.61,0,0,1,1.36-.47,4,4,0,0,1,2.61-.47,1.2,1.2,0,0,1,1,0l.92,0,1.21.59A5,5,0,0,1,191,256.7c.39.29.54.88.44,1.75q-.67,6-5.86,14.56l-1.41,1.65L181.77,278a33.77,33.77,0,0,0,3.15,3.48,3.94,3.94,0,0,0,1.11,1.17l1.65,1.76.58.83,1.31,1.18a1.3,1.3,0,0,0,.82.62l.83.56a1.84,1.84,0,0,1,.92,2.12,3,3,0,0,1-1.36,2.33l-1.16.54-2.33.51Zm-8.24-23.8a77.55,77.55,0,0,1-.63,8.44c.19-.33.49-.86.87-1.6a46.93,46.93,0,0,1,2.72-4.22l.72-1.13,1.46-1.81,1.6-2.34c-.07-.05,0-.31.24-.79a18.61,18.61,0,0,0,1.06-4.36,2.38,2.38,0,0,0-.19-1.15c-.13-.2-.53-.15-1.21.15a2.13,2.13,0,0,0-.92.21,12.27,12.27,0,0,0-2.64,1.85,5.15,5.15,0,0,1-1,.9l-.72.67-.83.54-.19,1.86s-.06.51-.19,1.4A9.33,9.33,0,0,1,178.23,268.77Z" style="fill:#fff"></path></g><path d="M201.44,271.34v2.52c0,2.6.11,4,.33,4.15a6.63,6.63,0,0,0,.24,1.38,3.62,3.62,0,0,0,.38,1.35q0,.31,1.32.75a19.46,19.46,0,0,0,2.79-2.87l3.35-3.64a1.19,1.19,0,0,1,1.16-.44c.36.1.58.52.66,1.25a5.07,5.07,0,0,1,0,1.7,8.34,8.34,0,0,1-.81,1.72c-.42.75-.7,1.27-.83,1.55a5,5,0,0,1-.7,1.07l-1.16,1.4c-.43.49-.72.85-.88,1.07a8.24,8.24,0,0,1-2.83,2.52,3,3,0,0,1-1.25.4,1.91,1.91,0,0,0-.71.13,1,1,0,0,1-.38.16l-.59.15c-.19,0-.68.19-1.46.43,0-.17-.23-.21-.67-.12l-1.27-.65c-.22,0-.46-.43-.71-1.17l-.43-.69c-.12-.06-.3-.44-.52-1.15a1.9,1.9,0,0,1-.23-1,5,5,0,0,1-.24-1.82,7,7,0,0,1-.42-2.15,19,19,0,0,1,0-4.82,10.39,10.39,0,0,1,.33-2.52c0-.35.06-.71.1-1.06.15-1.19.26-2.09.33-2.71a15.94,15.94,0,0,1,.61-4.58,7.17,7.17,0,0,1,.31-1.66,10.71,10.71,0,0,0,.35-2.25l.38-1.41c0-.34.24-1.72.71-4.13a13.61,13.61,0,0,0,.38-1.61l1.18-4,.57-1.33a5.7,5.7,0,0,1,1-1.33,2.49,2.49,0,0,1,1.51-.81,1.56,1.56,0,0,1,1,.16,1.83,1.83,0,0,0,.8-.28l3.64-2.41a5.16,5.16,0,0,1,1.84-.66,1.42,1.42,0,0,1,.92.44,1.3,1.3,0,0,1,.33,1.2,4.14,4.14,0,0,1-.4,1.3,22.22,22.22,0,0,1-2.26,3c-1.93,2.5-3,3.83-3.12,4l-1.14,1.34A6,6,0,0,0,204,255q-1.45,7.89-1.58,8.75c-.08.57-.12.92-.14,1a1.22,1.22,0,0,0,0,.23l.94-.67q2.09-2.08,2.46-2a3,3,0,0,0,.52-.49,11.63,11.63,0,0,1,3.07-2.47.3.3,0,0,1,.52,0,1.71,1.71,0,0,1,.42.83,3.67,3.67,0,0,1-.7,2.86,36.32,36.32,0,0,1-4.73,5.57,9.55,9.55,0,0,1-2.5,2.64Z" style="fill:#FF6366"></path><g style="opacity:0.2"><path d="M201.44,271.34v2.52c0,2.6.11,4,.33,4.15a6.63,6.63,0,0,0,.24,1.38,3.62,3.62,0,0,0,.38,1.35q0,.31,1.32.75a19.46,19.46,0,0,0,2.79-2.87l3.35-3.64a1.19,1.19,0,0,1,1.16-.44c.36.1.58.52.66,1.25a5.07,5.07,0,0,1,0,1.7,8.34,8.34,0,0,1-.81,1.72c-.42.75-.7,1.27-.83,1.55a5,5,0,0,1-.7,1.07l-1.16,1.4c-.43.49-.72.85-.88,1.07a8.24,8.24,0,0,1-2.83,2.52,3,3,0,0,1-1.25.4,1.91,1.91,0,0,0-.71.13,1,1,0,0,1-.38.16l-.59.15c-.19,0-.68.19-1.46.43,0-.17-.23-.21-.67-.12l-1.27-.65c-.22,0-.46-.43-.71-1.17l-.43-.69c-.12-.06-.3-.44-.52-1.15a1.9,1.9,0,0,1-.23-1,5,5,0,0,1-.24-1.82,7,7,0,0,1-.42-2.15,19,19,0,0,1,0-4.82,10.39,10.39,0,0,1,.33-2.52c0-.35.06-.71.1-1.06.15-1.19.26-2.09.33-2.71a15.94,15.94,0,0,1,.61-4.58,7.17,7.17,0,0,1,.31-1.66,10.71,10.71,0,0,0,.35-2.25l.38-1.41c0-.34.24-1.72.71-4.13a13.61,13.61,0,0,0,.38-1.61l1.18-4,.57-1.33a5.7,5.7,0,0,1,1-1.33,2.49,2.49,0,0,1,1.51-.81,1.56,1.56,0,0,1,1,.16,1.83,1.83,0,0,0,.8-.28l3.64-2.41a5.16,5.16,0,0,1,1.84-.66,1.42,1.42,0,0,1,.92.44,1.3,1.3,0,0,1,.33,1.2,4.14,4.14,0,0,1-.4,1.3,22.22,22.22,0,0,1-2.26,3c-1.93,2.5-3,3.83-3.12,4l-1.14,1.34A6,6,0,0,0,204,255q-1.45,7.89-1.58,8.75c-.08.57-.12.92-.14,1a1.22,1.22,0,0,0,0,.23l.94-.67q2.09-2.08,2.46-2a3,3,0,0,0,.52-.49,11.63,11.63,0,0,1,3.07-2.47.3.3,0,0,1,.52,0,1.71,1.71,0,0,1,.42.83,3.67,3.67,0,0,1-.7,2.86,36.32,36.32,0,0,1-4.73,5.57,9.55,9.55,0,0,1-2.5,2.64Z" style="fill:#fff"></path></g><path d="M219.41,276.86a.64.64,0,0,1-.77,0,1,1,0,0,1-.32-.84V241a2.55,2.55,0,0,1,.32-1.21,2.05,2.05,0,0,1,.77-.88l12-6.92a8.83,8.83,0,0,1,4.35-1.46,4.09,4.09,0,0,1,2.8,1,5.55,5.55,0,0,1,1.53,2.59,11.46,11.46,0,0,1,.47,3.22,13.94,13.94,0,0,1-.33,3.09,17.34,17.34,0,0,1-.79,2.62,18.84,18.84,0,0,1-.94,2,10.27,10.27,0,0,1-.75,1.25,4.75,4.75,0,0,1,2.32,1.89,8.16,8.16,0,0,1,1.05,4.67,19.38,19.38,0,0,1-.56,4.42,23.08,23.08,0,0,1-1.67,4.62,20.28,20.28,0,0,1-2.74,4.21,14.49,14.49,0,0,1-3.8,3.2Zm15.65-36c0-1.37-.33-2.22-1-2.55s-1.68-.09-3.08.72l-7.2,4.16v8.34l7.2-4.15a8.37,8.37,0,0,0,3.08-2.84A7,7,0,0,0,235.06,240.84ZM223.8,267.55l7.52-4.34a8.38,8.38,0,0,0,3.27-3.16,8,8,0,0,0,1-3.93,3,3,0,0,0-1.08-2.74c-.72-.45-1.79-.26-3.23.57l-7.52,4.34Z" style="fill:#fafafa"></path><path d="M257.78,216.78q5.07-2.94,7.72-1.32t2.64,7.2a20.9,20.9,0,0,1-1.36,7.53,20,20,0,0,1-4,6.46l5.6,10.15a1.08,1.08,0,0,1,.13.52,2.12,2.12,0,0,1-.27,1,1.64,1.64,0,0,1-.63.71l-3.45,2c-.54.31-.94.37-1.2.17a1.69,1.69,0,0,1-.55-.63L257.09,241l-5.41,3.12v12.63a2.67,2.67,0,0,1-.32,1.21,2.07,2.07,0,0,1-.78.88l-3.29,1.9a.65.65,0,0,1-.77,0,1,1,0,0,1-.33-.85v-35a2.6,2.6,0,0,1,.33-1.22,2.12,2.12,0,0,1,.77-.88Zm-6.1,20.59,5.89-3.41a11.79,11.79,0,0,0,3.7-3.21,8.14,8.14,0,0,0,1.38-4.92q0-3-1.38-3.27a6.08,6.08,0,0,0-3.7,1.11l-5.89,3.4Z" style="fill:#fafafa"></path><path d="M286.8,200c.43-.25.75-.28,1-.1a2.24,2.24,0,0,1,.57,1.06l10,28.49a1.79,1.79,0,0,1,0,.36,2.6,2.6,0,0,1-.33,1.22,2.18,2.18,0,0,1-.77.88l-2.93,1.69c-.54.31-.92.37-1.13.19a1.37,1.37,0,0,1-.45-.63l-1.75-5-12.84,7.41-1.75,7a5.39,5.39,0,0,1-.45,1.15,2.7,2.7,0,0,1-1.13,1.12l-2.93,1.69a.66.66,0,0,1-.77,0,1,1,0,0,1-.33-.84,2.35,2.35,0,0,1,0-.4l10-40a7.39,7.39,0,0,1,.57-1.71,2.44,2.44,0,0,1,1-1Zm2.23,22.5-4.47-12.86-4.47,18Z" style="fill:#fafafa"></path><path d="M320.49,218.51c-.46.26-.82.3-1.06.12a5,5,0,0,1-.53-.46l-11.38-16v22.33a2.64,2.64,0,0,1-.32,1.21,2.07,2.07,0,0,1-.78.88l-3.29,1.9a.65.65,0,0,1-.77,0,1,1,0,0,1-.33-.84v-35a2.6,2.6,0,0,1,.33-1.22,2.18,2.18,0,0,1,.77-.88L306,189q.69-.4,1-.12a3.51,3.51,0,0,1,.53.45l11.38,16V182.93a2.6,2.6,0,0,1,.33-1.22,2,2,0,0,1,.77-.88l3.29-1.9a.66.66,0,0,1,.77,0,1,1,0,0,1,.33.84v35a2.57,2.57,0,0,1-.33,1.21,2,2,0,0,1-.77.88Z" style="fill:#fafafa"></path><path d="M341.9,168.21a13.65,13.65,0,0,1,5.23-2,5.11,5.11,0,0,1,3.69.87,6.82,6.82,0,0,1,2.28,3.4,20.55,20.55,0,0,1,1,5.63q.15,3.91,0,8a34.88,34.88,0,0,1-1,6.73,27,27,0,0,1-2.25,6,23,23,0,0,1-3.64,5.11,22,22,0,0,1-5.1,4l-10.25,5.92a.66.66,0,0,1-.77,0,1,1,0,0,1-.32-.84v-35a2.71,2.71,0,0,1,.32-1.22,2.26,2.26,0,0,1,.77-.88Zm6.67,11.11a11.08,11.08,0,0,0-.51-2.94,3.79,3.79,0,0,0-1.26-1.87,2.93,2.93,0,0,0-2.09-.52,7.62,7.62,0,0,0-3,1.11l-5.45,3.14v24.39l5.65-3.26a12.17,12.17,0,0,0,2.89-2.29,13.79,13.79,0,0,0,2-2.88,14.36,14.36,0,0,0,1.24-3.32,19.62,19.62,0,0,0,.51-3.54Q348.74,183.23,348.57,179.32Z" style="fill:#fafafa"></path><polygon points="354.91 207.59 168.91 314.96 168.91 320.03 354.91 212.66 354.91 207.59" style="fill:#FF6366"></polygon><g style="opacity:0.2"><polygon points="354.91 207.59 168.91 314.96 168.91 320.03 354.91 212.66 354.91 207.59"></polygon></g></g><g id="freepik--Pointer--inject-63"><g id="freepik--Cursor--inject-63"><path d="M370.49,248.59,348.25,222a1.57,1.57,0,0,0-.4-.36l-5.34-3.08c-.45-.27-.78.09-.78,1l-.12,53.84c0,.46.07.72.19.79s5.22,3,5.34,3.09.46-.2.78-.88l3.82-8.16,2.18,7.77a1,1,0,0,0,.42.63c.44.27,5.16,3,5.35,3.1.44.25,1.09,0,1.71-.7l3.08-3.54a4.63,4.63,0,0,0,1.12-3.7l-4.2-15a2.68,2.68,0,0,1,1.76-2.85l6.23-2.82C370.65,250.46,371.14,249.37,370.49,248.59Z" style="fill:#37474f"></path><path d="M347,276.39l.12-53.84c0-1.11.53-1.38,1.18-.6l22.24,26.64c.65.78.16,1.87-1.1,2.44l-6.23,2.82a2.68,2.68,0,0,0-1.76,2.85l4.2,15a4.63,4.63,0,0,1-1.12,3.7L361.4,279c-.9,1-1.86,1.06-2.15.05l-4.2-15c-.28-1-.95-.88-1.49.27l-5.64,12.05C347.38,277.47,346.94,277.51,347,276.39Z" style="fill:#fafafa"></path><path d="M348.43,224.31l20.93,25.08a1.27,1.27,0,0,1-.53.39l-6.24,2.82a4.05,4.05,0,0,0-2.52,4.47l4.21,15a3.41,3.41,0,0,1-.84,2.43l-3,3.5-4-14.39a2,2,0,0,0-1.9-1.68c-.61,0-1.48.3-2.16,1.74l-4,8.52.1-47.89m-.86-2.81c-.3,0-.5.37-.51,1.05L347,276.39c0,.54.1.81.27.81s.43-.29.7-.89l5.64-12.05c.29-.63.63-.95.91-.95s.45.22.58.68l4.2,15c.14.5.44.74.82.74a1.93,1.93,0,0,0,1.33-.79l3.08-3.54a4.63,4.63,0,0,0,1.12-3.7l-4.2-15a2.68,2.68,0,0,1,1.76-2.85l6.23-2.82c1.26-.57,1.75-1.66,1.1-2.44L348.25,222a1,1,0,0,0-.68-.45Z" style="fill:#455a64"></path><path d="M359.6,279.59c-.67-.39-4.85-2.79-5.26-3a1,1,0,0,1-.43-.63l-2.17-7.76,1.82-3.9c.54-1.15,1.21-1.27,1.49-.27l4.2,15A1.16,1.16,0,0,0,359.6,279.59Z" style="fill:#263238"></path><polygon points="368.7 274.99 378 269.62 378 280.36 368.7 285.72 368.7 274.99" style="fill:#37474f"></polygon></g></g><g id="freepik--speech-bubble--inject-63"><g id="freepik--speech-bubble--inject-63"><g id="freepik--speech-bubble--inject-63"><path d="M335.79,86.12a31.1,31.1,0,1,0,12-42.32A31.13,31.13,0,0,0,335.79,86.12Zm2.44-1.36a28.3,28.3,0,1,1,38.51,10.91A28.35,28.35,0,0,1,338.23,84.76Z" style="fill:#455a64"></path><path d="M372.05,97.75a28.31,28.31,0,1,0-35.91-17.67A28.34,28.34,0,0,0,372.05,97.75Z" style="fill:#fff"></path><path d="M383.76,104.76l-1.54-10.91-9.89,5.52,8.49,7A1.8,1.8,0,0,0,383.76,104.76Z" style="fill:#455a64"></path></g><g id="freepik--Bulb--inject-63"><path d="M358.05,84.54h9.51a.72.72,0,1,0,0-1.44h-9.51a.72.72,0,0,0,0,1.44Z" style="fill:#455a64"></path><path d="M357.33,86.49a.72.72,0,0,1,.72-.72h9.51a.72.72,0,0,1,.72.72,5.48,5.48,0,0,1-10.95,0Z" style="fill:#455a64"></path><path d="M348.07,65.05a14.8,14.8,0,0,0,7.26,12.67,3.94,3.94,0,0,1,1.95,3.36.64.64,0,0,0,.64.64h9.77a.64.64,0,0,0,.46-.19.69.69,0,0,0,.18-.45,3.9,3.9,0,0,1,2-3.37,14.72,14.72,0,0,0,7.24-12.9,14.91,14.91,0,0,0-14-14.47,14.73,14.73,0,0,0-15.45,14.71Z" style="fill:#FF6366"></path><g style="opacity:0.35000000000000003"><path d="M348.07,65.05a14.8,14.8,0,0,0,7.26,12.67,3.94,3.94,0,0,1,1.95,3.36.64.64,0,0,0,.64.64h9.77a.64.64,0,0,0,.46-.19.69.69,0,0,0,.18-.45,3.9,3.9,0,0,1,2-3.37,14.72,14.72,0,0,0,7.24-12.9,14.91,14.91,0,0,0-14-14.47,14.73,14.73,0,0,0-15.45,14.71Z" style="fill:#fff"></path></g><path d="M355.17,69.43a3.43,3.43,0,0,0,2,.5,6.43,6.43,0,0,0,1.14-.1l.18,0,.09.17a10.64,10.64,0,0,1,.82,1.91,25.68,25.68,0,0,1,.83,8.38c0,.53,0,1,0,1.47h.76c0-.48,0-1,0-1.43a26.15,26.15,0,0,0-.87-8.64,12,12,0,0,0-.73-1.8l-.13-.26.28-.11a8.06,8.06,0,0,0,2.13-1.17,8.5,8.5,0,0,0,1-.88l.19-.19.18.19a8.73,8.73,0,0,0,1,.88,8.16,8.16,0,0,0,2.12,1.17l.28.11-.13.26a12,12,0,0,0-.73,1.8,26.38,26.38,0,0,0-.87,8.63c0,.49,0,1,0,1.44h.76c0-.47,0-.94,0-1.42a25.9,25.9,0,0,1,.83-8.43,10.64,10.64,0,0,1,.82-1.91l.09-.17.18,0a6.51,6.51,0,0,0,1.14.1,3.38,3.38,0,0,0,2-.5,1.15,1.15,0,0,0,.52-1.35,1.43,1.43,0,0,0-1.42-1,3.52,3.52,0,0,0-2.62,1.7l-.11.16-.19-.06a7.62,7.62,0,0,1-2.17-1.16,8.06,8.06,0,0,1-1-.91l-.15-.15.13-.18a4.42,4.42,0,0,0,.94-3.66,1.58,1.58,0,0,0-1.55-1.1,1.56,1.56,0,0,0-1.55,1.1,4.38,4.38,0,0,0,.93,3.66l.13.18-.15.15a8.06,8.06,0,0,1-1,.91A7.49,7.49,0,0,1,359,68.87l-.19.06-.11-.16a3.52,3.52,0,0,0-2.62-1.7,1.43,1.43,0,0,0-1.42,1A1.16,1.16,0,0,0,355.17,69.43Zm12.39-.3.38-.4a2.45,2.45,0,0,1,1.6-.91.7.7,0,0,1,.71.5.47.47,0,0,1-.24.5,2.85,2.85,0,0,1-1.56.36h-.34Zm-5-3.46a3.39,3.39,0,0,1-.6-2.62.88.88,0,0,1,1.66,0,3.44,3.44,0,0,1-.61,2.62l-.22.37Zm-7.22,2.64a.71.71,0,0,1,.71-.49,2.45,2.45,0,0,1,1.6.91l.38.4-.55,0h-.33a2.89,2.89,0,0,1-1.57-.36C355.52,68.76,355.27,68.59,355.36,68.31Z" style="fill:#fafafa"></path></g></g></g></svg>
