<svg xmlns="http://www.w3.org/2000/svg" viewBox="0 0 500 500"><g id="freepik--Floor--inject-1--inject-244"><path d="M99,403.08c78.37,40.94,205.44,40.94,283.8,0s78.37-107.32,0-148.26-205.43-40.94-283.8,0S20.65,362.14,99,403.08Z" style="fill:#f0f0f0"></path></g><g id="freepik--Shadow--inject-1--inject-244"><path d="M267.46,419.5l146-84.27a1.32,1.32,0,0,0,0-2.5l-76.91-44.41a4.79,4.79,0,0,0-4.33,0l-146,84.28a1.32,1.32,0,0,0,0,2.5l76.91,44.4A4.79,4.79,0,0,0,267.46,419.5Z" style="fill:#e6e6e6"></path></g><g id="freepik--Plants--inject-1--inject-244"><path d="M62.31,301.85c-2.81,2.64-7.93,2.17-10.12,1.83a11.24,11.24,0,0,1-7.35-4.13,8.05,8.05,0,0,1-1-8.15c.53-1.1,1.39-2.23,1.08-3.42s-1.53-1.72-2.57-2.29c-3.19-1.76-6-5.08-5.32-9s5.16-4.66,5.16-4.66a17.36,17.36,0,0,1-2.78-8.54c-.12-3.31.45-6.67,1.26-7.13s9.49,3.19,11.65,10.11A7,7,0,0,1,60.8,265c2.85,1.64,5.28,5.69,3.56,11.65s.91,4.55,2.53,9.51c1,3-.44,6.73-1.51,9.53a37.33,37.33,0,0,1-1.83,4.44A6.17,6.17,0,0,1,62.31,301.85Z" style="fill:#FF6366"></path><path d="M61.21,303.17a.5.5,0,0,1-.5-.47c-1.14-19.3-12-36.48-17.25-41a.5.5,0,1,1,.65-.76c5.39,4.6,16.44,22.1,17.6,41.69a.49.49,0,0,1-.47.53Z" style="fill:#fff"></path><path d="M410.2,310.94c.39-4.79,4.08-12.95,9.54-18.77s14.21-8.62,19.61-6.28c5,2.19,3.92,8.92-2.71,12.91s-16.51,8.87-19.89,16.42l-6.55,9.06Z" style="fill:#FF6366"></path><path d="M410.2,310.94c.39-4.79,4.08-12.95,9.54-18.77s14.21-8.62,19.61-6.28c5,2.19,3.92,8.92-2.71,12.91s-16.51,8.87-19.89,16.42l-6.55,9.06Z" style="opacity:0.2"></path><path d="M410.2,319.51h-.07a.5.5,0,0,1-.42-.56c2.52-18.7,21.69-30.19,27.43-31.29a.5.5,0,1,1,.19,1c-5.57,1.07-24.18,12.24-26.63,30.44A.51.51,0,0,1,410.2,319.51Z" style="fill:#fff"></path><path d="M410.92,332.48c1-2.62,5.16-7.34,11.21-9.67s10.59-4.4,12.76-8.15-1.63-7.43-7.73-7.17-16.24,6.65-17,16.79Z" style="fill:#FF6366"></path><path d="M410.48,328h-.1a.5.5,0,0,1-.39-.59c1.8-9.06,15.14-16.87,20.24-17.37a.5.5,0,1,1,.1,1c-4.89.48-17.64,7.94-19.36,16.58A.49.49,0,0,1,410.48,328Z" style="fill:#fff"></path><path d="M402.79,332.48c-.52-1.22-3.16-2.25-6.66-1.26a8.48,8.48,0,0,1-7.67-1.61,6.85,6.85,0,0,1-2-4.2c-.16-1.32,0-3.33-.73-4.45a3.55,3.55,0,0,0-2.62-1.28,10.43,10.43,0,0,1-2.95-.51,3.45,3.45,0,0,1-1.62-1.47c-.88-1.57-.43-3.54-.88-5.27a5.25,5.25,0,0,0-2.19-3c-1.51-1-5.3-2.1-3.68-4.64,1.39-2.18,4.83-2.27,7-1.57a35.33,35.33,0,0,1,7.07,3.77,9.68,9.68,0,0,0,2.06,1c1.53.49,3.19-.2,4.72-.43a8.85,8.85,0,0,1,4.94.45c3.87,1.72,2.46,4.84,5.24,5.78,0,0,2.69,1.8,2.31,7.46A49.52,49.52,0,0,1,402.79,332.48Z" style="fill:#FF6366"></path><path d="M402.79,332.48c-.52-1.22-3.16-2.25-6.66-1.26a8.48,8.48,0,0,1-7.67-1.61,6.85,6.85,0,0,1-2-4.2c-.16-1.32,0-3.33-.73-4.45a3.55,3.55,0,0,0-2.62-1.28,10.43,10.43,0,0,1-2.95-.51,3.45,3.45,0,0,1-1.62-1.47c-.88-1.57-.43-3.54-.88-5.27a5.25,5.25,0,0,0-2.19-3c-1.51-1-5.3-2.1-3.68-4.64,1.39-2.18,4.83-2.27,7-1.57a35.33,35.33,0,0,1,7.07,3.77,9.68,9.68,0,0,0,2.06,1c1.53.49,3.19-.2,4.72-.43a8.85,8.85,0,0,1,4.94.45c3.87,1.72,2.46,4.84,5.24,5.78,0,0,2.69,1.8,2.31,7.46A49.52,49.52,0,0,1,402.79,332.48Z" style="opacity:0.2"></path><path d="M404.28,327.44a.49.49,0,0,1-.48-.37c-1.93-7.07-24.38-20.69-28.59-21.18a.51.51,0,0,1-.44-.56.53.53,0,0,1,.56-.44c4.41.52,27.37,14.33,29.43,21.92a.49.49,0,0,1-.35.61A.3.3,0,0,1,404.28,327.44Z" style="fill:#fff"></path><path d="M382.27,315.16a.5.5,0,0,1-.2-1,19,19,0,0,1,8-1.5.49.49,0,0,1,.45.54.5.5,0,0,1-.54.45,18.11,18.11,0,0,0-7.53,1.43A.45.45,0,0,1,382.27,315.16Z" style="fill:#fff"></path><path d="M395.08,317.29a.5.5,0,0,1-.49-.39,17.08,17.08,0,0,1,.48-7.15.5.5,0,0,1,1,.28,16.39,16.39,0,0,0-.46,6.66.49.49,0,0,1-.39.59Z" style="fill:#fff"></path></g><g id="freepik--curvature-tool--inject-1--inject-244"><path d="M366.36,121l-1.31,3.28-1.44,3.62L351.34,158.7l-1.47,3.67-16.54-22.26a22,22,0,0,0,11-19.08V108.32l11-6.36v12.71A7.35,7.35,0,0,0,362.7,122a4.63,4.63,0,0,0,.65,0,5.65,5.65,0,0,0,.31.6Z" style="fill:#e0e0e0"></path><path d="M366.36,121a7,7,0,0,1-3,1,5.65,5.65,0,0,0,.31.6L359,125.27l4.59,2.66,2.75,1.59,7.35-4.24Z" style="fill:#e0e0e0"></path><g style="opacity:0.5;mix-blend-mode:multiply"><path d="M366.36,121a7,7,0,0,1-3,1,5.65,5.65,0,0,0,.31.6L359,125.27l4.59,2.66,2.75,1.59,7.35-4.24Z" style="fill:#e0e0e0"></path></g><path d="M373.71,125.28l-16.49,41.34-5.88-7.92-10.67-14.35a22,22,0,0,0,11-19.07V112.56l3.68-2.12,7.33-4.24v12.72a7.34,7.34,0,0,0,.66,3.07,5.65,5.65,0,0,0,.31.6,7.29,7.29,0,0,0,1.39,1.72,7.42,7.42,0,0,0,5,2A7.23,7.23,0,0,0,373.71,125.28Z" style="fill:#ebebeb"></path><path d="M358.09,127.93c2-1.17,3.67-.23,3.67,2.12a8.09,8.09,0,0,1-3.67,6.35c-2,1.17-3.67.22-3.67-2.12A8.12,8.12,0,0,1,358.09,127.93Z" style="fill:#e0e0e0"></path><g style="opacity:0.5;mix-blend-mode:multiply"><path d="M358.09,127.93c2-1.17,3.67-.23,3.67,2.12a8.09,8.09,0,0,1-3.67,6.35c-2,1.17-3.67.22-3.67-2.12A8.12,8.12,0,0,1,358.09,127.93Z" style="fill:#e0e0e0"></path></g><polygon points="357.22 166.62 357.62 165.6 357.62 143.04 356.75 143.54 356.75 165.99 357.22 166.62" style="fill:#e0e0e0"></polygon><polygon points="362.69 106.2 355.35 101.96 344.34 108.31 351.68 112.56 362.69 106.2" style="fill:#e0e0e0"></polygon><g style="opacity:0.5;mix-blend-mode:multiply"><polygon points="362.69 106.2 355.35 101.96 344.34 108.31 351.68 112.56 362.69 106.2" style="fill:#e0e0e0"></polygon></g><polygon points="340.67 144.35 333.33 140.1 349.88 162.37 357.22 166.62 340.67 144.35" style="fill:#e0e0e0"></polygon><g style="opacity:0.5;mix-blend-mode:multiply"><polygon points="340.67 144.35 333.33 140.1 349.88 162.37 357.22 166.62 340.67 144.35" style="fill:#e0e0e0"></polygon></g><polygon points="344.34 112.56 366.36 99.85 366.36 91.37 344.34 104.08 344.34 112.56" style="fill:#ebebeb"></polygon><polygon points="344.34 112.56 337 108.32 337 99.85 344.34 104.08 344.34 112.56" style="fill:#e0e0e0"></polygon><polygon points="366.36 91.37 359.02 87.13 337 99.85 344.34 104.08 366.36 91.37" style="fill:#f5f5f5"></polygon><path d="M342.74,173.58a17.17,17.17,0,0,1-8.65-2.22c-6.25-3.61-9.7-11.19-9.7-21.33h.91c0,9.8,3.28,17.1,9.25,20.54s13.92,2.64,22.41-2.26c17.71-10.23,32.12-35.18,32.12-55.63h.9c0,20.74-14.61,46-32.57,56.41C352.25,172.07,347.25,173.58,342.74,173.58Z" style="fill:#ebebeb"></path><path d="M324.85,148.09c.93-.54,1.69-.1,1.69,1a3.77,3.77,0,0,1-1.69,2.94c-.94.54-1.7.1-1.7-1A3.75,3.75,0,0,1,324.85,148.09Z" style="fill:#ebebeb"></path><path d="M389.53,110.72c.94-.54,1.7-.1,1.7,1a3.73,3.73,0,0,1-1.7,2.94c-.94.54-1.7.11-1.7-1A3.75,3.75,0,0,1,389.53,110.72Z" style="fill:#ebebeb"></path><path d="M324.85,185.57c.93-.54,1.69-.1,1.69,1a3.77,3.77,0,0,1-1.69,2.94c-.94.54-1.7.1-1.7-1A3.75,3.75,0,0,1,324.85,185.57Z" style="fill:#ebebeb"></path><path d="M389.53,148.15c.94-.54,1.7-.1,1.7,1a3.75,3.75,0,0,1-1.7,2.94c-.94.54-1.7.1-1.7-1A3.75,3.75,0,0,1,389.53,148.15Z" style="fill:#ebebeb"></path><rect x="319.84" y="168.33" width="74.69" height="0.9" transform="translate(-36.52 201.37) rotate(-30.02)" style="fill:#ebebeb"></rect></g><g id="freepik--text-tool--inject-1--inject-244"><path d="M183,69.13V91.65l-2,1.14v-7.1c0-3.83-3.11-5.13-7-2.91l-9.55,5.51V121.9c0,4.44,2.72,6.47,6.06,4.54l5.94-3.43.06,0,6.5,3.75-32.5,18.76L146.06,143,144,144.18v-2.44l6-3.46c3.35-1.93,6.07-7.1,6.07-11.54V93.13l-9.55,5.52c-3.85,2.22-7,7.12-7,10.94v7.1l-2.05,1.22V95.4Z" style="fill:#e0e0e0"></path><g style="opacity:0.5;mix-blend-mode:multiply"><path d="M183,69.13V91.65l-2,1.14v-7.1c0-3.83-3.11-5.13-7-2.91l-9.55,5.51V121.9c0,4.44,2.72,6.47,6.06,4.54l5.94-3.43.06,0,6.5,3.75-32.5,18.76L146.06,143,144,144.18v-2.44l6-3.46c3.35-1.93,6.07-7.1,6.07-11.54V93.13l-9.55,5.52c-3.85,2.22-7,7.12-7,10.94v7.1l-2.05,1.22V95.4Z" style="fill:#e0e0e0"></path></g><polygon points="187.4 96.54 180.9 92.79 180.9 81.57 187.4 82.8 187.4 96.54" style="fill:#e0e0e0"></polygon><g style="opacity:0.5;mix-blend-mode:multiply"><polygon points="187.4 96.54 180.9 92.79 180.9 81.57 187.4 82.8 187.4 96.54" style="fill:#e0e0e0"></polygon></g><path d="M189.45,72.88V95.4l-2,1.14v-7.1c0-3.82-3.11-5.13-7-2.91l-9.55,5.52v33.6c0,4.44,2.72,6.47,6.06,4.54l6-3.46v2.44l-32.5,18.76v-2.44l6-3.46c3.35-1.93,6.07-7.1,6.07-11.53V96.89L153,102.4c-3.84,2.22-6.95,7.12-6.95,10.95v7.1L144,121.66V99.15Z" style="fill:#ebebeb"></path><polygon points="182.95 69.13 189.45 72.88 143.95 99.15 137.45 95.4 182.95 69.13" style="fill:#f5f5f5"></polygon><polygon points="137.45 95.4 143.95 99.15 143.95 121.67 137.45 117.91 137.45 95.4" style="fill:#e0e0e0"></polygon><polygon points="143.95 141.74 150.45 145.49 150.45 147.93 143.95 144.18 143.95 141.74" style="fill:#e0e0e0"></polygon></g><g id="freepik--Printer--inject-1--inject-244"><polygon points="155.01 303.05 146.88 298.36 155.01 296.01 155.01 303.05" style="fill:#e0e0e0"></polygon><g style="mix-blend-mode:multiply"><polyline points="155.01 296.01 155.01 303.05 146.88 298.36" style="fill:#37474f"></polyline></g><polygon points="106.26 324.15 106.26 331.63 61.58 305.83 61.58 298.36 106.26 324.15" style="fill:#e0e0e0"></polygon><g style="mix-blend-mode:multiply"><polygon points="106.26 324.15 106.26 331.63 61.58 305.83 61.58 298.36 106.26 324.15" style="fill:#37474f"></polygon></g><polygon points="57.52 239.72 102.2 265.52 102.2 326.5 57.52 300.7 57.52 239.72" style="fill:#37474f"></polygon><polygon points="102.2 265.52 163.13 230.34 163.13 291.32 102.2 326.5 102.2 265.52" style="fill:#455a64"></polygon><polygon points="163.13 230.34 118.45 204.55 57.52 239.72 102.2 265.52 163.13 230.34" style="fill:#455a64"></polygon><polygon points="106.26 267.87 159.07 237.38 159.07 251.45 106.26 281.94 106.26 267.87" style="fill:#37474f"></polygon><g style="opacity:0.5;mix-blend-mode:multiply"><path d="M126.57,257.31c0,.65,1.94.06,4.33-1.32l7.59-4.38c2.39-1.38,4.33-3,4.33-3.68v-1.17l-16.25,9.38Z" style="fill:#263238"></path></g><polygon points="106.26 286.63 159.07 256.14 159.07 270.21 106.26 300.7 106.26 286.63" style="fill:#37474f"></polygon><g style="opacity:0.5;mix-blend-mode:multiply"><path d="M126.57,276.08c0,.64,1.94.05,4.33-1.33l7.59-4.38c2.39-1.38,4.33-3,4.33-3.67v-1.18l-16.25,9.38Z" style="fill:#263238"></path></g><polygon points="106.26 305.39 159.07 274.9 159.07 288.98 106.26 319.46 106.26 305.39" style="fill:#37474f"></polygon><g style="opacity:0.5;mix-blend-mode:multiply"><path d="M126.57,294.84c0,.65,1.94.05,4.33-1.33l7.59-4.38c2.39-1.38,4.33-3,4.33-3.67v-1.18l-16.25,9.39Z" style="fill:#263238"></path></g><polygon points="106.26 331.63 110.33 329.29 110.33 321.81 106.26 324.15 106.26 331.63" style="fill:#37474f"></polygon><polygon points="155.01 303.05 159.07 300.7 159.07 293.67 155.01 296.01 155.01 303.05" style="fill:#37474f"></polygon><path d="M102.53,255.23l43.28-25a3.94,3.94,0,0,0,1.79-3.09V212a3.94,3.94,0,0,0-1.79-3.09l-29.9-17.26a3.92,3.92,0,0,0-3.56,0l-43.29,25a3.92,3.92,0,0,0-1.78,3.09v15.2A4,4,0,0,0,69.06,238L99,255.23A3.94,3.94,0,0,0,102.53,255.23Z" style="fill:#FF6366"></path><path d="M102.53,255.23l43.28-25a3.94,3.94,0,0,0,1.79-3.09V212a3.94,3.94,0,0,0-1.79-3.09l-29.9-17.26a3.92,3.92,0,0,0-3.56,0l-43.29,25a3.92,3.92,0,0,0-1.78,3.09v15.2A4,4,0,0,0,69.06,238L99,255.23A3.94,3.94,0,0,0,102.53,255.23Z" style="fill:#fff;opacity:0.6000000000000001"></path><path d="M146.77,209.74a3.19,3.19,0,0,0-1-.88l-29.9-17.26a3.92,3.92,0,0,0-3.56,0l-43.29,25a3.92,3.92,0,0,0-1.78,3.09V220l31,17.78Z" style="fill:#FF6366"></path><path d="M146.77,209.74a3.19,3.19,0,0,0-1-.88l-29.9-17.26a3.92,3.92,0,0,0-3.56,0l-43.29,25a3.92,3.92,0,0,0-1.78,3.09V220l31,17.78Z" style="fill:#fff;opacity:0.7000000000000001"></path><path d="M100.74,254.2V239A3.92,3.92,0,0,0,99,235.91l-29.9-17.26c-1-.57-1.78-.11-1.78,1v15.2A4,4,0,0,0,69.06,238L99,255.23C100,255.8,100.74,255.34,100.74,254.2Z" style="fill:#FF6366"></path><polygon points="107.44 248.53 107.44 246.6 140.91 227.28 140.91 229.21 107.44 248.53" style="fill:#e0e0e0"></polygon><g style="opacity:0.5;mix-blend-mode:multiply"><polygon points="107.44 248.53 107.44 246.6 140.91 227.28 140.91 229.21 107.44 248.53" style="fill:#FF6366"></polygon></g><path d="M109.94,247.09l13.52,7.8a1.55,1.55,0,0,0,1.42,0l25.35-14.63a.92.92,0,0,0,0-1.8l-13.51-7.8-26.78,15.45Z" style="fill:#e0e0e0"></path><g style="opacity:0.5;mix-blend-mode:multiply"><path d="M124.17,237.9v17.16a1.36,1.36,0,0,0,.71-.17l25.35-14.63a.92.92,0,0,0,0-1.8l-2.63-1.52H125.83Z" style="fill:#e0e0e0"></path></g><path d="M123.46,253.92a1.55,1.55,0,0,0,1.42,0l25.35-14.63a.44.44,0,0,0,0-.83l-13.51-7.8-26.78,15.45Z" style="fill:#f5f5f5"></path><g style="opacity:0.5"><path d="M123.46,253.92a1.55,1.55,0,0,0,1.42,0l25.35-14.63a.44.44,0,0,0,0-.83l-13.51-7.8-26.78,15.45Z" style="fill:#fff"></path></g><polygon points="77.32 215.69 110.78 196.36 112.42 197.31 78.96 216.64 77.32 215.69" style="fill:#e0e0e0"></polygon><g style="opacity:0.5;mix-blend-mode:multiply"><polygon points="77.32 215.69 110.78 196.36 112.42 197.31 78.96 216.64 77.32 215.69" style="fill:#FF6366"></polygon></g><polygon points="77.32 215.69 75.77 208.83 109.23 189.51 110.78 196.36 77.32 215.69" style="fill:#e0e0e0"></polygon><polygon points="78.09 216.14 76.54 209.29 110.01 189.97 111.56 196.82 78.09 216.14" style="fill:#FF6366"></polygon><polygon points="78.09 216.14 76.54 209.29 110.01 189.97 111.56 196.82 78.09 216.14" style="fill:#fff;opacity:0.6000000000000001"></polygon><polygon points="76.54 209.29 75.77 208.83 77.32 215.69 78.09 216.14 76.54 209.29" style="fill:#FF6366"></polygon><polygon points="75.77 208.83 76.54 209.29 110.01 189.97 109.23 189.51 75.77 208.83" style="fill:#FF6366"></polygon><polygon points="75.77 208.83 76.54 209.29 110.01 189.97 109.23 189.51 75.77 208.83" style="fill:#fff;opacity:0.8"></polygon><g style="opacity:0.5"><path d="M85.44,220.38l20.21,11.67a3.55,3.55,0,0,1,1.79,3.09v4c0,.91.64,1.28,1.42.82l30.62-17.67a3.15,3.15,0,0,0,1.42-2.47v-4a3.55,3.55,0,0,0-1.78-3.08L118.9,201.05a3.18,3.18,0,0,0-2.85,0L85.44,218.73A.87.87,0,0,0,85.44,220.38Z" style="fill:#fff"></path></g><polygon points="110.39 198.49 80.27 215.88 79.89 214.2 75.24 193.68 105.36 176.3 110.01 196.81 110.39 198.49" style="fill:#f5f5f5"></polygon><g style="opacity:0.5"><polygon points="110.39 198.49 80.27 215.88 79.89 214.2 75.24 193.68 105.36 176.3 110.01 196.81 110.39 198.49" style="fill:#fff;stroke:#e0e0e0;stroke-miterlimit:10;stroke-width:0.25px"></polygon></g><path d="M110.78,215.69c-1.84,1.06-1.84,2.81,0,3.89a7.37,7.37,0,0,0,6.72,0c1.87-1.08,1.87-2.82,0-3.9A7.44,7.44,0,0,0,110.78,215.69Z" style="fill:#ebebeb"></path><path d="M91,206.14a3.19,3.19,0,0,1-1.32-2.39q-.83-4.73,4.47-8.11l-.08-.4q-.14-.81-.54-1c-.26-.12-.64,0-1.12.29a4.68,4.68,0,0,0-.86.7c-.24.26-.51.58-.8.95a1.87,1.87,0,0,1-.44.51.49.49,0,0,1-.56-.06,2.37,2.37,0,0,1-.64-.56,1.67,1.67,0,0,1-.34-.64,1.78,1.78,0,0,1,.4-1.17,7.89,7.89,0,0,1,1.27-1.51,11.11,11.11,0,0,1,1.7-1.34q2.36-1.51,3.63-1a3,3,0,0,1,1.64,2.53l.81,4.6a16.13,16.13,0,0,0,.37,1.74c.1.38.23.79.38,1.24a2.76,2.76,0,0,1,.17.51c0,.27-.23.67-.82,1.2a12.71,12.71,0,0,1-1.59,1.25c-.24.15-.43.16-.56,0a3.37,3.37,0,0,1-.48-.78,5.68,5.68,0,0,1-.75,1.6,4.71,4.71,0,0,1-1.44,1.44A2.43,2.43,0,0,1,91,206.14Zm3.67-4.44a3.09,3.09,0,0,0,.38-.92l-.52-3a3.5,3.5,0,0,0-1.88,3.71,1.3,1.3,0,0,0,.5.93.79.79,0,0,0,.89-.11A2.07,2.07,0,0,0,94.64,201.7Z" style="fill:#e0e0e0"></path></g><g id="freepik--Character--inject-1--inject-244"><path d="M197.66,233.2a4.65,4.65,0,0,1-2-3.67V202.8a4.25,4.25,0,0,1,2.27-3.55L234,182.59a5.23,5.23,0,0,1,4.3.12,4.65,4.65,0,0,1,2,3.67v26.73a4.27,4.27,0,0,1-2.27,3.55L202,233.32A5.23,5.23,0,0,1,197.66,233.2Z" style="fill:#455a64"></path><path d="M203.75,205l-7.44-4.29a4,4,0,0,0-.68,2.1v26.73a4.65,4.65,0,0,0,2,3.67,5.23,5.23,0,0,0,4.3.12l1.79-.83Z" style="fill:#263238"></path><path d="M202,201.6,238,184.93a1.48,1.48,0,0,1,2.27,1.45v26.73a4.27,4.27,0,0,1-2.27,3.55L202,233.32a1.48,1.48,0,0,1-2.27-1.45V205.14A4.25,4.25,0,0,1,202,201.6Z" style="fill:#37474f"></path><path d="M209.92,275.27v61.21a1.79,1.79,0,0,1-.81,1.41l-2.19,1.26a1.78,1.78,0,0,1-1.62,0l-2.19-1.26a1.82,1.82,0,0,1-.81-1.41V275.27a2.75,2.75,0,0,1,2.75-2.75h2.12A2.75,2.75,0,0,1,209.92,275.27Z" style="fill:#263238"></path><path d="M204.21,272.52h0a1.9,1.9,0,0,1,1.9,1.9v64.37c0,.46-.32.64-.72.42l-2.31-1.34a1.72,1.72,0,0,1-.78-1.35v-62.1A1.91,1.91,0,0,1,204.21,272.52Z" style="fill:#37474f"></path><path d="M251.14,296.76v63a1.8,1.8,0,0,1-.82,1.4l-2.18,1.26a1.8,1.8,0,0,1-1.63,0l-2.18-1.26a1.79,1.79,0,0,1-.81-1.4v-63a.94.94,0,0,1,.93-.94h5.75A.94.94,0,0,1,251.14,296.76Z" style="fill:#263238"></path><path d="M244.45,295.82h1.94a.94.94,0,0,1,.94.94V362c0,.51-.36.72-.81.46l-2.18-1.26a1.79,1.79,0,0,1-.81-1.4v-63A.94.94,0,0,1,244.45,295.82Z" style="fill:#37474f"></path><path d="M202.3,274v.84a5.51,5.51,0,0,0,2,4l41,28.56a4.19,4.19,0,0,0,4.19.22L301,277.79A4.78,4.78,0,0,0,303.2,274v-.87a4.27,4.27,0,0,0-2.27-3.55l-50.68-23.5a5.42,5.42,0,0,0-4.44.2l-41.34,23.89A4.78,4.78,0,0,0,202.3,274Z" style="fill:#37474f"></path><path d="M204.47,270.21l41.34-23.89a5.42,5.42,0,0,1,4.44-.2l50.68,23.5c1.25.58,1.3,1.61.1,2.3l-51.54,29.76a4.19,4.19,0,0,1-4.19-.21l-41-28.54A1.5,1.5,0,0,1,204.47,270.21Z" style="fill:#455a64"></path><path d="M218.68,247.88c-4.33,6.55-5.8,17-1.63,25.15,2,3.93,21,25.67,34.79,23.88,23.71-3.1,45.76-34.64,45.76-34.64L265.77,245.1Z" style="fill:#263238"></path><path d="M326.33,322.43c11,8.84,18.07,9.75,20.91,11.55s2.7,6.77-2.53,9.25-11.55,2.64-16,0-8.07-6.69-12.35-8.37-6.32-1.91-7.62-4.84-.84-12.71-.84-12.71Z" style="fill:#263238"></path><path d="M318.21,306.8c.22,4.15.23,7.83,4.12,11.92a44.11,44.11,0,0,0,4,3.71c6.44,5.28,11.63,9.35,12.55,10.07s-2.47,4.56-7.62,3.8-10.88-6.67-15-10.07c-1.82-1.51-3.57-2.86-4.95-3.9a9.42,9.42,0,0,1-3.6-5.65l-1.34-6.38Z" style="fill:#ffa8a7;stroke:#ffa8a7;stroke-miterlimit:10"></path><path d="M298.22,338.63c11,8.84,18.06,9.75,20.91,11.55s2.7,6.77-2.53,9.25-11.55,2.64-16,0-8.07-6.69-12.35-8.37-6.32-1.92-7.63-4.84-.84-12.71-.84-12.71Z" style="fill:#263238"></path><path d="M290.09,323c.22,4.15.24,7.83,4.13,11.92a44.11,44.11,0,0,0,4,3.71c6.43,5.28,11.63,9.35,12.54,10.07s-2.46,4.56-7.62,3.8-10.88-6.67-15-10.07c-1.82-1.51-3.57-2.86-4.95-3.9a9.46,9.46,0,0,1-3.6-5.65l-1.34-6.38Z" style="fill:#ffa8a7;stroke:#ffa8a7;stroke-miterlimit:10"></path><path d="M260.62,342v73a1.92,1.92,0,0,0,.87,1.5l2.33,1.34a1.89,1.89,0,0,0,1.73,0l2.33-1.34a1.92,1.92,0,0,0,.87-1.5V342a1,1,0,0,0-1-1h-6.13A1,1,0,0,0,260.62,342Z" style="fill:#FF6366"></path><path d="M267.75,341h-2.07a1,1,0,0,0-1,1v75.37c0,.55.39.78.87.5l2.33-1.34a1.92,1.92,0,0,0,.87-1.5V342A1,1,0,0,0,267.75,341Z" style="fill:#FF6366"></path><path d="M267.75,341h-2.07a1,1,0,0,0-1,1v75.37c0,.55.39.78.87.5l2.33-1.34a1.92,1.92,0,0,0,.87-1.5V342A1,1,0,0,0,267.75,341Z" style="fill:#fff;opacity:0.6000000000000001"></path><path d="M402.79,260v73a1.92,1.92,0,0,0,.87,1.5l2.33,1.34a1.89,1.89,0,0,0,1.73,0l2.33-1.34a1.92,1.92,0,0,0,.87-1.5V260a1,1,0,0,0-1-1h-6.13A1,1,0,0,0,402.79,260Z" style="fill:#FF6366"></path><path d="M409.92,259h-2.07a1,1,0,0,0-1,1v75.36c0,.56.39.78.87.5l2.33-1.34a1.92,1.92,0,0,0,.87-1.5V260A1,1,0,0,0,409.92,259Z" style="fill:#FF6366"></path><path d="M409.92,259h-2.07a1,1,0,0,0-1,1v75.36c0,.56.39.78.87.5l2.33-1.34a1.92,1.92,0,0,0,.87-1.5V260A1,1,0,0,0,409.92,259Z" style="fill:#fff;opacity:0.6000000000000001"></path><path d="M187.5,299.82v73a1.92,1.92,0,0,0,.87,1.5l2.33,1.34a1.89,1.89,0,0,0,1.73,0l2.33-1.34a1.92,1.92,0,0,0,.87-1.5v-73a1,1,0,0,0-1-1H188.5A1,1,0,0,0,187.5,299.82Z" style="fill:#FF6366"></path><path d="M194.63,298.82h-2.06a1,1,0,0,0-1,1v75.37c0,.55.38.78.86.5l2.33-1.34a1.92,1.92,0,0,0,.87-1.5v-73A1,1,0,0,0,194.63,298.82Z" style="fill:#FF6366"></path><path d="M194.63,298.82h-2.06a1,1,0,0,0-1,1v75.37c0,.55.38.78.86.5l2.33-1.34a1.92,1.92,0,0,0,.87-1.5v-73A1,1,0,0,0,194.63,298.82Z" style="fill:#fff;opacity:0.6000000000000001"></path><path d="M183.44,299.14v-.69a3.86,3.86,0,0,1,1.73-3L332,210.68a3.86,3.86,0,0,1,3.47,0l77.78,44.91a3.83,3.83,0,0,1,1.73,3v.69a3.86,3.86,0,0,1-1.73,3L266.41,347.05a3.83,3.83,0,0,1-3.46,0l-77.78-44.91A3.83,3.83,0,0,1,183.44,299.14Z" style="fill:#FF6366"></path><path d="M183.44,299.14v-.69a3.86,3.86,0,0,1,1.73-3L332,210.68a3.86,3.86,0,0,1,3.47,0l77.78,44.91a3.83,3.83,0,0,1,1.73,3v.69a3.86,3.86,0,0,1-1.73,3L266.41,347.05a3.83,3.83,0,0,1-3.46,0l-77.78-44.91A3.83,3.83,0,0,1,183.44,299.14Z" style="fill:#fff;opacity:0.6000000000000001"></path><path d="M264.68,249.55l-79.51,45.9a3.86,3.86,0,0,0-1.73,3v.69a3.83,3.83,0,0,0,1.73,3L263,347.05a3.62,3.62,0,0,0,1.73.41Z" style="fill:#FF6366"></path><path d="M185.17,297.45,263,342.36a3.83,3.83,0,0,0,3.46,0l146.84-84.77a1.06,1.06,0,0,0,0-2l-77.78-44.91a3.86,3.86,0,0,0-3.47,0L185.17,295.45A1.06,1.06,0,0,0,185.17,297.45Z" style="fill:#FF6366"></path><path d="M185.17,297.45,263,342.36a3.83,3.83,0,0,0,3.46,0l146.84-84.77a1.06,1.06,0,0,0,0-2l-77.78-44.91a3.86,3.86,0,0,0-3.47,0L185.17,295.45A1.06,1.06,0,0,0,185.17,297.45Z" style="fill:#fff;opacity:0.7000000000000001"></path><path d="M280.94,257.58v.35a1.91,1.91,0,0,0,.86,1.5l14.52,8.38a1.92,1.92,0,0,0,1.73,0l47-27.41a1.93,1.93,0,0,0,.87-1.51v-.07a1.92,1.92,0,0,0-.87-1.5l-14.48-8.38a2,2,0,0,0-1.74,0l-47,27.14A1.91,1.91,0,0,0,280.94,257.58Z" style="fill:#37474f"></path><path d="M280.94,257.58v.35a1.91,1.91,0,0,0,.86,1.5l14.52,8.38a1.74,1.74,0,0,0,.86.21V253.33H286.56l-4.76,2.75A1.91,1.91,0,0,0,280.94,257.58Z" style="fill:#263238"></path><path d="M345.06,238.32l-47,27.15a1.92,1.92,0,0,1-1.73,0l-14.52-8.38a.53.53,0,0,1,0-1l47-27.14a2,2,0,0,1,1.74,0l14.48,8.38C345.54,237.6,345.54,238.05,345.06,238.32Z" style="fill:#455a64"></path><path d="M303,253.23l-1.48.85c-.07,0-.07.1,0,.13l1.59.93a.3.3,0,0,0,.23,0l1.48-.86c.07,0,.07-.1,0-.13l-1.59-.92A.24.24,0,0,0,303,253.23Zm2.62,3.22,1.49-.85c.06,0,.06-.1,0-.13l-1.6-.93a.31.31,0,0,0-.23,0l-1.48.86c-.07,0-.07.09,0,.13l1.59.92A.24.24,0,0,0,305.59,256.45Zm4.79-2.76,2.51-1.45c.07,0,.07-.1,0-.13l-1.59-.93a.3.3,0,0,0-.23,0l-2.51,1.45c-.06,0-.06.1,0,.13l1.6.93A.28.28,0,0,0,310.38,253.69Zm-2.62,1.51,1.48-.85c.07,0,.07-.1,0-.14l-1.59-.92a.3.3,0,0,0-.23,0l-1.49.86c-.06,0-.06.09,0,.13l1.6.92A.24.24,0,0,0,307.76,255.2Zm5.82-3.36,1.48-.85a.08.08,0,0,0,0-.14l-1.6-.92a.28.28,0,0,0-.22,0l-1.49.86c-.06,0-.06.09,0,.13l1.6.92A.24.24,0,0,0,313.58,251.84Zm2.17-1.25,1.48-.85a.08.08,0,0,0,0-.14l-1.6-.92a.3.3,0,0,0-.23,0l-1.48.86c-.06,0-.06.09,0,.13l1.6.92A.24.24,0,0,0,315.75,250.59Zm-6.28-3.75-1.48.85a.08.08,0,0,0,0,.14l1.6.92a.28.28,0,0,0,.22,0l1.49-.86c.06,0,.06-.09,0-.13l-1.6-.92A.24.24,0,0,0,309.47,246.84Zm2.17-1.25-1.48.85c-.07,0-.07.1,0,.13l1.59.93a.3.3,0,0,0,.23,0l1.48-.86c.07,0,.07-.1,0-.13l-1.59-.92A.24.24,0,0,0,311.64,245.59Zm2.17-1.26-1.49.86c-.06,0-.06.1,0,.13l1.6.92a.24.24,0,0,0,.23,0l1.48-.85c.06,0,.06-.1,0-.13l-1.6-.93A.28.28,0,0,0,313.81,244.33Zm2.16-1.25-1.48.86c-.06,0-.06.09,0,.13l1.6.92a.24.24,0,0,0,.23,0l1.48-.85c.06,0,.06-.1,0-.13l-1.6-.93A.3.3,0,0,0,316,243.08ZM305.14,252l-1.49.86c-.06,0-.06.1,0,.13l1.6.92a.24.24,0,0,0,.23,0L307,253c.06,0,.06-.1,0-.13l-1.6-.93A.28.28,0,0,0,305.14,252Zm2.16-3.88L304,250c-.07,0-.07.09,0,.13l3.87,2.24a.24.24,0,0,0,.23,0l1.71-1c.07,0,.07-.09,0-.13l-2.05-1.19c-.06,0-.06-.09,0-.13l1.37-.79c.06,0,.06-.09,0-.13l-1.6-.92A.24.24,0,0,0,307.3,248.09Zm10.61,1.25,1.49-.86c.06,0,.06-.09,0-.13l-1.6-.92a.24.24,0,0,0-.23,0l-1.48.86c-.07,0-.07.09,0,.13l1.59.92A.24.24,0,0,0,317.91,249.34Zm2.17-1.25,1.48-.86c.07,0,.07-.09,0-.13l-1.59-.92a.24.24,0,0,0-.23,0l-1.49.85a.08.08,0,0,0,0,.14l1.6.92A.24.24,0,0,0,320.08,248.09Zm11.29-13.77a.28.28,0,0,0-.22,0l-1.49.86c-.06,0-.06.1,0,.13l1.6.92a.24.24,0,0,0,.23,0l1.48-.85c.06,0,.06-.1,0-.13Zm6.05,3.76,1.48-.86c.07,0,.07-.09,0-.13l-1.59-.92a.24.24,0,0,0-.23,0l-1.49.85a.08.08,0,0,0,0,.14l1.6.92A.31.31,0,0,0,337.42,238.08Zm-3.19-2.77a.3.3,0,0,0-.23,0l-1.49.86c-.06,0-.06.09,0,.13l1.6.92a.24.24,0,0,0,.23,0l1.48-.85c.07,0,.07-.1,0-.14Zm-6.51-1.64-1.48.85c-.06,0-.06.1,0,.13l1.6.92a.24.24,0,0,0,.23,0l1.48-.85c.06,0,.06-.1,0-.13l-1.6-.92A.24.24,0,0,0,327.72,233.67Zm2.4-1.26a.31.31,0,0,0-.23,0l-1.48.86c-.07,0-.07.1,0,.13l1.59.92a.24.24,0,0,0,.23,0l1.49-.85c.06,0,.06-.1,0-.13Zm5.13,6.92,1.49-.86c.06,0,.06-.09,0-.13l-1.6-.92a.24.24,0,0,0-.23,0l-1.48.86c-.07,0-.07.09,0,.13l1.59.92A.24.24,0,0,0,335.25,239.33Zm-10.84,6.26,1.49-.86c.06,0,.06-.1,0-.13l-1.6-.92a.24.24,0,0,0-.23,0l-1.48.85c-.06,0-.06.1,0,.13l1.6.93A.28.28,0,0,0,324.41,245.59Zm8.67-5,1.49-.86c.06,0,.06-.09,0-.13l-1.6-.92a.24.24,0,0,0-.23,0l-1.48.86c-.06,0-.06.09,0,.13l1.6.92A.22.22,0,0,0,333.08,240.58Zm-10.83,6.26,1.48-.86c.06,0,.06-.09,0-.13l-1.6-.92a.22.22,0,0,0-.22,0l-1.49.85a.08.08,0,0,0,0,.14l1.6.92A.3.3,0,0,0,322.25,246.84Zm4.33-2.51,1.49-.85c.06,0,.06-.1,0-.13l-1.6-.93a.31.31,0,0,0-.23,0l-1.48.86c-.07,0-.07.1,0,.13l1.59.92A.24.24,0,0,0,326.58,244.33Zm2.17-1.25,1.48-.85c.07,0,.07-.1,0-.13l-1.59-.93a.3.3,0,0,0-.23,0l-1.49.86c-.06,0-.06.09,0,.13l1.6.92A.24.24,0,0,0,328.75,243.08Zm2.17-1.25,1.48-.85a.08.08,0,0,0,0-.14l-1.6-.92a.3.3,0,0,0-.23,0l-1.48.86c-.06,0-.06.09,0,.13l1.6.92A.24.24,0,0,0,330.92,241.83Zm-10.61-1.25-1.48.86c-.07,0-.07.09,0,.13l1.59.92a.24.24,0,0,0,.23,0l1.48-.86c.07,0,.07-.09,0-.13l-1.59-.92A.24.24,0,0,0,320.31,240.58ZM300.8,259.22l1.48-.86c.07,0,.07-.09,0-.13l-1.59-.92a.24.24,0,0,0-.23,0l-1.48.86c-.07,0-.07.09,0,.13l1.59.92A.24.24,0,0,0,300.8,259.22Zm2.63-1.52,1.48-.85c.06,0,.06-.1,0-.13l-1.6-.93a.3.3,0,0,0-.23,0l-1.48.86c-.06,0-.06.1,0,.13l1.6.92A.24.24,0,0,0,303.43,257.7Zm-4.8,2.77,1.49-.86c.06,0,.06-.09,0-.13l-1.6-.92a.24.24,0,0,0-.23,0l-1.48.86c-.06,0-.06.09,0,.13l1.6.92A.22.22,0,0,0,298.63,260.47Zm11.53-11.39-1.49.85c-.06,0-.06.1,0,.13l1.6.93a.3.3,0,0,0,.23,0l1.48-.86c.06,0,.06-.1,0-.13l-1.6-.92A.22.22,0,0,0,310.16,249.08Zm-13.92,12.64a.24.24,0,0,0,.23,0l1.48-.85a.08.08,0,0,0,0-.14l-1.6-.92a.3.3,0,0,0-.23,0l-1.48.86c-.06,0-.06.09,0,.13Zm21.9-19.89-1.48.86c-.07,0-.07.09,0,.13l1.59.92a.24.24,0,0,0,.23,0l1.49-.85a.08.08,0,0,0,0-.14l-1.6-.92A.31.31,0,0,0,318.14,241.83Zm-26.58,15.35-1.48.85a.08.08,0,0,0,0,.14l1.6.92a.28.28,0,0,0,.22,0l1.49-.86c.06,0,.06-.09,0-.13l-1.6-.92A.24.24,0,0,0,291.56,257.18Zm4.45.06-1.48.86c-.07,0-.07.09,0,.13l1.59.92a.24.24,0,0,0,.23,0l1.49-.85c.06,0,.06-.1,0-.13l-1.6-.93A.31.31,0,0,0,296,257.24ZM294,260.4a.24.24,0,0,0,.23,0l1.48-.85c.06,0,.06-.1,0-.13l-1.6-.93a.3.3,0,0,0-.23,0l-1.48.86c-.06,0-.06.1,0,.13Zm-.46.27-3.88-2.24a.24.24,0,0,0-.23,0l-1.48.85a.08.08,0,0,0,0,.14l3.88,2.24a.3.3,0,0,0,.23,0l1.48-.86C293.56,260.76,293.56,260.7,293.5,260.67Zm5-2.77,1.48-.85c.07,0,.07-.1,0-.14l-1.59-.92a.3.3,0,0,0-.23,0l-1.49.86c-.06,0-.06.09,0,.13l1.6.92A.24.24,0,0,0,298.52,257.9Zm16.31-9.42,1.49-.85c.06,0,.06-.1,0-.13l-1.6-.93a.31.31,0,0,0-.23,0l-1.48.86c-.07,0-.07.1,0,.13l1.59.92A.24.24,0,0,0,314.83,248.48ZM294,255.93a.24.24,0,0,0-.23,0l-1.48.85c-.07,0-.07.1,0,.13l1.59.93a.3.3,0,0,0,.23,0l1.48-.86c.07,0,.07-.1,0-.13Zm18.71-6.19,1.48-.86c.06,0,.06-.1,0-.13l-1.6-.92a.24.24,0,0,0-.23,0l-1.48.85c-.06,0-.06.1,0,.13l1.6.93A.3.3,0,0,0,312.67,249.74Zm16.54-14.17a.3.3,0,0,0-.23,0l-1.48.86c-.07,0-.07.1,0,.13l1.59.92a.24.24,0,0,0,.23,0l1.48-.85c.07,0,.07-.1,0-.13Zm3,2.9,1.49-.85a.08.08,0,0,0,0-.14l-1.6-.92a.3.3,0,0,0-.23,0l-1.48.86c-.07,0-.07.09,0,.13l1.59.92A.24.24,0,0,0,332.17,238.47Zm-5.36-1.64-1.48.85c-.07,0-.07.1,0,.13l1.59.93a.3.3,0,0,0,.23,0l1.49-.86c.06,0,.06-.1,0-.13l-1.6-.92A.24.24,0,0,0,326.81,236.83Zm-2.17,1.25-1.48.85a.08.08,0,0,0,0,.14l1.6.92a.3.3,0,0,0,.23,0l1.48-.86c.06,0,.06-.09,0-.13l-1.6-.92A.24.24,0,0,0,324.64,238.08Zm-2.16,1.25-1.49.86c-.06,0-.06.09,0,.13l1.6.92a.24.24,0,0,0,.23,0l1.48-.86c.06,0,.06-.09,0-.13l-1.6-.92A.22.22,0,0,0,322.48,239.33Zm7.52.39,1.49-.85c.06,0,.06-.1,0-.13l-1.6-.93a.3.3,0,0,0-.23,0l-1.48.86c-.06,0-.06.1,0,.13l1.6.92A.22.22,0,0,0,330,239.72ZM327.84,241l1.48-.86c.06,0,.06-.1,0-.13l-1.6-.92a.24.24,0,0,0-.23,0l-1.48.85c-.06,0-.06.1,0,.13l1.6.93A.3.3,0,0,0,327.84,241Zm-8.67,5,1.48-.86c.06,0,.06-.09,0-.13l-1.6-.92a.22.22,0,0,0-.22,0l-1.49.86c-.06,0-.06.09,0,.13l1.6.92A.24.24,0,0,0,319.17,246Zm2.16-1.25,1.49-.86c.06,0,.06-.09,0-.13l-1.6-.92a.24.24,0,0,0-.23,0l-1.48.86c-.06,0-.06.09,0,.13l1.6.92A.22.22,0,0,0,321.33,244.73Zm-4.33,2.5,1.48-.85c.07,0,.07-.1,0-.14l-1.59-.92a.3.3,0,0,0-.23,0l-1.49.86c-.06,0-.06.09,0,.13l1.6.92A.24.24,0,0,0,317,247.23Zm8.67-5,1.48-.86c.07,0,.07-.09,0-.13l-1.59-.92a.24.24,0,0,0-.23,0l-1.49.85a.08.08,0,0,0,0,.14l1.6.92A.31.31,0,0,0,325.67,242.23Zm-2.17,1.25,1.49-.86c.06,0,.06-.09,0-.13l-1.6-.92a.24.24,0,0,0-.23,0l-1.48.85c-.07,0-.07.1,0,.14l1.59.92A.3.3,0,0,0,323.5,243.48Zm2.06-8.56-1.49.85c-.06,0-.06.1,0,.13l1.6.93a.3.3,0,0,0,.23,0l1.48-.86c.06,0,.06-.1,0-.13l-1.6-.92A.22.22,0,0,0,325.56,234.92Zm12.2,1,1.6.93a.3.3,0,0,0,.23,0l1.48-.86c.06,0,.06-.1,0-.13l-1.6-.92a.24.24,0,0,0-.23,0l-1.48.85C337.7,235.81,337.7,235.87,337.76,235.9Zm-3.08-.85,1.6.92a.24.24,0,0,0,.23,0l2.28-1.32c.06,0,.06-.09,0-.13l-1.6-.92a.24.24,0,0,0-.23,0l-2.28,1.32C334.62,235,334.62,235,334.68,235.05Zm5.51,2.65,1.6.92a.22.22,0,0,0,.22,0l1.83-1.05c.06,0,.06-.1,0-.13l-1.6-.92a.24.24,0,0,0-.23,0l-1.82,1C340.13,237.61,340.13,237.66,340.19,237.7Zm-1.4.81a.24.24,0,0,0-.23,0l-1.48.85c-.07,0-.07.1,0,.14l1.59.92a.3.3,0,0,0,.23,0l1.49-.86c.06,0,.06-.09,0-.13Zm-7-4.45,1.6.92a.24.24,0,0,0,.23,0l2.85-1.64a.08.08,0,0,0,0-.14l-1.6-.92a.31.31,0,0,0-.23,0l-2.85,1.65C331.77,234,331.77,234,331.83,234.06Zm-1.25-1.91,1.59.92a.24.24,0,0,0,.23,0l1.83-1c.06,0,.06-.1,0-.13l-1.6-.93a.31.31,0,0,0-.23,0L330.58,232C330.51,232.05,330.51,232.11,330.58,232.15Zm-7.91,15.66a.28.28,0,0,0-.22,0l-1.49.86c-.06,0-.06.09,0,.13l1.6.92a.24.24,0,0,0,.23,0l1.48-.85a.08.08,0,0,0,0-.14Zm4.34-2.5a.24.24,0,0,0-.23,0l-1.48.86c-.07,0-.07.09,0,.13l1.59.92a.24.24,0,0,0,.23,0l1.49-.86c.06,0,.06-.09,0-.13Zm9.61-5.55a.24.24,0,0,0-.23,0l-1.48.86c-.06,0-.06.09,0,.13l1.6.92a.24.24,0,0,0,.23,0l1.48-.86c.06,0,.06-.09,0-.13Zm-11.78,6.8a.24.24,0,0,0-.23,0l-1.48.86c-.06,0-.06.09,0,.13l1.6.92a.24.24,0,0,0,.23,0l1.48-.86c.06,0,.06-.09,0-.13Zm4.34-2.5a.24.24,0,0,0-.23,0l-1.48.85c-.07,0-.07.1,0,.14l1.59.92a.3.3,0,0,0,.23,0l1.48-.86c.07,0,.07-.09,0-.13Zm.25-12a.3.3,0,0,0,.23,0l2.28-1.32c.07,0,.07-.09,0-.13l-1.59-.92a.24.24,0,0,0-.23,0L327.84,231c-.07,0-.07.1,0,.14Zm2.86,10.24a.3.3,0,0,0-.23,0l-1.48.86c-.07,0-.07.09,0,.13l1.59.92a.24.24,0,0,0,.23,0l1.48-.85c.07,0,.07-.1,0-.14Zm2.16-1.25a.22.22,0,0,0-.22,0l-1.49.86c-.06,0-.06.09,0,.13l1.6.92a.24.24,0,0,0,.23,0l1.48-.86c.06,0,.06-.09,0-.13ZM289.28,255.2a.24.24,0,0,0,.23,0l3.65-2.11c.06,0,.06-.09,0-.13l-1.6-.92a.24.24,0,0,0-.23,0l-3.65,2.11c-.06,0-.06.09,0,.13Zm4.79-2.76a.31.31,0,0,0,.23,0l1.48-.86c.07,0,.07-.1,0-.13l-1.59-.92a.24.24,0,0,0-.23,0l-1.49.85c-.06,0-.06.1,0,.13Zm29.32-16.27-1.48.85c-.07,0-.07.1,0,.14l1.59.92a.3.3,0,0,0,.23,0l1.48-.86c.07,0,.07-.09,0-.13l-1.59-.92A.24.24,0,0,0,323.39,236.17Zm-25,13.76a.22.22,0,0,0,.22,0l1.49-.85a.08.08,0,0,0,0-.14l-1.6-.92a.31.31,0,0,0-.23,0l-1.48.86c-.06,0-.06.09,0,.13Zm-11.3,6.52a.24.24,0,0,0,.23,0l1.48-.85c.07,0,.07-.1,0-.13l-1.59-.93a.3.3,0,0,0-.23,0l-1.48.86c-.07,0-.07.09,0,.13Zm-3.76.33,3.88,2.24a.22.22,0,0,0,.22,0l1.49-.85a.08.08,0,0,0,0-.14l-3.88-2.24a.31.31,0,0,0-.23,0l-1.48.86C283.28,256.69,283.28,256.75,283.35,256.78Zm23.16-11.52a.28.28,0,0,0,.22,0l1.83-1.06c.06,0,.06-.09,0-.13l-1.6-.92a.24.24,0,0,0-.23,0l-1.82,1c-.06,0-.06.1,0,.13ZM301,248.42a.3.3,0,0,0,.23,0l2.28-1.32c.06,0,.06-.09,0-.13l-1.6-.92a.24.24,0,0,0-.23,0l-2.28,1.31a.08.08,0,0,0,0,.14Zm10.49-6.06a.24.24,0,0,0,.23,0L324,235.31c.06,0,.06-.09,0-.13l-1.6-.92a.24.24,0,0,0-.23,0l-12.2,7.05c-.07,0-.07.09,0,.13Zm12.9-7.44a.28.28,0,0,0,.22,0l1.83-1.06c.06,0,.06-.09,0-.13l-1.6-.92a.24.24,0,0,0-.23,0l-1.82,1.05c-.07,0-.07.1,0,.13ZM309,243.81a.3.3,0,0,0,.23,0l1.83-1.06c.06,0,.06-.09,0-.13l-1.6-.92a.24.24,0,0,0-.23,0l-1.82,1.05c-.07,0-.07.1,0,.14Zm17.91-10.34a.3.3,0,0,0,.23,0l1.83-1.06c.06,0,.06-.09,0-.13l-1.6-.92a.24.24,0,0,0-.23,0l-1.82,1c-.07,0-.07.1,0,.14ZM304,246.71a.28.28,0,0,0,.22,0l1.83-1.06c.06,0,.06-.09,0-.13l-1.6-.92a.24.24,0,0,0-.23,0l-1.82,1.05c-.06,0-.06.1,0,.13Zm-7.76,4.47a.24.24,0,0,0,.23,0l1.48-.85c.06,0,.06-.1,0-.13l-1.6-.93a.3.3,0,0,0-.23,0l-1.48.86c-.06,0-.06.1,0,.13Zm-4.79,3.43-1.49.86c-.06,0-.06.09,0,.13l1.6.92a.24.24,0,0,0,.23,0l1.48-.86c.07,0,.07-.09,0-.13l-1.59-.92A.24.24,0,0,0,291.45,254.61Zm9.35-.13-1.48.85a.08.08,0,0,0,0,.14l1.6.92a.28.28,0,0,0,.22,0l1.49-.86c.06,0,.06-.09,0-.13l-1.6-.92A.24.24,0,0,0,300.8,254.48Zm5.25-8.3-4.34,2.5c-.06,0-.06.1,0,.13l1.6.93a.31.31,0,0,0,.23,0l4.33-2.51c.07,0,.07-.09,0-.13l-1.59-.92A.24.24,0,0,0,306.05,246.18Zm-12.21,7.18a.24.24,0,0,0-.23,0l-1.48.85a.08.08,0,0,0,0,.14l1.6.92a.3.3,0,0,0,.23,0l1.48-.86c.06,0,.06-.09,0-.13Zm2.06,1.31-1.49.86c-.06,0-.06.1,0,.13l1.6.92a.24.24,0,0,0,.23,0l1.48-.85c.06,0,.06-.1,0-.13l-1.6-.93A.28.28,0,0,0,295.9,254.67Zm12.32-9.74-1.49.85a.08.08,0,0,0,0,.14l1.6.92a.31.31,0,0,0,.23,0L310,246c.06,0,.06-.09,0-.13l-1.6-.92A.22.22,0,0,0,308.22,244.93Zm-9.59,5.66a.28.28,0,0,0-.22,0l-1.49.86c-.06,0-.06.09,0,.13l1.6.92a.24.24,0,0,0,.23,0l1.48-.85a.08.08,0,0,0,0-.14Zm20.42-11.92-1.48.86c-.06,0-.06.09,0,.13l1.6.92a.24.24,0,0,0,.23,0l1.48-.86c.06,0,.06-.09,0-.13l-1.6-.92A.24.24,0,0,0,319.05,238.67Zm-2.16,1.25-1.49.86c-.06,0-.06.09,0,.13l1.6.92a.24.24,0,0,0,.23,0l1.48-.85a.08.08,0,0,0,0-.14l-1.6-.92A.28.28,0,0,0,316.89,239.92Zm4.33-2.5-1.48.86c-.07,0-.07.09,0,.13l1.59.92a.24.24,0,0,0,.23,0l1.49-.86c.06,0,.06-.09,0-.13l-1.6-.92A.24.24,0,0,0,321.22,237.42Zm-8.67,5-1.48.86c-.06,0-.06.1,0,.13l1.6.92a.22.22,0,0,0,.22,0l1.49-.85c.06,0,.06-.1,0-.13l-1.6-.93A.31.31,0,0,0,312.55,242.42Zm2.17-1.25-1.48.86c-.07,0-.07.09,0,.13l1.59.92a.24.24,0,0,0,.23,0l1.48-.85c.07,0,.07-.1,0-.13l-1.59-.93A.3.3,0,0,0,314.72,241.17Zm-4.34,2.51-1.48.85c-.06,0-.06.1,0,.13l1.6.93a.3.3,0,0,0,.23,0l1.48-.86c.06,0,.06-.1,0-.13l-1.6-.92A.24.24,0,0,0,310.38,243.68Zm0,11.21a.22.22,0,0,0-.22,0l-1.49.86c-.06,0-.06.09,0,.13l1.6.92a.24.24,0,0,0,.23,0l1.48-.86c.06,0,.06-.09,0-.13Zm-4.33,2.5a.31.31,0,0,0-.23,0l-1.48.86c-.06,0-.06.09,0,.13l1.6.92a.22.22,0,0,0,.22,0l1.49-.85c.06,0,.06-.1,0-.13Zm7-4a.3.3,0,0,0-.23,0l-1.48.86c-.06,0-.06.09,0,.13l1.6.92a.24.24,0,0,0,.23,0l1.48-.85a.08.08,0,0,0,0-.14Zm-4.81,2.78a.3.3,0,0,0-.23,0l-1.48.86c-.07,0-.07.09,0,.13l1.59.92a.24.24,0,0,0,.23,0l1.48-.85c.07,0,.07-.1,0-.14Zm9.15-5.28a.24.24,0,0,0-.23,0l-1.48.86c-.07,0-.07.09,0,.13l1.59.92a.24.24,0,0,0,.23,0l1.48-.86c.07,0,.07-.09,0-.13Zm-2.17,1.25a.24.24,0,0,0-.23,0l-1.48.86c-.07,0-.07.09,0,.13l1.59.92a.24.24,0,0,0,.23,0l1.49-.86c.06,0,.06-.09,0-.13Zm-21,8.95a.3.3,0,0,0-.23,0l-1.49.86c-.06,0-.06.09,0,.13l1.6.92a.24.24,0,0,0,.23,0l1.48-.85c.07,0,.07-.1,0-.13Zm-4.91-5.2-1.48.86c-.07,0-.07.09,0,.13l1.59.92a.24.24,0,0,0,.23,0l1.49-.86c.06,0,.06-.09,0-.13l-1.6-.92A.24.24,0,0,0,289.28,255.86Zm30.28-6.25a.22.22,0,0,0-.22,0l-1.49.85a.08.08,0,0,0,0,.14l1.6.92a.3.3,0,0,0,.23,0l1.48-.86c.06,0,.06-.09,0-.13Z" style="fill:#e0e0e0"></path><path d="M297.54,263a.24.24,0,0,0-.23,0l-1.48.86c-.06,0-.06.09,0,.13l.42.24a.24.24,0,0,0,.23,0l1.49-.85c.06,0,.06-.1,0-.13Z" style="fill:#e0e0e0"></path><path d="M299.71,261.75a.24.24,0,0,0-.23,0l-1.48.86c-.07,0-.07.09,0,.13l.42.24a.24.24,0,0,0,.23,0l1.48-.85c.07,0,.07-.1,0-.14Z" style="fill:#e0e0e0"></path><path d="M301.87,260.5a.22.22,0,0,0-.22,0l-1.49.85a.08.08,0,0,0,0,.14l.43.24a.24.24,0,0,0,.23,0l1.48-.86c.06,0,.06-.09,0-.13Z" style="fill:#e0e0e0"></path><path d="M304,259.25a.24.24,0,0,0-.23,0l-1.48.85c-.06,0-.06.1,0,.13l.43.25a.22.22,0,0,0,.22,0l1.49-.86c.06,0,.06-.09,0-.13Z" style="fill:#e0e0e0"></path><path d="M220.87,288.91,272,259.43a1.89,1.89,0,0,1,1.73,0l30.76,17.76a1.91,1.91,0,0,1,.87,1.5V279a1.89,1.89,0,0,1-.87,1.5L253.37,310a1.89,1.89,0,0,1-1.73,0l-30.77-17.76a1.89,1.89,0,0,1-.86-1.5v-.35A1.91,1.91,0,0,1,220.87,288.91Z" style="fill:#37474f"></path><path d="M220,290.41v.35a1.91,1.91,0,0,0,.86,1.5L251.64,310a1.71,1.71,0,0,0,.86.21V287.72H222.94l-2.07,1.19A1.91,1.91,0,0,0,220,290.41Z" style="fill:#263238"></path><path d="M220.87,288.91,272,259.43a1.89,1.89,0,0,1,1.73,0l30.76,17.76c.48.27.48.72,0,1l-51.07,29.49a2,2,0,0,1-1.73,0l-30.77-17.77C220.39,289.64,220.39,289.19,220.87,288.91Z" style="fill:#455a64"></path><path d="M263.82,268.81a1.94,1.94,0,0,1,1.74,0c3.81,2.17,18.85,10.89,22.63,13.08.48.27.48.72,0,1-5,2.87-29.87,17.23-34.82,20.1a1.92,1.92,0,0,1-1.73,0L229,289.91a.53.53,0,0,1,0-1Z" style="fill:#e0e0e0"></path><path d="M280,270.32c-1.52.88-1.52,2.31,0,3.18a6.08,6.08,0,0,0,5.51,0c1.52-.87,1.52-2.3,0-3.18A6.14,6.14,0,0,0,280,270.32Z" style="fill:#e0e0e0"></path><path d="M288.56,273.63l-2.47,1.44c-.72.41-.85,1-.29,1.33a2.57,2.57,0,0,0,2.32-.16l2.47-1.44c.72-.41.84-1,.28-1.33A2.55,2.55,0,0,0,288.56,273.63Z" style="fill:#e0e0e0"></path><path d="M291.44,275.3,289,276.74c-.72.42-.84,1-.28,1.34a2.59,2.59,0,0,0,2.31-.17l2.47-1.44c.72-.41.85-1,.29-1.33A2.6,2.6,0,0,0,291.44,275.3Z" style="fill:#e0e0e0"></path><path d="M294.33,277l-2.47,1.44c-.72.42-.85,1-.29,1.34a2.64,2.64,0,0,0,2.32-.16l2.47-1.45c.71-.41.84-1,.28-1.33A2.61,2.61,0,0,0,294.33,277Z" style="fill:#e0e0e0"></path><path d="M272,264.09l-2.47,1.45c-.72.41-.84,1-.28,1.33a2.58,2.58,0,0,0,2.31-.16l2.47-1.44c.72-.42.85-1,.29-1.34A2.64,2.64,0,0,0,272,264.09Z" style="fill:#e0e0e0"></path><path d="M274.86,265.77l-2.47,1.44c-.72.41-.85,1-.29,1.33a2.6,2.6,0,0,0,2.32-.16l2.47-1.44c.72-.41.84-1,.28-1.34A2.59,2.59,0,0,0,274.86,265.77Z" style="fill:#e0e0e0"></path><path d="M277.74,267.44l-2.47,1.44c-.72.41-.84,1-.28,1.34a2.59,2.59,0,0,0,2.31-.17l2.47-1.44c.72-.41.85-1,.29-1.33A2.57,2.57,0,0,0,277.74,267.44Z" style="fill:#e0e0e0"></path><path d="M328.81,277.19l-.25-.14a1.92,1.92,0,0,1-.87-1.5V226a1.92,1.92,0,0,1,.87-1.5l67.16-39a1.89,1.89,0,0,1,1.73,0l.41.24a1.91,1.91,0,0,1,.87,1.5v49.59a1.89,1.89,0,0,1-.87,1.5l-67.32,38.87A1.89,1.89,0,0,1,328.81,277.19Z" style="fill:#e0e0e0"></path><path d="M345.92,235.48,328,225.1a1.75,1.75,0,0,0-.26.85v49.6a1.92,1.92,0,0,0,.87,1.5l.25.14a1.89,1.89,0,0,0,1.73,0l15.38-8.88Z" style="fill:#37474f"></path><path d="M397.86,238.32l-67.32,38.87c-.48.28-.87.05-.87-.5V227.1a1.89,1.89,0,0,1,.87-1.5l67.32-38.87c.48-.28.87,0,.87.5v49.59A1.89,1.89,0,0,1,397.86,238.32Z" style="fill:#455a64"></path><path d="M366.24,258.93l-1.05,3.87h0L364,267h0l-5.66-3.27a1.64,1.64,0,0,1,.61-.64l5.8-3.36Z" style="fill:#e0e0e0"></path><path d="M378.29,262.66a1.6,1.6,0,0,1-.7,1.44l-10.51,6.07a1.71,1.71,0,0,1-.88.2l-1-7.56h0l-.41-3-2.63-19.58,12-6.93a2.42,2.42,0,0,1,.34.87Z" style="fill:#37474f"></path><path d="M374.15,233.26l-12,6.93-1.59-1a1.49,1.49,0,0,1,.59-.67l10.5-6.06a1.86,1.86,0,0,1,1.69,0l.16.1A2.19,2.19,0,0,1,374.15,233.26Z" style="fill:#e0e0e0"></path><path d="M366.2,270.37a1.8,1.8,0,0,1-.81-.2l-6.41-3.7a1.92,1.92,0,0,1-.87-1.5v-.35a1.72,1.72,0,0,1,.26-.85L364,267l-.85-6.34-.13-.95L360.41,240a1.45,1.45,0,0,1,.15-.78l1.59,1,2.63,19.58.41,3h0Z" style="fill:#263238"></path><path d="M359.13,223.09c.56-.33,1,0,1,.66v6.88a2.33,2.33,0,0,1-1,1.84c-.57.33-1,0-1-.66v-6.89A2.31,2.31,0,0,1,359.13,223.09Z" style="fill:#37474f"></path><path d="M362.85,221c.56-.32,1,0,1,.67v6.88a2.34,2.34,0,0,1-1,1.84c-.56.32-1,0-1-.67V222.8A2.34,2.34,0,0,1,362.85,221Z" style="fill:#37474f"></path><path d="M366.58,218.84c.56-.32,1,0,1,.66v6.88a2.3,2.3,0,0,1-1,1.84c-.56.33-1,0-1-.66v-6.88A2.3,2.3,0,0,1,366.58,218.84Z" style="fill:#37474f"></path><path d="M370.3,216.71c.56-.32,1,0,1,.67v6.88a2.32,2.32,0,0,1-1,1.84c-.56.32-1,0-1-.66v-6.89A2.34,2.34,0,0,1,370.3,216.71Z" style="fill:#37474f"></path><path d="M264.64,216.69s22,10.27,27.06,11.75,9.08,1.86,13.6,3.22c4.94,1.49,14.84,6.19,16.25,8s-.81,4.23-4.87,4.62-11.3-1.73-12.56-1.74-.31.48,1.18,2.35,2,4.17.78,5.14c-.78.62-1.95-1.12-4.18-2.12-1.92-.87-4.16-3.18-6.27-5.72s-3.68-3.67-9.53-5.2c-6.63-1.74-23.51-5.88-23.51-5.88Z" style="fill:#ffa8a7;stroke:#ffa8a7;stroke-miterlimit:10"></path><path d="M256.56,177.71c3.52-.55,7.73.09,9.45,2.25s3.7,5.51,1.89,13.3Z" style="fill:#ffa8a7;stroke:#ffa8a7;stroke-miterlimit:10"></path><path d="M256.56,177.71a58.26,58.26,0,0,1,9.35,12.07c3.65,6.05,4.5,8.54,4.19,14-.31,5.69-2.63,10.4-3.61,14.94-1.26,5.83-1.1,15.75-.72,26.4,0,0-10.15,12.64-25.94,12.18s-21.15-9.4-21.15-9.4l9.46-17.11-4.71-18,4.77-29.59,14.23-3.57Z" style="fill:#FF6366"></path><path d="M231.56,197.59a79.45,79.45,0,0,1-2.48,22.85l5.4,16.41-6.34-6.08-4.71-18Z" style="fill:#FF6366"></path><path d="M231.56,197.59a79.45,79.45,0,0,1-2.48,22.85l5.4,16.41-6.34-6.08-4.71-18Z" style="opacity:0.2"></path><path d="M251.17,171.43l-6-.33A20.33,20.33,0,0,1,226,149.66h0a23.35,23.35,0,0,1,24.61-22h0a23.36,23.36,0,0,1,22,24.62h0A20.33,20.33,0,0,1,251.17,171.43Z" style="fill:#263238"></path><path d="M265.72,137.93c1.48,1,5.22,6.16,4.13,20-.92,11.72-4.07,14.43-6,15.16s-5.61,0-9.16-.78l-.31,5.72s3.65,4.87,1.65,7.43c-1.49,1.89-5.88,2.68-9.59,1.17a13.27,13.27,0,0,1-7-6.24l.95-17s-2.6,3.1-6.4.25-3.6-9.35-1.17-11.55,7.34-1.19,8.08,2.08a22.18,22.18,0,0,1,6.94-12.91C254,135.43,262.86,137,265.72,137.93Z" style="fill:#ffa8a7;stroke:#ffa8a7;stroke-miterlimit:10"></path><path d="M257.31,149,254,150.3a1.89,1.89,0,0,1,1-2.4A1.75,1.75,0,0,1,257.31,149Z" style="fill:#263238"></path><path d="M257.74,154.27a1.51,1.51,0,0,1-1.49,1.52,1.52,1.52,0,0,1-1.47-1.55,1.51,1.51,0,0,1,1.49-1.52A1.52,1.52,0,0,1,257.74,154.27Z" style="fill:#263238"></path><path d="M266.51,149.1l3,2.07a1.89,1.89,0,0,0-.47-2.58A1.76,1.76,0,0,0,266.51,149.1Z" style="fill:#263238"></path><path d="M257.58,164.23l3.36,1.29a1.76,1.76,0,0,1-2.29,1.1A1.88,1.88,0,0,1,257.58,164.23Z" style="fill:#f28f8f;stroke:#f28f8f;stroke-miterlimit:10"></path><path d="M268.63,153.8a1.48,1.48,0,1,1-1.47-1.54A1.5,1.5,0,0,1,268.63,153.8Z" style="fill:#263238"></path><polygon points="261.52 152.56 261.26 161.45 266.01 160.26 261.52 152.56" style="fill:#f28f8f;stroke:#f28f8f;stroke-miterlimit:10"></polygon><path d="M254.67,172.29c-3-.5-8.84-2.65-10-4.73,0,0,0,1.38,1.83,3.35s8.1,3.67,8.1,3.67Z" style="fill:#f28f8f;stroke:#f28f8f;stroke-miterlimit:10"></path><path d="M230.71,129.89c4.73,2.55,2.34,6.67-.39,11.74s-4.75,9.17-9.48,6.63-6.36-8.72-3.63-13.79S226,127.35,230.71,129.89Z" style="fill:#263238"></path><path d="M237.46,154.3l.37-6.58,3.89.22-.58,10.47h0A3.9,3.9,0,0,1,237.46,154.3Z" style="fill:#263238"></path><path d="M265.72,137.93s-1.35,19.52-28.09,13.3c0,0,.49-10.65,9.68-15.07C258.33,130.86,265.72,137.93,265.72,137.93Z" style="fill:#FF6366"></path><path d="M265.72,137.93a41.47,41.47,0,0,1-28.09,13.3s-1.82-10.43,7.58-15.92S264.32,134,265.72,137.93Z" style="fill:#263238"></path><path d="M260.12,284.89a.25.25,0,0,1-.24-.18l-.61-2.35a.25.25,0,0,1,.18-.3.24.24,0,0,1,.3.18l.62,2.34a.26.26,0,0,1-.18.31Z" style="fill:#263238"></path><path d="M255.73,278.8l3.21,4.46a.85.85,0,0,0,1.53-.47l.16-5.53Z" style="fill:#37474f"></path><path d="M251.4,246.89a1.3,1.3,0,0,0-1.29-.74c-1.63-.06-4,1.32-3.49,2.64l9.11,30a3.38,3.38,0,0,0,3.13.06,3.31,3.31,0,0,0,1.77-1.6Z" style="fill:#455a64"></path><path d="M249.13,244.49a1.09,1.09,0,1,0-2.09.62l.73,2.4h0a.56.56,0,0,0,.43.34,1.71,1.71,0,0,0,1.48-.44.53.53,0,0,0,.18-.52h0Z" style="fill:#37474f"></path><path d="M228.2,183.16c-6.09,1.32-9.35,4.83-11.09,12.43s-9.51,42.68-10.38,46.15.38,5.46,4.42,9.63c3.64,3.75,21.59,16.79,23,18.72s6.67,5.47,9.49,7S249.69,279,253,279c2.28,0,6-2.31,8.82-2.59s3.6-2.9,1.89-3.89-11.23-4.65-11.23-4.65l-.81-3s-.73-1.19-4.55-1.27-4.83,1.35-9.66-3.06c-5-4.58-17.11-19.55-17.11-19.55l9.12-30.95S235.11,190.22,228.2,183.16Z" style="fill:#ffa8a7;stroke:#ffa8a7;stroke-miterlimit:10"></path></g></svg>