<?xml version="1.0" encoding="UTF-8"?>
<svg id="BACKGROUND" xmlns="http://www.w3.org/2000/svg" xmlns:xlink="http://www.w3.org/1999/xlink" viewBox="0 0 750 500">
  <defs>
    <style>
      .cls-1, .cls-2, .cls-3, .cls-4, .cls-5, .cls-6, .cls-7 {
        fill: none;
      }

      .cls-1, .cls-2, .cls-5, .cls-6, .cls-7 {
        stroke: #2d2d2d;
      }

      .cls-1, .cls-2, .cls-6 {
        stroke-width: .24px;
      }

      .cls-1, .cls-7 {
        stroke-miterlimit: 10;
      }

      .cls-2 {
        stroke-miterlimit: 10;
      }

      .cls-3 {
        stroke: #353535;
        stroke-width: .5px;
      }

      .cls-3, .cls-5, .cls-6 {
        stroke-miterlimit: 10;
      }

      .cls-8 {
        filter: url(#drop-shadow-2);
      }

      .cls-8, .cls-4, .cls-9, .cls-10, .cls-11 {
        stroke-width: 0px;
      }

      .cls-8, .cls-10 {
        fill: #f2f2f2;
      }

      .cls-5 {
        stroke-width: .24px;
      }

      .cls-12 {
        clip-path: url(#clippath);
      }

      .cls-9 {
        fill: #353535;
      }

      .cls-10 {
        filter: url(#drop-shadow-1);
      }

      .cls-7 {
        stroke-width: .24px;
      }

      .cls-11 {
        fill: aqua;
      }
    </style>
    <clipPath id="clippath">
      <rect class="cls-4" width="750" height="500"/>
    </clipPath>
    <filter id="drop-shadow-1" filterUnits="userSpaceOnUse">
      <feOffset dx="0" dy="0"/>
      <feGaussianBlur result="blur" stdDeviation="8.51"/>
      <feFlood flood-color="#282828" flood-opacity=".2"/>
      <feComposite in2="blur" operator="in"/>
      <feComposite in="SourceGraphic"/>
    </filter>
    <filter id="drop-shadow-2" filterUnits="userSpaceOnUse">
      <feOffset dx="0" dy="0"/>
      <feGaussianBlur result="blur-2" stdDeviation="10"/>
      <feFlood flood-color="#282828" flood-opacity=".3"/>
      <feComposite in2="blur-2" operator="in"/>
      <feComposite in="SourceGraphic"/>
    </filter>
  </defs>
  <g class="cls-12">
    <path class="cls-10" d="M-71.76,471.47s51.05-140.32,108.35-71.15c57.3,69.17,83.95-60.04,116.21,20.69,29.4,73.58,88.07,21.49,62.25,135.52-25.82,114.04,3.87,88.54-168.94,93.07-172.82,4.53-118.38-41.08-118.38-41.08l.52-137.06Z"/>
    <path class="cls-11" d="M146.48,534.54s56.38-76.49,100.88-50.99c62.15,35.61,109.3-118.27,208.93-68.44,99.62,49.83,154.18-128.15,175.67-35.06,21.49,93.09,49.72-100.64,139.41-19.86l-27.93,242.97-596.97-68.61Z"/>
    <path class="cls-8" d="M846.22,365.1s-59.93,148.13-148.41,41.32c-88.48-106.8-72.19,121.76-174.4,46.5-102.21-75.27-94.28,123.94-172.84,51.5-78.56-72.44-47.72,184.76-128.25,132.22l660.46,89-36.56-360.53Z"/>
    <g>
      <path class="cls-6" d="M322.95,569.83s-57.22-133.05,63.1-125.12c120.32,7.93,38.12-187.13,191.09-96.07,152.97,91.06,73.66-81.16,184.63,9.71"/>
      <path class="cls-1" d="M324,570.84s-55.83-133.56,63.88-124.73c119.7,8.83,39.45-185.43,190.19-93.6,150.8,92.01,74.31-82.57,184.14,8.56"/>
      <path class="cls-7" d="M325.05,571.86s-54.43-134.07,64.65-124.34c119.08,9.73,40.78-183.74,189.29-91.14,148.62,92.96,74.95-83.97,183.64,7.41"/>
      <path class="cls-7" d="M326.1,572.87s-53.04-134.59,65.42-123.95c118.46,10.64,42.11-182.04,188.39-88.67,146.45,93.91,75.6-85.38,183.15,6.25"/>
      <path class="cls-6" d="M327.15,573.88s-51.64-135.1,66.2-123.56c117.84,11.54,43.44-180.34,187.5-86.21,144.27,94.86,76.24-86.78,182.66,5.1"/>
      <path class="cls-5" d="M328.2,574.9s-50.24-135.61,66.97-123.17c117.21,12.44,44.77-178.64,186.6-83.74,142.1,95.81,76.89-88.19,182.16,3.95"/>
      <path class="cls-2" d="M329.25,575.91s-48.85-136.13,67.74-122.78c116.59,13.34,46.31-177.24,185.7-81.28,140.13,96.47,77.53-89.6,181.67,2.8"/>
      <path class="cls-6" d="M330.3,576.93s-47.45-136.64,68.52-122.4c115.97,14.24,47.67-175.58,184.8-78.81,137.98,97.38,78.18-91,181.18,1.65"/>
      <path class="cls-6" d="M331.35,577.94s-46.06-137.15,69.29-122.01c115.35,15.15,49.04-173.92,183.9-76.35,135.84,98.29,78.82-92.41,180.69.5"/>
      <path class="cls-6" d="M332.4,578.96s-44.66-137.67,70.06-121.62c114.73,16.05,50.4-172.26,183-73.88,133.7,99.2,79.47-93.81,180.19-.66"/>
      <path class="cls-6" d="M333.45,579.97s-43.27-138.18,70.84-121.23c114.1,16.95,51.76-170.6,182.1-71.42,131.56,100.11,80.11-95.22,179.7-1.81"/>
      <path class="cls-6" d="M334.5,580.99s-41.87-138.69,71.61-120.84c113.48,17.85,53.13-168.93,181.21-68.95,129.42,101.03,80.76-96.63,179.21-2.96"/>
      <path class="cls-6" d="M335.55,582s-40.47-139.21,72.39-120.45c112.86,18.75,54.49-167.27,180.31-66.49,127.28,101.95,81.4-98.03,178.72-4.11"/>
      <path class="cls-6" d="M336.6,583.02s-39.08-139.72,73.16-120.06c112.24,19.66,55.85-165.59,179.41-64.02,125.14,102.87,82.05-99.44,178.22-5.26"/>
      <path class="cls-6" d="M337.64,584.03s-37.68-140.23,73.93-119.67c111.62,20.56,57.22-163.92,178.51-61.56,123,103.8,82.69-100.84,177.73-6.42"/>
      <path class="cls-6" d="M338.69,585.05s-36.29-140.75,74.71-119.29c110.99,21.46,58.58-162.24,177.61-59.09,120.85,104.73,83.33-102.25,177.24-7.57"/>
      <path class="cls-6" d="M339.74,586.06s-34.89-141.26,75.48-118.9c110.37,22.36,59.94-160.56,176.71-56.63,118.71,105.66,83.98-103.66,176.74-8.72"/>
      <path class="cls-6" d="M340.79,587.08s-33.5-141.77,76.25-118.51c109.75,23.27,61.3-158.88,175.81-54.16,116.56,106.59,84.62-105.06,176.25-9.87"/>
      <path class="cls-6" d="M341.84,588.09s-32.1-142.29,77.03-118.12c109.13,24.17,62.66-157.2,174.91-51.7,114.42,107.53,85.27-106.47,175.76-11.02"/>
      <path class="cls-6" d="M342.89,589.11s-30.7-142.8,77.8-117.73c108.51,25.07,64.01-155.51,174.02-49.23,112.27,108.47,85.91-107.87,175.27-12.18"/>
      <path class="cls-6" d="M343.94,590.12s-29.31-143.31,78.57-117.34c107.88,25.97,65.37-153.82,173.12-46.77s86.56-109.28,174.77-13.33"/>
      <path class="cls-6" d="M344.99,591.14s-27.91-143.83,79.35-116.95c107.26,26.87,66.72-152.13,172.22-44.3,107.97,110.35,87.2-110.68,174.28-14.48"/>
      <path class="cls-6" d="M346.04,592.15s-26.52-144.34,80.12-116.56c106.64,27.78,68.07-150.43,171.32-41.84,105.82,111.3,87.85-112.09,173.79-15.63"/>
      <path class="cls-6" d="M347.09,593.17s-25.12-144.85,80.9-116.17c106.02,28.68,69.42-148.74,170.42-39.37s88.49-113.5,173.29-16.78"/>
      <path class="cls-6" d="M348.14,594.18s-23.73-145.37,81.67-115.79c105.4,29.58,70.77-147.04,169.52-36.91,101.51,113.2,89.14-114.9,172.8-17.93"/>
      <path class="cls-6" d="M349.19,595.2s-22.33-145.88,82.44-115.4c104.77,30.48,72.12-145.33,168.62-34.44,99.35,114.15,89.78-116.31,172.31-19.09"/>
      <path class="cls-6" d="M350.24,596.21s-20.94-146.39,83.22-115.01c104.15,31.38,73.46-143.63,167.73-31.98,97.19,115.11,90.43-117.71,171.82-20.24"/>
      <path class="cls-6" d="M351.29,597.23s-19.54-146.91,83.99-114.62c103.53,32.29,74.8-141.92,166.83-29.51,95.02,116.07,91.07-119.12,171.32-21.39"/>
      <path class="cls-6" d="M352.33,598.24s-18.14-147.42,84.76-114.23c102.91,33.19,76.14-140.21,165.93-27.05,92.86,117.03,91.72-120.53,170.83-22.54"/>
      <path class="cls-6" d="M353.38,599.26s-16.75-147.93,85.54-113.84c102.29,34.09,77.48-138.5,165.03-24.58,90.69,118,92.36-121.93,170.34-23.69"/>
      <path class="cls-6" d="M354.43,600.27s-15.35-148.45,86.31-113.45c101.66,34.99,78.81-136.78,164.13-22.12s93.01-123.34,169.84-24.85"/>
      <path class="cls-6" d="M355.48,601.29s-13.96-148.96,87.08-113.06c101.04,35.89,80.14-135.07,163.23-19.65,86.34,119.93,93.65-124.74,169.35-26"/>
      <path class="cls-6" d="M356.53,602.3s-12.56-149.47,87.86-112.68c100.42,36.8,81.47-133.35,162.33-17.19,84.16,120.9,94.3-126.15,168.86-27.15"/>
      <path class="cls-6" d="M357.58,603.32s-11.17-149.99,88.63-112.29c99.8,37.7,82.79-131.63,161.44-14.72,81.98,121.87,94.94-127.56,168.37-28.3"/>
      <path class="cls-6" d="M358.63,604.33s-9.77-150.5,89.41-111.9c99.18,38.6,84.11-129.91,160.54-12.26,79.8,122.85,95.58-128.96,167.87-29.45"/>
      <path class="cls-6" d="M359.68,605.35s-8.37-151.01,90.18-111.51c98.55,39.5,85.43-128.19,159.64-9.8,77.61,123.82,96.23-130.37,167.38-30.61"/>
      <path class="cls-6" d="M360.73,606.36s-6.98-151.53,90.95-111.12c97.93,40.41,86.75-126.46,158.74-7.33,75.42,124.8,96.87-131.77,166.89-31.76"/>
      <path class="cls-6" d="M361.78,607.38s-5.58-152.04,91.73-110.73c97.31,41.31,88.06-124.74,157.84-4.87,73.22,125.78,97.52-133.18,166.4-32.91"/>
      <path class="cls-6" d="M362.83,608.39s-4.19-152.55,92.5-110.34c96.69,42.21,89.36-123.01,156.94-2.4,71.02,126.75,98.16-134.59,165.9-34.06"/>
      <path class="cls-6" d="M363.88,609.41s-2.79-153.07,93.27-109.95c96.07,43.11,90.67-121.28,156.04.06,68.82,127.73,98.81-135.99,165.41-35.21"/>
      <path class="cls-6" d="M364.93,610.42s-1.4-153.58,94.05-109.57c95.44,44.01,91.97-119.56,155.14,2.53,66.61,128.71,99.45-137.4,164.92-36.36"/>
      <path class="cls-6" d="M365.98,611.44s0-154.09,94.82-109.18c94.82,44.92,93.26-117.83,154.25,4.99,64.4,129.7,100.1-138.8,164.42-37.52"/>
      <path class="cls-6" d="M367.02,612.45s1.4-154.61,95.59-108.79c94.2,45.82,94.55-116.1,153.35,7.46,62.18,130.68,100.74-140.21,163.93-38.67"/>
      <path class="cls-6" d="M368.07,613.47s2.79-155.12,96.37-108.4c93.58,46.72,95.84-114.37,152.45,9.92,59.96,131.66,101.39-141.61,163.44-39.82"/>
      <path class="cls-6" d="M369.12,614.48s4.19-155.63,97.14-108.01c92.96,47.62,97.12-112.64,151.55,12.39,57.74,132.64,102.03-143.02,162.95-40.97"/>
      <path class="cls-6" d="M370.17,615.5s5.58-156.15,97.92-107.62c92.33,48.52,98.4-110.92,150.65,14.85,55.51,133.62,102.68-144.43,162.45-42.12"/>
      <path class="cls-6" d="M371.22,616.51s6.98-156.66,98.69-107.23c91.71,49.43,99.68-109.19,149.75,17.32,53.28,134.6,103.32-145.83,161.96-43.28"/>
      <path class="cls-6" d="M372.27,617.53s8.37-157.17,99.46-106.84c91.09,50.33,100.95-107.46,148.85,19.78,51.04,135.58,103.97-147.24,161.47-44.43"/>
      <path class="cls-6" d="M373.32,618.54s9.77-157.69,100.24-106.45c90.47,51.23,102.01-105.66,147.96,22.25,48.57,136.64,104.61-148.64,160.97-45.58"/>
      <path class="cls-6" d="M374.37,619.56s11.16-158.2,101.01-106.07c89.84,52.13,103.34-103.97,147.06,24.71,46.4,137.59,105.26-150.05,160.48-46.73"/>
      <path class="cls-6" d="M375.42,620.57s12.56-158.71,101.78-105.68c89.22,53.04,104.67-102.27,146.16,27.18,44.22,138.54,105.9-151.46,159.99-47.88"/>
      <path class="cls-6" d="M376.47,621.59s13.96-159.23,102.56-105.29c88.6,53.94,106.01-100.57,145.26,29.64,42.05,139.49,106.55-152.86,159.5-49.04"/>
    </g>
    <g>
      <circle class="cls-11" cx="658.36" cy="466.96" r="2"/>
      <circle class="cls-11" cx="658.36" cy="482.49" r="2"/>
      <circle class="cls-11" cx="658.36" cy="498.01" r="2"/>
    </g>
    <g>
      <circle class="cls-11" cx="38.6" cy="377.73" r="2.01"/>
      <circle class="cls-11" cx="38.6" cy="393.25" r="2"/>
      <circle class="cls-11" cx="38.6" cy="408.78" r="2"/>
      <circle class="cls-11" cx="38.6" cy="424.3" r="2.01"/>
    </g>
    <g>
      <circle class="cls-9" cx="716.08" cy="387.06" r="2"/>
      <circle class="cls-9" cx="731.61" cy="387.06" r="2"/>
      <circle class="cls-9" cx="747.13" cy="387.06" r="2"/>
    </g>
    <path class="cls-9" d="M9.3,303.05c1.11,0,2,.9,2,2s-.9,2-2,2-2.01-.9-2.01-2,.9-2,2.01-2Z"/>
    <g>
      <circle class="cls-9" cx="13.31" cy="484.49" r="2"/>
      <circle class="cls-9" cx="28.84" cy="484.49" r="2"/>
    </g>
    <g>
      <circle class="cls-9" cx="282.79" cy="468.97" r="2"/>
      <circle class="cls-9" cx="298.31" cy="468.97" r="2"/>
      <circle class="cls-9" cx="313.84" cy="468.97" r="2"/>
      <circle class="cls-9" cx="329.36" cy="468.97" r="2.01"/>
    </g>
    <g>
      <line class="cls-3" x1="136.44" y1="464.96" x2="150.28" y2="464.96"/>
      <line class="cls-3" x1="143.36" y1="471.87" x2="143.36" y2="458.04"/>
    </g>
    <g>
      <line class="cls-3" x1="635.53" y1="443.06" x2="649.36" y2="443.06"/>
      <line class="cls-3" x1="642.44" y1="449.97" x2="642.44" y2="436.14"/>
    </g>
    <g>
      <line class="cls-3" x1="690.44" y1="289.56" x2="704.28" y2="289.56"/>
      <line class="cls-3" x1="697.36" y1="296.47" x2="697.36" y2="282.64"/>
    </g>
    <polygon class="cls-9" points="27.21 265.54 22.01 274.54 32.4 274.54 27.21 265.54"/>
    <polygon class="cls-9" points="750 308.54 744.8 317.54 755.2 317.54 750 308.54"/>
    <polygon class="cls-9" points="696.44 459.54 687.44 454.35 687.44 464.74 696.44 459.54"/>
    <polygon class="cls-9" points="311.83 504.5 317.03 495.5 306.63 495.5 311.83 504.5"/>
    <polygon class="cls-9" points="81.83 498.5 72.83 493.3 72.83 503.7 81.83 498.5"/>
  </g>
</svg>