<?xml version="1.0" encoding="UTF-8"?>
<svg id="BACKGROUND" xmlns="http://www.w3.org/2000/svg" xmlns:xlink="http://www.w3.org/1999/xlink" viewBox="0 0 750 500">
  <defs>
    <style>
      .cls-1 {
        stroke: #020202;
        stroke-width: .14px;
      }

      .cls-1, .cls-2, .cls-3, .cls-4, .cls-5, .cls-6, .cls-7, .cls-8, .cls-9, .cls-10, .cls-11, .cls-12, .cls-13, .cls-14, .cls-15, .cls-16, .cls-17, .cls-18, .cls-19, .cls-20, .cls-21, .cls-22, .cls-23, .cls-24, .cls-25, .cls-26, .cls-27, .cls-28, .cls-29, .cls-30, .cls-31, .cls-32, .cls-33, .cls-34, .cls-35, .cls-36, .cls-37, .cls-38, .cls-39, .cls-40, .cls-41, .cls-42, .cls-43, .cls-44, .cls-45, .cls-46, .cls-47, .cls-48, .cls-49 {
        fill: none;
      }

      .cls-1, .cls-2, .cls-3, .cls-4, .cls-5, .cls-6, .cls-7, .cls-8, .cls-9, .cls-10, .cls-11, .cls-12, .cls-13, .cls-14, .cls-15, .cls-16, .cls-17, .cls-18, .cls-19, .cls-21, .cls-22, .cls-24, .cls-25, .cls-26, .cls-27, .cls-28, .cls-29, .cls-30, .cls-31, .cls-32, .cls-33, .cls-34, .cls-35, .cls-36, .cls-37, .cls-39, .cls-40, .cls-41, .cls-42, .cls-43, .cls-44, .cls-45, .cls-46, .cls-47, .cls-48, .cls-49 {
        stroke-miterlimit: 10;
      }

      .cls-2 {
        stroke: #151515;
        stroke-width: .15px;
      }

      .cls-3 {
        stroke: #070707;
        stroke-width: .14px;
      }

      .cls-4 {
        stroke: #262626;
        stroke-width: .16px;
      }

      .cls-5 {
        stroke: #131313;
        stroke-width: .15px;
      }

      .cls-6 {
        stroke: #040404;
        stroke-width: .14px;
      }

      .cls-7 {
        stroke-width: .15px;
      }

      .cls-7, .cls-37 {
        stroke: #161616;
      }

      .cls-8 {
        stroke: #0b0b0b;
        stroke-width: .15px;
      }

      .cls-9 {
        stroke: #1d1d1d;
        stroke-width: .16px;
      }

      .cls-10 {
        stroke: #000;
        stroke-width: .14px;
      }

      .cls-11 {
        stroke: #353535;
        stroke-width: .5px;
      }

      .cls-12 {
        stroke: #0a0a0a;
        stroke-width: .14px;
      }

      .cls-13 {
        stroke: #232323;
        stroke-width: .16px;
      }

      .cls-14 {
        stroke: #1c1c1c;
        stroke-width: .16px;
      }

      .cls-15 {
        stroke: #121212;
        stroke-width: .15px;
      }

      .cls-16 {
        stroke: #282828;
        stroke-width: .16px;
      }

      .cls-50 {
        filter: url(#drop-shadow-2);
      }

      .cls-50, .cls-20, .cls-51, .cls-52, .cls-53 {
        stroke-width: 0px;
      }

      .cls-50, .cls-52 {
        fill: #f2f2f2;
      }

      .cls-17 {
        stroke: #111;
        stroke-width: .15px;
      }

      .cls-18 {
        stroke: #242424;
        stroke-width: .16px;
      }

      .cls-19 {
        stroke: #181818;
        stroke-width: .15px;
      }

      .cls-21 {
        stroke: #080808;
        stroke-width: .14px;
      }

      .cls-22 {
        stroke: #212121;
        stroke-width: .16px;
      }

      .cls-23 {
        stroke: #252525;
        stroke-miterlimit: 10;
        stroke-width: .16px;
      }

      .cls-24 {
        stroke: #141414;
        stroke-width: .15px;
      }

      .cls-25 {
        stroke: #0e0e0e;
        stroke-width: .15px;
      }

      .cls-26 {
        stroke: #010101;
        stroke-width: .14px;
      }

      .cls-27 {
        stroke: #1e1e1e;
        stroke-width: .16px;
      }

      .cls-28 {
        stroke: #191919;
        stroke-width: .15px;
      }

      .cls-29 {
        stroke: #202020;
        stroke-width: .16px;
      }

      .cls-30 {
        stroke: #1b1b1b;
        stroke-width: .16px;
      }

      .cls-31 {
        stroke: #222;
        stroke-width: .16px;
      }

      .cls-32 {
        stroke: #2c2c2c;
        stroke-width: .17px;
      }

      .cls-33 {
        stroke: #0f0f0f;
        stroke-width: .15px;
      }

      .cls-34 {
        stroke: #2d2d2d;
        stroke-width: .17px;
      }

      .cls-35 {
        stroke: #090909;
        stroke-width: .14px;
      }

      .cls-54 {
        clip-path: url(#clippath);
      }

      .cls-36 {
        stroke: #1f1f1f;
        stroke-width: .16px;
      }

      .cls-37 {
        stroke-width: .15px;
      }

      .cls-51 {
        fill: #353535;
      }

      .cls-38 {
        stroke: #272727;
        stroke-miterlimit: 10;
        stroke-width: .16px;
      }

      .cls-39 {
        stroke: #0d0d0d;
        stroke-width: .15px;
      }

      .cls-40 {
        stroke: #171717;
        stroke-width: .15px;
      }

      .cls-52 {
        filter: url(#drop-shadow-1);
      }

      .cls-41 {
        stroke: #2b2b2b;
        stroke-width: .17px;
      }

      .cls-42 {
        stroke: #101010;
        stroke-width: .15px;
      }

      .cls-43 {
        stroke: #060606;
        stroke-width: .14px;
      }

      .cls-44 {
        stroke: #1a1a1a;
        stroke-width: .16px;
      }

      .cls-45 {
        stroke: #292929;
        stroke-width: .16px;
      }

      .cls-46 {
        stroke: #2a2a2a;
        stroke-width: .16px;
      }

      .cls-53 {
        fill: aqua;
      }

      .cls-47 {
        stroke: #030303;
        stroke-width: .14px;
      }

      .cls-48 {
        stroke: #050505;
        stroke-width: .14px;
      }

      .cls-49 {
        stroke: #0c0c0c;
        stroke-width: .15px;
      }
    </style>
    <clipPath id="clippath">
      <rect class="cls-20" width="750" height="500"/>
    </clipPath>
    <filter id="drop-shadow-1" filterUnits="userSpaceOnUse">
      <feOffset dx="0" dy="0"/>
      <feGaussianBlur result="blur" stdDeviation="11.37"/>
      <feFlood flood-color="#282828" flood-opacity=".2"/>
      <feComposite in2="blur" operator="in"/>
      <feComposite in="SourceGraphic"/>
    </filter>
    <filter id="drop-shadow-2" filterUnits="userSpaceOnUse">
      <feOffset dx="0" dy="0"/>
      <feGaussianBlur result="blur-2" stdDeviation="10"/>
      <feFlood flood-color="#282828" flood-opacity=".3"/>
      <feComposite in2="blur-2" operator="in"/>
      <feComposite in="SourceGraphic"/>
    </filter>
  </defs>
  <g class="cls-54">
    <path class="cls-52" d="M461.62-78.59s-145.49,134.91-12.9,104.59c132.59-30.32,150.19-20.32,151.63,21.58,1.57,45.35,25.45,42.45,78.37,6.38,52.91-36.07,7.28,67.57,124.65,48.22l-6.74-223.28-335.01,42.52Z"/>
    <path class="cls-53" d="M-126.66,157.62s.68-48.98,84.02-6.56C73.87,210.36,98.71,1.18,198.63,79.46c99.92,78.28,97.93-121.07,174.29-46.32,76.36,74.75,53.21-183.25,132.14-128.34L-152.45-203.85l25.79,361.46Z"/>
    <path class="cls-50" d="M460.37-68.62S332.28,102.33,311.56,5.96c-20.71-96.38-66.33,88.34-164.43,35.56C49.04-11.25-10.8,165.02-29.51,71.32c-18.71-93.69-52.7,99.11-139.94,15.7l35.16-242.02L460.37-68.62Z"/>
    <g>
      <path class="cls-34" d="M-97.58,93.09S-89.69-122.53,31.4-11.2c121.09,111.33,77.42-89.35,150.06-1.72,72.64,87.63,117.2-119.04,292.88-57.26"/>
      <path class="cls-32" d="M-97.5,94.67S-88.33-118.36,32.14-7.82c120.47,110.55,78.75-90.11,152.52-3.23,73.76,86.88,117.92-119.55,289.78-59.11"/>
      <path class="cls-41" d="M-97.41,96.25S-86.97-114.2,32.89-4.43c119.86,109.77,80.08-90.88,154.98-4.75,74.89,86.14,118.64-120.06,286.68-60.97"/>
      <path class="cls-46" d="M-97.33,97.82S-85.61-110.03,33.64-1.05c119.24,108.98,81.41-91.65,157.43-6.26,76.02,85.39,119.37-120.57,283.59-62.82"/>
      <path class="cls-45" d="M-97.25,99.4S-84.25-105.87,34.38,2.33c118.63,108.2,82.75-92.42,159.89-7.78,77.15,84.64,120.09-121.08,280.49-64.67"/>
      <path class="cls-16" d="M-97.17,100.98S-82.89-101.71,35.13,5.72C153.14,113.14,119.2-87.47,197.48-3.58c78.27,83.89,120.81-121.59,277.39-66.52"/>
      <path class="cls-38" d="M-97.09,102.55S-81.53-97.54,35.87,9.1C153.27,115.74,121.28-84.85,200.68-1.71c79.4,83.14,121.53-122.1,274.29-68.38"/>
      <path class="cls-4" d="M-97.01,104.13S-80.17-93.38,36.62,12.48,123.35-82.24,203.88.16c80.53,82.4,122.26-122.61,271.2-70.23"/>
      <path class="cls-23" d="M-96.93,105.71S-78.81-89.21,37.36,15.87,125.43-79.62,207.09,2.03c81.66,81.65,122.98-123.12,268.1-72.08"/>
      <path class="cls-18" d="M-96.85,107.28S-77.45-85.05,38.11,19.25C153.67,123.55,127.51-77,210.29,3.9c82.78,80.9,123.7-123.63,265-73.93"/>
      <path class="cls-13" d="M-96.77,108.86S-76.09-80.89,38.86,22.63,129.58-74.39,213.5,5.77c83.91,80.15,124.42-124.14,261.91-75.79"/>
      <path class="cls-31" d="M-96.69,110.43S-74.73-76.72,39.6,26.02c114.33,102.74,92.06-97.79,177.1-18.38,85.04,79.41,125.14-124.65,258.81-77.64"/>
      <path class="cls-22" d="M-96.61,112.01S-73.37-72.56,40.35,29.4c113.71,101.96,93.39-98.56,179.56-19.9,86.17,78.66,125.87-125.15,255.71-79.49"/>
      <path class="cls-29" d="M-96.53,113.59S-72.01-68.39,41.09,32.78c113.1,101.18,94.72-99.32,182.01-21.41,87.29,77.91,126.59-125.66,252.62-81.34"/>
      <path class="cls-36" d="M-96.45,115.16S-70.65-64.23,41.84,36.17c112.48,100.4,96.05-100.09,184.47-22.93,88.42,77.16,127.31-126.17,249.52-83.2"/>
      <path class="cls-27" d="M-96.37,116.74S-69.29-60.07,42.58,39.55c111.87,99.62,97.38-100.86,186.93-24.44,89.55,76.42,128.03-126.68,246.42-85.05"/>
      <path class="cls-9" d="M-96.29,118.32S-67.93-55.9,43.33,42.93c111.26,98.84,98.71-101.63,189.39-25.96,90.68,75.67,128.76-127.19,243.33-86.9"/>
      <path class="cls-14" d="M-96.21,119.89S-66.57-51.74,44.08,46.32c110.64,98.06,100.04-102.39,191.85-27.47,91.8,74.92,129.48-127.7,240.23-88.75"/>
      <path class="cls-30" d="M-96.13,121.47S-65.21-47.58,44.82,49.7c110.03,97.27,101.37-103.16,194.3-28.99,92.93,74.17,130.2-128.21,237.13-90.61"/>
      <path class="cls-44" d="M-96.05,123.05S-63.85-43.41,45.57,53.08c109.41,96.49,102.7-103.93,196.76-30.5,94.06,73.42,130.92-128.72,234.04-92.46"/>
      <path class="cls-28" d="M-95.97,124.62S-62.49-39.25,46.31,56.47c108.8,95.71,104.03-104.7,199.22-32.02,95.19,72.68,131.64-129.23,230.94-94.31"/>
      <path class="cls-19" d="M-95.89,126.2S-61.13-35.08,47.06,59.85c108.18,94.93,105.36-105.46,201.68-33.53,96.31,71.93,132.37-129.74,227.84-96.16"/>
      <path class="cls-40" d="M-95.81,127.77S-59.77-30.92,47.8,63.23c107.57,94.15,106.69-106.23,204.14-35.05,97.44,71.18,133.09-130.25,224.75-98.02"/>
      <path class="cls-7" d="M-95.73,129.35S-58.4-26.76,48.55,66.62c106.95,93.37,108.02-107,206.59-36.57,98.57,70.43,133.81-130.76,221.65-99.87"/>
      <path class="cls-37" d="M-95.65,130.93S-57.04-22.59,49.3,70c106.34,92.59,109.36-107.77,209.05-38.08,99.7,69.69,134.53-131.27,218.55-101.72"/>
      <path class="cls-2" d="M-95.57,132.5S-55.68-18.43,50.04,73.38c105.73,91.81,110.69-108.53,211.51-39.6,100.82,68.94,135.26-131.78,215.46-103.57"/>
      <path class="cls-24" d="M-95.49,134.08S-54.32-14.26,50.79,76.77c105.11,91.03,112.02-109.3,213.97-41.11,101.95,68.19,135.98-132.29,212.36-105.43"/>
      <path class="cls-5" d="M-95.41,135.66S-52.96-10.1,51.53,80.15c104.5,90.25,113.35-110.07,216.43-42.63,103.08,67.44,136.7-132.8,209.26-107.28"/>
      <path class="cls-15" d="M-95.33,137.23S-51.6-5.94,52.28,83.53c103.88,89.47,114.68-110.84,218.88-44.14,104.21,66.7,137.42-133.31,206.16-109.13"/>
      <path class="cls-17" d="M-95.25,138.81S-50.24-1.77,53.02,86.92s116.01-111.6,221.34-45.66c105.33,65.95,138.14-133.82,203.07-110.98"/>
      <path class="cls-42" d="M-95.17,140.39S-48.88,2.39,53.77,90.3c102.65,87.91,117.34-112.37,223.8-47.17,106.46,65.2,138.87-134.33,199.97-112.84"/>
      <path class="cls-33" d="M-95.09,141.96S-47.52,6.56,54.52,93.68c102.04,87.13,118.67-113.14,226.26-48.69,107.59,64.45,139.59-134.84,196.87-114.69"/>
      <path class="cls-25" d="M-95.01,143.54S-46.16,10.72,55.26,97.07s120-113.91,228.72-50.2c108.72,63.7,140.31-135.35,193.78-116.54"/>
      <path class="cls-39" d="M-94.93,145.11S-44.8,14.88,56.01,100.45c100.81,85.57,121.33-114.67,231.17-51.72,109.84,62.96,141.03-135.85,190.68-118.4"/>
      <path class="cls-49" d="M-94.85,146.69S-43.44,19.05,56.75,103.83c100.2,84.78,122.66-115.44,233.63-53.23,110.97,62.21,141.76-136.36,187.58-120.25"/>
      <path class="cls-8" d="M-94.76,148.27S-42.08,23.21,57.5,107.22c99.58,84,123.99-116.21,236.09-54.75,112.1,61.46,142.48-136.87,184.49-122.1"/>
      <path class="cls-12" d="M-94.68,149.84S-40.72,27.38,58.24,110.6c98.97,83.22,125.32-116.98,238.55-56.26,113.23,60.71,143.2-137.38,181.39-123.95"/>
      <path class="cls-35" d="M-94.6,151.42S-39.36,31.54,58.99,113.98C157.34,196.43,185.64-3.76,300,56.2c114.35,59.97,143.92-137.89,178.29-125.81"/>
      <path class="cls-21" d="M-94.52,153S-38,35.7,59.74,117.37C157.47,199.03,187.72-1.15,303.2,58.07c115.48,59.22,144.64-138.4,175.2-127.66"/>
      <path class="cls-3" d="M-94.44,154.57S-36.64,39.87,60.48,120.75C157.61,201.63,189.79,1.47,306.4,59.94c116.61,58.47,145.37-138.91,172.1-129.51"/>
      <path class="cls-43" d="M-94.36,156.15S-35.28,44.03,61.23,124.13C157.74,204.23,191.87,4.09,309.61,61.81c117.74,57.72,146.09-139.42,169-131.36"/>
      <path class="cls-48" d="M-94.28,157.73S-33.92,48.19,61.97,127.52C157.87,206.84,193.95,6.7,312.81,63.68c118.86,56.98,146.81-139.93,165.91-133.22"/>
      <path class="cls-6" d="M-94.2,159.3s61.64-106.94,156.92-28.4c95.28,78.54,133.3-121.58,253.3-65.35,119.99,56.23,147.53-140.44,162.81-135.07"/>
      <path class="cls-47" d="M-94.12,160.88S-31.2,56.52,63.46,134.28c94.67,77.76,134.63-122.35,255.75-66.87,121.12,55.48,148.26-140.95,159.71-136.92"/>
      <path class="cls-1" d="M-94.04,162.45S-29.84,60.69,64.21,137.67C158.26,214.64,200.18,14.55,322.42,69.28c122.25,54.73,148.98-141.46,156.62-138.77"/>
      <path class="cls-26" d="M-93.96,164.03s65.48-99.18,158.92-22.98c93.44,76.2,137.3-123.88,260.67-69.9,123.37,53.98,149.7-141.97,153.52-140.63"/>
      <path class="cls-10" d="M-93.88,165.61s66.76-96.59,159.58-21.18c92.82,75.42,138.63-124.65,263.13-71.41,124.5,53.24,150.42-142.48,150.42-142.48"/>
    </g>
    <g>
      <circle class="cls-53" cx="615.03" cy="7.76" r="2"/>
      <circle class="cls-53" cx="615.03" cy="23.29" r="2"/>
    </g>
    <g>
      <circle class="cls-53" cx="163.36" cy="2.23" r="2.01"/>
      <circle class="cls-53" cx="163.36" cy="17.76" r="2.01"/>
      <circle class="cls-53" cx="163.36" cy="33.28" r="2.01"/>
    </g>
    <g>
      <circle class="cls-51" cx="3.54" cy="43.05" r="2"/>
      <circle class="cls-51" cx="19.07" cy="43.05" r="2"/>
      <circle class="cls-51" cx="34.59" cy="43.05" r="2.01"/>
    </g>
    <g>
      <path class="cls-51" d="M240.31,110.05c1.11,0,2,.9,2,2.01s-.9,2.01-2,2.01-2-.9-2-2.01.9-2.01,2-2.01Z"/>
      <circle class="cls-51" cx="255.83" cy="112.06" r="2"/>
      <circle class="cls-51" cx="271.35" cy="112.06" r="2.01"/>
      <circle class="cls-51" cx="286.88" cy="112.06" r="2"/>
    </g>
    <g>
      <circle class="cls-51" cx="721.84" cy="15.54" r="2"/>
      <circle class="cls-51" cx="737.36" cy="15.54" r="2.01"/>
    </g>
    <g>
      <circle class="cls-53" cx="723.85" cy="147.83" r="2"/>
      <circle class="cls-53" cx="723.85" cy="163.36" r="2"/>
      <circle class="cls-53" cx="723.85" cy="178.88" r="2"/>
      <circle class="cls-53" cx="723.85" cy="194.41" r="2"/>
    </g>
    <g>
      <line class="cls-11" x1="481.44" y1="19.76" x2="495.28" y2="19.76"/>
      <line class="cls-11" x1="488.36" y1="26.68" x2="488.36" y2="12.85"/>
    </g>
    <g>
      <line class="cls-11" x1="136.44" y1="35.29" x2="150.28" y2="35.29"/>
      <line class="cls-11" x1="143.36" y1="42.2" x2="143.36" y2="28.37"/>
    </g>
    <g>
      <line class="cls-11" x1="27.68" y1="180.89" x2="41.51" y2="180.89"/>
      <line class="cls-11" x1="34.59" y1="187.81" x2="34.59" y2="173.97"/>
    </g>
    <polygon class="cls-51" points="-6 82.06 3 87.25 3 76.86 -6 82.06"/>
    <polygon class="cls-51" points="658.19 63.58 667.19 68.78 667.19 58.39 658.19 63.58"/>
    <polygon class="cls-51" points="222.78 2.98 231.78 8.18 231.78 -2.22 222.78 2.98"/>
  </g>
</svg>