<?xml version="1.0" encoding="UTF-8"?>
<svg id="Layer_2" data-name="Layer 2" xmlns="http://www.w3.org/2000/svg" viewBox="0 0 434 238.71">
  <defs>
    <style>
      .cls-1 {
        fill: #e3ebff;
      }

      .cls-2 {
        fill: #516092;
      }

      .cls-3 {
        fill: #fff;
      }

      .cls-4 {
        fill: #bcccfd;
      }

      .cls-5 {
        fill: #eceff1;
      }

      .cls-6 {
        fill: #d4e0ff;
        opacity: .5;
      }

      .cls-7 {
        fill: #ed7445;
      }
    </style>
  </defs>
  <g id="OBJECTS">
    <g>
      <polygon class="cls-6" points="125.5 129.93 70.9 129.93 70.9 224.66 125.5 224.66 140.43 224.66 204.62 224.66 204.62 59.47 125.5 59.47 125.5 129.93"/>
      <polygon class="cls-6" points="294.62 135.67 294.62 0 215.5 0 215.5 224.66 291.5 224.66 294.62 224.66 352.7 224.66 352.7 135.67 294.62 135.67"/>
    </g>
    <rect class="cls-2" y="221.66" width="434" height="2"/>
    <g>
      <rect class="cls-4" x="95.09" y="82.66" width="190.72" height="149.89"/>
      <rect class="cls-3" x="95.09" y="99.64" width="190.72" height="132.91"/>
      <circle class="cls-3" cx="101.92" cy="90.83" r="2.78"/>
      <path class="cls-3" d="M116.54,90.83c0,1.54-1.25,2.78-2.78,2.78s-2.78-1.25-2.78-2.78,1.25-2.78,2.78-2.78,2.78,1.25,2.78,2.78Z"/>
      <path class="cls-3" d="M128.37,90.83c0,1.54-1.25,2.78-2.78,2.78s-2.78-1.25-2.78-2.78,1.25-2.78,2.78-2.78,2.78,1.25,2.78,2.78Z"/>
      <path class="cls-3" d="M220.2,95.83h-78.5c-2.62,0-4.75-2.13-4.75-4.75h0c0-2.62,2.13-4.75,4.75-4.75h78.5c2.62,0,4.75,2.13,4.75,4.75h0c0,2.62-2.13,4.75-4.75,4.75Z"/>
      <path class="cls-3" d="M274.19,95.83h-37.16c-2.62,0-4.75-2.13-4.75-4.75h0c0-2.62,2.13-4.75,4.75-4.75h37.16c2.62,0,4.75,2.13,4.75,4.75h0c0,2.62-2.13,4.75-4.75,4.75Z"/>
      <rect class="cls-4" x="110.31" y="158.86" width="67.85" height="38.29"/>
      <rect class="cls-4" x="110.31" y="111.86" width="67.85" height="38.29"/>
      <rect class="cls-4" x="110.9" y="206.83" width="66.67" height="3"/>
      <rect class="cls-4" x="110.9" y="216.83" width="66.67" height="3"/>
      <rect class="cls-4" x="201.62" y="206.83" width="66.67" height="3"/>
      <rect class="cls-4" x="201.62" y="216.83" width="66.67" height="3"/>
    </g>
    <path class="cls-2" d="M286.81,233.56H94.09V81.66h192.72v151.89ZM96.09,231.56h188.72V83.66H96.09v147.89Z"/>
    <g>
      <path class="cls-2" d="M332.51,211h-19.57V46.33h19.57v164.67ZM314.94,209h15.57V48.33h-15.57v160.67Z"/>
      <rect class="cls-4" x="310.26" y="201.47" width="24.92" height="17.86"/>
      <path class="cls-2" d="M331.61,192h-17.33c-.4,0-.76-.24-.92-.6s-.09-.79.18-1.08l16.67-18,1.47,1.36-15.11,16.32h15.04v2Z"/>
      <path class="cls-2" d="M331.61,173.96h-17.33c-.4,0-.76-.24-.92-.6-.16-.36-.09-.79.18-1.08l16.67-18,1.47,1.36-15.11,16.32h15.04v2Z"/>
      <path class="cls-2" d="M331.61,155.93h-17.33c-.4,0-.76-.24-.92-.6-.16-.36-.09-.79.18-1.08l16.67-18,1.47,1.36-15.11,16.32h15.04v2Z"/>
      <path class="cls-2" d="M331.61,137.9h-17.33c-.4,0-.76-.24-.92-.6-.16-.36-.09-.79.18-1.08l16.67-18,1.47,1.36-15.11,16.32h15.04v2Z"/>
      <path class="cls-2" d="M331.61,119.86h-17.33c-.4,0-.76-.24-.92-.6-.16-.36-.09-.79.18-1.08l16.67-18,1.47,1.36-15.11,16.32h15.04v2Z"/>
      <path class="cls-2" d="M331.61,101.83h-17.33c-.4,0-.76-.24-.92-.6-.16-.36-.09-.79.18-1.08l16.67-18,1.47,1.36-15.11,16.32h15.04v2Z"/>
      <path class="cls-2" d="M331.61,83.79h-17.33c-.4,0-.76-.24-.92-.6-.16-.36-.09-.79.18-1.08l16.67-18,1.47,1.36-15.11,16.32h15.04v2Z"/>
      <path class="cls-2" d="M331.61,65.76h-17.33c-.4,0-.76-.24-.92-.6s-.09-.79.18-1.08l16.67-18,1.47,1.36-15.11,16.32h15.04v2Z"/>
      <rect class="cls-7" x="300.76" y="39.38" width="31.72" height="26.74"/>
      <rect class="cls-7" x="348.42" y="39.38" width="31.72" height="15.36"/>
      <path class="cls-2" d="M379.61,41.33h-156.67c-.55,0-1-.45-1-1s.45-1,1-1h156.67c.55,0,1,.45,1,1s-.45,1-1,1Z"/>
      <rect class="cls-2" x="230.23" y="45" width="1" height="65"/>
      <rect class="cls-2" x="301.76" y="216.14" width="41.92" height="7.86"/>
      <path class="cls-2" d="M316.73,41.07c-.13,0-.26-.05-.35-.15l-8.35-8.35h-76.59l-7.85,7.85c-.2.2-.51.2-.71,0-.2-.2-.2-.51,0-.71l8.15-8.15h77.41l8.65,8.65c.2.2.2.51,0,.71-.1.1-.23.15-.35.15Z"/>
      <path class="cls-2" d="M380.28,41.07c-.18,0-.35-.1-.44-.27l-8.36-15.97h-20.27l-7.86,15.46c-.13.25-.43.34-.67.22-.25-.12-.34-.43-.22-.67l8.14-16.01h21.49l8.64,16.51c.13.24.03.55-.21.67-.07.04-.15.06-.23.06Z"/>
      <path class="cls-4" d="M234.39,45c0,2.03-1.64,3.67-3.67,3.67s-3.67-1.64-3.67-3.67,1.64-3.67,3.67-3.67,3.67,1.64,3.67,3.67Z"/>
      <rect class="cls-4" x="187.93" y="112.46" width="84.09" height="43.33" transform="translate(-11.37 21.73) rotate(-5.28)"/>
      <path class="cls-2" d="M252.4,32.56c-.21,0-.41-.14-.48-.35-.08-.26.07-.54.33-.62l74.03-22.57c.11-.03.23-.03.34.02l35.09,14.81c.25.11.37.4.27.65-.11.25-.4.37-.65.27l-34.92-14.74-73.86,22.52s-.1.02-.15.02Z"/>
      <path class="cls-2" d="M314.79,41.14c-.12,0-.24-.02-.36-.07-.52-.2-.78-.77-.58-1.29l11.66-30.67c.16-.42.57-.68,1.02-.64.44.04.81.36.9.8l6.03,29.92c.11.54-.24,1.07-.78,1.18-.54.11-1.07-.24-1.18-.78l-5.34-26.52-10.43,27.44c-.15.4-.53.64-.93.64Z"/>
      <path class="cls-4" d="M328.46,9.46c0,1.11-.9,2.02-2.02,2.02s-2.02-.9-2.02-2.02.9-2.02,2.02-2.02,2.02.9,2.02,2.02Z"/>
      <path class="cls-2" d="M241.86,41.16c-.11,0-.22-.04-.31-.11l-9.82-7.94v7.42c0,.28-.22.5-.5.5s-.5-.22-.5-.5v-8.47c0-.19.11-.37.28-.45.17-.08.38-.06.53.06l10.63,8.6c.21.17.25.49.07.7-.1.12-.24.19-.39.19Z"/>
      <path class="cls-2" d="M251.36,41.16c-.11,0-.22-.04-.31-.11l-9.82-7.94v7.42c0,.28-.22.5-.5.5s-.5-.22-.5-.5v-8.47c0-.19.11-.37.28-.45.17-.08.38-.06.53.06l10.63,8.6c.21.17.25.49.07.7-.1.12-.24.19-.39.19Z"/>
      <path class="cls-2" d="M260.86,41.16c-.11,0-.22-.04-.31-.11l-9.82-7.94v7.42c0,.28-.22.5-.5.5s-.5-.22-.5-.5v-8.47c0-.19.11-.37.28-.45.17-.08.38-.06.53.06l10.63,8.6c.21.17.25.49.07.7-.1.12-.24.19-.39.19Z"/>
      <path class="cls-2" d="M270.35,41.16c-.11,0-.22-.04-.31-.11l-9.82-7.94v7.42c0,.28-.22.5-.5.5s-.5-.22-.5-.5v-8.47c0-.19.11-.37.28-.45.17-.08.38-.06.53.06l10.63,8.6c.21.17.25.49.07.7-.1.12-.24.19-.39.19Z"/>
      <path class="cls-2" d="M279.85,41.16c-.11,0-.22-.04-.31-.11l-9.82-7.94v7.42c0,.28-.22.5-.5.5s-.5-.22-.5-.5v-8.47c0-.19.11-.37.28-.45.17-.08.38-.06.53.06l10.63,8.6c.21.17.25.49.07.7-.1.12-.24.19-.39.19Z"/>
      <path class="cls-2" d="M289.34,41.16c-.11,0-.22-.04-.31-.11l-9.82-7.94v7.42c0,.28-.22.5-.5.5s-.5-.22-.5-.5v-8.47c0-.19.11-.37.28-.45.17-.08.38-.06.53.06l10.63,8.6c.21.17.25.49.07.7-.1.12-.24.19-.39.19Z"/>
      <path class="cls-2" d="M298.84,41.16c-.11,0-.22-.04-.31-.11l-9.82-7.94v7.42c0,.28-.22.5-.5.5s-.5-.22-.5-.5v-8.47c0-.19.11-.37.28-.45.17-.08.38-.06.53.06l10.63,8.6c.21.17.25.49.07.7-.1.12-.24.19-.39.19Z"/>
      <path class="cls-2" d="M308.33,41.16c-.11,0-.22-.04-.31-.11l-9.82-7.94v7.42c0,.28-.22.5-.5.5s-.5-.22-.5-.5v-8.47c0-.19.11-.37.28-.45.17-.08.38-.06.53.06l10.63,8.6c.21.17.25.49.07.7-.1.12-.24.19-.39.19Z"/>
      <path class="cls-2" d="M364.47,41.16c-.14,0-.28-.06-.38-.18l-12.75-15.05v14.6c0,.28-.22.5-.5.5s-.5-.22-.5-.5v-15.96c0-.21.13-.4.33-.47.2-.07.42-.01.55.15l13.63,16.09c.18.21.15.53-.06.7-.09.08-.21.12-.32.12Z"/>
      <path class="cls-2" d="M374.28,41.16c-.16,0-.32-.08-.42-.22l-9.72-14.7v14.3c0,.28-.22.5-.5.5s-.5-.22-.5-.5v-15.96c0-.22.14-.42.36-.48.21-.06.44.02.56.2l10.63,16.09c.15.23.09.54-.14.69-.09.06-.18.08-.28.08Z"/>
      <path class="cls-7" d="M233.87,111.33c0,1.74-1.41,3.15-3.15,3.15s-3.15-1.41-3.15-3.15,1.41-3.15,3.15-3.15,3.15,1.41,3.15,3.15Z"/>
    </g>
    <g>
      <rect class="cls-2" x="60.12" y="174.16" width="2" height="48"/>
      <rect class="cls-2" x="22.12" y="174.16" width="2" height="48"/>
      <rect class="cls-1" x="17.12" y="178.66" width="50.22" height="18.5"/>
      <polygon class="cls-7" points="67.33 197.16 67.33 179.66 58.1 197.16 67.33 197.16"/>
      <polygon class="cls-7" points="35.6 197.16 46.34 197.16 56.1 178.66 45.36 178.66 35.6 197.16"/>
      <polygon class="cls-7" points="22.86 178.66 17.12 189.55 17.12 197.16 23.84 197.16 33.6 178.66 22.86 178.66"/>
      <rect class="cls-2" x="14.62" y="208.17" width="55" height="2"/>
    </g>
    <g>
      <rect class="cls-2" x="408.11" y="174.16" width="2" height="48"/>
      <rect class="cls-2" x="370.11" y="174.16" width="2" height="48"/>
      <rect class="cls-1" x="365.11" y="178.66" width="50.22" height="18.5"/>
      <polygon class="cls-7" points="415.33 197.16 415.33 179.66 406.1 197.16 415.33 197.16"/>
      <polygon class="cls-7" points="383.6 197.16 394.34 197.16 404.1 178.66 393.36 178.66 383.6 197.16"/>
      <polygon class="cls-7" points="370.86 178.66 365.11 189.55 365.11 197.16 371.84 197.16 381.6 178.66 370.86 178.66"/>
      <rect class="cls-2" x="362.61" y="208.17" width="55" height="2"/>
    </g>
    <g>
      <g>
        <path class="cls-7" d="M91.5,235.99h-22.78c-.75,0-1.36.61-1.36,1.36s.61,1.36,1.36,1.36h22.78c.75,0,1.36-.61,1.36-1.36s-.61-1.36-1.36-1.36Z"/>
        <path class="cls-7" d="M81.96,216.63c-.11-.29-.39-.49-.7-.49h-2.61c-.32,0-.6.2-.7.5l-7.35,21.03h19.02l-7.66-21.04Z"/>
      </g>
      <polygon class="cls-5" points="76.59 220.53 75.43 223.85 84.59 223.85 83.38 220.53 76.59 220.53"/>
      <polygon class="cls-5" points="73.63 228.99 72.47 232.31 87.67 232.31 86.46 228.99 73.63 228.99"/>
    </g>
    <path class="cls-6" d="M88.09,58.94c-1.67,0-3.21.53-4.48,1.42v-2.2c0-6.35-5.15-11.5-11.5-11.5s-11.5,5.15-11.5,11.5v4.35c-1.04-.99-2.44-1.6-3.99-1.6-3.21,0-5.81,2.6-5.81,5.81h45.06c0-4.3-3.48-7.78-7.78-7.78Z"/>
    <path class="cls-6" d="M180.95,27.6c-1.21,0-2.34.39-3.26,1.04v-1.61c0-4.62-3.75-8.37-8.37-8.37s-8.37,3.75-8.37,8.37v3.16c-.76-.72-1.78-1.16-2.91-1.16-2.34,0-4.23,1.89-4.23,4.23h32.8c0-3.13-2.53-5.66-5.66-5.66Z"/>
  </g>
</svg>