<?xml version="1.0" encoding="UTF-8"?>
<svg id="BACKGROUND" xmlns="http://www.w3.org/2000/svg" xmlns:xlink="http://www.w3.org/1999/xlink" viewBox="0 0 750 500">
  <defs>
    <style>
      .cls-1 {
        stroke: #080808;
        stroke-width: .14px;
      }

      .cls-1, .cls-2, .cls-3, .cls-4, .cls-5, .cls-6, .cls-7, .cls-8, .cls-9, .cls-10, .cls-11, .cls-12, .cls-13, .cls-14, .cls-15, .cls-16, .cls-17, .cls-18, .cls-19, .cls-20, .cls-21, .cls-22, .cls-23, .cls-24, .cls-25, .cls-26, .cls-27, .cls-28, .cls-29, .cls-30, .cls-31, .cls-32, .cls-33, .cls-34, .cls-35, .cls-36, .cls-37, .cls-38, .cls-39, .cls-40, .cls-41, .cls-42, .cls-43, .cls-44, .cls-45, .cls-46, .cls-47, .cls-48, .cls-49, .cls-50 {
        fill: none;
      }

      .cls-1, .cls-2, .cls-3, .cls-4, .cls-5, .cls-6, .cls-7, .cls-8, .cls-9, .cls-10, .cls-11, .cls-12, .cls-13, .cls-14, .cls-15, .cls-16, .cls-17, .cls-19, .cls-20, .cls-21, .cls-22, .cls-23, .cls-24, .cls-25, .cls-26, .cls-27, .cls-28, .cls-29, .cls-30, .cls-31, .cls-32, .cls-33, .cls-34, .cls-35, .cls-36, .cls-37, .cls-38, .cls-39, .cls-40, .cls-41, .cls-42, .cls-43, .cls-44, .cls-45, .cls-46, .cls-47, .cls-48, .cls-49, .cls-50 {
        stroke-miterlimit: 10;
      }

      .cls-2 {
        stroke: #171717;
        stroke-width: .15px;
      }

      .cls-3 {
        stroke: #111;
        stroke-width: .15px;
      }

      .cls-4 {
        stroke: #232323;
        stroke-width: .16px;
      }

      .cls-5 {
        stroke: #000;
        stroke-width: .14px;
      }

      .cls-6 {
        stroke: #353535;
        stroke-width: .5px;
      }

      .cls-7 {
        stroke: #2a2a2a;
        stroke-width: .16px;
      }

      .cls-51 {
        filter: url(#drop-shadow-2);
      }

      .cls-51, .cls-52, .cls-18, .cls-53, .cls-54, .cls-55, .cls-56 {
        stroke-width: 0px;
      }

      .cls-51, .cls-53, .cls-55, .cls-56 {
        fill: #f2f2f2;
      }

      .cls-8 {
        stroke: #0b0b0b;
        stroke-width: .15px;
      }

      .cls-9 {
        stroke: #1e1e1e;
        stroke-width: .16px;
      }

      .cls-10 {
        stroke: #020202;
        stroke-width: .14px;
      }

      .cls-11 {
        stroke: #272727;
        stroke-width: .16px;
      }

      .cls-12 {
        stroke: #252525;
        stroke-width: .16px;
      }

      .cls-13 {
        stroke: #0e0e0e;
        stroke-width: .15px;
      }

      .cls-14 {
        stroke: #0d0d0d;
        stroke-width: .15px;
      }

      .cls-15 {
        stroke: #030303;
        stroke-width: .14px;
      }

      .cls-16 {
        stroke: #1d1d1d;
        stroke-width: .16px;
      }

      .cls-17 {
        stroke: #070707;
        stroke-width: .14px;
      }

      .cls-52 {
        fill: red;
      }

      .cls-19 {
        stroke: #191919;
        stroke-width: .15px;
      }

      .cls-20 {
        stroke: #040404;
        stroke-width: .14px;
      }

      .cls-21 {
        stroke: #262626;
        stroke-width: .16px;
      }

      .cls-22 {
        stroke: #060606;
        stroke-width: .14px;
      }

      .cls-53 {
        filter: url(#drop-shadow-3);
      }

      .cls-23 {
        stroke: #2b2b2b;
        stroke-width: .17px;
      }

      .cls-24 {
        stroke: #1b1b1b;
        stroke-width: .16px;
      }

      .cls-25 {
        stroke: #181818;
        stroke-width: .15px;
      }

      .cls-26 {
        stroke: #010101;
        stroke-width: .14px;
      }

      .cls-27 {
        stroke-width: .24px;
      }

      .cls-27, .cls-28 {
        stroke: #2d2d2d;
      }

      .cls-28 {
        stroke-width: .17px;
      }

      .cls-29 {
        stroke: #0c0c0c;
        stroke-width: .15px;
      }

      .cls-57 {
        clip-path: url(#clippath);
      }

      .cls-30 {
        stroke: #151515;
        stroke-width: .15px;
      }

      .cls-31 {
        stroke: #282828;
        stroke-width: .16px;
      }

      .cls-32 {
        stroke: #222;
        stroke-width: .16px;
      }

      .cls-33 {
        stroke: #202020;
        stroke-width: .16px;
      }

      .cls-34 {
        stroke-width: .15px;
      }

      .cls-34, .cls-36 {
        stroke: #161616;
      }

      .cls-54 {
        fill: #353535;
      }

      .cls-35 {
        stroke: #101010;
        stroke-width: .15px;
      }

      .cls-36 {
        stroke-width: .15px;
      }

      .cls-37 {
        stroke: #131313;
        stroke-width: .15px;
      }

      .cls-38 {
        stroke: #242424;
        stroke-width: .16px;
      }

      .cls-55 {
        filter: url(#drop-shadow-1);
      }

      .cls-39 {
        stroke: #090909;
        stroke-width: .14px;
      }

      .cls-40 {
        stroke: #2c2c2c;
        stroke-width: .17px;
      }

      .cls-41 {
        stroke: #121212;
        stroke-width: .15px;
      }

      .cls-42 {
        stroke: #292929;
        stroke-width: .16px;
      }

      .cls-43 {
        stroke: #1f1f1f;
        stroke-width: .16px;
      }

      .cls-44 {
        stroke: #0f0f0f;
        stroke-width: .15px;
      }

      .cls-56 {
        filter: url(#drop-shadow-4);
      }

      .cls-45 {
        stroke: #0a0a0a;
        stroke-width: .14px;
      }

      .cls-46 {
        stroke: #1c1c1c;
        stroke-width: .16px;
      }

      .cls-47 {
        stroke: #141414;
        stroke-width: .15px;
      }

      .cls-48 {
        stroke: #212121;
        stroke-width: .16px;
      }

      .cls-49 {
        stroke: #1a1a1a;
        stroke-width: .16px;
      }

      .cls-50 {
        stroke: #050505;
        stroke-width: .14px;
      }
    </style>
    <clipPath id="clippath">
      <rect class="cls-18" width="750" height="500"/>
    </clipPath>
    <filter id="drop-shadow-1" filterUnits="userSpaceOnUse">
      <feOffset dx="0" dy="0"/>
      <feGaussianBlur result="blur" stdDeviation="11.37"/>
      <feFlood flood-color="#282828" flood-opacity=".2"/>
      <feComposite in2="blur" operator="in"/>
      <feComposite in="SourceGraphic"/>
    </filter>
    <filter id="drop-shadow-2" filterUnits="userSpaceOnUse">
      <feOffset dx="0" dy="0"/>
      <feGaussianBlur result="blur-2" stdDeviation="10"/>
      <feFlood flood-color="#282828" flood-opacity=".3"/>
      <feComposite in2="blur-2" operator="in"/>
      <feComposite in="SourceGraphic"/>
    </filter>
    <filter id="drop-shadow-3" filterUnits="userSpaceOnUse">
      <feOffset dx="0" dy="0"/>
      <feGaussianBlur result="blur-3" stdDeviation="8.51"/>
      <feFlood flood-color="#282828" flood-opacity=".2"/>
      <feComposite in2="blur-3" operator="in"/>
      <feComposite in="SourceGraphic"/>
    </filter>
    <filter id="drop-shadow-4" filterUnits="userSpaceOnUse">
      <feOffset dx="0" dy="0"/>
      <feGaussianBlur result="blur-4" stdDeviation="10"/>
      <feFlood flood-color="#282828" flood-opacity=".3"/>
      <feComposite in2="blur-4" operator="in"/>
      <feComposite in="SourceGraphic"/>
    </filter>
  </defs>
  <g class="cls-57">
    <path class="cls-55" d="M461.62-78.59s-145.49,134.91-12.9,104.59c132.59-30.32,150.19-20.32,151.63,21.58,1.57,45.35,25.45,42.45,78.37,6.38,52.91-36.07,7.28,67.57,124.65,48.22l-6.74-223.28-335.01,42.52Z"/>
    <path class="cls-52" d="M-126.66,157.62s.68-48.98,84.02-6.56C73.87,210.36,98.71,1.18,198.63,79.46c99.92,78.28,97.93-121.07,174.29-46.32,76.36,74.75,53.21-183.25,132.14-128.34L-152.45-203.85l25.79,361.46Z"/>
    <path class="cls-51" d="M460.37-68.62S332.28,102.33,311.56,5.96c-20.71-96.38-66.33,88.34-164.43,35.56C49.04-11.25-10.8,165.02-29.51,71.32c-18.71-93.69-52.7,99.11-139.94,15.7l35.16-242.02L460.37-68.62Z"/>
    <g>
      <path class="cls-28" d="M-97.58,93.09S-89.69-122.53,31.4-11.2c121.09,111.33,77.42-89.35,150.06-1.72,72.64,87.63,117.2-119.04,292.88-57.26"/>
      <path class="cls-40" d="M-97.5,94.67S-88.33-118.36,32.14-7.82c120.47,110.55,78.75-90.11,152.52-3.23,73.76,86.88,117.92-119.55,289.78-59.11"/>
      <path class="cls-23" d="M-97.41,96.25S-86.97-114.2,32.89-4.43c119.86,109.76,80.08-90.88,154.98-4.75,74.89,86.14,118.64-120.06,286.68-60.97"/>
      <path class="cls-7" d="M-97.33,97.82S-85.61-110.03,33.64-1.05c119.24,108.98,81.41-91.65,157.43-6.26,76.02,85.39,119.37-120.57,283.58-62.82"/>
      <path class="cls-42" d="M-97.25,99.4S-84.25-105.87,34.38,2.33c118.63,108.2,82.75-92.42,159.89-7.78,77.15,84.64,120.09-121.08,280.49-64.67"/>
      <path class="cls-31" d="M-97.17,100.98S-82.89-101.71,35.13,5.72C153.14,113.14,119.2-87.47,197.48-3.57c78.27,83.89,120.81-121.59,277.39-66.52"/>
      <path class="cls-11" d="M-97.09,102.55S-81.53-97.54,35.87,9.1C153.27,115.74,121.28-84.85,200.68-1.71c79.4,83.14,121.53-122.1,274.29-68.38"/>
      <path class="cls-21" d="M-97.01,104.13S-80.17-93.38,36.62,12.48C153.4,118.35,123.35-82.24,203.88.16c80.53,82.4,122.26-122.61,271.2-70.23"/>
      <path class="cls-12" d="M-96.93,105.71S-78.81-89.21,37.36,15.87C153.53,120.95,125.43-79.62,207.09,2.03c81.66,81.65,122.98-123.12,268.1-72.08"/>
      <path class="cls-38" d="M-96.85,107.28S-77.45-85.05,38.11,19.25C153.67,123.55,127.51-77,210.29,3.9c82.78,80.9,123.7-123.63,265-73.93"/>
      <path class="cls-4" d="M-96.77,108.86S-76.09-80.89,38.86,22.63c114.94,103.52,90.73-97.02,174.64-16.87,83.91,80.15,124.42-124.14,261.91-75.79"/>
      <path class="cls-32" d="M-96.69,110.43S-74.73-76.72,39.6,26.02c114.33,102.74,92.06-97.79,177.1-18.38,85.04,79.41,125.14-124.65,258.81-77.64"/>
      <path class="cls-48" d="M-96.61,112.01S-73.37-72.56,40.35,29.4c113.71,101.96,93.39-98.56,179.56-19.9,86.17,78.66,125.87-125.15,255.71-79.49"/>
      <path class="cls-33" d="M-96.53,113.59S-72.01-68.39,41.09,32.78c113.1,101.18,94.72-99.32,182.01-21.41,87.29,77.91,126.59-125.66,252.62-81.34"/>
      <path class="cls-43" d="M-96.45,115.16S-70.65-64.23,41.84,36.17c112.48,100.4,96.05-100.09,184.47-22.93,88.42,77.16,127.31-126.17,249.52-83.2"/>
      <path class="cls-9" d="M-96.37,116.74S-69.29-60.07,42.58,39.55c111.87,99.62,97.38-100.86,186.93-24.44,89.55,76.42,128.03-126.68,246.42-85.05"/>
      <path class="cls-16" d="M-96.29,118.32S-67.93-55.9,43.33,42.93c111.26,98.84,98.71-101.63,189.39-25.96,90.68,75.67,128.76-127.19,243.33-86.9"/>
      <path class="cls-46" d="M-96.21,119.89S-66.57-51.74,44.08,46.32c110.64,98.06,100.04-102.39,191.85-27.47,91.8,74.92,129.48-127.7,240.23-88.75"/>
      <path class="cls-24" d="M-96.13,121.47S-65.21-47.58,44.82,49.7c110.03,97.27,101.37-103.16,194.3-28.99,92.93,74.17,130.2-128.21,237.13-90.61"/>
      <path class="cls-49" d="M-96.05,123.05S-63.85-43.41,45.57,53.08c109.41,96.49,102.7-103.93,196.76-30.5,94.06,73.42,130.92-128.72,234.04-92.46"/>
      <path class="cls-19" d="M-95.97,124.62S-62.49-39.25,46.31,56.47c108.8,95.71,104.03-104.7,199.22-32.02,95.19,72.68,131.64-129.23,230.94-94.31"/>
      <path class="cls-25" d="M-95.89,126.2S-61.13-35.08,47.06,59.85c108.18,94.93,105.36-105.46,201.68-33.53,96.31,71.93,132.37-129.74,227.84-96.16"/>
      <path class="cls-2" d="M-95.81,127.77S-59.77-30.92,47.8,63.23c107.57,94.15,106.69-106.23,204.14-35.05,97.44,71.18,133.09-130.25,224.75-98.02"/>
      <path class="cls-34" d="M-95.73,129.35S-58.41-26.76,48.55,66.62c106.95,93.37,108.02-107,206.59-36.57,98.57,70.43,133.81-130.76,221.65-99.87"/>
      <path class="cls-36" d="M-95.65,130.93S-57.04-22.59,49.3,70s109.36-107.77,209.05-38.08c99.7,69.69,134.53-131.27,218.55-101.72"/>
      <path class="cls-30" d="M-95.57,132.5S-55.68-18.43,50.04,73.38c105.73,91.81,110.69-108.53,211.51-39.6,100.82,68.94,135.26-131.78,215.46-103.57"/>
      <path class="cls-47" d="M-95.49,134.08S-54.32-14.26,50.79,76.77c105.11,91.03,112.02-109.3,213.97-41.11,101.95,68.19,135.98-132.29,212.36-105.43"/>
      <path class="cls-37" d="M-95.41,135.66S-52.96-10.1,51.53,80.15c104.5,90.25,113.35-110.07,216.43-42.63,103.08,67.44,136.7-132.8,209.26-107.28"/>
      <path class="cls-41" d="M-95.33,137.23S-51.6-5.94,52.28,83.53c103.88,89.47,114.68-110.84,218.88-44.14,104.21,66.7,137.42-133.31,206.16-109.13"/>
      <path class="cls-3" d="M-95.25,138.81S-50.24-1.77,53.02,86.92c103.27,88.69,116.01-111.6,221.34-45.66,105.33,65.95,138.14-133.82,203.07-110.98"/>
      <path class="cls-35" d="M-95.17,140.39S-48.88,2.39,53.77,90.3c102.65,87.91,117.34-112.37,223.8-47.17,106.46,65.2,138.87-134.33,199.97-112.84"/>
      <path class="cls-44" d="M-95.09,141.96S-47.52,6.56,54.52,93.68c102.04,87.13,118.67-113.14,226.26-48.69,107.59,64.45,139.59-134.84,196.87-114.69"/>
      <path class="cls-13" d="M-95.01,143.54S-46.16,10.72,55.26,97.07s120-113.91,228.72-50.2c108.72,63.7,140.31-135.35,193.78-116.54"/>
      <path class="cls-14" d="M-94.93,145.11S-44.8,14.88,56.01,100.45c100.81,85.57,121.33-114.67,231.17-51.72,109.84,62.96,141.03-135.85,190.68-118.4"/>
      <path class="cls-29" d="M-94.85,146.69S-43.44,19.05,56.75,103.83c100.2,84.78,122.66-115.44,233.63-53.23,110.97,62.21,141.76-136.36,187.58-120.25"/>
      <path class="cls-8" d="M-94.76,148.27S-42.08,23.21,57.5,107.22c99.58,84,123.99-116.21,236.09-54.75,112.1,61.46,142.48-136.87,184.49-122.1"/>
      <path class="cls-45" d="M-94.68,149.84S-40.72,27.38,58.24,110.6c98.97,83.22,125.32-116.98,238.55-56.26s143.2-137.38,181.39-123.95"/>
      <path class="cls-39" d="M-94.6,151.42S-39.36,31.54,58.99,113.98C157.34,196.43,185.64-3.76,300,56.2c114.35,59.97,143.92-137.89,178.29-125.81"/>
      <path class="cls-1" d="M-94.52,153S-38,35.7,59.74,117.37C157.47,199.03,187.72-1.15,303.2,58.07c115.48,59.22,144.64-138.4,175.2-127.66"/>
      <path class="cls-17" d="M-94.44,154.57S-36.64,39.87,60.48,120.75C157.61,201.63,189.79,1.47,306.4,59.94c116.61,58.47,145.37-138.91,172.1-129.51"/>
      <path class="cls-22" d="M-94.36,156.15S-35.28,44.03,61.23,124.13,191.87,4.09,309.61,61.81c117.74,57.72,146.09-139.42,169-131.36"/>
      <path class="cls-50" d="M-94.28,157.73S-33.92,48.2,61.97,127.52C157.87,206.84,193.95,6.7,312.81,63.68c118.86,56.98,146.81-139.93,165.91-133.22"/>
      <path class="cls-20" d="M-94.2,159.3s61.64-106.94,156.92-28.4c95.28,78.54,133.3-121.58,253.3-65.35,119.99,56.23,147.53-140.44,162.81-135.07"/>
      <path class="cls-15" d="M-94.12,160.88S-31.2,56.52,63.46,134.28c94.67,77.76,134.63-122.35,255.75-66.87,121.12,55.48,148.26-140.95,159.71-136.92"/>
      <path class="cls-10" d="M-94.04,162.45S-29.84,60.69,64.21,137.67C158.26,214.64,200.18,14.55,322.42,69.28c122.25,54.73,148.98-141.46,156.62-138.77"/>
      <path class="cls-26" d="M-93.96,164.03s65.48-99.18,158.92-22.98c93.44,76.2,137.3-123.88,260.67-69.9,123.37,53.98,149.7-141.97,153.52-140.63"/>
      <path class="cls-5" d="M-93.88,165.61s66.76-96.59,159.58-21.18c92.82,75.42,138.63-124.65,263.13-71.41,124.5,53.24,150.42-142.48,150.42-142.48"/>
    </g>
    <path class="cls-53" d="M-71.76,471.47s51.05-140.32,108.35-71.15c57.3,69.17,83.95-60.04,116.21,20.69,29.4,73.58,88.07,21.49,62.25,135.52-25.82,114.04,3.87,88.54-168.94,93.07-172.82,4.53-118.38-41.08-118.38-41.08l.52-137.06Z"/>
    <path class="cls-52" d="M146.48,534.54s56.38-76.49,100.88-50.99c62.15,35.61,109.3-118.27,208.93-68.44,99.62,49.83,154.18-128.15,175.67-35.06,21.49,93.09,49.72-100.64,139.41-19.86l-27.93,242.97-596.97-68.61Z"/>
    <path class="cls-56" d="M846.22,365.1s-59.93,148.13-148.41,41.32c-88.48-106.8-72.19,121.76-174.4,46.5-102.21-75.27-94.28,123.94-172.84,51.5-78.56-72.44-47.72,184.76-128.25,132.22l660.46,89-36.56-360.53Z"/>
    <g>
      <path class="cls-27" d="M322.95,569.83s-57.22-133.05,63.1-125.12c120.32,7.93,38.12-187.13,191.09-96.07,152.97,91.06,73.66-81.16,184.63,9.71"/>
      <path class="cls-27" d="M324,570.84s-55.83-133.56,63.88-124.73c119.7,8.83,39.45-185.43,190.19-93.6,150.8,92.01,74.31-82.57,184.14,8.56"/>
      <path class="cls-27" d="M325.05,571.86s-54.43-134.07,64.65-124.34c119.08,9.73,40.78-183.74,189.29-91.14,148.62,92.96,74.95-83.97,183.64,7.41"/>
      <path class="cls-27" d="M326.1,572.87s-53.04-134.59,65.42-123.95c118.46,10.64,42.11-182.04,188.39-88.67,146.45,93.91,75.6-85.38,183.15,6.25"/>
      <path class="cls-27" d="M327.15,573.89s-51.64-135.1,66.2-123.56c117.84,11.54,43.44-180.34,187.5-86.21,144.27,94.86,76.24-86.78,182.66,5.1"/>
      <path class="cls-27" d="M328.2,574.9s-50.24-135.61,66.97-123.17,44.77-178.64,186.6-83.74c142.1,95.81,76.89-88.19,182.16,3.95"/>
      <path class="cls-27" d="M329.25,575.91s-48.85-136.13,67.74-122.78c116.59,13.34,46.31-177.24,185.7-81.28,140.13,96.47,77.53-89.6,181.67,2.8"/>
      <path class="cls-27" d="M330.3,576.93s-47.45-136.64,68.52-122.4c115.97,14.24,47.67-175.58,184.8-78.81,137.98,97.38,78.18-91,181.18,1.65"/>
      <path class="cls-27" d="M331.35,577.94s-46.06-137.15,69.29-122.01c115.35,15.15,49.04-173.92,183.9-76.35,135.84,98.29,78.82-92.41,180.69.5"/>
      <path class="cls-27" d="M332.4,578.96s-44.66-137.67,70.06-121.62,50.4-172.26,183-73.88c133.7,99.2,79.47-93.81,180.19-.66"/>
      <path class="cls-27" d="M333.45,579.97s-43.27-138.18,70.84-121.23c114.1,16.95,51.76-170.6,182.1-71.42,131.56,100.11,80.11-95.22,179.7-1.81"/>
      <path class="cls-27" d="M334.5,580.99s-41.87-138.69,71.61-120.84c113.48,17.85,53.13-168.93,181.21-68.95,129.42,101.03,80.76-96.63,179.21-2.96"/>
      <path class="cls-27" d="M335.55,582s-40.47-139.21,72.39-120.45c112.86,18.75,54.49-167.27,180.31-66.49,127.28,101.95,81.4-98.03,178.72-4.11"/>
      <path class="cls-27" d="M336.6,583.02s-39.08-139.72,73.16-120.06c112.24,19.66,55.85-165.59,179.41-64.02,125.14,102.87,82.05-99.44,178.22-5.26"/>
      <path class="cls-27" d="M337.64,584.03s-37.68-140.23,73.93-119.67c111.62,20.56,57.22-163.92,178.51-61.56,122.99,103.8,82.69-100.84,177.73-6.42"/>
      <path class="cls-27" d="M338.69,585.05s-36.29-140.75,74.71-119.29c110.99,21.46,58.58-162.24,177.61-59.09,120.85,104.73,83.33-102.25,177.24-7.57"/>
      <path class="cls-27" d="M339.74,586.06s-34.89-141.26,75.48-118.9c110.37,22.36,59.94-160.56,176.71-56.63,118.71,105.66,83.98-103.66,176.74-8.72"/>
      <path class="cls-27" d="M340.79,587.08s-33.5-141.77,76.25-118.51c109.75,23.27,61.3-158.88,175.81-54.16,116.56,106.59,84.62-105.06,176.25-9.87"/>
      <path class="cls-27" d="M341.84,588.09s-32.1-142.29,77.03-118.12c109.13,24.17,62.66-157.2,174.91-51.7,114.42,107.53,85.27-106.47,175.76-11.02"/>
      <path class="cls-27" d="M342.89,589.11s-30.7-142.8,77.8-117.73c108.51,25.07,64.01-155.51,174.02-49.23,112.27,108.47,85.91-107.87,175.27-12.18"/>
      <path class="cls-27" d="M343.94,590.12s-29.31-143.31,78.57-117.34c107.88,25.97,65.37-153.82,173.12-46.77,110.12,109.41,86.56-109.28,174.77-13.33"/>
      <path class="cls-27" d="M344.99,591.14s-27.91-143.83,79.35-116.95c107.26,26.87,66.72-152.13,172.22-44.3,107.97,110.35,87.2-110.68,174.28-14.48"/>
      <path class="cls-27" d="M346.04,592.15s-26.52-144.34,80.12-116.56c106.64,27.78,68.07-150.43,171.32-41.84,105.82,111.3,87.85-112.09,173.79-15.63"/>
      <path class="cls-27" d="M347.09,593.17s-25.12-144.85,80.9-116.17c106.02,28.68,69.42-148.74,170.42-39.37,103.66,112.25,88.49-113.5,173.29-16.78"/>
      <path class="cls-27" d="M348.14,594.18s-23.73-145.37,81.67-115.79c105.4,29.58,70.77-147.04,169.52-36.91,101.51,113.2,89.14-114.9,172.8-17.93"/>
      <path class="cls-27" d="M349.19,595.2s-22.33-145.88,82.44-115.4c104.77,30.48,72.12-145.33,168.62-34.44,99.35,114.15,89.78-116.31,172.31-19.09"/>
      <path class="cls-27" d="M350.24,596.21s-20.94-146.39,83.22-115.01c104.15,31.38,73.46-143.63,167.73-31.98,97.19,115.11,90.43-117.71,171.82-20.24"/>
      <path class="cls-27" d="M351.29,597.23s-19.54-146.91,83.99-114.62,74.8-141.92,166.83-29.51c95.02,116.07,91.07-119.12,171.32-21.39"/>
      <path class="cls-27" d="M352.33,598.24s-18.14-147.42,84.76-114.23,76.14-140.21,165.93-27.05c92.86,117.03,91.72-120.53,170.83-22.54"/>
      <path class="cls-27" d="M353.38,599.26s-16.75-147.93,85.54-113.84c102.29,34.09,77.48-138.5,165.03-24.58,90.69,118,92.36-121.93,170.34-23.69"/>
      <path class="cls-27" d="M354.43,600.27s-15.35-148.45,86.31-113.45c101.66,34.99,78.81-136.78,164.13-22.12,88.52,118.96,93.01-123.34,169.84-24.85"/>
      <path class="cls-27" d="M355.48,601.29s-13.96-148.96,87.08-113.06c101.04,35.9,80.14-135.07,163.23-19.65,86.34,119.93,93.65-124.74,169.35-26"/>
      <path class="cls-27" d="M356.53,602.3s-12.56-149.47,87.86-112.68c100.42,36.8,81.47-133.35,162.33-17.19,84.16,120.9,94.3-126.15,168.86-27.15"/>
      <path class="cls-27" d="M357.58,603.32s-11.17-149.99,88.63-112.29,82.79-131.63,161.44-14.72c81.98,121.87,94.94-127.56,168.37-28.3"/>
      <path class="cls-27" d="M358.63,604.33s-9.77-150.5,89.41-111.9,84.11-129.91,160.54-12.26c79.8,122.85,95.58-128.96,167.87-29.45"/>
      <path class="cls-27" d="M359.68,605.35s-8.37-151.01,90.18-111.51c98.55,39.5,85.43-128.19,159.64-9.8,77.61,123.82,96.23-130.37,167.38-30.61"/>
      <path class="cls-27" d="M360.73,606.36s-6.98-151.53,90.95-111.12c97.93,40.41,86.75-126.46,158.74-7.33,75.42,124.8,96.87-131.77,166.89-31.76"/>
      <path class="cls-27" d="M361.78,607.38s-5.58-152.04,91.73-110.73c97.31,41.31,88.06-124.74,157.84-4.87,73.22,125.78,97.52-133.18,166.4-32.91"/>
      <path class="cls-27" d="M362.83,608.39s-4.19-152.55,92.5-110.34c96.69,42.21,89.36-123.01,156.94-2.4,71.02,126.75,98.16-134.58,165.9-34.06"/>
      <path class="cls-27" d="M363.88,609.41s-2.79-153.07,93.27-109.95c96.07,43.11,90.67-121.28,156.04.06,68.82,127.73,98.81-135.99,165.41-35.21"/>
      <path class="cls-27" d="M364.93,610.42s-1.4-153.58,94.05-109.57,91.97-119.56,155.14,2.53c66.61,128.71,99.45-137.4,164.92-36.36"/>
      <path class="cls-27" d="M365.98,611.44s0-154.09,94.82-109.18c94.82,44.92,93.26-117.83,154.25,4.99,64.4,129.7,100.1-138.8,164.42-37.52"/>
      <path class="cls-27" d="M367.02,612.45s1.4-154.61,95.59-108.79c94.2,45.82,94.55-116.1,153.35,7.46,62.18,130.68,100.74-140.21,163.93-38.67"/>
      <path class="cls-27" d="M368.07,613.47s2.79-155.12,96.37-108.4c93.58,46.72,95.84-114.37,152.45,9.92,59.96,131.66,101.39-141.61,163.44-39.82"/>
      <path class="cls-27" d="M369.12,614.48s4.19-155.63,97.14-108.01c92.96,47.62,97.12-112.64,151.55,12.39,57.74,132.64,102.03-143.02,162.95-40.97"/>
      <path class="cls-27" d="M370.17,615.5s5.58-156.15,97.92-107.62c92.33,48.52,98.4-110.92,150.65,14.85,55.51,133.62,102.68-144.43,162.45-42.12"/>
      <path class="cls-27" d="M371.22,616.51s6.98-156.66,98.69-107.23c91.71,49.43,99.68-109.19,149.75,17.32,53.28,134.6,103.32-145.83,161.96-43.28"/>
      <path class="cls-27" d="M372.27,617.53s8.37-157.17,99.46-106.84c91.09,50.33,100.95-107.46,148.85,19.78,51.04,135.58,103.97-147.24,161.47-44.43"/>
      <path class="cls-27" d="M373.32,618.54s9.77-157.69,100.24-106.45c90.47,51.23,102.01-105.66,147.96,22.25,48.57,136.64,104.61-148.64,160.97-45.58"/>
      <path class="cls-27" d="M374.37,619.56s11.16-158.2,101.01-106.07c89.84,52.13,103.34-103.97,147.06,24.71,46.4,137.59,105.26-150.05,160.48-46.73"/>
      <path class="cls-27" d="M375.42,620.57s12.56-158.71,101.78-105.68,104.67-102.27,146.16,27.18c44.22,138.54,105.9-151.46,159.99-47.88"/>
      <path class="cls-27" d="M376.47,621.59s13.96-159.23,102.56-105.29c88.6,53.94,106.01-100.57,145.26,29.64,42.05,139.49,106.55-152.86,159.5-49.04"/>
    </g>
    <g>
      <circle class="cls-52" cx="615.03" cy="7.76" r="2"/>
      <circle class="cls-52" cx="615.03" cy="23.29" r="2"/>
    </g>
    <g>
      <circle class="cls-52" cx="163.36" cy="2.23" r="2.01"/>
      <circle class="cls-52" cx="163.36" cy="17.76" r="2.01"/>
      <circle class="cls-52" cx="163.36" cy="33.28" r="2.01"/>
    </g>
    <g>
      <circle class="cls-52" cx="658.36" cy="466.96" r="2"/>
      <circle class="cls-52" cx="658.36" cy="482.49" r="2"/>
      <circle class="cls-52" cx="658.36" cy="498.01" r="2"/>
    </g>
    <g>
      <circle class="cls-52" cx="38.6" cy="377.73" r="2.01"/>
      <circle class="cls-52" cx="38.6" cy="393.25" r="2"/>
      <circle class="cls-52" cx="38.6" cy="408.78" r="2"/>
      <circle class="cls-52" cx="38.6" cy="424.3" r="2.01"/>
    </g>
    <g>
      <circle class="cls-54" cx="3.54" cy="43.05" r="2"/>
      <circle class="cls-54" cx="19.07" cy="43.05" r="2"/>
      <circle class="cls-54" cx="34.59" cy="43.05" r="2.01"/>
    </g>
    <g>
      <circle class="cls-54" cx="716.08" cy="387.06" r="2"/>
      <circle class="cls-54" cx="731.61" cy="387.06" r="2"/>
      <circle class="cls-54" cx="747.13" cy="387.06" r="2"/>
    </g>
    <g>
      <path class="cls-54" d="M240.31,110.05c1.11,0,2,.9,2,2.01s-.9,2.01-2,2.01-2-.9-2-2.01.9-2.01,2-2.01Z"/>
      <circle class="cls-54" cx="255.83" cy="112.06" r="2"/>
      <circle class="cls-54" cx="271.35" cy="112.06" r="2.01"/>
      <circle class="cls-54" cx="286.88" cy="112.06" r="2"/>
    </g>
    <g>
      <circle class="cls-54" cx="721.84" cy="15.54" r="2"/>
      <circle class="cls-54" cx="737.36" cy="15.54" r="2.01"/>
    </g>
    <path class="cls-54" d="M9.3,303.05c1.11,0,2,.9,2,2s-.9,2-2,2-2.01-.9-2.01-2,.9-2,2.01-2Z"/>
    <g>
      <circle class="cls-54" cx="13.31" cy="484.49" r="2"/>
      <circle class="cls-54" cx="28.84" cy="484.49" r="2"/>
    </g>
    <g>
      <circle class="cls-54" cx="282.79" cy="468.97" r="2"/>
      <circle class="cls-54" cx="298.31" cy="468.97" r="2"/>
      <circle class="cls-54" cx="313.84" cy="468.97" r="2"/>
      <circle class="cls-54" cx="329.36" cy="468.97" r="2.01"/>
    </g>
    <g>
      <circle class="cls-52" cx="723.85" cy="147.83" r="2"/>
      <circle class="cls-52" cx="723.85" cy="163.36" r="2"/>
      <circle class="cls-52" cx="723.85" cy="178.88" r="2"/>
      <circle class="cls-52" cx="723.85" cy="194.41" r="2"/>
    </g>
    <g>
      <line class="cls-6" x1="481.44" y1="19.76" x2="495.28" y2="19.76"/>
      <line class="cls-6" x1="488.36" y1="26.68" x2="488.36" y2="12.85"/>
    </g>
    <g>
      <line class="cls-6" x1="136.44" y1="464.96" x2="150.28" y2="464.96"/>
      <line class="cls-6" x1="143.36" y1="471.87" x2="143.36" y2="458.04"/>
    </g>
    <g>
      <line class="cls-6" x1="635.53" y1="443.06" x2="649.36" y2="443.06"/>
      <line class="cls-6" x1="642.44" y1="449.97" x2="642.44" y2="436.14"/>
    </g>
    <g>
      <line class="cls-6" x1="136.44" y1="35.29" x2="150.28" y2="35.29"/>
      <line class="cls-6" x1="143.36" y1="42.2" x2="143.36" y2="28.37"/>
    </g>
    <g>
      <line class="cls-6" x1="690.44" y1="289.56" x2="704.28" y2="289.56"/>
      <line class="cls-6" x1="697.36" y1="296.47" x2="697.36" y2="282.64"/>
    </g>
    <g>
      <line class="cls-6" x1="27.68" y1="180.89" x2="41.51" y2="180.89"/>
      <line class="cls-6" x1="34.59" y1="187.81" x2="34.59" y2="173.97"/>
    </g>
    <polygon class="cls-54" points="27.21 265.54 22.01 274.54 32.4 274.54 27.21 265.54"/>
    <polygon class="cls-54" points="750 308.54 744.8 317.54 755.2 317.54 750 308.54"/>
    <polygon class="cls-54" points="-6 82.06 3 87.25 3 76.86 -6 82.06"/>
    <polygon class="cls-54" points="696.44 459.54 687.44 454.35 687.44 464.74 696.44 459.54"/>
    <polygon class="cls-54" points="658.19 63.58 667.19 68.78 667.19 58.39 658.19 63.58"/>
    <polygon class="cls-54" points="222.78 2.98 231.78 8.18 231.78 -2.22 222.78 2.98"/>
    <polygon class="cls-54" points="311.83 504.5 317.03 495.5 306.63 495.5 311.83 504.5"/>
    <polygon class="cls-54" points="81.83 498.5 72.83 493.3 72.83 503.7 81.83 498.5"/>
  </g>
</svg>