<?xml version="1.0" encoding="UTF-8"?>
<svg id="Layer_2" data-name="Layer 2" xmlns="http://www.w3.org/2000/svg" xmlns:xlink="http://www.w3.org/1999/xlink" viewBox="0 0 605.21 377.48">
  <defs>
    <style>
      .cls-1, .cls-2, .cls-3, .cls-4, .cls-5, .cls-6, .cls-7, .cls-8, .cls-9, .cls-10, .cls-11, .cls-12, .cls-13, .cls-14 {
        stroke-miterlimit: 10;
      }

      .cls-1, .cls-3, .cls-4, .cls-5, .cls-8, .cls-10 {
        stroke-width: .98px;
      }

      .cls-1, .cls-3, .cls-4, .cls-5, .cls-8, .cls-10, .cls-12 {
        stroke: #a1abad;
      }

      .cls-1, .cls-15, .cls-16, .cls-6, .cls-7, .cls-12, .cls-17 {
        fill-rule: evenodd;
      }

      .cls-1, .cls-18, .cls-19, .cls-10, .cls-20 {
        fill: #fff;
      }

      .cls-21 {
        stroke-dasharray: 0 0 5.23 5.23;
      }

      .cls-21, .cls-22, .cls-2, .cls-23, .cls-24, .cls-25, .cls-26, .cls-27, .cls-28, .cls-29, .cls-30, .cls-31, .cls-32, .cls-33, .cls-9, .cls-34, .cls-11, .cls-13, .cls-35, .cls-14, .cls-36 {
        fill: none;
      }

      .cls-21, .cls-22, .cls-24, .cls-25, .cls-26, .cls-27, .cls-28, .cls-29, .cls-30, .cls-31, .cls-7, .cls-34, .cls-11, .cls-35, .cls-36 {
        stroke-linecap: round;
      }

      .cls-21, .cls-22, .cls-24, .cls-25, .cls-26, .cls-27, .cls-28, .cls-29, .cls-30, .cls-31, .cls-34, .cls-35, .cls-36 {
        stroke-linejoin: round;
      }

      .cls-21, .cls-22, .cls-27, .cls-9 {
        stroke-width: .89px;
      }

      .cls-21, .cls-22, .cls-27, .cls-14, .cls-36 {
        stroke: #3e2344;
      }

      .cls-37 {
        fill: #ffd25a;
      }

      .cls-37, .cls-38, .cls-39, .cls-40, .cls-41, .cls-15, .cls-42, .cls-16, .cls-43, .cls-44, .cls-32, .cls-45, .cls-46, .cls-47, .cls-48, .cls-49, .cls-50, .cls-18, .cls-19, .cls-51, .cls-52, .cls-53, .cls-54, .cls-17, .cls-55, .cls-56, .cls-57, .cls-58, .cls-59, .cls-60, .cls-61, .cls-62, .cls-63, .cls-20, .cls-64, .cls-65 {
        stroke-width: 0px;
      }

      .cls-22 {
        stroke-dasharray: 0 0 5.49 5.49;
      }

      .cls-38 {
        opacity: .4;
      }

      .cls-38, .cls-39, .cls-41, .cls-16, .cls-50, .cls-18, .cls-56, .cls-59, .cls-20 {
        isolation: isolate;
      }

      .cls-38, .cls-58 {
        fill: #ffbe57;
      }

      .cls-2 {
        stroke-width: .93px;
      }

      .cls-2, .cls-23, .cls-33 {
        stroke: #552f5e;
      }

      .cls-39 {
        opacity: .3;
      }

      .cls-39, .cls-15, .cls-65 {
        fill: #9d68aa;
      }

      .cls-23 {
        stroke-miterlimit: 10;
        stroke-width: .93px;
      }

      .cls-24 {
        stroke-width: .28px;
      }

      .cls-24, .cls-25, .cls-26, .cls-28, .cls-29, .cls-30, .cls-31, .cls-7, .cls-9, .cls-34, .cls-11, .cls-13, .cls-35 {
        stroke: #fff;
      }

      .cls-3 {
        fill: #c1c1c1;
      }

      .cls-40 {
        fill: #f79c41;
      }

      .cls-25 {
        stroke-width: .35px;
      }

      .cls-26 {
        stroke-width: .3px;
      }

      .cls-41, .cls-16, .cls-50, .cls-18, .cls-56, .cls-59 {
        opacity: .5;
      }

      .cls-41, .cls-60 {
        fill: #a1abad;
      }

      .cls-28 {
        stroke-width: .41px;
      }

      .cls-29 {
        stroke-width: .14px;
      }

      .cls-66 {
        clip-path: url(#clippath-2);
      }

      .cls-4 {
        fill: #cecece;
      }

      .cls-30 {
        stroke-width: .43px;
      }

      .cls-5, .cls-12 {
        fill: #ededed;
      }

      .cls-67 {
        clip-path: url(#clippath-6);
      }

      .cls-42, .cls-59 {
        fill: #3e2344;
      }

      .cls-16 {
        fill: #fff1e1;
      }

      .cls-43 {
        fill: #3c8460;
      }

      .cls-6 {
        fill: #f7b614;
        stroke: #ffd25a;
      }

      .cls-6, .cls-7 {
        stroke-width: .78px;
      }

      .cls-31 {
        stroke-width: .32px;
      }

      .cls-44 {
        fill: #fd6141;
      }

      .cls-45 {
        fill: #bc6658;
      }

      .cls-7, .cls-48 {
        fill: #ffdcae;
      }

      .cls-68 {
        clip-path: url(#clippath-7);
      }

      .cls-46 {
        fill: #c67154;
      }

      .cls-47 {
        fill: #ba2f1c;
      }

      .cls-69 {
        clip-path: url(#clippath-1);
      }

      .cls-70 {
        clip-path: url(#clippath-4);
      }

      .cls-49, .cls-17 {
        fill: #ffb072;
      }

      .cls-50 {
        fill: #fff0ca;
      }

      .cls-8 {
        fill: #ccc;
      }

      .cls-33 {
        stroke-miterlimit: 10;
        stroke-width: .93px;
      }

      .cls-51 {
        fill: #ffb888;
      }

      .cls-52 {
        fill: #2e1933;
      }

      .cls-34 {
        stroke-width: .4px;
      }

      .cls-53 {
        fill: #71bf9d;
      }

      .cls-11 {
        stroke-width: .39px;
      }

      .cls-71 {
        clip-path: url(#clippath);
      }

      .cls-12 {
        stroke-width: .66px;
      }

      .cls-54 {
        fill: #552f5e;
      }

      .cls-13 {
        stroke-width: .2px;
      }

      .cls-72 {
        clip-path: url(#clippath-3);
      }

      .cls-55 {
        fill: #ff8976;
      }

      .cls-35 {
        stroke-width: .33px;
      }

      .cls-56, .cls-64 {
        fill: #e57e55;
      }

      .cls-57 {
        fill: #3b333d;
      }

      .cls-73 {
        clip-path: url(#clippath-5);
      }

      .cls-61 {
        fill: #dd4026;
      }

      .cls-14 {
        stroke-width: .7px;
      }

      .cls-62 {
        fill: #efe9da;
      }

      .cls-63 {
        fill: #1e1c1c;
      }

      .cls-20 {
        opacity: .1;
      }

      .cls-36 {
        stroke-width: 1.78px;
      }
    </style>
    <clipPath id="clippath">
      <path class="cls-32" d="M56.94,339.24l1.38,27.87s-.68,2.46-.76,3.29c-.08.81.09,3.22.09,3.22.95.73,4.18.89,5.87.38l.34-.27s.3.18,2.56.67c2.3.5,9.29.48,10.41-.39,0,0,1.56-2.83-1.26-3.48-7.07-1.63-8.27-4.21-8.56-6.42-.36-2.78.88-23.14.88-23.14l-10.94-1.72Z"/>
    </clipPath>
    <clipPath id="clippath-1">
      <path class="cls-32" d="M56.94,339.24l1.38,27.87s-.68,2.46-.76,3.29c-.08.81.09,3.22.09,3.22.95.73,4.18.89,5.87.38l.34-.27s.3.18,2.56.67c2.3.5,9.29.48,10.41-.39,0,0,1.56-2.83-1.26-3.48-7.07-1.63-8.27-4.21-8.56-6.42-.36-2.78.88-23.14.88-23.14l-10.94-1.72Z"/>
    </clipPath>
    <clipPath id="clippath-2">
      <path class="cls-32" d="M36.6,339.57l-8.85,27.83s.28,2.43.24,3.25c-.05.81-.61,3.25-.61,3.25-1.07.8-4.35,1.19-5.96.79l-.3-.25s-.33.2-2.68.85c-2.39.66-9.41,1.12-10.4.32,0,0-.76-2.34,2.19-3.19,7.37-2.13,8.63-5.2,9.28-7.45.81-2.83,3.77-26.09,3.77-26.09l13.32.69Z"/>
    </clipPath>
    <clipPath id="clippath-3">
      <path class="cls-32" d="M36.6,339.57l-8.85,27.83s.28,2.43.24,3.25c-.05.81-.61,3.25-.61,3.25-1.07.8-4.35,1.19-5.96.79l-.3-.25s-.33.2-2.68.85c-2.39.66-9.41,1.12-10.4.32,0,0-.76-2.34,2.19-3.19,7.37-2.13,8.63-5.2,9.28-7.45.81-2.83,3.77-26.09,3.77-26.09l13.32.69Z"/>
    </clipPath>
    <clipPath id="clippath-4">
      <path class="cls-32" d="M502.64,339.24l-1.38,27.87s.68,2.46.76,3.29c.08.81-.09,3.22-.09,3.22-.95.73-4.18.89-5.87.38l-.34-.27s-.3.18-2.56.67c-2.3.5-9.29.48-10.41-.39,0,0-1.56-2.83,1.26-3.48,7.07-1.63,8.27-4.21,8.56-6.42.36-2.78-.88-23.14-.88-23.14l10.94-1.72Z"/>
    </clipPath>
    <clipPath id="clippath-5">
      <path class="cls-32" d="M502.64,339.24l-1.38,27.87s.68,2.46.76,3.29c.08.81-.09,3.22-.09,3.22-.95.73-4.18.89-5.87.38l-.34-.27s-.3.18-2.56.67c-2.3.5-9.29.48-10.41-.39,0,0-1.56-2.83,1.26-3.48,7.07-1.63,8.27-4.21,8.56-6.42.36-2.78-.88-23.14-.88-23.14l10.94-1.72Z"/>
    </clipPath>
    <clipPath id="clippath-6">
      <path class="cls-32" d="M525.14,339.03l6.68,28.38s-.28,2.43-.23,3.25c.05.81.61,3.25.61,3.25,1.07.8,4.35,1.19,5.96.79l.3-.25s.33.2,2.67.85c2.39.66,9.41,1.12,10.4.32,0,0,.76-2.34-2.19-3.19-7.37-2.13-8.63-5.2-9.28-7.45-.81-2.83-3.77-26.09-3.77-26.09l-11.15.14Z"/>
    </clipPath>
    <clipPath id="clippath-7">
      <path class="cls-32" d="M525.14,339.03l6.68,28.38s-.28,2.43-.23,3.25c.05.81.61,3.25.61,3.25,1.07.8,4.35,1.19,5.96.79l.3-.25s.33.2,2.67.85c2.39.66,9.41,1.12,10.4.32,0,0,.76-2.34-2.19-3.19-7.37-2.13-8.63-5.2-9.28-7.45-.81-2.83-3.77-26.09-3.77-26.09l-11.15.14Z"/>
    </clipPath>
  </defs>
  <g id="Layer_1-2" data-name="Layer 1">
    <g id="OBJECTS">
      <g>
        <g>
          <path class="cls-48" d="M68.92,239.97c-22.24-41.58,20.42-106.31,111.09-145.91s225.47-64.36,228.14-30.92c2.67,33.44-32.61,62.24-22.09,75.69,10.52,13.45,142.57,12.49,142.29,63.34-.39,69.56-422.06,107.66-459.43,37.79Z"/>
          <g>
            <g>
              <path class="cls-19" d="M398.55,76.69c-.03.41-.14.8-.23,1.2-.12.39-.26.77-.46,1.13-.24.42-.53.52-.65.24-.05-.12-.06-.28-.04-.46.04-.41.17-.78.26-1.17.12-.38.23-.76.43-1.12.23-.42.5-.55.64-.27.06.11.07.28.06.46Z"/>
              <path class="cls-19" d="M397.14,81.07c-.05.41-.19.79-.33,1.17-.16.37-.31.75-.53,1.09-.27.4-.57.48-.67.19-.04-.12-.04-.28,0-.46.07-.4.2-.78.34-1.15.16-.37.31-.74.52-1.09.25-.4.54-.5.65-.22.05.12.05.29.03.47Z"/>
              <path class="cls-19" d="M395.44,85.34c-.08.4-.24.77-.39,1.15-.17.37-.35.73-.6,1.06-.29.38-.59.45-.67.16-.04-.12-.03-.29.01-.46.09-.4.26-.76.4-1.13.17-.36.34-.72.58-1.06.28-.39.57-.47.67-.18.04.12.03.29,0,.47Z"/>
              <path class="cls-19" d="M391.92,92.69c-.11.4-.29.76-.47,1.12-.2.35-.39.7-.66,1.02-.31.36-.62.41-.68.12-.03-.12,0-.29.04-.46.12-.39.3-.75.48-1.11.2-.35.39-.7.65-1.01.3-.37.61-.43.68-.13.03.12.01.29-.03.47Z"/>
              <path class="cls-19" d="M389.14,97.77c-.05.25-.16.47-.27.68-.13.21-.26.41-.46.58-.38.32-.67.23-.65-.2,0-.05.01-.11.02-.16.05-.25.17-.46.28-.68.13-.2.26-.41.45-.58.37-.32.67-.24.65.19,0,.05-.01.11-.02.17Z"/>
              <path class="cls-19" d="M386.62,101.97c-.05.25-.18.46-.3.67-.14.2-.27.4-.48.56-.39.31-.68.2-.64-.23,0-.05.01-.11.03-.16.06-.25.18-.46.3-.67.14-.2.27-.4.47-.56.38-.31.67-.21.64.21,0,.05-.01.11-.02.17Z"/>
            </g>
            <g>
              <path class="cls-19" d="M369.92,56.5c3.38-.05,6.76,0,10.14.25,3.37.25,6.76.66,10.06,1.53,1.65.43,3.29.99,4.8,1.84,1.52.82,2.93,2.05,3.7,3.66.79,1.59,1.05,3.36,1.06,5.07.02,1.72-.22,3.43-.58,5.09-.09.46-.33.79-.53.73-.18-.05-.26-.44-.18-.87.32-1.63.51-3.29.46-4.93-.04-1.63-.31-3.27-1.03-4.69-.7-1.43-1.92-2.49-3.35-3.26-1.42-.79-3-1.32-4.61-1.73-3.21-.86-6.55-1.28-9.89-1.54-3.34-.27-6.7-.38-10.07-.41-.46,0-.83-.17-.82-.37.01-.2.38-.35.82-.36Z"/>
              <path class="cls-19" d="M367.57,57.16c-.34.09-.67.1-1.01.12-.34,0-.68,0-1.02-.07-.47-.11-.63-.36-.37-.57.08-.07.21-.12.35-.16.34-.1.68-.11,1.02-.13.34,0,.68,0,1.02.08.47.11.63.36.36.57-.09.07-.21.12-.35.16Z"/>
              <path class="cls-19" d="M363.72,57.27c-.33.1-.67.12-1.01.14-.34,0-.68,0-1.02-.06-.47-.1-.64-.35-.38-.56.08-.07.21-.12.34-.17.33-.1.67-.12,1.01-.14.34,0,.68,0,1.02.06.47.1.64.35.37.56-.08.07-.21.12-.35.16Z"/>
              <path class="cls-19" d="M359.87,57.44c-1.36.16-2.73.25-4.1.36-1.37.08-2.74.18-4.11.21-.47.01-.8-.14-.76-.35.04-.17.33-.32.69-.37,1.36-.2,2.73-.31,4.11-.42,1.37-.08,2.75-.16,4.12-.15.47,0,.8.18.74.38-.05.17-.34.31-.71.35Z"/>
              <path class="cls-19" d="M348.19,58.32c-.2.11-.4.13-.6.16-.2,0-.41.02-.62-.04-.48-.15-.53-.46-.1-.71h.02c.2-.12.4-.14.6-.18.2,0,.41-.02.62.04.48.15.53.46.1.71l-.03.02Z"/>
              <path class="cls-19" d="M344.1,58.78c-.19.11-.39.14-.6.17-.2.01-.41.03-.62-.03-.48-.14-.54-.45-.11-.71h.02c.19-.12.4-.15.6-.19.2-.01.41-.03.62.03.49.14.53.46.11.71h-.03Z"/>
            </g>
          </g>
          <path class="cls-38" d="M459.3,205.71c-26.08-43.77-197.18-12.38-206.74-13.97-31.73-5.27,76-43.56,54.95-81.02-21.06-37.46-178.77,40.18-244.26,101.78-.63,9.83,1.21,19.11,5.68,27.46,25.42,47.52,228.66,45.09,356.16,16.78,28.16-12.82,42.6-38,34.22-51.04Z"/>
          <g>
            <g>
              <path class="cls-19" d="M142.86,261.36c.38-.02.76.03,1.13.08.37.07.74.14,1.1.28.42.17.56.44.32.6-.1.07-.25.11-.42.12-.39.02-.76-.03-1.13-.08-.37-.07-.74-.14-1.1-.28-.42-.17-.56-.44-.31-.6.1-.07.25-.11.43-.12Z"/>
              <path class="cls-19" d="M147.1,262.05c.38-.02.76,0,1.13.05.37.06.74.11,1.11.24.42.15.57.42.32.59-.1.07-.25.11-.42.13-.39.04-.76,0-1.14-.04-.37-.06-.75-.1-1.11-.25-.42-.17-.56-.44-.32-.6.1-.07.25-.11.42-.12Z"/>
              <path class="cls-19" d="M151.36,262.59c.38-.04.76,0,1.13.04.37.06.75.11,1.11.24.42.15.57.42.33.59-.1.07-.25.11-.42.13-.38.04-.76,0-1.14-.04-.37-.06-.75-.11-1.11-.24-.42-.15-.57-.42-.33-.59.1-.07.25-.11.43-.13Z"/>
              <path class="cls-19" d="M158.93,263.52c.38-.05.76-.02,1.14,0,.37.05.75.08,1.12.2.43.14.58.4.35.58-.1.07-.25.12-.42.15-.38.05-.76.02-1.14,0-.38-.05-.75-.08-1.12-.2-.43-.14-.58-.4-.34-.58.1-.07.25-.12.42-.15Z"/>
              <path class="cls-19" d="M164.34,264c.23-.06.46-.05.69-.04.23.03.45.06.67.16.42.2.46.5.09.67-.04.02-.1.04-.15.05-.23.07-.46.05-.69.04-.23-.03-.45-.06-.67-.16-.42-.2-.46-.5-.09-.67.04-.02.1-.04.15-.05Z"/>
              <path class="cls-19" d="M168.91,264.43c.23-.06.46-.05.69-.04.23.03.45.06.67.16.42.2.47.5.09.67-.04.02-.1.04-.15.05-.23.07-.46.05-.69.04-.23-.03-.45-.06-.67-.16-.42-.2-.47-.5-.1-.67.05-.02.1-.04.15-.05Z"/>
            </g>
            <g>
              <path class="cls-19" d="M103.51,251.61l2.23.81,2.26.73,4.52,1.44,4.57,1.28c1.52.43,3.04.86,4.59,1.2,3.08.73,6.14,1.56,9.25,2.13,3.1.62,6.19,1.34,9.32,1.83.43.08.75.3.7.49-.04.19-.41.29-.82.23-3.15-.42-6.26-1.08-9.38-1.68-3.13-.56-6.21-1.38-9.3-2.09-1.55-.35-3.08-.79-4.61-1.23l-4.59-1.31-4.53-1.51c-.75-.26-1.51-.5-2.26-.77l-2.23-.86c-.41-.16-.68-.44-.6-.62.08-.18.46-.2.85-.06Z"/>
              <path class="cls-19" d="M101.21,251.43c-.33-.03-.63-.14-.93-.24-.3-.12-.59-.26-.85-.46-.36-.28-.4-.58-.09-.66.1-.03.23-.03.36-.01.32.04.62.17.92.26.29.12.59.24.85.43.37.26.41.55.1.65-.1.03-.23.04-.36.02Z"/>
              <path class="cls-19" d="M97.84,250.07c-.33-.05-.62-.17-.92-.28-.29-.14-.58-.26-.84-.47-.36-.28-.39-.57-.07-.65.1-.03.23-.03.36-.01.33.05.62.16.92.28.29.14.58.26.84.46.36.28.4.57.08.66-.1.03-.23.03-.36.01Z"/>
              <path class="cls-19" d="M94.5,248.62c-1.21-.48-2.38-1.03-3.56-1.57-1.14-.62-2.29-1.23-3.39-1.91-.37-.25-.54-.56-.38-.71.13-.12.43-.08.74.07,1.18.53,2.32,1.12,3.46,1.71,1.16.56,2.32,1.12,3.44,1.74.38.21.58.51.44.67-.11.13-.42.12-.74,0Z"/>
              <path class="cls-19" d="M84.7,243.47c-.21-.03-.37-.13-.54-.23-.16-.11-.32-.23-.43-.4-.26-.4-.09-.67.37-.61h.02c.21.04.37.13.54.23.15.11.31.22.43.4.27.4.11.67-.35.62h-.03Z"/>
              <path class="cls-19" d="M81.45,241.31c-.21-.04-.36-.17-.53-.27-.15-.13-.3-.25-.4-.44-.23-.45,0-.67.44-.57h.02c.2.06.35.17.51.27.14.12.28.25.39.43.24.41.07.68-.4.59h-.03Z"/>
            </g>
          </g>
          <path class="cls-9" d="M229.2,272.6c-86.27,0-144.72-12.98-156.35-34.73-6.43-12.03-6.97-26.64-1.55-42.26,12.59-36.31,53.9-72.74,110.5-97.46,60.29-26.34,140.89-46.2,187.47-46.2,21.3,0,33.86,4.21,34.44,11.55,1.28,16.06-7,31.12-14.32,44.41-7.35,13.36-13.7,24.9-6.84,33.67,4.26,5.45,16.78,7.87,42.42,12.4,39.46,6.97,99.09,17.51,98.92,48.17-.1,17.24-36.12,35.73-96.35,49.48-57.54,13.13-131.69,20.97-198.34,20.97Z"/>
        </g>
        <g>
          <g>
            <path class="cls-12" d="M213.84,247c-.11,5.27-4.48,9.46-9.75,9.35-5.27-.11-9.46-4.48-9.35-9.75.11-5.27,4.48-9.46,9.75-9.35s9.46,4.48,9.35,9.75ZM226.63,249.65c.2-1.58.23-3.17.1-4.75l-6.89-.59c-.18-1.1-.47-2.17-.87-3.21l5.65-3.98c-.68-1.43-1.52-2.79-2.48-4.05l-6.11,3.23c-.74-.83-1.57-1.58-2.46-2.23l2.6-6.41c-1.35-.84-2.78-1.53-4.28-2.07l-3.4,6.02c-1.07-.3-2.17-.48-3.28-.54l-1.28-6.8c-1.59.02-3.17.22-4.72.58l.4,6.9c-1.06.33-2.08.77-3.05,1.32l-4.75-5.03c-1.32.88-2.55,1.9-3.66,3.04l4.07,5.59c-.71.85-1.34,1.77-1.86,2.76l-6.71-1.66c-.64,1.45-1.12,2.97-1.43,4.53l6.45,2.51c-.14,1.1-.16,2.21-.07,3.32l-6.55,2.23c.25,1.57.67,3.11,1.24,4.59l6.78-1.38c.48,1,1.06,1.95,1.74,2.83l-4.3,5.42c1.06,1.18,2.24,2.25,3.52,3.19l4.96-4.82c.94.59,1.95,1.07,2.99,1.44l-.69,6.88c1.53.42,3.1.68,4.69.78l1.56-6.74c1.11-.02,2.22-.15,3.3-.4l3.14,6.16c1.52-.47,2.98-1.1,4.36-1.88l-2.33-6.51c.92-.61,1.78-1.33,2.56-2.12l5.97,3.49c1.02-1.22,1.91-2.54,2.65-3.94l-5.48-4.22c.45-1.02.78-2.08,1-3.17l6.91-.3Z"/>
            <path class="cls-12" d="M198.77,288.07c-.83,4.62-5.26,7.69-9.88,6.86-4.62-.83-7.69-5.26-6.86-9.88.83-4.62,5.26-7.69,9.88-6.86,4.62.83,7.69,5.26,6.86,9.88ZM209.96,290.99c.13-.58.24-1.16.32-1.75l-5.85-2.32c.02-.84-.03-1.67-.16-2.5l5.51-3.03c-.15-.57-.33-1.14-.53-1.69l-6.26.67c-.37-.75-.8-1.47-1.3-2.14l3.47-5.25c-.4-.43-.82-.85-1.26-1.25l-5.23,3.5c-.68-.49-1.39-.92-2.15-1.29l.64-6.26c-.56-.2-1.12-.37-1.7-.52l-3,5.53c-.83-.12-1.66-.17-2.5-.14l-2.35-5.84c-.59.08-1.17.19-1.74.33l-.09,6.29c-.79.28-1.55.62-2.28,1.03l-4.79-4.08c-.48.35-.95.71-1.39,1.1l2.85,5.61c-.57.61-1.09,1.27-1.54,1.98l-6.14-1.39c-.27.53-.51,1.07-.72,1.62l5.13,3.65c-.22.81-.37,1.63-.45,2.46l-6.08,1.63c.01.59.05,1.18.11,1.77l6.24.85c.18.82.43,1.62.75,2.39l-4.63,4.27c.29.52.59,1.02.92,1.52l5.92-2.15c.54.64,1.13,1.23,1.77,1.77l-2.12,5.93c.49.33,1,.63,1.52.91l4.24-4.65c.77.32,1.58.56,2.39.74l.88,6.23c.59.06,1.18.09,1.77.1l1.59-6.09c.83-.08,1.66-.23,2.46-.46l3.68,5.11c.55-.22,1.09-.46,1.62-.73l-1.42-6.13c.7-.46,1.36-.98,1.97-1.55l5.63,2.82c.38-.45.75-.92,1.09-1.4l-4.11-4.77c.41-.73.75-1.49,1.02-2.29l6.29-.12Z"/>
            <path class="cls-12" d="M190.28,289.72c-1.67-.04-3-1.42-2.96-3.09.04-1.67,1.42-3,3.09-2.96,1.67.04,3,1.42,2.96,3.09-.04,1.67-1.42,3-3.09,2.96Z"/>
          </g>
          <g>
            <path class="cls-12" d="M371.06,290.04c-3.09-4.27-2.13-10.25,2.14-13.34,4.27-3.09,10.25-2.13,13.34,2.14,3.09,4.27,2.13,10.25-2.14,13.34-4.27,3.09-10.25,2.13-13.34-2.14ZM359.26,295.64c.79,1.38,1.72,2.67,2.78,3.85l5.85-3.68c.8.77,1.68,1.45,2.63,2.04l-2.11,6.59c1.41.73,2.89,1.31,4.42,1.73l2.93-6.26c1.09.21,2.2.31,3.31.29l1.79,6.68c1.58-.15,3.14-.46,4.66-.93l-.92-6.85c1.03-.41,2.02-.93,2.94-1.54l5.12,4.65c1.25-.98,2.4-2.08,3.42-3.3l-4.48-5.27c.65-.9,1.2-1.87,1.64-2.89l6.82,1.15c.52-1.5.89-3.05,1.09-4.63l-6.62-2.01c.06-1.11,0-2.22-.18-3.32l6.36-2.72c-.37-1.55-.9-3.05-1.59-4.48l-6.65,1.89c-.55-.96-1.2-1.87-1.95-2.69l3.88-5.73c-1.15-1.1-2.4-2.08-3.76-2.91l-4.58,5.18c-.99-.51-2.02-.92-3.09-1.21l.17-6.91c-1.56-.31-3.14-.45-4.73-.42l-1.05,6.84c-1.11.1-2.2.32-3.26.65l-3.6-5.9c-1.48.59-2.89,1.33-4.21,2.21l2.82,6.32c-.88.68-1.68,1.46-2.39,2.31l-6.22-3.02c-.93,1.29-1.71,2.68-2.35,4.13l5.78,3.79c-.37,1.05-.62,2.13-.76,3.23l-6.87.82c-.08,1.59,0,3.18.26,4.74l6.92.06c.26,1.08.63,2.13,1.11,3.13l-5.33,4.4Z"/>
            <path class="cls-12" d="M358.31,248.19c-2.12-4.19-.44-9.3,3.74-11.42,4.19-2.12,9.3-.44,11.42,3.74,2.12,4.19.44,9.3-3.74,11.42-4.19,2.12-9.3.44-11.42-3.74ZM347.63,252.61c.24.54.51,1.07.8,1.58l6.07-1.68c.49.68,1.03,1.32,1.63,1.9l-2.57,5.75c.47.36.95.71,1.45,1.03l4.59-4.31c.75.38,1.53.68,2.33.92l.39,6.28c.58.11,1.17.19,1.76.24l2.06-5.95c.84-.01,1.67-.1,2.49-.27l3.27,5.38c.57-.18,1.12-.38,1.67-.61l-.94-6.22c.73-.4,1.43-.87,2.08-1.39l5.39,3.24c.42-.42.82-.86,1.2-1.31l-3.72-5.07c.46-.7.86-1.43,1.2-2.2l6.28.36c.17-.57.33-1.14.45-1.72l-5.65-2.76c.09-.83.1-1.67.04-2.5l5.73-2.6c-.11-.58-.24-1.16-.4-1.73l-6.29.18c-.31-.78-.69-1.52-1.13-2.23l3.87-4.96c-.37-.46-.75-.91-1.16-1.35l-5.49,3.08c-.64-.54-1.32-1.03-2.04-1.45l1.12-6.19c-.54-.24-1.09-.46-1.65-.65l-3.42,5.28c-.82-.19-1.65-.3-2.48-.34l-1.89-6.01c-.59.04-1.18.1-1.76.19l-.58,6.27c-.81.21-1.6.5-2.35.85l-4.46-4.44c-.51.31-1,.64-1.47.99l2.4,5.82c-.62.57-1.18,1.18-1.69,1.85l-6.01-1.86c-.3.51-.59,1.03-.85,1.56l4.83,4.04c-.28.79-.5,1.6-.64,2.42l-6.19,1.15c-.04.59-.04,1.18-.03,1.77l6.15,1.33c.11.83.3,1.64.56,2.44l-4.95,3.89Z"/>
            <path class="cls-12" d="M364.09,241.76c1.36-.98,3.25-.68,4.23.68s.68,3.25-.68,4.23-3.25.68-4.23-.68c-.98-1.36-.68-3.25.68-4.23Z"/>
          </g>
          <g>
            <path class="cls-53" d="M196.01,307.12c-11.92,0-8.13,21.13-8.13,21.13,0,0-12.99-24.62-31.43-18.42-11.9,4-15.71,15.17-15.71,15.17,0,0-13.55-6.5-24.38-1.08s-4.88,27.63-4.88,27.63c0,0-12.46-10.3-20.59-5.96-8.13,4.33-3.25,12.46-3.25,12.46,0,0-18.96,1.62-22.76,8.13h154.96s-11.92-59.06-23.84-59.06Z"/>
            <path class="cls-53" d="M479.13,358.05s4.88-8.13-3.25-12.46c-8.13-4.33-20.59,5.96-20.59,5.96,0,0,5.96-22.21-4.88-27.63s-24.38,1.08-24.38,1.08c0,0-3.81-11.17-15.71-15.17-18.44-6.2-31.42,18.42-31.42,18.42,0,0,3.79-21.13-8.13-21.13s-23.84,59.06-23.84,59.06h154.96c-3.79-6.5-22.76-8.13-22.76-8.13Z"/>
            <g>
              <g>
                <g>
                  <path class="cls-19" d="M462.62,351.49c-.18,0-.32.06-.46.12-.13.08-.26.16-.35.32-.11.18-.04.44.14.58.07.06.16.09.24.09.18,0,.31-.06.45-.12.13-.08.26-.16.35-.31.11-.18.05-.44-.13-.58-.07-.06-.16-.09-.24-.09Z"/>
                  <path class="cls-19" d="M461.08,352.35c-.18,0-.32.07-.45.14-.13.09-.26.17-.35.33-.1.18-.03.44.15.58.08.06.16.08.24.08.18,0,.31-.07.45-.14.12-.09.25-.17.34-.32.1-.18.04-.44-.14-.58-.08-.06-.16-.09-.24-.09Z"/>
                  <path class="cls-19" d="M459.56,353.23c-.18,0-.31.08-.45.15-.12.09-.25.18-.34.33-.1.18-.03.44.16.57.08.05.16.08.24.08.18,0,.31-.08.45-.15.12-.09.25-.17.34-.33.1-.18.03-.44-.15-.58-.08-.06-.16-.08-.24-.08Z"/>
                  <path class="cls-19" d="M456.92,354.89c-.18,0-.31.09-.45.16-.12.1-.25.18-.33.34-.09.19,0,.44.18.57.08.05.16.08.24.07.18-.01.31-.09.44-.16.12-.09.24-.18.32-.34.09-.18.02-.44-.17-.57-.08-.05-.16-.08-.24-.07Z"/>
                  <path class="cls-19" d="M455.08,356.11c-.13-.02-.21.03-.29.07-.07.06-.14.12-.17.25-.05.24.11.52.35.61.03.01.06.02.09.02.13.02.21-.02.29-.07.07-.06.14-.12.17-.25.05-.24-.1-.52-.34-.61-.03-.01-.06-.02-.09-.02Z"/>
                  <path class="cls-19" d="M453.55,357.2c-.13-.02-.21.03-.29.07-.07.07-.14.12-.16.25-.04.25.12.51.36.6.03.01.06.02.09.02.13.02.21-.03.29-.07.07-.06.14-.12.16-.25.04-.24-.11-.51-.36-.6-.03-.01-.06-.02-.09-.02Z"/>
                </g>
                <g>
                  <path class="cls-19" d="M477.22,351.98c-.25-1.34-1.05-2.63-2.28-3.36-.63-.39-1.35-.53-2.04-.56-.69-.05-1.36.04-2.02.14-1.31.26-2.56.68-3.77,1.17-1.21.5-2.37,1.08-3.51,1.7-.16.09-.2.31-.1.49.1.18.3.26.45.19,1.16-.55,2.32-1.06,3.5-1.52,1.18-.46,2.38-.85,3.6-1.07.6-.1,1.21-.19,1.8-.15.59.02,1.16.13,1.61.41.99.56,1.71,1.56,2,2.72.03.16.23.26.44.22.2-.04.33-.21.31-.39Z"/>
                  <path class="cls-19" d="M476.69,352.98c-.07.13-.08.25-.08.38.02.12.03.24.12.37.12.17.39.24.61.14.07-.03.12-.08.16-.14.1-.14.09-.27.1-.41-.02-.14-.03-.27-.14-.4-.14-.18-.42-.2-.62-.07-.06.04-.11.09-.14.14Z"/>
                  <path class="cls-19" d="M476.7,354.4c-.1.12-.11.24-.14.36,0,.12-.01.25.06.39.1.19.36.29.58.22.07-.02.13-.06.18-.11.11-.12.13-.26.16-.39,0-.14,0-.27-.07-.41-.11-.19-.38-.26-.6-.17-.07.03-.13.07-.17.12Z"/>
                  <path class="cls-19" d="M476.51,355.82c-.18.49-.31.98-.46,1.47-.13.5-.29.98-.38,1.5-.03.17.11.36.31.41.17.04.33-.02.41-.15.27-.47.44-.98.61-1.49.13-.52.26-1.05.27-1.6,0-.19-.17-.35-.38-.35-.18,0-.32.08-.37.21Z"/>
                  <path class="cls-19" d="M475.18,360.01c-.11.04-.15.1-.19.17-.02.08-.04.15,0,.26.11.24.42.39.68.32h.01c.11-.04.15-.11.2-.18.02-.08.05-.15,0-.26-.12-.25-.43-.38-.69-.31h-.01Z"/>
                  <path class="cls-19" d="M474.51,361.41c-.11.03-.15.09-.2.15-.02.07-.05.14-.01.25.1.25.39.42.66.37h.01c.12-.03.16-.1.21-.16.03-.08.06-.15.01-.26-.1-.26-.4-.41-.67-.35h-.02Z"/>
                </g>
              </g>
              <g>
                <g>
                  <path class="cls-19" d="M435.65,326.36c-.26-.02-.51.03-.75.08-.24.07-.47.15-.69.31-.25.18-.29.46-.09.62.08.07.19.1.3.11.26.02.49-.05.73-.1.23-.07.47-.14.68-.29.25-.17.3-.45.12-.62-.08-.07-.19-.11-.3-.12Z"/>
                  <path class="cls-19" d="M432.92,327.15c-.26,0-.5.06-.74.13-.23.1-.46.18-.67.35-.24.2-.26.48-.05.63.09.06.2.09.31.1.26,0,.49-.07.73-.14.23-.09.46-.17.66-.33.24-.19.27-.47.08-.63-.08-.07-.19-.1-.31-.1Z"/>
                  <path class="cls-19" d="M430.25,328.1c-.26,0-.5.08-.73.17-.23.11-.45.2-.65.38-.23.21-.24.49-.02.63.09.06.2.08.32.08.26,0,.49-.1.72-.18.22-.11.45-.19.65-.37.23-.2.25-.48.04-.63-.09-.06-.2-.09-.32-.09Z"/>
                  <path class="cls-19" d="M425.64,330.08c-.26.02-.49.12-.72.22-.22.12-.44.23-.62.42-.21.22-.2.51.02.63.09.05.2.07.32.06.26-.03.48-.13.71-.23.21-.12.43-.23.62-.41.21-.22.21-.5,0-.63-.09-.06-.21-.08-.32-.07Z"/>
                  <path class="cls-19" d="M422.45,331.67c-.17,0-.31.06-.45.12-.13.08-.26.16-.34.31-.17.29-.05.58.25.66.04,0,.08.01.11.02.17,0,.31-.06.44-.11.12-.08.25-.16.34-.3.17-.29.07-.58-.24-.66-.04,0-.08-.01-.12-.02Z"/>
                  <path class="cls-19" d="M419.82,333.15c-.17,0-.31.07-.44.13-.12.09-.25.17-.33.32-.16.3-.03.59.28.64.04,0,.08.01.11.01.17,0,.3-.07.43-.13.12-.09.24-.17.33-.32.16-.29.04-.58-.27-.65-.04,0-.08-.01-.12-.01Z"/>
                </g>
                <g>
                  <path class="cls-19" d="M453.01,339.9c.08-2.09-.03-4.2-.49-6.28-.25-1.03-.58-2.05-1.05-3.02-.49-.96-1.13-1.86-1.93-2.61-.79-.76-1.77-1.29-2.77-1.71-1.01-.39-2.07-.6-3.13-.72-2.13-.19-4.24.07-6.29.5-.28.07-.47.29-.42.49.05.2.3.31.57.26,2.01-.35,4.05-.53,6.04-.32.99.12,1.97.33,2.88.69.89.39,1.76.86,2.45,1.54.71.65,1.28,1.45,1.74,2.32.44.88.76,1.83,1,2.81.46,1.96.63,4,.63,6.05,0,.28.17.51.39.51.2,0,.37-.22.38-.5Z"/>
                  <path class="cls-19" d="M452.29,341.33c-.1.2-.12.41-.15.61,0,.21-.01.41.06.62.1.29.36.41.59.27.07-.05.13-.12.17-.2.1-.2.13-.41.15-.62,0-.21.01-.42-.07-.64-.11-.3-.38-.4-.6-.25-.07.05-.13.12-.17.21Z"/>
                  <path class="cls-19" d="M452.1,343.67c-.11.2-.14.4-.18.6-.01.21-.03.41.03.63.09.3.34.43.58.29.08-.04.14-.11.18-.19.11-.2.15-.4.18-.61.01-.21.03-.42-.04-.64-.09-.3-.36-.42-.58-.28-.07.05-.13.12-.18.2Z"/>
                  <path class="cls-19" d="M451.8,346.01c-.21.82-.36,1.64-.52,2.46-.15.83-.3,1.65-.4,2.49-.03.29.12.52.33.53.18,0,.34-.15.42-.36.28-.81.45-1.64.62-2.47.14-.84.28-1.68.31-2.53.01-.29-.16-.52-.37-.5-.18.01-.33.18-.39.39Z"/>
                  <path class="cls-19" d="M450.39,353.04c-.12.1-.16.22-.2.34-.02.12-.04.25.01.39.12.33.45.42.73.21h.01c.12-.11.16-.23.2-.35.02-.13.04-.25-.01-.39-.13-.33-.46-.42-.73-.2h-.02Z"/>
                  <path class="cls-19" d="M449.71,355.47c-.12.1-.16.21-.21.33-.02.12-.05.24,0,.39.11.33.43.45.72.24h.02c.12-.11.17-.23.21-.34.02-.12.05-.25,0-.39-.12-.33-.44-.43-.72-.23h-.02Z"/>
                </g>
              </g>
            </g>
          </g>
          <g>
            <path class="cls-10" d="M375.41,322.67c0,1-.03,1.99-.05,2.97-.01.45-.02.89-.03,1.34-.03.89-.06,1.77-.09,2.65-.02.58-.04,1.15-.07,1.71-.01.35-.03.7-.05,1.06-.05,1.03-.11,2.05-.16,3.05,0,.03,0,.06,0,.09-.04.64-.08,1.28-.12,1.91-.07,1-.14,1.98-.21,2.95-.01.26-.04.51-.06.77,0,.07,0,.13-.01.19-.05.64-.1,1.27-.16,1.9,0,.12-.02.26-.03.39-.06.66-.11,1.31-.18,1.95-.07.68-.13,1.36-.2,2.03-.03.33-.07.67-.1,1-.03.26-.06.52-.08.77-.32,3.04-.66,5.88-1.01,8.47-.11.85-.22,1.67-.33,2.47,0,.05-.01.1-.02.15-.31,2.13-.61,4.06-.89,5.75h-171.03c-.28-1.69-.58-3.62-.88-5.75-.03-.22-.07-.46-.1-.7-.04-.24-.07-.48-.11-.72-1.02-7.39-2.05-16.97-2.52-27.73-.03-.56-.05-1.14-.07-1.71-.74-20.04.55-43.9,7.51-65.27,0-.03.01-.05.03-.08.92-2.81,1.93-5.58,3.06-8.28,11.55-27.9,34.4-49.7,77.59-49.7.33,0,.67,0,1,0s.67,0,1.02,0c43.19,0,66.04,21.8,77.59,49.7,1.16,2.82,2.21,5.68,3.16,8.61.03.07.05.14.07.21,2.08,6.48,3.64,13.17,4.79,19.93.03.18.06.35.09.53,2.13,12.69,2.78,25.55,2.65,37.39Z"/>
            <g>
              <path class="cls-1" d="M205.76,366.24h-41.39c-.23-.81-.42-1.62-.58-2.44-2.55-13.2.18-26.69,12.5-31.4,9.56-3.64,16.49-1.14,20.56,1.52,0,0,.01,0,.02,0,.78.51,1.45,1.03,2.02,1.51,1.51,1.27,2.27,2.3,2.27,2.3,3.17,12.32,4.45,21.57,4.6,28.51Z"/>
              <path class="cls-4" d="M200.06,366.21l-10.65.04h-15.14c-3.04-8.43-2.31-17.95,4.57-21.22,17.14-8.15,21.22,21.18,21.22,21.18Z"/>
            </g>
            <g>
              <path class="cls-1" d="M408.29,363.8c-.16.82-.35,1.63-.58,2.44h-41.39c.15-6.94,1.43-16.19,4.6-28.51,0,0,.76-1.02,2.27-2.3.57-.48,1.24-1,2.03-1.51,4.07-2.66,11-5.16,20.56-1.52,12.33,4.7,15.06,18.2,12.5,31.4Z"/>
              <path class="cls-4" d="M397.82,366.24h-15.14l-10.36-.13s3.79-29.23,20.93-21.09c6.87,3.27,7.61,12.79,4.57,21.22Z"/>
            </g>
            <path class="cls-5" d="M278.81,366.24h-78.26c-.28-1.69-.59-3.62-.91-5.75-.03-.23-.06-.46-.1-.7-.03-.24-.07-.48-.1-.73-1.09-7.6-2.18-17.4-2.52-27.72-.02-.57-.03-1.13-.05-1.7-.56-19.15.06-41.39,7.49-65.28,0-.03.02-.05.03-.08.88-2.81,2.07-5.77,3.14-8.62,0,0,7.87,13.84,7.87,38.23,0,26.43-1.27,43.73-1.27,43.73,0,0,0,0,0,0,.5-.55,20.49-21.78,53.65-11.74,0,0,3.36,2.13,6.42,5.41,1.48,1.59,2.89,3.45,3.83,5.47,1.94,4.21,1.35,19.9.77,29.49Z"/>
            <g>
              <g>
                <path class="cls-60" d="M200.22,297.84c-.04-.37,0-.74.04-1.11.06-.37.11-.73.25-1.1.16-.42.42-.58.6-.36.07.09.12.23.13.4.04.37,0,.74-.04,1.11-.06.37-.11.73-.25,1.1-.16.42-.42.59-.6.37-.07-.09-.12-.24-.13-.4Z"/>
                <path class="cls-60" d="M200.77,293.66c-.04-.37,0-.74.04-1.11.06-.37.11-.73.25-1.1.16-.42.42-.58.6-.36.07.09.12.24.13.4.04.37,0,.74-.04,1.11-.06.37-.11.73-.25,1.09-.16.42-.42.58-.6.36-.07-.09-.12-.24-.13-.4Z"/>
                <path class="cls-60" d="M201.33,289.47c-.02-.37.04-.74.09-1.11.08-.36.15-.73.3-1.09.17-.42.45-.58.61-.35.07.09.11.24.12.4.02.37-.04.74-.09,1.1-.08.36-.15.73-.3,1.09-.18.42-.43.58-.61.36-.08-.09-.11-.24-.12-.4Z"/>
                <path class="cls-60" d="M202.64,282.06c-.02-.37.04-.74.09-1.11.07-.37.15-.73.32-1.09.19-.42.48-.57.63-.34.06.09.1.24.1.4,0,.37-.07.74-.11,1.1-.08.36-.15.73-.3,1.09-.17.42-.45.57-.61.35-.07-.09-.11-.24-.12-.41Z"/>
                <path class="cls-60" d="M203.74,276.8c-.04-.23,0-.45.05-.67.06-.22.12-.44.25-.65.26-.41.57-.44.69-.07.01.04.03.1.04.14.04.23,0,.45-.05.67-.06.22-.12.44-.25.65-.26.41-.57.44-.69.08-.02-.04-.03-.1-.04-.15Z"/>
                <path class="cls-60" d="M204.75,272.36c-.04-.23,0-.45.05-.67.06-.22.12-.44.25-.65.26-.41.57-.44.69-.07.01.04.03.1.03.14.04.23,0,.45-.05.67-.06.22-.12.44-.25.65-.26.41-.57.44-.69.07-.02-.04-.03-.1-.04-.15Z"/>
              </g>
              <g>
                <path class="cls-60" d="M199.56,337.54c-.18-1.54-.23-3.09-.35-4.64-.1-1.55-.22-3.09-.24-4.64l-.12-4.64c-.04-1.55.02-3.1.02-4.65.04-1.55,0-3.1.11-4.65l.24-4.64.13-2.32.22-2.32.47-4.64c.04-.43.24-.76.44-.74.2.02.32.36.29.77l-.37,4.63-.19,2.32-.1,2.32-.22,4.64c-.09,1.55-.05,3.09-.08,4.64-.01,1.55-.07,3.09-.04,4.64l.1,4.64c0,1.55.1,3.09.18,4.63.09,1.54.11,3.09.25,4.63.03.43-.11.77-.31.77-.2,0-.38-.33-.42-.74Z"/>
                <path class="cls-60" d="M200.4,339.66c.11.31.15.61.19.92.02.31.04.62-.02.93-.08.43-.33.59-.55.35-.07-.08-.13-.19-.18-.31-.11-.31-.15-.62-.19-.93-.02-.31-.04-.62.02-.94.08-.43.33-.59.55-.35.07.08.13.19.18.31Z"/>
                <path class="cls-60" d="M200.75,343.19c.12.3.17.61.21.92.02.31.06.62,0,.93-.07.43-.31.59-.54.36-.07-.08-.14-.19-.19-.31-.12-.3-.17-.61-.21-.92-.02-.31-.06-.62,0-.94.07-.43.31-.59.54-.35.08.08.14.19.19.31Z"/>
                <path class="cls-60" d="M201.17,346.72c.23,1.25.45,2.5.65,3.75.16,1.25.39,2.5.52,3.76.05.43-.09.74-.3.7-.17-.04-.35-.3-.43-.63-.31-1.24-.55-2.49-.73-3.75-.17-1.26-.38-2.51-.44-3.77-.02-.43.13-.74.34-.69.17.04.33.31.39.64Z"/>
                <path class="cls-60" d="M202.95,357.39c.12.18.17.36.22.55.03.19.06.37.01.57-.1.44-.42.49-.71.1,0,0-.01-.02-.02-.02-.12-.18-.17-.36-.22-.55-.03-.19-.06-.37-.01-.57.11-.44.43-.49.71-.1,0,0,.01.02.02.03Z"/>
                <path class="cls-60" d="M203.81,361.12c.13.17.18.36.24.54.04.18.07.37.04.56-.08.44-.39.5-.71.11,0,0-.01-.02-.02-.02-.14-.17-.19-.36-.25-.54-.04-.19-.08-.37-.04-.57.09-.45.4-.49.71-.11l.02.03Z"/>
              </g>
            </g>
            <path class="cls-8" d="M255.12,366.24h-21.33c-23.87-4.83-19.66-24.76-19.66-24.76,0,0,0-.01.01-.03,0,0,0-.02,0-.02,0-.01,0-.02.01-.03,0-.03.03-.07.04-.13.03-.09.08-.21.13-.35,5.92-14.7,40-19.71,52.17-15.44,1.68.59,3.2,1.8,4.46,3.45,1.44,1.88,2.56,4.33,3.23,7.08,2.65,10.75-1.41,26.13-19.09,30.24Z"/>
            <path class="cls-3" d="M214.13,337.62s13.01-7.66,28.26-10.8c10.8-2.22,20,1.59,25.4-.95,5.75-2.7,4.13-9.21,4.13-9.21,0,0-17.15-2.22-30.48.64-15.89,3.41-19.99,6.62-23.81,12.07-1.67,2.38-3.49,8.26-3.49,8.26Z"/>
            <path class="cls-5" d="M375.41,322.67c0,1-.03,1.99-.05,2.97-.01.45-.02.89-.03,1.34-.03.89-.06,1.77-.09,2.65-.02.58-.04,1.15-.07,1.71-.01.35-.03.7-.05,1.06-.05,1.03-.11,2.05-.16,3.05,0,.03,0,.06,0,.09-.04.64-.08,1.28-.12,1.91-.07,1-.14,1.98-.21,2.95-.01.26-.04.51-.06.77,0,.07,0,.13-.01.19-.05.64-.11,1.27-.16,1.9,0,.12-.02.26-.03.39-.06.66-.11,1.31-.18,1.95-.07.68-.13,1.36-.2,2.03-.03.33-.07.67-.1,1-.03.26-.06.52-.08.77-.32,3.02-.67,5.86-1.01,8.47-.11.85-.22,1.67-.33,2.47,0,.05-.01.1-.02.15-.3,2.13-.59,4.06-.85,5.75h-78.32c-.57-9.59-1.16-25.27.78-29.49.95-2.06,2.4-3.96,3.92-5.56,3.04-3.23,6.33-5.32,6.33-5.32,33.16-10.04,53.15,11.2,53.65,11.74,0,0,.01,0,.01,0,0,0-1.28-17.3-1.28-43.73,0-24.39,6.9-36.21,7.96-37.89,1.16,2.82,2.21,5.68,3.16,8.61.03.07.05.14.07.21,2.09,6.79,3.65,13.44,4.79,19.93.03.18.06.35.09.53,2.28,13.27,2.83,25.82,2.65,37.39Z"/>
            <g>
              <g>
                <path class="cls-60" d="M370.73,297.84c.04-.37,0-.74-.04-1.11-.06-.37-.11-.73-.25-1.1-.16-.42-.42-.58-.6-.36-.07.09-.12.23-.13.4-.04.37,0,.74.04,1.11.06.37.11.73.25,1.1.16.42.42.59.6.37.07-.09.12-.24.13-.4Z"/>
                <path class="cls-60" d="M370.18,293.66c.04-.37,0-.74-.04-1.11-.06-.37-.11-.73-.25-1.1-.16-.42-.42-.58-.6-.36-.07.09-.12.24-.13.4-.04.37,0,.74.04,1.11.06.37.11.73.25,1.09.16.42.42.58.6.36.07-.09.12-.24.13-.4Z"/>
                <path class="cls-60" d="M369.61,289.47c.02-.37-.04-.74-.09-1.11-.08-.36-.15-.73-.3-1.09-.17-.42-.45-.58-.61-.35-.07.09-.11.24-.12.4-.02.37.04.74.09,1.1.08.36.15.73.3,1.09.18.42.43.58.61.36.08-.09.11-.24.12-.4Z"/>
                <path class="cls-60" d="M368.3,282.06c.02-.37-.04-.74-.09-1.11-.07-.37-.15-.73-.32-1.09-.19-.42-.48-.57-.63-.34-.06.09-.1.24-.1.4,0,.37.07.74.11,1.1.08.36.15.73.3,1.09.17.42.45.57.61.35.07-.09.11-.24.12-.41Z"/>
                <path class="cls-60" d="M367.21,276.8c.04-.23,0-.45-.05-.67-.06-.22-.12-.44-.25-.65-.26-.41-.57-.44-.69-.07-.01.04-.03.1-.03.14-.04.23,0,.45.05.67.06.22.12.44.25.65.26.41.57.44.69.08.01-.04.03-.1.03-.15Z"/>
                <path class="cls-60" d="M366.19,272.36c.04-.23,0-.45-.05-.67-.06-.22-.12-.44-.25-.65-.26-.41-.57-.44-.69-.07-.01.04-.03.1-.03.14-.04.23,0,.45.05.67.06.22.12.44.25.65.26.41.57.44.69.07.01-.04.03-.1.04-.15Z"/>
              </g>
              <g>
                <path class="cls-60" d="M371.39,337.54c.18-1.54.23-3.09.35-4.64.1-1.55.22-3.09.24-4.64l.12-4.64c.04-1.55-.02-3.1-.02-4.65-.04-1.55,0-3.1-.11-4.65l-.24-4.64-.13-2.32-.22-2.32-.47-4.64c-.04-.43-.24-.76-.44-.74-.2.02-.32.36-.29.77l.37,4.63.19,2.32.1,2.32.22,4.64c.09,1.55.05,3.09.08,4.64.01,1.55.07,3.09.04,4.64l-.1,4.64c0,1.55-.1,3.09-.18,4.63-.09,1.54-.11,3.09-.25,4.63-.03.43.11.77.31.77.19,0,.38-.33.42-.74Z"/>
                <path class="cls-60" d="M370.55,339.66c-.11.31-.15.61-.19.92-.02.31-.04.62.02.93.08.43.33.59.55.35.07-.08.13-.19.18-.31.11-.31.15-.62.19-.93.02-.31.04-.62-.02-.94-.08-.43-.33-.59-.55-.35-.07.08-.13.19-.18.31Z"/>
                <path class="cls-60" d="M370.2,343.19c-.12.3-.17.61-.21.92-.02.31-.06.62,0,.93.07.43.31.59.54.36.07-.08.14-.19.19-.31.12-.3.17-.61.21-.92.02-.31.06-.62,0-.94-.07-.43-.31-.59-.54-.35-.08.08-.14.19-.19.31Z"/>
                <path class="cls-60" d="M369.77,346.72c-.23,1.25-.45,2.5-.65,3.75-.16,1.25-.39,2.5-.52,3.76-.05.43.09.74.3.7.17-.04.35-.3.43-.63.31-1.24.55-2.49.73-3.75.17-1.26.38-2.51.44-3.77.02-.43-.13-.74-.34-.69-.17.04-.33.31-.39.64Z"/>
                <path class="cls-60" d="M367.99,357.39c-.12.18-.17.36-.22.55-.03.19-.06.37-.01.57.1.44.42.49.71.1,0,0,.01-.02.02-.02.12-.18.17-.36.22-.55.03-.19.06-.37.01-.57-.11-.44-.43-.49-.71-.1,0,0-.01.02-.02.03Z"/>
                <path class="cls-60" d="M367.14,361.12c-.13.17-.18.36-.24.54-.04.18-.07.37-.04.56.08.44.39.5.71.11,0,0,.01-.02.02-.02.14-.17.19-.36.25-.54.04-.19.08-.37.04-.57-.09-.45-.4-.49-.71-.11l-.02.03Z"/>
              </g>
            </g>
            <path class="cls-8" d="M338.62,366.24h-21.31c-17.76-4.12-21.94-19.63-19.34-30.42.66-2.72,1.75-5.14,3.16-7.01,1.25-1.66,2.77-2.88,4.45-3.47,12.18-4.29,46.25.74,52.17,15.49.01.03.02.05.03.08.03.07.06.14.08.2.07.18.1.28.1.28,0,0,4.48,20-19.34,24.84Z"/>
            <path class="cls-3" d="M357.96,337.62s-13.01-7.66-28.26-10.8c-10.8-2.22-20,1.59-25.4-.95-5.75-2.7-4.13-9.21-4.13-9.21,0,0,17.15-2.22,30.48.64,15.89,3.41,19.99,6.62,23.81,12.07,1.67,2.38,3.49,8.26,3.49,8.26Z"/>
          </g>
          <g>
            <circle class="cls-5" cx="286.11" cy="265.66" r="40.07"/>
            <circle class="cls-61" cx="286.11" cy="265.66" r="31.49"/>
            <circle class="cls-5" cx="286.11" cy="265.66" r="20.51"/>
            <circle class="cls-61" cx="286.11" cy="265.66" r="7.63"/>
          </g>
          <path class="cls-57" d="M260.05,350.78c0,4.53-5.95,4.97-13.29,4.97s-13.29-.44-13.29-4.97,5.95-8.2,13.29-8.2c7.34,0,13.29,3.67,13.29,8.2Z"/>
          <path class="cls-57" d="M340.03,350.78c0,4.53-5.95,4.97-13.29,4.97s-13.29-.44-13.29-4.97,5.95-8.2,13.29-8.2c7.34,0,13.29,3.67,13.29,8.2Z"/>
          <g>
            <g>
              <g>
                <path class="cls-19" d="M105.18,351.49c.18,0,.32.06.46.12.13.08.26.16.35.32.11.18.04.44-.14.58-.07.06-.16.09-.24.09-.18,0-.31-.06-.45-.12-.13-.08-.26-.16-.35-.31-.11-.18-.05-.44.13-.58.07-.06.16-.09.24-.09Z"/>
                <path class="cls-19" d="M106.72,352.35c.18,0,.31.07.45.14.13.09.26.17.35.33.1.18.03.44-.15.58-.08.06-.16.08-.24.08-.18,0-.31-.07-.45-.14-.12-.09-.25-.17-.34-.32-.1-.18-.04-.44.14-.58.07-.06.16-.09.24-.09Z"/>
                <path class="cls-19" d="M108.23,353.23c.18,0,.31.08.45.15.12.09.25.18.34.33.1.18.02.44-.16.57-.08.05-.16.08-.24.08-.18,0-.31-.08-.45-.15-.12-.09-.25-.17-.34-.33-.1-.18-.03-.44.15-.58.08-.06.16-.08.24-.08Z"/>
                <path class="cls-19" d="M110.87,354.89c.18,0,.31.09.45.16.12.1.25.18.33.34.09.19,0,.44-.18.57-.08.05-.16.08-.24.07-.18-.01-.31-.09-.44-.16-.12-.09-.24-.18-.32-.34-.09-.18-.01-.44.17-.57.08-.05.16-.08.24-.07Z"/>
                <path class="cls-19" d="M112.72,356.11c.13-.02.21.03.29.07.07.06.14.12.17.25.05.24-.11.52-.35.61-.03.01-.06.02-.09.02-.13.02-.21-.02-.29-.07-.07-.06-.14-.12-.17-.25-.05-.24.1-.52.34-.61.03-.01.06-.02.09-.02Z"/>
                <path class="cls-19" d="M114.25,357.2c.13-.02.21.03.29.07.07.07.14.12.16.25.04.25-.12.51-.36.6-.03.01-.06.02-.09.02-.13.02-.21-.03-.29-.07-.07-.06-.14-.12-.16-.25-.04-.24.11-.51.36-.6.03-.01.06-.02.09-.02Z"/>
              </g>
              <g>
                <path class="cls-19" d="M90.58,351.98c.25-1.34,1.05-2.63,2.28-3.36.63-.39,1.35-.53,2.04-.56.69-.05,1.36.04,2.02.14,1.31.26,2.56.68,3.77,1.17,1.21.5,2.37,1.08,3.51,1.7.16.09.2.31.1.49-.1.18-.3.26-.45.19-1.15-.55-2.32-1.06-3.5-1.52-1.18-.46-2.38-.85-3.6-1.07-.6-.1-1.21-.19-1.8-.15-.59.02-1.16.13-1.62.41-.99.56-1.71,1.56-2,2.72-.04.16-.23.26-.44.22-.2-.04-.33-.21-.31-.39Z"/>
                <path class="cls-19" d="M91.11,352.98c.07.13.07.25.08.38-.01.12-.03.24-.12.37-.12.17-.39.24-.61.14-.07-.03-.12-.08-.16-.14-.1-.14-.09-.27-.1-.41.02-.14.03-.27.14-.4.14-.18.42-.2.62-.07.06.04.11.09.14.14Z"/>
                <path class="cls-19" d="M91.1,354.4c.1.12.11.24.14.36,0,.12.01.25-.06.39-.1.19-.36.29-.58.22-.07-.02-.13-.06-.18-.11-.11-.12-.13-.26-.16-.39,0-.14,0-.27.07-.41.11-.19.38-.26.6-.17.07.03.13.07.17.12Z"/>
                <path class="cls-19" d="M91.28,355.82c.18.49.31.98.46,1.47.13.5.29.98.38,1.5.03.17-.11.36-.31.41-.17.04-.33-.02-.41-.15-.27-.47-.44-.98-.61-1.49-.13-.52-.26-1.05-.27-1.6,0-.19.17-.35.38-.35.18,0,.32.08.37.21Z"/>
                <path class="cls-19" d="M92.61,360.01c.11.04.15.1.19.17.02.08.04.15,0,.26-.11.24-.42.39-.68.32h-.01c-.12-.04-.15-.11-.2-.18-.02-.08-.05-.15,0-.26.12-.25.43-.38.69-.31h.02Z"/>
                <path class="cls-19" d="M93.29,361.41c.12.03.15.09.2.15.02.07.05.14.01.25-.1.25-.39.42-.66.37h-.01c-.12-.03-.16-.1-.21-.16-.03-.08-.06-.15-.01-.26.1-.26.4-.41.67-.35h.02Z"/>
              </g>
            </g>
            <g>
              <g>
                <path class="cls-19" d="M132.15,326.36c.26-.02.51.03.75.08.24.07.48.15.69.31.25.18.29.46.09.62-.08.07-.19.1-.3.11-.26.02-.49-.05-.73-.1-.23-.07-.47-.14-.68-.29-.25-.17-.3-.45-.12-.62.08-.07.19-.11.3-.12Z"/>
                <path class="cls-19" d="M134.88,327.15c.26,0,.5.06.74.13.23.1.46.18.67.35.24.2.26.48.05.63-.09.06-.2.09-.31.1-.26,0-.49-.07-.73-.14-.23-.09-.46-.17-.66-.33-.24-.19-.27-.47-.07-.63.08-.07.19-.1.31-.1Z"/>
                <path class="cls-19" d="M137.54,328.1c.26,0,.5.08.73.17.23.11.45.2.65.38.23.21.24.49.02.63-.09.06-.2.08-.32.08-.26,0-.49-.1-.72-.18-.22-.11-.45-.19-.65-.37-.23-.2-.25-.48-.04-.63.09-.06.2-.09.32-.09Z"/>
                <path class="cls-19" d="M142.16,330.08c.26.02.49.12.72.22.22.12.44.23.62.42.21.22.2.51-.02.63-.09.05-.2.07-.32.06-.26-.03-.48-.13-.71-.23-.21-.12-.43-.23-.62-.41-.21-.22-.21-.5,0-.63.09-.06.21-.08.32-.07Z"/>
                <path class="cls-19" d="M145.35,331.67c.17,0,.31.06.45.12.13.08.26.16.35.31.17.29.05.58-.25.66-.04,0-.08.01-.12.02-.17,0-.31-.06-.44-.11-.12-.08-.25-.16-.34-.3-.17-.29-.07-.58.24-.66.04,0,.08-.01.12-.02Z"/>
                <path class="cls-19" d="M147.98,333.15c.17,0,.31.07.44.13.12.09.25.17.33.32.16.3.03.59-.28.64-.04,0-.08.01-.12.01-.17,0-.3-.07-.43-.13-.12-.09-.24-.17-.33-.32-.16-.29-.04-.58.27-.65.04,0,.08-.01.12-.01Z"/>
              </g>
              <g>
                <path class="cls-19" d="M114.78,339.9c-.08-2.09.03-4.2.49-6.28.25-1.03.58-2.05,1.05-3.02.49-.96,1.13-1.86,1.93-2.61.79-.76,1.77-1.29,2.76-1.71,1.01-.39,2.07-.6,3.13-.72,2.13-.19,4.24.07,6.29.5.28.07.47.29.42.49-.05.2-.3.31-.57.26-2.01-.35-4.05-.53-6.04-.32-.99.12-1.96.33-2.88.69-.89.39-1.76.86-2.45,1.54-.71.65-1.29,1.45-1.74,2.32-.44.88-.76,1.83-1,2.81-.46,1.96-.63,4-.63,6.05,0,.28-.17.51-.39.51-.2,0-.37-.22-.38-.5Z"/>
                <path class="cls-19" d="M115.51,341.33c.1.2.12.41.15.61,0,.21.01.41-.06.62-.1.29-.36.41-.59.27-.07-.05-.13-.12-.17-.2-.1-.2-.13-.41-.15-.62,0-.21-.01-.42.07-.64.11-.3.38-.4.6-.25.07.05.13.12.17.21Z"/>
                <path class="cls-19" d="M115.7,343.67c.11.2.14.4.18.6.01.21.03.41-.03.63-.09.3-.34.43-.58.29-.07-.04-.14-.11-.18-.19-.12-.2-.15-.4-.18-.61-.01-.21-.03-.42.04-.64.1-.3.36-.42.58-.28.07.05.14.12.18.2Z"/>
                <path class="cls-19" d="M115.99,346.01c.21.82.36,1.64.52,2.46.15.83.3,1.65.4,2.49.03.29-.12.52-.33.53-.18,0-.35-.15-.42-.36-.27-.81-.45-1.64-.62-2.47-.14-.84-.28-1.68-.31-2.53,0-.29.16-.52.37-.5.18.01.33.18.39.39Z"/>
                <path class="cls-19" d="M117.41,353.04c.12.1.15.22.2.34.02.12.04.25-.01.39-.12.33-.45.42-.73.21h-.01c-.12-.11-.16-.23-.2-.35-.02-.13-.04-.25.01-.39.13-.33.46-.42.73-.2h.02Z"/>
                <path class="cls-19" d="M118.08,355.47c.12.1.16.21.21.33.02.12.05.24,0,.39-.11.33-.43.45-.72.24h-.01c-.12-.11-.17-.23-.21-.34-.02-.12-.05-.25,0-.39.12-.33.44-.43.72-.23h.02Z"/>
              </g>
            </g>
          </g>
        </g>
        <g>
          <circle class="cls-50" cx="446.94" cy="153.03" r="27.73" transform="translate(22.7 360.86) rotate(-45)"/>
          <g>
            <rect class="cls-65" x="446.28" width="1.82" height="129.1"/>
            <g>
              <path class="cls-7" d="M452.45,141.67c0-1.88-1.59-3.4-3.56-3.4h-3.62c-1.97,0-3.56,1.52-3.56,3.4,0,0-1.26,5.3-2.98,8.36-1.47,2.6-3.05,5.31-2.48,8.61.79,4.53,4.76,8.09,9.55,8.61,6.65.72,12.28-4.22,12.28-10.41,0-2.52-1.47-4.52-2.5-6.65-1.78-3.68-3.12-8.52-3.12-8.52Z"/>
              <path class="cls-6" d="M447.07,165.32c-.35,0-.72-.02-1.07-.06-3.89-.44-7.17-3.49-7.8-7.26-.44-2.62.82-4.94,2.14-7.39l.11-.2c1.84-3.4,3.13-9.01,3.19-9.25l.05-.24v-.24c0-.81.7-1.46,1.57-1.46h3.62c.86,0,1.57.66,1.57,1.46v.28l.07.27c.06.21,1.41,5.26,3.25,9.22.24.53.51,1.05.78,1.57.81,1.58,1.52,2.94,1.52,4.45,0,2.34-.92,4.55-2.6,6.22-1.7,1.69-3.97,2.62-6.4,2.62h0Z"/>
              <path class="cls-16" d="M453.24,160.15c0,1.5-2.59,2.71-5.77,2.71s-5.77-1.21-5.77-2.71,2.59-.74,5.77-.74,5.77-.76,5.77.74Z"/>
              <path class="cls-37" d="M448.11,143.97c0,2.24-2.16,2.24-2.16,0v-4.85h2.16v4.85Z"/>
              <g>
                <polyline class="cls-11" points="445.95 139.41 445.95 146.8 443.5 155.54"/>
                <polyline class="cls-11" points="448.02 139.41 448.02 146.8 450.46 155.54"/>
              </g>
              <path class="cls-15" d="M452.22,140.08h-10.34c-.31,0-.56-.25-.56-.56v-12.71c0-2.48,2.01-4.49,4.49-4.49h2.49c2.48,0,4.49,2.01,4.49,4.49v12.71c0,.31-.25.56-.56.56Z"/>
              <rect class="cls-55" x="441.33" y="132.85" width="11.45" height="1.44"/>
            </g>
            <path class="cls-13" d="M443.75,154.61c-.05.47.59,1.21,1.05,1.1.46-.11.76-.62.71-1.1-.02-.21-.12-.43-.32-.49-.18-.05-.38.08-.46.25-.09.17-.08.37-.06.55.03.31.12.63.32.88.19.25.51.42.82.39.42-.04.73-.42.92-.8.1-.19.18-.4.17-.62s-.12-.44-.32-.52c-.2-.08-.45.01-.58.19s-.17.41-.14.62c.09.68.86,1.18,1.52.98s1.02-1.04.72-1.66c-.1-.2-.33-.39-.53-.29-.12.06-.18.2-.21.33-.09.41.06.88.38,1.15.32.27.82.33,1.19.12.36-.22.55-.7.4-1.1-.05-.13-.15-.26-.29-.29-.25-.05-.43.26-.42.51.02.41.35.79.76.86s.84-.18.99-.57"/>
          </g>
        </g>
        <g>
          <circle class="cls-50" cx="113.44" cy="153.04" r="27.73"/>
          <g>
            <rect class="cls-65" x="112.76" width="1.82" height="129.1"/>
            <g>
              <path class="cls-7" d="M118.93,141.67c0-1.88-1.6-3.4-3.56-3.4h-3.62c-1.97,0-3.56,1.52-3.56,3.4,0,0-1.26,5.3-2.98,8.36-1.47,2.6-3.05,5.31-2.48,8.61.79,4.53,4.76,8.09,9.55,8.61,6.65.72,12.28-4.22,12.28-10.41,0-2.52-1.47-4.52-2.5-6.65-1.78-3.68-3.12-8.52-3.12-8.52Z"/>
              <path class="cls-6" d="M113.56,165.32c-.35,0-.71-.02-1.07-.06-3.89-.44-7.17-3.49-7.8-7.26-.44-2.62.82-4.94,2.14-7.39l.11-.2c1.84-3.4,3.13-9.01,3.19-9.25l.05-.24v-.24c0-.81.7-1.46,1.57-1.46h3.62c.86,0,1.57.66,1.57,1.46v.28l.07.27c.06.21,1.41,5.26,3.25,9.22.24.53.51,1.05.78,1.57.81,1.58,1.51,2.94,1.51,4.45,0,2.34-.92,4.55-2.6,6.22-1.7,1.69-3.97,2.62-6.4,2.62h0Z"/>
              <path class="cls-16" d="M119.72,160.15c0,1.5-2.59,2.71-5.77,2.71s-5.77-1.21-5.77-2.71,2.59-.74,5.77-.74,5.77-.76,5.77.74Z"/>
              <path class="cls-37" d="M114.6,143.97c0,2.24-2.16,2.24-2.16,0v-4.85h2.16v4.85Z"/>
              <g>
                <polyline class="cls-11" points="112.43 139.41 112.43 146.8 109.99 155.54"/>
                <polyline class="cls-11" points="114.5 139.41 114.5 146.8 116.95 155.54"/>
              </g>
              <path class="cls-15" d="M118.71,140.08h-10.34c-.31,0-.56-.25-.56-.56v-12.71c0-2.48,2.01-4.49,4.49-4.49h2.49c2.48,0,4.49,2.01,4.49,4.49v12.71c0,.31-.25.56-.56.56Z"/>
              <rect class="cls-55" x="107.81" y="132.85" width="11.45" height="1.44"/>
            </g>
            <path class="cls-13" d="M110.23,154.61c-.05.47.59,1.21,1.05,1.1.46-.11.76-.62.71-1.1-.02-.21-.12-.43-.32-.49-.18-.05-.38.08-.46.25-.09.17-.08.37-.06.55.04.31.12.63.32.88s.51.42.82.39c.42-.04.73-.42.92-.8.1-.19.18-.4.17-.62,0-.21-.12-.44-.32-.52-.2-.08-.45.01-.58.19s-.17.41-.14.62c.09.68.87,1.18,1.52.98s1.02-1.04.72-1.66c-.1-.2-.33-.39-.53-.29-.12.06-.18.2-.21.33-.09.41.06.88.38,1.15.32.27.82.33,1.19.12.36-.22.55-.7.4-1.1-.05-.13-.15-.26-.29-.29-.25-.05-.43.26-.42.51.02.41.35.79.76.86s.85-.18.99-.57"/>
          </g>
        </g>
        <g>
          <path class="cls-19" d="M390.24,175.99h-24.55c-.98,0-1.77-.79-1.77-1.77v-89.53c0-.98.79-1.77,1.77-1.77h24.55c.98,0,1.77.79,1.77,1.77v89.53c0,.98-.79,1.77-1.77,1.77Z"/>
          <g>
            <rect class="cls-42" x="368.01" y="101.06" width="19.9" height="19.9"/>
            <rect class="cls-62" x="368.01" y="125.64" width="19.9" height="19.9"/>
            <rect class="cls-65" x="368.01" y="151.4" width="19.9" height="19.9"/>
          </g>
        </g>
        <g>
          <rect class="cls-19" x="130.2" y="54.72" width="93.31" height="59.63"/>
          <g>
            <rect class="cls-53" x="133.27" y="58.03" width="87.27" height="53.55"/>
            <circle class="cls-37" cx="150.52" cy="72" r="8.72"/>
            <path class="cls-43" d="M133.27,111.58s26.79-21.94,31.25-23.16,16.63,7.71,16.63,7.71c0,0,15.36-16.44,16.98-16.44s22.41,31.89,22.41,31.89h-87.27Z"/>
          </g>
        </g>
        <g>
          <g>
            <polyline class="cls-27" points="335.59 179.11 335.59 181.79 332.91 181.79"/>
            <line class="cls-21" x1="327.68" y1="181.79" x2="246.59" y2="181.79"/>
            <polyline class="cls-27" points="243.98 181.79 241.3 181.79 241.3 179.11"/>
            <line class="cls-22" x1="241.3" y1="173.62" x2="241.3" y2="55.59"/>
            <polyline class="cls-27" points="241.3 52.84 241.3 50.17 243.98 50.17"/>
            <line class="cls-21" x1="249.21" y1="50.17" x2="330.3" y2="50.17"/>
            <polyline class="cls-27" points="332.91 50.17 335.59 50.17 335.59 52.84"/>
            <line class="cls-22" x1="335.59" y1="58.33" x2="335.59" y2="176.37"/>
          </g>
          <g>
            <g>
              <g>
                <line class="cls-36" x1="241.28" y1="45.42" x2="241.28" y2="55.02"/>
                <line class="cls-36" x1="246.08" y1="50.22" x2="236.48" y2="50.22"/>
              </g>
              <g>
                <line class="cls-36" x1="335.29" y1="45.42" x2="335.29" y2="55.02"/>
                <line class="cls-36" x1="340.09" y1="50.22" x2="330.49" y2="50.22"/>
              </g>
            </g>
            <g>
              <g>
                <line class="cls-36" x1="241.28" y1="177.03" x2="241.28" y2="186.63"/>
                <line class="cls-36" x1="246.08" y1="181.83" x2="236.48" y2="181.83"/>
              </g>
              <g>
                <line class="cls-36" x1="335.29" y1="177.03" x2="335.29" y2="186.63"/>
                <line class="cls-36" x1="340.09" y1="181.83" x2="330.49" y2="181.83"/>
              </g>
            </g>
          </g>
          <g>
            <path class="cls-42" d="M322.32,90.04c0,10.24-7.95,20.79-16.82,23.24v.61s21.4,5.2,21.4,25.38c0,21.25-14.22,30.73-39.91,30.73h-26.3c-3.21,0-4.59-1.38-4.59-4.59v-97.86c0-3.21,1.38-4.59,4.59-4.59h27.37c22.78,0,34.25,11.01,34.25,27.06ZM269.57,74.6v34.55h17.74c12.39,0,21.1-7.95,21.1-17.89,0-11.31-6.42-16.67-21.71-16.67h-17.12ZM269.57,120.77v37.61h22.32c13.61,0,21.1-7.65,21.1-19.72,0-11.16-7.95-17.89-23.7-17.89h-19.72Z"/>
            <g>
              <rect class="cls-34" x="269.34" y="62.81" width="57.81" height="107.09"/>
              <rect class="cls-35" x="269.34" y="62.81" width="39.15" height="107.09"/>
              <rect class="cls-25" x="269.34" y="62.81" width="43.32" height="107.09"/>
              <rect class="cls-30" x="256.07" y="62.81" width="66.34" height="107.09"/>
              <rect class="cls-24" x="256.07" y="62.81" width="66.34" height="46.12"/>
              <rect class="cls-29" x="256.07" y="62.81" width="66.34" height="11.69"/>
              <rect class="cls-31" x="256.07" y="62.81" width="66.34" height="58.12"/>
              <rect class="cls-26" x="256.07" y="62.81" width="66.34" height="50.69"/>
              <rect class="cls-28" x="256.07" y="62.81" width="66.34" height="95.4"/>
            </g>
          </g>
        </g>
        <g>
          <g>
            <path class="cls-39" d="M144.42,373.93c0,1.96-68.38,3.55-102.56,3.55s-37.66-1.59-37.66-3.55,3.48-3.55,37.66-3.55,102.56,1.59,102.56,3.55Z"/>
            <g>
              <g>
                <path class="cls-42" d="M61.47,189.14c7.8,13.77,62.35,30.93,71.64,28.9,3.44-.75,5.41-9.94,1.51-11.8,0,0-52.67-28.1-64.56-32.95-4.51-1.84-13.53,7.13-8.59,15.84Z"/>
                <path class="cls-19" d="M136.27,212.49c-.24,1.83-.93,3.38-1.78,4.14-.41.39-.87.58-1.32.52-.62-.08-1.13-.62-1.47-1.45-.4-.98-.56-2.36-.37-3.85.24-1.84.95-3.39,1.8-4.15.41-.38.86-.57,1.31-.51.17.02.33.08.48.17h0c1.06.61,1.65,2.73,1.34,5.13Z"/>
                <path class="cls-49" d="M148.77,217.4c-3.26,2.03-11.5.79-13.71-.64-.05-.03-.1-.06-.17-.08-.68-.29-2.29-.4-2.73-.84-.02-.02-.05-.05-.07-.08-.4-.98-.56-2.36-.37-3.85.24-1.84.95-3.39,1.8-4.15.43-.24.94-.06,1.8-.34h0c.42-.13.94-.37,1.58-.84.67-.49,2.73-1.52,6.6-2.34.99-.21,3.71.18,4.51.28,1.85.22.73,2.05-.49,2.43-1.73.52-2.46.44-3.12.84-.37.21-.66.45-.92.69.81.32,5.14,1.19,6.27,1.27,1.26.1,1.9,2.53-.07,2.52-.79,0-1.59-.04-2.33-.1,0,.08,1.81.42,2.65.49,1.23.1-.96,4.55-1.25,4.74Z"/>
              </g>
              <g>
                <g>
                  <path id="SVGID" class="cls-49" d="M56.94,339.24l1.38,27.87s-.68,2.46-.76,3.29c-.08.81.09,3.22.09,3.22.95.73,4.18.89,5.87.38l.34-.27s.3.18,2.56.67c2.3.5,9.29.48,10.41-.39,0,0,1.56-2.83-1.26-3.48-7.07-1.63-8.27-4.21-8.56-6.42-.36-2.78.88-23.14.88-23.14l-10.94-1.72Z"/>
                  <g class="cls-71">
                    <path class="cls-52" d="M68.57,366.8s-1.91-.17-3.11.92c-1.13,1.04-2.02,1.92-3.54,1.65-3.9-.69-3.37-3.77-5.21-2.35l-.85,8.04,21.91.52.7-6.1-9.9-2.69Z"/>
                  </g>
                  <g class="cls-69">
                    <path class="cls-65" d="M77.42,373.13s-.4,1.05-7.29.86-7.33-1.75-12.74-1.51l.07,1.88,20.06,1.39-.1-2.62Z"/>
                  </g>
                </g>
                <path class="cls-47" d="M54.07,242.79c4.41-11.37,20.4-12.61,20.52-1,.18,16.67-5.62,100.73-5.62,100.73-3.45,2.54-10.92,1.85-13.63.94-1.2-31.32-11.74-73.68-1.27-100.68Z"/>
              </g>
              <g>
                <g>
                  <path id="SVGID-2" data-name="SVGID" class="cls-49" d="M36.6,339.57l-8.85,27.83s.28,2.43.24,3.25c-.05.81-.61,3.25-.61,3.25-1.07.8-4.35,1.19-5.96.79l-.3-.25s-.33.2-2.68.85c-2.39.66-9.41,1.12-10.4.32,0,0-.76-2.34,2.19-3.19,7.37-2.13,8.63-5.2,9.28-7.45.81-2.83,3.77-26.09,3.77-26.09l13.32.69Z"/>
                  <g class="cls-66">
                    <path class="cls-52" d="M17.5,367.81s1.95-.31,2.97.72c.97.97,1.72,1.79,3.29,1.42,4.03-.96,4-4.03,5.62-2.72l-.45,8.04-22.1,2.03.28-6.09,10.38-3.39Z"/>
                  </g>
                  <g class="cls-72">
                    <path class="cls-65" d="M7.58,374.78s.24,1.03,7.18.36,7.65-2.26,13.05-2.4l-.38,1.9-20.38,2.79.53-2.65Z"/>
                  </g>
                </g>
                <path class="cls-61" d="M30.22,239.05c1.68-12.01,21.89-7.14,21.77,4.61-.39,37.81-7.42,81.2-15.39,98.21-3.56,1.89-11.99.76-14.27-.82,3.71-34.22,4.68-79.12,7.88-102.01Z"/>
              </g>
              <path class="cls-61" d="M69.09,249.81c-.15,6.13-6.2,13.18-16.19,12.94-9.99-.24-23.06-5.4-22.91-11.53.48-19.78,8.68-30.36,18.67-30.12,9.99.24,20.92,8.55,20.43,28.71Z"/>
              <path class="cls-42" d="M71.94,244.3c-.09,3.59-10.76,5.15-22.39,4.87-11.63-.28-20.34-2.19-20.25-5.78.28-11.59,10.39-18.09,22.02-17.8,11.63.29,20.91,6.9,20.62,18.71Z"/>
              <path class="cls-48" d="M24.14,181.27c4.41-7.38,25.45-14.24,26.51-14.27,7.35-.21,22.92,9.93,24.6,13.71,1.46,3.29-4.24,31.26-3.62,43.76.33,6.51,1.16,11.39,1,17.95-.15,6.13-43.8,6.22-43.65.09.12-5.08,3.83-8.82,3.77-14.12-.12-10.61-10.52-43.95-8.62-47.12Z"/>
              <g>
                <g>
                  <g>
                    <path class="cls-17" d="M59.63,153.36c-1.5-1.15-1.88-4.82-.72-6.66,0,0,.89-1.59,2.79-.81,1.44.59,1.86,2.42,1.68,4.22-.22,2.16-2.1,4.51-3.74,3.26Z"/>
                    <path class="cls-64" d="M60.13,152.5l.37-1.98-1.2-.34s.18-3.62,2.2-2.58c1.66.86.6,5.35-1.37,4.9Z"/>
                  </g>
                  <g>
                    <path class="cls-17" d="M45.38,154.86s.49,3.37,1.83,5.08c1.62,2.07,3.85,4.56,9.84,3.32,5.99-1.24,4.01-13.98,4.01-13.98,0,0,.12-5.04-1.32-8.96-1.44-3.92-9.73-4.86-15.93-1.93,0,0-1.6,2.05.28,9.88,0,0-1.41-1.27-3.14.04-1.32.99-1.2,2.86-.45,4.52.89,2,3.33,3.48,4.89,2.02Z"/>
                    <path class="cls-44" d="M51.55,155.67c1.11.41,2.31.48,3.47.35.58-.05,1.15-.23,1.73-.36.57-.13,1.16-.17,1.67-.38h.02s.09,0,.1.04c0,.02,0,.05,0,.07-.17.32-.49.48-.76.62-.29.14-.59.22-.88.29-.59.11-1.2.18-1.82.22-.62.02-1.24,0-1.84-.12-.6-.13-1.19-.3-1.73-.62-.03-.02-.04-.05-.02-.08.01-.03.05-.04.07-.03h0Z"/>
                    <path class="cls-42" d="M40.55,138.48c4.1-8.72,16.93-6.93,16.93-6.93,5.12,2.63,5.46,8.81,3.57,17.73l-.76-6.38s-.39-2.08-1.25-3.65c0,0-.66.86-4.86,1.08-.17,0-.35.01-.52.02-.09,0-.15.01-.15.01-.02,0-.04,0-.06,0-3.93.11-7.53-.56-7.53-.56,0,0-.08,2.39-.65,4.58-.33,1.25.74,8.11.74,8.11,0,0-.13.83-.41.02-.52-1.49-1.09-5.65-4.66-4.2,0,0-1.88-6.6-.39-9.84Z"/>
                    <path class="cls-64" d="M44.59,154.19l-.99-1.78,1.14-.68s-1.3-3.41-3.08-1.82c-1.46,1.31,1.02,5.3,2.93,4.29Z"/>
                  </g>
                  <g>
                    <g>
                      <path class="cls-42" d="M52.17,149.9c.03.45-.55.57-1.28.62-.73.04-1.32,0-1.35-.45-.03-.45.54-.86,1.26-.9.73-.05,1.34.28,1.36.74Z"/>
                      <path class="cls-42" d="M47.14,146.86c0,.07,2.04-.72,2.7-.73.66-.01,3.16.31,3.37.06.2-.25.34-1.09.34-1.09,0,0-3.4-.23-4.1-.03-.47.13-1.5.3-2.03.79-.25.24-.29.75-.28,1Z"/>
                    </g>
                    <g>
                      <path class="cls-42" d="M59.42,149.41c.03.45-.55.57-1.28.62-.73.04-1.32,0-1.35-.45s.54-.86,1.26-.9c.72-.05,1.34.28,1.36.74Z"/>
                      <path class="cls-42" d="M60.2,146.16c0,.07-1.19-.74-1.64-.68s-2.45.92-2.63.7-.45-1.03-.45-1.03c0,0,2.81-.71,3.32-.59.24.06.95.25,1.2.54.27.33.19.79.21,1.05Z"/>
                    </g>
                    <g>
                      <path class="cls-56" d="M56.15,153.79s-1.66.19-1.69-.27c-.03-.46,3.36-1.47,3.6-1.17s-1.2,1.12-1.91,1.44Z"/>
                      <path class="cls-64" d="M55.43,146.86s-.18,2.15.18,2.86c.36.71,2.13,2.17,2.21,2.52.09.35-1.54,1.48-1.66,1.55-.12.07,2.45-.72,2.25-1.52-.2-.8-2.45-2.57-2.58-2.96-.13-.39-.4-2.45-.4-2.45Z"/>
                    </g>
                  </g>
                </g>
                <g>
                  <g>
                    <path class="cls-41" d="M61.88,146.79s1.11,3.83-2.74,4.04c-3.92.21-3.14-3.84-3.14-3.84,4.2-.79,5.89-.19,5.89-.19Z"/>
                    <path class="cls-41" d="M47.61,147.43c4.2-.79,5.89-.19,5.89-.19,0,0,1.11,3.83-2.74,4.04-3.92.21-3.14-3.84-3.14-3.84Z"/>
                  </g>
                  <path class="cls-61" d="M47.35,148.14h0c-.01.67.1,1.68.74,2.42.59.67,1.48.98,2.67.91,1.18-.06,2.04-.46,2.55-1.18.64-.9.57-2.05.47-2.66.22-.11,1.27-.6,1.95-.14-.04.66.02,1.8.74,2.63.59.67,1.48.98,2.67.91,1.18-.06,2.04-.46,2.55-1.18.9-1.26.4-3.03.37-3.11l-.03-.1-.1-.03c-.07-.02-1.78-.6-5.99.18l-.13.02-.03.13s0,.03,0,.05c-.23-.11-1.06-.43-2.1.18l-.03-.09-.1-.03c-.07-.02-1.78-.6-5.99.18l-.13.02-2.93.64.03.64,2.8-.39ZM56.17,147.16c3.43-.63,5.13-.3,5.54-.2.09.38.33,1.72-.34,2.66-.44.62-1.19.96-2.25,1.01-1.06.06-1.85-.21-2.35-.78-.77-.88-.66-2.26-.61-2.7ZM47.79,147.6c3.43-.63,5.13-.3,5.54-.2.09.38.33,1.72-.34,2.66-.44.62-1.19.96-2.25,1.01-1.06.06-1.85-.21-2.35-.78-.77-.88-.66-2.26-.61-2.7Z"/>
                </g>
              </g>
              <g>
                <path class="cls-49" d="M45.73,154.84s.34,5.02-.65,9.11-3.11,6.98-3.11,6.98c0,0,9.81,8.13,11.81,7.83s6.57-8.07,6.57-8.07c0,0-4.75-3.18-4.52-8.73.2-4.84.35-7.53.35-7.53l-10.45.41Z"/>
                <g>
                  <g>
                    <path class="cls-17" d="M59.63,153.36c-1.5-1.15-1.88-4.82-.72-6.66,0,0,.89-1.59,2.79-.81,1.44.59,1.86,2.42,1.68,4.22-.22,2.16-2.1,4.51-3.74,3.26Z"/>
                    <path class="cls-64" d="M60.13,152.5l.37-1.98-1.2-.34s.18-3.62,2.2-2.58c1.66.86.6,5.35-1.37,4.9Z"/>
                  </g>
                  <g>
                    <path class="cls-17" d="M45.38,154.86s.27,4.45,1.69,6.11c1.98,2.31,4.09,4.05,10.16,3.39,8.11-.89,3.83-15.08,3.83-15.08,0,0,.12-5.04-1.32-8.96-1.44-3.92-9.73-4.86-15.93-1.93,0,0-1.6,2.05.28,9.88,0,0-1.41-1.27-3.14.04-1.32.99-1.2,2.86-.45,4.52.89,2,3.33,3.48,4.89,2.02Z"/>
                    <path class="cls-42" d="M56.15,153.79s-4.65-.34-5.73,1.17c-1.08,1.51-2.05,10.57,6.8,10.14s4.1-11.22,3.24-11.44c-.86-.22-4.3.13-4.3.13Z"/>
                    <g>
                      <path class="cls-19" d="M52.43,155.98l6.1-.34s-.21,1.25-.56,1.55c-.99.86-4.57,1.42-5.54-1.2Z"/>
                      <path class="cls-44" d="M52.39,155.96h0c1.93-.2,4.03-.41,6.12-.53.12,0,.22.08.23.2,0,.02,0,.04,0,.05-.06.35-.13.68-.26,1.02-.06.17-.13.34-.25.51-.15.2-.3.27-.47.37-.65.34-1.35.48-2.05.49-.7,0-1.42-.12-2.04-.47-.61-.37-1.08-.89-1.28-1.64ZM52.47,156h0c.26.54.72,1.12,1.31,1.38.59.28,1.26.38,1.91.34.65-.05,1.31-.2,1.86-.51.13-.07.28-.18.33-.26.07-.11.13-.26.19-.41.1-.3.19-.63.25-.95l.22.25c-1.98.1-3.94.12-6.07.15Z"/>
                    </g>
                    <path class="cls-42" d="M40.55,138.48c4.1-8.72,16.93-6.93,16.93-6.93,5.12,2.63,5.46,8.81,3.57,17.73l-.76-6.38s-.39-2.08-1.25-3.65c0,0-.66.86-4.86,1.08-.17,0-.35.01-.52.02-.09,0-.15.01-.15.01-.02,0-.04,0-.06,0-3.93.11-7.53-.56-7.53-.56,0,0-.08,2.39-.65,4.58-.33,1.25.74,8.11.74,8.11,0,0-.13.83-.41.02-.52-1.49-1.09-5.65-4.66-4.2,0,0-1.88-6.6-.39-9.84Z"/>
                    <path class="cls-64" d="M44.59,154.19l-.99-1.78,1.14-.68s-1.3-3.41-3.08-1.82c-1.46,1.31,1.02,5.3,2.93,4.29Z"/>
                  </g>
                  <g>
                    <g>
                      <path class="cls-42" d="M52.17,149.9c.03.45-.55.57-1.28.62-.73.04-1.32,0-1.35-.45-.03-.45.54-.86,1.26-.9.73-.05,1.34.28,1.36.74Z"/>
                      <path class="cls-42" d="M47.14,146.86c0,.07,2.04-.72,2.7-.73.66-.01,3.16.31,3.37.06.2-.25.34-1.09.34-1.09,0,0-3.4-.23-4.1-.03-.47.13-1.5.3-2.03.79-.25.24-.29.75-.28,1Z"/>
                    </g>
                    <g>
                      <path class="cls-42" d="M59.42,149.41c.03.45-.55.57-1.28.62-.73.04-1.32,0-1.35-.45s.54-.86,1.26-.9c.72-.05,1.34.28,1.36.74Z"/>
                      <path class="cls-42" d="M60.2,146.16c0,.07-1.19-.74-1.64-.68s-2.45.92-2.63.7-.45-1.03-.45-1.03c0,0,2.81-.71,3.32-.59.24.06.95.25,1.2.54.27.33.19.79.21,1.05Z"/>
                    </g>
                    <g>
                      <path class="cls-56" d="M56.15,153.79s-1.66.19-1.69-.27c-.03-.46,3.36-1.47,3.6-1.17s-1.2,1.12-1.91,1.44Z"/>
                      <path class="cls-64" d="M55.43,146.86s-.18,2.15.18,2.86c.36.71,2.13,2.17,2.21,2.52.09.35-1.54,1.48-1.66,1.55-.12.07,2.45-.72,2.25-1.52-.2-.8-2.45-2.57-2.58-2.96-.13-.39-.4-2.45-.4-2.45Z"/>
                    </g>
                  </g>
                </g>
                <g>
                  <g>
                    <path class="cls-41" d="M61.88,146.79s1.11,3.83-2.74,4.04c-3.92.21-3.14-3.84-3.14-3.84,4.2-.79,5.89-.19,5.89-.19Z"/>
                    <path class="cls-41" d="M47.61,147.43c4.2-.79,5.89-.19,5.89-.19,0,0,1.11,3.83-2.74,4.04-3.92.21-3.14-3.84-3.14-3.84Z"/>
                  </g>
                  <path class="cls-61" d="M47.35,148.14h0c-.01.67.1,1.68.74,2.42.59.67,1.48.98,2.67.91,1.18-.06,2.04-.46,2.55-1.18.64-.9.57-2.05.47-2.66.22-.11,1.27-.6,1.95-.14-.04.66.02,1.8.74,2.63.59.67,1.48.98,2.67.91,1.18-.06,2.04-.46,2.55-1.18.9-1.26.4-3.03.37-3.11l-.03-.1-.1-.03c-.07-.02-1.78-.6-5.99.18l-.13.02-.03.13s0,.03,0,.05c-.23-.11-1.06-.43-2.1.18l-.03-.09-.1-.03c-.07-.02-1.78-.6-5.99.18l-.13.02-2.93.64.03.64,2.8-.39ZM56.17,147.16c3.43-.63,5.13-.3,5.54-.2.09.38.33,1.72-.34,2.66-.44.62-1.19.96-2.25,1.01-1.06.06-1.85-.21-2.35-.78-.77-.88-.66-2.26-.61-2.7ZM47.79,147.6c3.43-.63,5.13-.3,5.54-.2.09.38.33,1.72-.34,2.66-.44.62-1.19.96-2.25,1.01-1.06.06-1.85-.21-2.35-.78-.77-.88-.66-2.26-.61-2.7Z"/>
                </g>
              </g>
            </g>
          </g>
          <g>
            <path class="cls-61" d="M151.11,144.36c3.96,8.1,2.52,16.71-2.88,25.69,0,0,30.77-6.1,32.94-1.18s1.24,12.35,6.08,13.58c4.84,1.23,33.24-3.99,33.24-3.99,0,0-20.96-4.65-23.69-8.35-2.73-3.7-3.64-17.86-8.74-20.68-5.1-2.82-36.97-5.07-36.97-5.07Z"/>
            <path class="cls-18" d="M187.37,152.63c-2.8,4.91-6.14,10.35-6.42,15.91.08.1.17.21.22.33,2.18,4.92,1.24,12.35,6.08,13.58,4.19,1.06,25.99-2.7,31.8-3.73-8.78-.69-20.17-4.18-23.72-6.91-2.85-2.62-3.9-19.27-7.97-19.17Z"/>
            <path class="cls-42" d="M135.06,372.86c-.08,1-3.75.71-3.67-.29l18.04-230.62c.2-2.53,3.88-2.24,3.67.29l-18.04,230.62Z"/>
          </g>
        </g>
        <polygon class="cls-2" points="416.71 192.86 422.6 204.78 435.76 206.69 426.24 215.97 428.48 229.08 416.71 222.89 404.95 229.08 407.19 215.97 397.67 206.69 410.83 204.78 416.71 192.86"/>
        <circle class="cls-23" cx="168.61" cy="222.24" r="14.69"/>
        <rect class="cls-33" x="196.64" y="128.48" width="27.24" height="27.24" transform="translate(-38.89 190.3) rotate(-45)"/>
        <g>
          <circle class="cls-2" cx="271.16" cy="197.19" r="2.7"/>
          <path class="cls-2" d="M283.05,197.19c0,1.49-1.21,2.7-2.7,2.7s-2.7-1.21-2.7-2.7,1.21-2.7,2.7-2.7,2.7,1.21,2.7,2.7Z"/>
          <circle class="cls-2" cx="289.53" cy="197.19" r="2.7"/>
          <path class="cls-2" d="M301.42,197.19c0,1.49-1.21,2.7-2.7,2.7s-2.7-1.21-2.7-2.7,1.21-2.7,2.7-2.7,2.7,1.21,2.7,2.7Z"/>
          <path class="cls-2" d="M310.6,197.19c0,1.49-1.21,2.7-2.7,2.7s-2.7-1.21-2.7-2.7,1.21-2.7,2.7-2.7,2.7,1.21,2.7,2.7Z"/>
        </g>
        <g>
          <path class="cls-54" d="M42.48,169.84c11.19,26.67,7.42,94.44.82,99.27-2.01.66-20.16-2.97-20.98-5.97s9.59-30.67,9.08-41.02c-.51-10.34-12.32-32.62-9.83-40.54,2.5-7.91,20.91-11.74,20.91-11.74Z"/>
          <g>
            <path class="cls-49" d="M13.59,277.85c.06-.97-.19-4.64-.66-5.95-1.66-4.55-7.4-6.02-9.7-4.26-1.46,1.12-4.43,10.62-2.69,15.77.11.33.34.51.57.57.05.88.13,1.58.24,1.89.24.68.91.77,1.25.37.11.57.25,1,.33,1.23.31.85,1.23.87,1.35.06.26-1.77.23-2.95.5-4.18.19-.85.78-2.65.86-2.65-.17.75-.32,1.56-.45,2.36-.31,2.01.14,4.12.39,4.71.35.84,1.38.75,1.47-.07.19-1.83.2-2.98.48-4.25.26-1.17,1.05-4.65,2.23-6.04.15.26.29.53.41.86.27.72.09,1.45.31,3.27.16,1.29,1.7,2.66,2.18.82.21-.8.88-3.51.94-4.54Z"/>
            <path class="cls-54" d="M23.09,178.87c-6.32,6.35-12.32,22.57-15.45,42.03-3.59,22.31-7.18,49.37-7.18,49.37.11,1.39,13.65,3.01,13.54,1.62,0,0,6.4-31.53,10.86-45.34,4.73-14.63,10.5-22.9,14.77-34.81,2.89-8.06-8.19-21.25-16.54-12.86Z"/>
          </g>
          <path class="cls-54" d="M58.5,168.9c6.44,23.76,9.68,78.43,7.61,99.84-1.49,3.24,12.69-5.12,12.69-5.12,0,0-2.12-46.1-3.61-69.07-.34-5.31,2.67-8.18.6-16.56-1.28-5.22-17.29-9.1-17.29-9.1Z"/>
        </g>
        <path class="cls-42" d="M47.59,133.37c0,3.26-2.64,5.9-5.9,5.9s-5.9-2.64-5.9-5.9,2.64-5.9,5.9-5.9c3.26,0,5.9,2.64,5.9,5.9Z"/>
        <g>
          <path class="cls-14" d="M411.17,263.87c-5.51,2.98-12.76-.46-15.96-5.85-3.2-5.38-3.34-12-3.02-18.26.32-6.25.98-12.68-.88-18.66-2.63-8.42-10.56-14.93-19.34-15.86s-17.9,3.76-22.24,11.44"/>
          <g>
            <path class="cls-39" d="M443.01,373.93c0,1.96,51.43,3.55,85.6,3.55s38.16-1.59,38.16-3.55-3.99-3.55-38.16-3.55-85.6,1.59-85.6,3.55Z"/>
            <g>
              <path class="cls-42" d="M504.51,182.59c3.07,17.55-34.96,60.39-45.41,62.49-3.45.7-9.86-5.55-7.53-9.2,17.05-19.88,28.97-47.01,32.97-58.63,1.58-4.61,18.26-4.52,19.98,5.34Z"/>
              <g>
                <g>
                  <path id="SVGID-3" data-name="SVGID" class="cls-44" d="M502.64,339.24l-1.38,27.87s.68,2.46.76,3.29c.08.81-.09,3.22-.09,3.22-.95.73-4.18.89-5.87.38l-.34-.27s-.3.18-2.56.67c-2.3.5-9.29.48-10.41-.39,0,0-1.56-2.83,1.26-3.48,7.07-1.63,8.27-4.21,8.56-6.42.36-2.78-.88-23.14-.88-23.14l10.94-1.72Z"/>
                  <g class="cls-70">
                    <path class="cls-52" d="M491,366.8s1.91-.17,3.11.92c1.13,1.04,2.02,1.92,3.54,1.65,3.9-.69,3.37-3.77,5.22-2.35l.84,8.04-21.91.52-.7-6.1,9.9-2.69Z"/>
                  </g>
                  <g class="cls-73">
                    <path class="cls-65" d="M482.15,373.13s.4,1.05,7.28.86c6.88-.19,7.33-1.75,12.74-1.51l-.07,1.88-20.06,1.39.1-2.62Z"/>
                  </g>
                </g>
                <path class="cls-40" d="M505.5,242.79c-4.41-11.37-18.66-12.46-20.53-1-3.85,23.64,8.02,78.68,6.88,123.04,3.45,2.54,7.67,1.08,10.38.17,1.2-31.32,13.73-95.22,3.27-122.21Z"/>
              </g>
              <g>
                <g>
                  <path id="SVGID-4" data-name="SVGID" class="cls-44" d="M525.14,339.03l6.68,28.38s-.28,2.43-.23,3.25c.05.81.61,3.25.61,3.25,1.07.8,4.35,1.19,5.96.79l.3-.25s.33.2,2.67.85c2.39.66,9.41,1.12,10.4.32,0,0,.76-2.34-2.19-3.19-7.37-2.13-8.63-5.2-9.28-7.45-.81-2.83-3.77-26.09-3.77-26.09l-11.15.14Z"/>
                  <g class="cls-67">
                    <path class="cls-52" d="M542.07,367.81s-1.95-.31-2.97.72c-.97.97-1.72,1.79-3.29,1.42-4.03-.96-4-4.03-5.62-2.72l.45,8.04,22.09,2.03-.28-6.09-10.38-3.39Z"/>
                  </g>
                  <g class="cls-68">
                    <path class="cls-65" d="M551.99,374.78s-.23,1.03-7.18.36c-6.95-.67-7.65-2.26-13.05-2.4l.38,1.9,20.38,2.79-.53-2.65Z"/>
                  </g>
                </g>
                <path class="cls-58" d="M529.36,239.05c-1.68-12.01-20.47-7.07-21.77,4.61-4.09,36.53,17.48,93.85,23.45,122.78,3.56,1.89,7.79.94,10.07-.64-3.71-34.22-8.54-103.86-11.74-126.75Z"/>
              </g>
              <path class="cls-58" d="M490.48,249.81c.15,6.13,6.2,13.18,16.19,12.94s23.06-5.4,22.91-11.53c-.48-19.78-8.68-30.36-18.67-30.12-9.99.24-20.92,8.55-20.43,28.71Z"/>
              <path class="cls-42" d="M487.63,244.3c.09,3.59,10.76,5.15,22.39,4.87,11.63-.28,20.34-2.19,20.25-5.78-.28-11.59-10.39-18.09-22.02-17.8s-20.91,6.9-20.62,18.71Z"/>
              <path class="cls-42" d="M535.44,181.27c-4.41-7.38-25.45-14.24-26.51-14.27-7.35-.21-22.92,9.93-24.6,13.71-1.46,3.29,4.24,31.26,3.61,43.76-.33,6.51-1.16,11.39-1,17.95.15,6.13,43.8,6.22,43.65.09-.12-5.08-3.83-8.82-3.77-14.12.12-10.61,10.52-43.95,8.62-47.12Z"/>
              <g>
                <path class="cls-42" d="M512.5,158.39s8.61-8.83,5.42-22.45c-1.25-5.36-5.72-6.85-5.72-6.85l.44,1.06s-3.78-2.91-7.16-.1c0,0-2.68,8.26-1.83,11.78.85,3.52,8.85,16.55,8.85,16.55Z"/>
                <g>
                  <path class="cls-49" d="M497.21,147.25c-.5-.84-2.17-2.86-3.78-1.64-1.62,1.22-.74,4.84.88,6.25s6.13.83,2.9-4.61Z"/>
                  <path class="cls-64" d="M495.38,149.87c.26-.43.92.46,1.27-.56.12-.36-.28-1.14-.57-1.57-.35-.52-1.51-1.97-2.43-1.11s-.3,3.44.79,4.26c.64.48,1.24.41,1.12.15-.21-.43-.36-.95-.18-1.16Z"/>
                  <path class="cls-45" d="M494.73,148.33c-.29.94.07,1.79.7,2.4-.13-.35-.19-.69-.05-.85.26-.43.92.46,1.27-.56.12-.36-.28-1.14-.57-1.57,0-.01-.02-.02-.02-.04-.57-.2-1.19.29-1.33.63Z"/>
                </g>
                <path class="cls-49" d="M512.48,152.9s.35,11.85,2.21,14.12c6.52,7.96-3.32,12.41-9.03,12.3-7.6-.15-7.5-5.49-3.15-12.25.85-1.33.39-12.85.39-12.85l9.59-1.32Z"/>
                <path class="cls-49" d="M503.19,163.12c4.5-.18,9.15-6.22,9.59-11.05.26-2.91-1.06-5.47-.2-9.41,1.73-8-6.94-9.31-10.4-9.16-4.72.2-7.51,5.33-7.32,10.19,0,0,.18,7.05.38,9.4.58,6.77,3.46,10.22,7.95,10.05Z"/>
                <path class="cls-63" d="M505.83,145.9s.02-.03,0-.03-.02.03,0,.03h0Z"/>
                <g>
                  <path class="cls-19" d="M506.5,154.8c-.11-.38-7.18-.1-7.34.22-.16.32.61,1.69,2.59,1.7,2.29,0,4.86-1.54,4.75-1.91Z"/>
                  <path class="cls-46" d="M506.25,154.87c.08.17.08.09.06.1l-.09-.02c-.07-.01-.15-.02-.23-.03-.16-.02-.32-.03-.49-.04-.33-.02-.66-.03-.99-.03-.67-.01-1.34-.02-2,0-.67.01-1.34.03-2,.07-.33.03-.66.06-.99.11-.08.01-.16.03-.22.05h-.04s.02-.02.02,0c0,.01,0,.03,0,.07,0,.12.08.27.17.4.36.52.97.84,1.6.96.63.11,1.3.03,1.93-.11.64-.14,1.26-.38,1.85-.66.3-.14.59-.29.85-.46.14-.08.27-.18.38-.27.06-.05.11-.1.15-.15.05-.03.03-.12.05.02ZM506.74,154.73c.03.31-.11.37-.16.46-.07.08-.14.14-.21.2-.14.12-.29.21-.44.3-.3.18-.6.34-.92.48-.63.27-1.29.48-1.97.6-.67.11-1.38.16-2.06.01-.68-.14-1.34-.5-1.74-1.1-.1-.15-.19-.31-.22-.52,0-.05,0-.11.02-.18,0-.03.06-.09.1-.11l.08-.03c.09-.03.18-.05.26-.07.34-.06.67-.1,1.01-.13.67-.07,1.34-.13,2.01-.17.67-.04,1.34-.08,2.02-.09.34,0,.67,0,1.02.01.17,0,.34.01.52.03.09,0,.18.02.27.04.04,0,.1.02.15.04.06.04.14,0,.27.23Z"/>
                </g>
                <g>
                  <path class="cls-49" d="M511.94,146.7c.43-.88,1.94-3.02,3.65-1.93,1.71,1.09,1.12,4.77-.39,6.3-1.51,1.53-6.05,1.3-3.26-4.37Z"/>
                  <path class="cls-64" d="M513.97,149.17l-1.31-.46s.19-1.15.45-1.61c.3-.54,1.35-2.09,2.34-1.3.99.79.57,3.41-.46,4.31-.6.53-1.13.62-1.13.62l.12-1.55Z"/>
                </g>
                <g>
                  <g>
                    <path class="cls-42" d="M504.04,149.06c-.01.42.54.51,1.22.53.68.02,1.23-.05,1.24-.47.01-.42-.53-.78-1.21-.79-.68-.02-1.23.31-1.24.74Z"/>
                    <path class="cls-42" d="M508.35,145.51c0,.07-1.98-.47-2.59-.41-.61.06-2.89.66-3.11.44-.22-.22-.45-1.03-.45-1.03,0,0,3.12-.6,3.79-.49.45.08,1.43.12,1.98.55.26.2.36.7.38.95Z"/>
                  </g>
                  <g>
                    <path class="cls-42" d="M497.26,148.87c-.01.42.54.51,1.22.53.68.02,1.23-.05,1.24-.47.01-.42-.53-.78-1.21-.79-.68-.02-1.23.31-1.24.74Z"/>
                    <path class="cls-42" d="M495.1,146.05c0,.07,1.41-.82,1.96-.77.55.04,3.01.85,3.23.62.22-.24.5-1.09.5-1.09,0,0-3.44-.62-4.06-.47-.29.07-1.14.3-1.43.61-.32.35-.19.82-.2,1.1Z"/>
                  </g>
                  <g>
                    <path class="cls-56" d="M500.47,152.84s1.56.11,1.57-.32-3.19-1.24-3.4-.96c-.21.29,1.16,1,1.83,1.27Z"/>
                    <path class="cls-64" d="M500.89,146.35s.25,1.99-.06,2.67c-.31.68-1.9,2.1-1.97,2.43s1.49,1.32,1.61,1.38c.12.06-2.31-.58-2.15-1.34.15-.76,2.19-2.48,2.3-2.85.11-.37.28-2.3.28-2.3Z"/>
                  </g>
                </g>
                <path class="cls-42" d="M512.06,146.48s-1.05-1.38-1.05-3.41,1.3-2.71.18-4.57c-1.05-1.75-4.47-1.01-4.47-1.01,0,0-5.84-3.71-8.72-2-2.88,1.71-3.37,6.71-2.91,10.55,0,0-3.28-8.53,1.31-12.9s13.87-3.95,17.81-.53c3.95,3.41,1.36,12.15,1.36,12.15,0,0-1.42-1.07-3.52,1.71Z"/>
                <path class="cls-42" d="M506.87,137.34s-5.97-3.12-9.79.5c-2.26,2.14-2.78,8.89-2.78,8.89,0,0-3.91-1.24-4.8-6.53-.88-5.29,2.78-9.79,8.83-10.35,0,0-4.54-.45-7.57,3.15,0,0,2.67-5.12,11-4.67,8.33.45,5.1,9,5.1,9Z"/>
                <path class="cls-42" d="M495.78,144.29s-.22-6.2,2.34-7.72c5.15-3.06,8.75.75,8.75.75,0,0-4.36-2.21-7.83.52-1.73,1.37-3.26,6.45-3.26,6.45Z"/>
              </g>
              <path class="cls-54" d="M501.07,168.9c-6.44,23.76-4.83,81.25-7.22,85.55-2.39,4.3-12.69-5.12-12.69-5.12,0,0,1.73-31.8,3.22-54.77.34-5.31-2.67-8.18-.6-16.56,1.29-5.22,17.3-9.1,17.3-9.1Z"/>
              <g>
                <path class="cls-54" d="M517.1,169.84c-11.19,26.67-10.5,80.5-3.9,85.33,2.01.66,20.16-2.97,20.98-5.97s-6.51-16.73-6-27.08c.52-10.34,12.32-32.62,9.83-40.54-2.5-7.91-20.91-11.74-20.91-11.74Z"/>
                <path class="cls-59" d="M538.07,187.34c-1.64-1.28-3.89-1.75-6.15-1.19-2.79.93-4.66,3.73-6.52,5.59-8.31,12.09-6.81,29.09,3.51,38.05-.54-2.62-.85-5.24-.73-7.68.42-8.41,8.31-24.72,9.9-34.78Z"/>
              </g>
            </g>
            <g>
              <path class="cls-54" d="M564.56,200.05s-7.19,5.55-14.41,11.48c-3.35-15.19-8.4-27.37-13.67-32.67-8.34-8.38-19.42,4.8-16.53,12.86,4.27,11.91,16.16,43.53,23.9,45.25,1.61.48,3.18.4,4.53-.3.8-.27,1.64-.66,2.51-1.19,8.27-5.08,20.97-26.76,20.97-26.76l-7.3-8.67Z"/>
              <path class="cls-42" d="M548.77,213.52c-3.08,1.2-9.28,6.9-8.29,7.77.78.69,6.23-5.07,6.23-5.07,0,0-6.47,7.53-3.74,8.75,1.5.67,1.82-5.2,6.53-10.58,0,0,1.09-1.59-.73-.88Z"/>
              <path class="cls-51" d="M566.8,200.99s-4.31-.75-5.47,2.24c-1.16,2.98.08,6.3,4.56,6.3s11.28-5.39,11.28-7.05-10.36-1.49-10.36-1.49Z"/>
            </g>
            <g>
              <g>
                <g>
                  <path class="cls-54" d="M408.81,263.94c-.46.2.12,1.51.58,1.31l4.52-1.99-.58-1.31-4.52,1.99Z"/>
                  <path class="cls-61" d="M593,182.69l.77,1.76c.72,1.65,2.65,2.4,4.3,1.67l5.19-2.28c1.65-.73,2.4-2.65,1.67-4.3l-.77-1.76c-.72-1.65-2.65-2.4-4.3-1.67l-5.19,2.28c-1.65.72-2.4,2.65-1.67,4.3Z"/>
                  <rect class="cls-47" x="572.18" y="176.19" width="11.23" height="5.63" transform="translate(-23.17 247.82) rotate(-23.75)"/>
                  <path class="cls-61" d="M588.23,174.46l-.31-.7c-.58-1.32-2.12-1.92-3.44-1.34l-42.49,18.69c-1.32.58-1.92,2.12-1.34,3.44l.31.7,47.27-20.79Z"/>
                  <path class="cls-61" d="M426.91,249.54l5.29,12.02,167.47-73.67c.51-.22.76-.77.57-1.22l-4.58-10.4c-.2-.45-.77-.63-1.28-.4l-167.47,73.67Z"/>
                  <path class="cls-20" d="M427.74,251.44l3.61,8.22,167.47-73.67c.51-.22.81-.65.68-.96l-3.13-7.11c-.14-.31-.66-.37-1.17-.15l-167.47,73.67Z"/>
                  <path class="cls-18" d="M494.18,223.25h0c.44,1,1.61,1.46,2.62,1.02l72.3-31.8c.23-.1.36-.29.3-.42l-1.38-3.15c-.06-.13-.29-.16-.52-.07l-72.3,31.8c-1.01.44-1.46,1.61-1.02,2.62Z"/>
                  <path class="cls-61" d="M566.48,190.11l3.82,8.69c.64,1.46,2.17,2.26,3.57,1.88,7.93-2.17,15.42-5.47,22.52-9.92,1.23-.77,1.68-2.44,1.04-3.9l-3.83-8.71c-.64-1.44-2.14-2.24-3.53-1.89-7.91,2.03-15.42,5.4-22.57,9.96-1.22.78-1.66,2.44-1.02,3.89Z"/>
                  <path class="cls-60" d="M433.15,247.94l4.43,10.07c.56,1.28,2.35,1.79,4.14,1.17,18.2-6.37,35.92-14.17,53.28-23.45,1.68-.9,2.51-2.56,1.95-3.84l-4.44-10.09c-.56-1.27-2.32-1.79-4.09-1.18-18.07,6.14-35.83,14.04-53.34,23.49-1.66.9-2.49,2.56-1.93,3.83Z"/>
                  <path class="cls-44" d="M412.53,262.11l14.65-12.18,4.96,11.26-18.88,2.57c-.44.19-1.16-1.45-.72-1.65Z"/>
                </g>
                <g>
                  <path class="cls-51" d="M447.76,257.52c-.75-1.51-1.41-4.06-1.07-4.9s1.6-.99,2.16-.3,1.94,3.67,1.93,5.01c0,.38-.28.88-1.17,1.19s-1.64-.57-1.85-.99Z"/>
                  <path class="cls-51" d="M450.63,256.82c-.2-1.67-.28-4.3.33-4.98.61-.68,1.95-.41,2.24.43s.79,4.12.34,5.38c-.13.35-.56.73-1.5.73-.94,0-1.35-1.08-1.41-1.55Z"/>
                  <path class="cls-51" d="M453.82,256.46c-.29-1.56-.52-4.03,0-4.69.53-.66,1.55-.5,1.88.27.33.77,1.24,3.87.89,5.07-.1.34-.48.71-1.35.75-.88.04-1.33-.95-1.41-1.4Z"/>
                  <path class="cls-51" d="M456.49,255.39c-.41-1.65-.73-3.45-.92-4.58-.13-.73,1.42-1.06,2.04-.18.45.63,1.43,3.22,1.36,4.33-.02.31-.06.78-.81.93-.75.15-1.57-.11-1.67-.5Z"/>
                </g>
              </g>
              <path class="cls-51" d="M579.63,196.86c-.51.72-1.32,1.61-2.19,2.49,0-1.31-.11-2.9-.33-3.75-.37-1.41-2.05-1.11-1.98,1.83.07,2.94-.62,3.34-.62,3.34,0,0-.06.04-.16.11.17-1.26.08-4-.25-5.23-.37-1.41-1.92-1-1.85,1.94.07,2.94-.75,3.23-.75,3.23,0,0-.02.01-.04.03.09-1.18,0-3.12-.25-4.06-.32-1.21-1.54-.8-1.47,1.7.06,2.51-.75,2.71-.75,2.71,0,0-2.16,1.46-2.06,1.52,1.42.91,7.51,1.85,8.68,1.16,2.69-1.58,6.4-6.38,6.78-7.33.54-1.36-1.05-2.12-2.74.29Z"/>
            </g>
          </g>
        </g>
        <g>
          <g>
            <path class="cls-60" d="M264.8,211.63c.32-.2.66-.27,1-.36.35-.05.69-.12,1.06-.06.43.07.65.39.51.73-.06.14-.17.26-.31.34-.32.2-.65.27-.99.36-.34.05-.68.11-1.05.06-.42-.06-.67-.39-.54-.72.06-.14.17-.26.31-.34Z"/>
            <path class="cls-60" d="M268.73,210.89c.33-.18.67-.24,1.02-.31.35-.03.7-.08,1.06,0,.42.09.63.42.48.75-.07.14-.18.25-.33.33-.33.18-.67.24-1,.31-.34.03-.69.08-1.05,0-.42-.09-.65-.42-.5-.75.06-.14.18-.25.32-.33Z"/>
            <path class="cls-60" d="M272.68,210.35c.33-.16.68-.2,1.03-.25.35-.02.7-.04,1.06.05.42.11.61.46.44.77-.07.13-.2.24-.34.31-.33.16-.68.2-1.02.25-.35.02-.69.04-1.05-.05-.42-.11-.63-.45-.46-.77.07-.13.19-.24.34-.31Z"/>
            <path class="cls-60" d="M279.76,209.85c.35-.14.7-.17,1.05-.2.35.02.7.03,1.05.16.41.15.58.52.38.82-.08.12-.21.22-.37.27-.35.13-.69.13-1.04.15-.35,0-.69,0-1.04-.11-.41-.13-.59-.49-.4-.8.08-.13.21-.23.36-.29Z"/>
            <path class="cls-60" d="M284.8,209.82c.21-.13.43-.13.64-.15.21.02.42.04.63.18.4.27.44.72.1,1-.04.03-.09.07-.14.09-.21.12-.42.11-.63.13-.21-.02-.42-.03-.62-.16-.4-.25-.45-.69-.11-.99.04-.04.09-.07.14-.1Z"/>
            <path class="cls-60" d="M289.06,210.05c.22-.11.43-.11.64-.12.21.03.42.05.62.19.39.27.41.71.05,1-.04.03-.09.07-.14.09-.22.12-.43.11-.64.12-.21-.03-.42-.05-.61-.19-.39-.27-.42-.71-.07-.99.04-.04.09-.07.14-.09Z"/>
          </g>
          <g>
            <path class="cls-60" d="M231.52,228.66c2.14-2.03,4.45-3.87,6.85-5.59,2.4-1.71,4.94-3.23,7.53-4.65,2.63-1.34,5.31-2.59,8.09-3.59l2.08-.76,2.12-.64c1.4-.46,2.84-.78,4.27-1.12.4-.1.77.07.83.36.06.29-.19.59-.56.69-1.4.39-2.8.76-4.17,1.24l-2.07.68-2.03.78c-2.72,1.01-5.34,2.26-7.9,3.59-2.55,1.37-5.05,2.83-7.42,4.5-2.37,1.66-4.7,3.4-6.88,5.32-.31.26-.71.29-.9.06-.19-.22-.11-.61.18-.87Z"/>
            <path class="cls-60" d="M230.68,230.75c-.12.29-.33.5-.53.71-.23.18-.43.39-.73.51-.41.16-.78-.01-.83-.39-.02-.12,0-.25.05-.38.12-.3.32-.52.52-.74.23-.19.45-.39.75-.5.42-.15.78.03.82.41.01.12-.01.25-.06.38Z"/>
            <path class="cls-60" d="M228.32,233.1c-.11.29-.3.51-.49.74-.21.2-.41.41-.7.54-.4.18-.78.02-.85-.36-.02-.12,0-.25.04-.38.11-.3.3-.53.49-.76.21-.21.42-.42.72-.54.41-.17.79,0,.84.38.02.12,0,.25-.05.37Z"/>
            <path class="cls-60" d="M226.08,235.56c-.68.97-1.43,1.89-2.14,2.83-.74.92-1.46,1.86-2.24,2.75-.27.3-.66.37-.87.15-.18-.18-.18-.5-.02-.78.59-1.06,1.31-2.03,2.03-2.99.76-.93,1.53-1.86,2.42-2.68.3-.28.69-.31.88-.07.15.2.12.52-.06.78Z"/>
            <path class="cls-60" d="M220.02,243.63c.01.22-.08.37-.15.53-.11.14-.2.29-.4.37-.46.19-.88-.04-.93-.54v-.03c-.02-.22.07-.38.15-.54.11-.14.22-.29.42-.37.47-.19.87.07.92.55v.03Z"/>
            <path class="cls-60" d="M218.24,246.7c.03.21-.05.37-.11.53-.1.15-.18.3-.37.39-.43.22-.88.05-.97-.46v-.03c-.04-.22.04-.39.11-.56.1-.15.19-.31.39-.41.45-.22.88,0,.95.49v.03Z"/>
          </g>
        </g>
      </g>
    </g>
  </g>
</svg>