<?xml version="1.0" encoding="UTF-8"?>
<svg xmlns="http://www.w3.org/2000/svg" viewBox="0 0 500 500">
  <defs>
    <style>
      .cls-1 {
        fill: none;
        stroke: #f5a79e;
        stroke-linecap: round;
        stroke-linejoin: round;
      }

      .cls-1, .cls-2, .cls-3, .cls-4, .cls-5, .cls-6, .cls-7, .cls-8, .cls-9, .cls-10, .cls-11, .cls-12 {
        stroke-width: 0px;
      }

      .cls-2 {
        fill: #005461;
      }

      .cls-3 {
        fill: #c7c7c7;
      }

      .cls-13 {
        opacity: .4;
      }

      .cls-4 {
        fill: #fff;
      }

      .cls-5 {
        fill: #263238;
      }

      .cls-6 {
        opacity: .06;
      }

      .cls-7 {
        opacity: .5;
      }

      .cls-8 {
        fill: #ff6366;
      }

      .cls-9 {
        fill: #dbdbdb;
      }

      .cls-10 {
        fill: #ebebeb;
      }

      .cls-11 {
        fill: #f7a9a0;
      }

      .cls-12 {
        fill: #ffbe9d;
      }
    </style>
  </defs>
  <g id="Background_Complete" data-name="Background Complete">
    <g>
      <rect class="cls-10" x="62.77" y="59.04" width="35.16" height="11.19"/>
      <rect class="cls-10" x="304.76" y="191.56" width="35.16" height="11.19"/>
      <path class="cls-10" d="M78.32,44.93c-5.84.1-20.81.35-26.45.41l-8.71.04.46-.46.04,11.19-.5-.5c5.84.02,20.73.07,26.37.15l8.79.11-.24.24.24-11.19h0ZM78.32,44.93l.24,11.19v.23s-.24,0-.24,0c-4.39.06-13.19.16-17.58.19l-17.58.07h-.5s0-.5,0-.5l.04-11.19v-.46s.46,0,.46,0l8.87.04c5.6.06,20.51.31,26.29.41h0Z"/>
      <path class="cls-10" d="M177.81,285.98c-5.84.1-20.81.35-26.45.41l-8.71.04.46-.46.04,11.19-.5-.5c5.84.02,20.73.07,26.37.15l8.79.11-.24.24.24-11.19h0ZM177.81,285.98l.24,11.19v.23s-.24,0-.24,0c-4.39.06-13.19.16-17.58.19l-17.58.07h-.5s0-.5,0-.5l.04-11.19v-.46s.46,0,.46,0l8.87.04c5.6.06,20.51.31,26.29.41h0Z"/>
      <path class="cls-10" d="M158.2,271.87c-5.84.1-20.81.35-26.45.41l-8.71.04.46-.46.04,11.19-.5-.5c5.84.02,20.73.07,26.37.15l8.79.11-.24.24.24-11.19h0ZM158.2,271.87l.24,11.19v.23s-.24,0-.24,0c-4.39.06-13.19.16-17.58.19l-17.58.07h-.5s0-.5,0-.5l.04-11.19v-.46s.46,0,.46,0l8.87.04c5.6.06,20.51.31,26.29.41h0Z"/>
      <rect class="cls-10" x="103.51" y="285.98" width="35.16" height="11.19"/>
      <rect class="cls-10" x="421.68" y="44.93" width="35.16" height="11.19"/>
      <rect class="cls-10" x="402.07" y="390.48" width="35.16" height="11.19"/>
      <path class="cls-10" d="M456.84,376.37c-5.84.1-20.81.35-26.45.41l-8.71.04.46-.46.04,11.19-.5-.5c5.84.02,20.73.07,26.37.15,0,0,8.79.11,8.79.11l-.24.24.24-11.19h0ZM456.84,376.37l.24,11.19v.23s-.24,0-.24,0c-4.39.06-13.19.16-17.58.19l-17.58.07h-.5s0-.5,0-.5l.04-11.19v-.46s.46,0,.46,0l8.87.04c5.6.06,20.51.31,26.29.41h0Z"/>
      <path class="cls-10" d="M97.93,390.48c-5.84.1-20.81.35-26.45.41l-8.71.04.46-.46.04,11.19-.5-.5,17.58.07c4.38.03,13.2.14,17.58.19l-.24.24.24-11.19h0ZM97.93,390.48l.24,11.19v.23s-.24,0-.24,0c-4.39.06-13.19.16-17.58.19l-17.58.07h-.5s0-.5,0-.5l.04-11.19v-.46s.46,0,.46,0l8.87.04c5.6.06,20.51.31,26.29.41h0Z"/>
    </g>
    <g>
      <path class="cls-10" d="M202.07,120.15l-1.82,13c-.78,5.59-5.57,9.21-11.17,8.42-5.19-.73-9.21-5.57-8.42-11.17l2.91-20.8c.03-.2.23-.17.26-.37q-.18-.22-.15-.43c.73-5.2,5.97-9.16,11.17-8.43,12.6,1.76,24.2-6.81,25.94-19.21,1.76-12.6-7.07-23.83-19.67-25.59-8.2-1.15-16.01,2.25-20.74,8.31-3.46,4.41-9.69,5.17-14.1,1.7-4.21-3.44-4.99-9.46-1.52-13.87,8.93-11.39,23.7-17.89,39.1-15.74,23.2,3.25,39.57,24.71,36.32,47.9-2.77,19.8-18.89,34.47-38.11,36.26ZM195.94,163.94l-.5,3.6c-.78,5.6-5.57,9.21-11.17,8.43-5.19-.73-9.21-5.57-8.42-11.17l.5-3.6c.76-5.4,5.97-9.15,11.17-8.42,5.6.78,9.19,5.77,8.43,11.17Z"/>
      <path class="cls-10" d="M105.19,182.39l2.92,10.6c1.26,4.56-1.23,8.93-5.79,10.18-4.23,1.17-8.93-1.23-10.18-5.78l-4.67-16.95c-.04-.16.12-.2.08-.37q-.21-.11-.26-.28c-1.17-4.24,1.55-9.02,5.78-10.19,10.27-2.83,16.34-13.27,13.56-23.37-2.83-10.27-13.34-15.96-23.61-13.14-6.68,1.84-11.56,7.05-13.18,13.27-1.2,4.54-5.73,7.19-10.27,5.98-4.38-1.24-6.98-5.62-5.77-10.15,3.08-11.72,12.28-21.62,24.83-25.08,18.91-5.21,38.61,5.85,43.82,24.76,4.44,16.14-3.08,32.77-17.25,40.52ZM115.01,218.09l.81,2.93c1.26,4.57-1.22,8.93-5.79,10.19-4.23,1.17-8.93-1.23-10.18-5.79l-.81-2.93c-1.21-4.4,1.55-9.01,5.78-10.18,4.57-1.26,8.98,1.38,10.19,5.78Z"/>
      <path class="cls-9" d="M156.92,230.09l-.43,8.14c-.19,3.5-2.95,5.99-6.46,5.8-3.25-.17-5.99-2.95-5.8-6.45l.69-13.02c0-.12.13-.12.14-.24q-.12-.13-.11-.26c.17-3.26,3.2-5.98,6.45-5.81,7.89.42,14.6-5.5,15.01-13.26.42-7.88-5.64-14.35-13.53-14.77-5.13-.27-9.78,2.25-12.38,6.25-1.91,2.91-5.71,3.71-8.63,1.8-2.79-1.9-3.59-5.59-1.68-8.49,4.91-7.52,13.7-12.33,23.33-11.82,14.52.77,25.78,13.16,25.02,27.68-.66,12.39-9.84,22.32-21.62,24.46ZM155.47,257.5l-.12,2.25c-.19,3.51-2.95,6-6.46,5.81-3.25-.17-5.99-2.95-5.8-6.46l.12-2.25c.18-3.38,3.2-5.98,6.45-5.8,3.51.19,5.99,3.08,5.81,6.45Z"/>
    </g>
    <g>
      <g>
        <rect class="cls-4" x="317.91" y="82.18" width="80.02" height="80.02"/>
        <path class="cls-9" d="M313.74,78.02v88.34h88.34v-88.34h-88.34ZM397.93,162.2h-80.02v-80.02h80.02v80.02Z"/>
        <rect class="cls-10" x="347.15" y="101.69" width="27.66" height="62.37" transform="translate(493.85 -228.12) rotate(90)"/>
        <rect class="cls-3" x="341.94" y="106.21" width="31.96" height="31.96" transform="translate(480.1 -235.73) rotate(90)"/>
        <rect class="cls-3" x="402.09" y="78.01" width="3.41" height="88.35"/>
      </g>
      <g>
        <rect class="cls-4" x="359.26" y="199.77" width="80.02" height="80.02"/>
        <rect class="cls-3" x="373.02" y="212.57" width="20.89" height="60.36"/>
        <path class="cls-9" d="M355.1,195.6v88.34h88.34v-88.34h-88.34ZM439.28,279.79h-80.02v-80.02h80.02v80.02Z"/>
        <rect class="cls-10" x="383.3" y="223.8" width="31.95" height="31.95"/>
        <rect class="cls-3" x="443.45" y="195.6" width="3.41" height="88.35"/>
      </g>
    </g>
  </g>
  <g id="Table">
    <polygon class="cls-5" points="47.44 437.74 98.08 437.5 148.72 437.41 250 437.24 351.28 437.41 401.92 437.49 452.56 437.74 401.92 437.98 351.28 438.07 250 438.24 148.72 438.07 98.08 437.98 47.44 437.74"/>
  </g>
  <g id="Character">
    <g>
      <g>
        <path class="cls-12" d="M287.78,243.22c50.46,52.72,113.29,162.97,100.94,184.95-13.76,24.47-84.03-49.43-83.69-53.68.26-3.21-23.85-69.97-42.16-118.53-18.3-48.52,12.44-25.77,24.92-12.74Z"/>
        <g>
          <path class="cls-2" d="M304.55,374.56c-2.07-7.13-34.91-95.18-44.26-123-9.35-27.83-.17-36.26,27.34-10.48,27.51,25.77,87.35,111.39,100.63,156.55,12.79,43.5-9.51,43.17-38.62,22.76-23.84-16.7-45.09-45.83-45.09-45.83Z"/>
          <path class="cls-4" d="M258.08,229.68c-.19-.07-.38-.14-.58-.23.08-.25.18-.48.31-.71.38.15.77.29,1.16.42,3.15,1.01,7.01,1.33,9.77-.84.32-.25.61-.53.86-.82.25.12.5.25.76.38-2.82,3.38-8.24,3.28-12.28,1.8ZM279.83,234.28c-.26-.21-.52-.41-.77-.61-.44.21-.88.41-1.32.6-6.3,2.77-14.08,5.56-19.53,10.24.08.31.16.63.24.95,2.81-2.56,6.26-4.51,9.64-6.1,3.85-1.81,7.88-3.28,11.74-5.08ZM286.84,253.04c1.85-2.27,3.87-4.63,6.16-6.6-.2-.22-.41-.43-.61-.64-5.75,5.01-9.87,12.64-15.34,17.49-2.84,2.53-6.61,5.06-10.56,6.05.09.26.18.52.28.78,2.74-.72,5.37-2.12,7.61-3.67,5.16-3.56,8.57-8.61,12.46-13.41ZM315.25,272.84c-8.32,11.29-23.41,14-36.65,16-1.6.24-3.2.5-4.8.82.11.29.21.59.32.89,5.59-1.14,11.34-1.62,16.9-2.89,9.27-2.12,18.98-6.51,24.81-14.07h0c-.2-.26-.39-.5-.58-.75ZM326.58,370.17c-5.72-1.43-10.92.47-15.95,3.13-1.65.88-3.32,1.81-5.02,2.68.17.22.36.47.57.74,6.78-3.49,13.31-7.84,21.12-5.3,2.55.83,4.99,2.46,5.99,5.04,1.3,3.31-.16,6.76-2.47,9.21-3.23,3.41-7.64,4.77-11.91,6.38.24.27.49.55.74.83,1.22-.48,2.45-.95,3.69-1.44,5.09-2.01,11.07-5.72,11.44-11.84.29-4.97-3.73-8.32-8.2-9.43ZM306.68,309.16c4.04-5.69,7.75-11.6,11.78-17.3,1.74-2.47,3.57-5,5.57-7.37-.19-.26-.38-.51-.57-.77-1.07,1.26-2.08,2.55-3.06,3.85-4.06,5.39-7.7,11.08-11.48,16.66-5.7,8.41-12.39,17.88-21.17,23.71.11.31.22.61.34.92,7.51-4.98,13.56-12.63,18.59-19.7ZM308.72,324.19c-.73,4.79,1.61,10.07,5.6,12.81,4.66,3.2,9.87,1.23,13.18-2.87,1.96-2.42,3.37-5.2,5.12-7.76,2.02-2.97,4.45-5.72,7.33-7.87,1.69-1.26,3.58-2.3,5.56-3.03l-.57-.87c-1.24.47-2.43,1.06-3.56,1.75-5.65,3.44-9.09,8.75-12.55,14.2-1.78,2.78-3.92,5.74-7.21,6.79-2.89.92-5.84-.14-7.99-2.15-4.8-4.48-5.11-11.37-1.49-16.64,3.84-5.58,10.47-8.58,16.72-10.56,3.2-1.01,6.5-1.86,9.73-2.89-.18-.27-.37-.54-.55-.81-6.5,2.09-13.43,3.55-19,6.85-4.79,2.83-9.44,7.3-10.32,13.05ZM361.68,341.5c-2.63,3.31-6.05,6.08-9.5,8.32-5.84,3.78-12.63,6.37-19.6,6.88-7.04.52-13.75-1.34-19.28-5.77-4.75-3.82-8.99-8.56-15.3-9.6-1.78-.3-3.6-.33-5.4-.11.13.35.25.69.38,1.03,2.47-.26,4.98-.03,7.34.76,3.32,1.11,6.06,3.38,8.66,5.63,2.51,2.18,4.99,4.41,7.92,6.01,2.78,1.51,5.84,2.47,8.96,2.91,6.27.86,12.71-.27,18.55-2.59,6.33-2.5,13.24-6.8,17.84-12.5-.19-.32-.38-.64-.57-.97ZM361.73,427.89c.93.5,1.85.97,2.75,1.4,3.13.63,6,1.92,8.8,3.42,1.22.34,2.4.59,3.53.76-3.12-1.81-6.27-3.55-9.71-4.56-1.71-.51-3.53-.87-5.37-1.02ZM366.76,350.36c-.15-.26-.29-.52-.44-.78-8.44,1.81-16.32,7.85-19.46,15.54-2.48,6.07-1.03,12.01,1.62,17.76,1.51,3.28,3.23,6.48,4.33,9.94.99,3.12,1.53,6.38,1.63,9.65.19,6.42-1.42,12.77-4.64,18.03.26.19.52.37.78.54,2.47-4.01,4.04-8.65,4.58-13.51.67-6.03-.19-12.22-2.51-17.84-2.73-6.64-7.37-13.18-5.97-20.72,1.69-9.07,10.62-16.64,20.08-18.61ZM388.82,399.59c-2.74.83-5.51,1.57-8.37,1.93-3.4.42-7.5.27-9.5-2.98-1.44-2.36-1.18-5.39-.4-7.93,1.71-5.54,6.19-8.72,10.42-12.23-.11-.28-.24-.56-.37-.84-2.13,1.75-4.37,3.4-6.29,5.24-3.44,3.3-6,8.54-5.19,13.4,1,6.1,7.2,6.95,12.35,6.15,2.23-.34,4.81-1.1,7.56-1.94-.06-.26-.13-.53-.21-.8Z"/>
        </g>
        <path class="cls-7" d="M349.64,420.39c-23.83-16.71-45.09-45.84-45.09-45.84-2.07-7.12-34.92-95.17-44.26-123-3.45-10.28-4.38-17.92-2.78-22.15l92.13,190.98Z"/>
      </g>
      <g>
        <path class="cls-2" d="M302.93,437.56H108.06s39.86-154.89,105.71-219c8.84-8.6,43.23-7.15,51.15,5.79,29.71,48.57,38.56,212.51,38.01,213.2Z"/>
        <path class="cls-4" d="M278.15,350.78c-7.66,10.88.67,25.7,12.88,28.26,2.64.56,5.15.37,7.57-.25.03.34.06.67.09,1-2.24.58-4.57.8-7.01.42-10.86-1.69-19.98-13.26-17.09-24.28,2.24-8.59,10.96-14.57,19.68-14.84.04.36.09.71.14,1.07-.75.01-1.49.07-2.23.18-5.51.78-10.81,3.88-14.03,8.44ZM116.43,409.99c-.1-.08-.2-.17-.3-.25-.11.33-.21.66-.31.99,7.61,6.29,9.18,17.62,11.62,26.83h1.01c-2.61-9.63-4.03-20.76-12.02-27.57ZM148.97,354.01c5.95-.38,11.99-2.37,15.62-7.36,2.8-3.85,4.26-9.27,2.19-13.77-2.4-5.21-8.26-6.59-13.5-6.46-2.27.05-4.51.27-6.74.52-.14.32-.28.65-.42.98,3.69-.46,7.37-.87,11.02-.37,3.22.44,6.39,1.85,8.19,4.67,1.54,2.43,1.74,5.43,1.1,8.18-1.52,6.55-6.86,10.68-13.22,12.06-5.63,1.22-11.36.56-17.03-.25-.12.31-.24.61-.36.91,4.5.62,8.95,1.16,13.15.89ZM157.36,426.9c-5.68-1.04-14.8,4.42-17.86-3-2.3-5.56.99-11.77,4.52-15.95,4.29-5.07,9.83-8.86,15.3-12.55,10.1-6.83,34.57-27.74,22.89-36.6-10.89-8.25-24.88,15.82-33.07,23.37-7.24,6.66-17.84,12.69-28.2,12.54-.1.3-.2.59-.3.89,10.47.18,20.82-5.78,28.6-12.23,10.24-8.48,20.33-30.53,32.16-23.77,9.82,5.61-8.49,25.28-18.63,32.27-5.11,3.53-10.42,6.84-15.08,10.98-4.12,3.66-8.16,8.18-9.41,13.7-.92,4.08-.45,9.32,3.7,11.46,2.64,1.37,5.63.85,8.42.32,3.51-.68,6.8-1.09,10.06.68,3.4,1.84,5.66,5,6.6,8.55h1.07s-.01-.03-.01-.05c-1.33-5.06-5.49-9.64-10.76-10.61ZM228.65,303.47c-5.13-2.86-11.15-2.59-15.96.79-5.03,3.54-8.07,9.26-10.42,14.78-2.62,6.17-4.97,12.97-10.1,17.57-2.76,2.49-7.11,4.67-10.5,2.02-2.21-1.74-3.05-4.81-3.13-7.52-.19-5.8,3.27-11.28,6.73-15.66,3.58-4.55,7.76-8.58,11.37-13.11,3.35-4.2,6.29-8.99,7.08-14.4.39-2.67.03-5.56-2.19-7.35-1.79-1.44-4.25-1.79-6.49-1.58-5.68.55-10.53,4.68-13.95,8.98-1.94,2.43-3.56,5.09-5.01,7.83-1.55,2.95-2.7,6.1-4.27,9.02-1.82,3.4-4.95,5.05-8.73,3.89-2.59-.8-4.59-2.48-6.15-4.56-.14.29-.28.58-.41.87,2.78,3.41,6.94,6.07,11.37,4.63,2.81-.92,4.32-3.46,5.48-6.01,1.34-2.96,2.64-5.93,4.22-8.77,3.17-5.71,7.58-11.56,13.84-14.09,2.63-1.06,6.01-1.49,8.61-.12,3.63,1.91,3.17,6.37,2.22,9.74-3.18,11.17-13.69,18.23-19.96,27.52-2.88,4.26-5.27,9.4-4.59,14.67.62,4.74,3.98,9.15,9.25,8,6.17-1.34,10.19-7.85,12.7-13.11,2.86-5.96,4.78-12.41,8.85-17.73,4.08-5.34,10.32-8.88,17.09-6.57,7.25,2.47,11.4,9.63,11.67,17.02.5,13.47-8.97,24.62-18.68,32.75-9.32,7.81-19.85,14.17-28.47,22.82-9.53,9.55-15.78,22.12-17.73,35.47-1.21,8.23-1.2,18.13,2.13,26.3h1.26c-1.01-2.43-1.71-4.99-2.18-7.51-2.56-13.74.56-28.62,7.44-40.67,6.63-11.61,17.05-19.56,27.6-27.39,9.28-6.89,18.99-14.07,24.87-24.28,6.21-10.79,7.7-27.26-4.86-34.24ZM261.12,367.06c-.38-6.16-3.2-12-8.43-15.46-4.74-3.15-10.7-3.32-15.51-.23-4.81,3.08-7.92,8.53-9.11,14.02-1.73,7.95-.29,16.11-.13,24.13.15,7.68-.84,15.37-2.88,22.78-2.01,7.3-5.06,14.33-9.05,20.78-.95,1.53-1.97,3.03-3.08,4.48h1.36c3.31-4.4,5.93-9.35,8.08-14.36,2.92-6.78,4.92-13.95,5.91-21.27,1.05-7.72.56-15.29.15-23.03-.39-7.42-.15-15.19,4.18-21.53,3.81-5.58,10.47-9.03,17.08-6.22,6.7,2.83,10.26,9.8,10.45,16.82.4,14.47-9.99,26.62-17.13,38.27-3.4,5.54-6.45,11.4-7.88,17.78-1,4.45-1.13,9.06-.44,13.54h1.02c-.79-5.07-.53-10.3.88-15.31,3.67-13.01,13.24-23.21,19.35-35.04,3.19-6.19,5.62-13.09,5.18-20.15ZM290.17,411.08c-3.72-4.44-9.11-7.39-15.02-6.81-5.4.53-10.14,3.98-11.3,9.45-1.33,6.3,1.99,12.84,5.45,17.89,1.34,1.96,2.86,3.93,4.31,5.95h1.13c-2.72-3.9-5.77-7.6-7.84-11.91-3-6.24-3.97-14.8,3-18.81,5.91-3.41,13.19-1.43,17.9,3.05,5.1,4.86,7.49,11.8,8.91,18.53.63,2.97,1.11,6.04,1.59,9.14h.95c-1.41-9.46-2.83-19.03-9.08-26.48ZM228.7,213.41c-.55.05-1.09.11-1.62.18-2.26,2.69-4.98,5.01-7.82,6.95-4.04,2.75-8.47,4.72-13.12,5.96-.4.46-.81.91-1.22,1.38,1.13-.23,2.25-.52,3.35-.87,7.33-2.32,15.35-7.07,20.43-13.6ZM230.1,241.14c-1.26-2.36-1.45-5.15-.87-7.74,1.12-5.08,5.18-9.98,10.5-10.85,6.89-1.12,12.33,4.94,18.35,7.13,3.06,1.12,6.9,1.45,9.82.08-.11-.24-.23-.47-.34-.69-2.61,1.32-5.87.96-8.59.09-6.12-1.96-11.04-7.63-17.81-7.55-9.05.12-15.9,11.57-11.96,19.64,1.37,2.8,3.95,4.7,6.25,6.7,2.34,2.03,4.25,4.33,5.51,7.18,2.26,5.16,2.46,11.38.17,16.56-2.28,5.16-6.98,8.76-12.7,8.92-5.15.14-10.57-2.21-13.76-6.31-1.56-2-2.53-4.42-2.59-6.97-.09-3.42,1.2-6.74,2.05-10,1.27-4.85,1.46-11.21-4.09-13.43-4.45-1.79-9.72.44-13.2,3.27-4.65,3.77-6.53,9.72-9.13,14.9-2.78,5.53-6.84,10.78-13.45,11.38-.42.04-.83.06-1.24.06-.18.32-.36.65-.55.97.09.01.17.01.26.01,5.34.05,9.8-2.73,12.89-6.98,3.64-5.02,5.2-11.2,8.72-16.3,2.99-4.33,9.43-8.33,14.85-6.62,7.89,2.49,3.93,12.25,2.63,17.71-1.18,4.93-.63,9.58,2.86,13.44,6.43,7.09,18.57,8.03,24.85.3,6.44-7.94,5.06-20.7-2.25-27.61-2.45-2.32-5.55-4.22-7.18-7.29ZM258.83,269.93c5.31,1.99,11.17-.45,15.55-3.48,1.91-1.32,3.57-2.83,5.12-4.47-.08-.29-.16-.58-.24-.86-.71.76-1.45,1.49-2.21,2.17-4.61,4.09-11.63,8.2-17.95,5.8-6.51-2.47-7.89-10.07-5.83-16.04,2.32-6.73,8.69-10.81,14.82-13.69,1.14-.53,2.29-1.04,3.45-1.53-.09-.26-.2-.51-.31-.77-9.38,4.07-19.2,9.34-19.77,20.58-.26,5.24,2.28,10.38,7.37,12.29ZM291.98,324.75c-4.08,3.47-8.65,6.22-13.84,7.65-7.15,1.98-14.4.26-18.94-5.83-2.01-2.69-3.37-5.81-4.36-8.99-1.23-3.97-2.12-8.31-1.03-12.42,1.82-6.9,8.44-11.22,14.88-13.24,5.52-1.74,11.32-2.32,17.04-3.25-.07-.32-.13-.64-.19-.96-2.34.42-4.67.79-6.94,1.13-6.75,1.02-13.68,2.4-19.18,6.7-5.12,4.01-7.72,9.74-6.89,16.25.79,6.18,3.26,12.96,7.69,17.46,4.42,4.49,10.63,5.73,16.67,4.45,5.73-1.22,10.77-4.12,15.25-7.87-.06-.36-.11-.72-.16-1.08Z"/>
      </g>
      <g>
        <g>
          <path class="cls-12" d="M386.9,427.09c-13.97,14.5-41.94,15.79-121.71,18.72-11.04.41-34.86-76.72-23.09-77.76,14.82-1.31,72.61-3.18,76.85-2.78,35.79,3.35,77.42,51.99,67.95,61.82Z"/>
          <g>
            <path class="cls-12" d="M267.77,369.91s-31.43-6.99-49.07-5.55c-23.63,1.93-43.24,13.32-51.17,18.59-16.55,11-48.96,49.05-39.63,60.29,8.44,10.18,39.61-30.38,39.61-30.38,0,0-38.6,36.11-26.18,46.5,12.42,10.39,45.92-38.75,45.92-38.75,0,0-38.83,37.99-24.32,46.68,10.96,6.56,43.81-36.24,43.81-36.24,0,0-33.15,32.89-22.17,40.12,12.13,8,44.93-29.61,44.93-29.61,31.01,13.7,51.38,7.53,65.35,1.42,3.38-1.48-27.08-73.08-27.08-73.08Z"/>
            <g>
              <path class="cls-5" d="M180.05,399.52c-4.69,4.08-9.46,8.17-13.77,12.65-4.31,4.48-8.47,9.12-12.34,13.98-9.5,11.92-13.58,20.88-13.27,20.35,7.39-12.43,22.57-28.71,26.88-33.19,4.3-4.47,8.38-9.16,12.68-13.64.11-.11-.06-.25-.18-.16Z"/>
              <path class="cls-5" d="M196.51,414.79c-5.76,5.47-11.68,10.68-17.2,16.4-5.49,5.69-10.21,11.58-15.29,17.63-.39.47-.01.52.4.07,5.32-5.85,10.7-10.85,16.09-16.63,5.37-5.77,10.56-11.78,16.14-17.35.09-.09-.05-.21-.14-.13Z"/>
              <path class="cls-5" d="M213,425.35c-9.23,7.9-16.99,17.5-24.38,27.09-.37.48.13.5.53.03,7.94-9.16,14.1-16.4,24.12-26.8.16-.16-.08-.49-.28-.32Z"/>
            </g>
          </g>
        </g>
        <g>
          <path class="cls-2" d="M251.3,365.89l55.86,86.2s68.98-6.36,81.86-22.34c8.48-10.52-33.75-63.94-73.58-64.63l-64.14.77Z"/>
          <path class="cls-4" d="M261.12,367.06c.25,3.93-.4,7.82-1.57,11.56l-.67-1.04c.88-3.1,1.35-6.29,1.26-9.61-.02-.73-.08-1.47-.18-2.19h1.04c.05.42.09.85.12,1.28ZM276.13,404.21l.6.92c4.06.08,8.08,1.91,11.07,4.76,5.1,4.86,7.49,11.8,8.91,18.53.71,3.33,1.22,6.78,1.75,10.25l1.24,1.92c-1.61-10.41-2.61-21.26-9.53-29.51-3.51-4.19-8.51-7.06-14.04-6.87ZM352.65,389.69c-1.96-4.79-4.93-9.52-5.91-14.62-.31-.19-.62-.37-.93-.55.41,2.82,1.41,5.61,2.67,8.36,1.51,3.28,3.23,6.48,4.33,9.94.99,3.12,1.53,6.38,1.63,9.65.4,13.17-6.81,26.08-19.95,29.78-11.82,3.33-25.23-1.78-28.54-14.31-1.39-5.25-.94-11.12,1.66-15.93,3.35-6.21,9.55-8.12,15.73-10.57,5.09-2.01,11.07-5.72,11.44-11.84.29-4.97-3.73-8.32-8.2-9.43-5.72-1.43-10.92.47-15.95,3.13-6.11,3.23-12.38,7.26-19.6,5.74-7.01-1.47-12.74-6.97-14.9-13.45h-1.21c2.34,7.35,9.12,13.43,16.76,14.62,13.04,2.03,22.55-13.04,35.62-8.79,2.55.83,4.99,2.46,5.99,5.04,1.3,3.31-.16,6.76-2.47,9.21-5.06,5.34-13,5.64-18.8,9.81-8.23,5.92-9.72,17.95-5.54,26.72,4.93,10.35,17.29,13.87,27.83,11.08,11.93-3.16,19.53-13.76,20.85-25.75.67-6.03-.19-12.22-2.51-17.84ZM378.21,402.58c-.24-.3-.49-.6-.73-.9-2.57-.07-5.09-.8-6.53-3.14-.94-1.54-1.16-3.37-.97-5.17l-.87-.87c-.18,1.22-.19,2.46.01,3.68.79,4.85,4.87,6.37,9.09,6.4ZM367.1,428.91c-4.72-1.4-10.26-1.65-14.82.46-4.86,2.24-6.92,7.02-6.25,12.22.2,1.55.57,3.07.95,4.58.28-.05.56-.11.84-.16-1.02-4.1-1.83-8.19.4-11.92,2.88-4.8,9.3-5.7,14.39-5.11,6.38.74,11.67,4.32,17.15,7.37.37-.18.73-.37,1.09-.55-4.49-2.51-8.82-5.44-13.75-6.89Z"/>
          <g>
            <path class="cls-5" d="M360.13,384.54c-20.04-16.33-26.82-19.16-58.38-19.55-.26,0-.31.33-.05.34,34.61,1.57,50.59,14.36,58.2,19.46.2.13.41-.1.23-.25Z"/>
            <path class="cls-5" d="M327.69,442.38c-5.64-9.81-11.79-19.3-17.97-28.78-6.18-9.49-12.35-18.99-18.77-28.32-3.63-5.27-7.22-10.57-11.03-15.71-.1-.14-.35,0-.26.15,5.62,9.79,11.74,19.33,17.85,28.83,6.12,9.53,12.35,19,18.66,28.4,3.57,5.32,7.23,10.57,11.04,15.71.19.25.66,0,.49-.28Z"/>
          </g>
          <path class="cls-7" d="M321.74,365.64h-.01s-45.97,37.99-45.97,37.99l-24.47-37.75,64.15-.78c.76.01,1.51.05,2.27.1l3.59.39.43.04Z"/>
        </g>
      </g>
      <g>
        <path class="cls-12" d="M190.25,271.84c-8.19,92.46,4.61,166.11,43.42,171.41,25.78,3.52,19.33-74.66,19.27-76.33-.2-5.72-3.18-53.43-21.45-105.32-20.11-57.09-37.58-31.07-41.24,10.24Z"/>
        <g>
          <path class="cls-2" d="M190.25,271.84c-8.19,92.46,4.61,166.11,43.42,171.41,25.78,3.52,29.39-62.41,29.33-64.08-.2-5.72-13.24-65.68-31.52-117.58-20.11-57.09-37.58-31.07-41.24,10.24Z"/>
          <g>
            <path class="cls-5" d="M233.73,268.18c5.65,17.42,10.79,34.99,15.78,52.6,4.75,17.67,9.82,35.32,12.8,53.4-6.77-31.04-20.15-74.91-28.58-106h0Z"/>
            <path class="cls-5" d="M238.51,272.5c1.28,4.96,2.24,10.33,1.06,15.39.15-5.07-.79-10.33-1.06-15.39h0Z"/>
          </g>
          <path class="cls-4" d="M194.34,251.21c-.45.65-.86,1.31-1.26,1.99.21-.93.43-1.84.66-2.73.89-1.21,1.9-2.33,3.1-3.3,3.48-2.83,8.75-5.06,13.2-3.27,5.55,2.22,5.36,8.58,4.09,13.43-.85,3.26-2.14,6.58-2.05,10,.06,2.55,1.03,4.97,2.59,6.97,3.19,4.1,8.61,6.45,13.76,6.31,3.2-.09,6.09-1.26,8.4-3.18.11.31.21.62.31.94-6.61,5.1-16.77,3.64-22.46-2.63-3.49-3.86-4.04-8.51-2.86-13.44,1.3-5.46,5.26-15.22-2.63-17.71-5.42-1.71-11.86,2.29-14.85,6.62ZM203.72,287.94c.39-2.67.03-5.56-2.19-7.35-1.79-1.44-4.25-1.79-6.49-1.58-1.94.18-3.78.79-5.51,1.69-.03.35-.06.7-.08,1.05.64-.36,1.3-.68,1.98-.95,2.63-1.06,6.01-1.49,8.61-.12,3.63,1.91,3.17,6.37,2.22,9.74-2.33,8.18-8.59,14.16-14.23,20.42-.02.45-.03.9-.03,1.34,2.87-3.29,5.92-6.42,8.64-9.84,3.35-4.2,6.29-8.99,7.08-14.4ZM233.51,337.71c6.21-10.79,7.7-27.26-4.86-34.24-5.13-2.86-11.15-2.59-15.96.79-5.03,3.54-8.07,9.26-10.42,14.78-2.62,6.17-4.97,12.97-10.1,17.57-1.12,1.01-2.5,1.97-3.97,2.57.02.36.03.71.05,1.06,5.45-1.9,9.08-7.86,11.41-12.74,2.86-5.96,4.78-12.41,8.85-17.73,4.08-5.34,10.32-8.88,17.09-6.57,7.25,2.47,11.4,9.63,11.67,17.02.5,13.47-8.97,24.62-18.68,32.75-8.87,7.43-18.83,13.55-27.2,21.58.07.47.14.94.22,1.4,5.2-5.11,11.1-9.56,17.03-13.96,9.28-6.89,18.99-14.07,24.87-24.28ZM255.94,387.21c2.96-5.75,5.27-12.11,5.23-18.64,0-.51-.02-1-.05-1.51-.17-2.76-.83-5.45-1.98-7.89-1.41-3.02-3.56-5.66-6.45-7.57-4.74-3.15-10.7-3.32-15.51-.23-4.81,3.08-7.92,8.53-9.11,14.02-1.73,7.95-.29,16.11-.13,24.13.15,7.68-.84,15.37-2.88,22.78-2.01,7.3-5.06,14.33-9.05,20.78-.22.36-.45.71-.68,1.07.27.26.55.51.83.76,2.45-3.69,4.48-7.68,6.21-11.71,2.92-6.78,4.92-13.95,5.91-21.27,1.05-7.72.56-15.29.15-23.03-.39-7.42-.15-15.19,4.18-21.53,3.81-5.58,10.47-9.03,17.08-6.22,6.7,2.83,10.26,9.8,10.45,16.82.4,14.47-9.99,26.62-17.13,38.27-3.4,5.54-6.45,11.4-7.88,17.78-1.36,6.04-1.11,12.36.61,18.29.1.36.22.72.33,1.08.34-.01.68-.03,1.01-.07-2.19-6.76-2.44-14.14-.49-21.07,3.67-13.01,13.24-23.21,19.35-35.04Z"/>
        </g>
      </g>
      <g>
        <path class="cls-5" d="M188.49,284.52c-.11,22.57.47,45.17,2.34,67.66,2.37,28.12,8.98,87.43,44.98,90.22,5.64.34,10.84-.76,15.39-4.29,6.83-4.89,12.54-11.18,18.02-17.54,10.87-12.85,20.73-27.09,29.87-40.94,0,0-2.19-2.23-2.19-2.23l2.27,2.15.03.03c-2.88,4.88-5.93,9.65-9.04,14.39-9.15,13.65-30.26,45.02-45.77,49.49-19,4.21-33.28-8.84-40.95-24.94-16.98-35.93-15.96-94.17-14.96-134h0Z"/>
        <path class="cls-5" d="M186.63,290.11c.48,4.28,1.18,8.41,1.64,12.69-1.47-4.03-2.19-8.42-1.64-12.69h0Z"/>
      </g>
      <g>
        <path class="cls-2" d="M254.48,268s-33.27-30.44-54.12-29.02l-17.19,16.32s-5.75,2.1-7.68-1.52c-4.75-8.97-6.38-30.98,12.11-45.93,16.93-13.68,52.66-12.2,76.59-6.74,22.98,5.24,35.98,18.23,29.49,33.32-6.49,15.09-39.2,33.57-39.2,33.57Z"/>
        <path class="cls-7" d="M256.53,260.94s25.5-19.52,27.83-30.69c2.33-11.17-20.17-20.98-34.61-24.65-22.35-5.67-37.38-3.74-49.39,8.49s56.17,46.85,56.17,46.85Z"/>
        <g>
          <path class="cls-12" d="M260.21,257.22c-11.92,1.5-29.97-18.41-36.31-33.65-.43-1.05,2.2-11.29,4.81-23.89,1.55-7.65,3.1-16.21,3.95-24.12.17-1.62,48.31,17.38,48.31,17.38,0,0-6.66,16.06-8.05,29.86-.1,1.15-.1,2.24,0,3.28,0,.15.02.34.01.55.34,6.27-1.19,29.14-12.72,30.6Z"/>
          <path class="cls-5" d="M267.81,226.33c1.85.24,3.54.34,5.12.28,0-.21-.01-.39-.01-.55-.1-1.04-.09-2.12.02-3.28,1.4-13.79,8.04-29.85,8.04-29.85,0,0-39.08-15.43-46.94-17.3.55,9.3,4.59,46.91,33.78,50.69Z"/>
        </g>
        <g>
          <path class="cls-12" d="M216.88,135.75c-1.25,18.45,19.43,66.11,34.26,74.36,21.51,11.96,50.95,6.73,59.66-17.81,8.44-23.78-19.61-85.42-35.64-92.32-23.62-10.17-56.43,8.51-58.28,35.76Z"/>
          <path class="cls-1" d="M255.49,214.9s-.02-.01,0-.02"/>
          <g>
            <g>
              <path class="cls-5" d="M272.48,155.65c-.08-.11-.19.26-.13.39,1.48,3.17,2.64,7.06.18,9.37-.08.07,0,.23.1.17,3.34-2.02,1.75-7.16-.16-9.93Z"/>
              <path class="cls-5" d="M268.17,153.52c-5.34,1.82-1.31,12.37,3.64,10.68,4.87-1.66.83-12.21-3.64-10.68Z"/>
            </g>
            <g>
              <path class="cls-5" d="M292.36,147.55c-.02-.13.31.06.36.19,1.15,3.31,3.02,6.9,6.39,6.86.11,0,.16.17.04.19-3.8.87-6.24-3.92-6.79-7.24Z"/>
              <path class="cls-5" d="M293.97,143.02c5.1-2.41,9.55,7.97,4.82,10.21-4.65,2.2-9.1-8.19-4.82-10.21Z"/>
            </g>
            <path class="cls-5" d="M263.63,153.94c1.52-.47,2.83-1.16,4.28-1.78,1.64-.7,3.01-1.09,4.02-2.65.54-.84.22-2.26-.54-2.87-1.77-1.4-3.99-1.04-6-.28-2.17.83-3.64,2.02-4.8,4.03-1.13,1.95,1.03,4.16,3.03,3.54Z"/>
            <path class="cls-5" d="M294.24,134.27c-1.55.32-3.04.36-4.61.52-1.77.18-3.16.5-4.8-.37-.88-.47-1.29-1.87-.91-2.77.87-2.09,2.99-2.84,5.11-3.15,2.3-.33,4.16,0,6.15,1.21,1.93,1.16,1.11,4.14-.94,4.56Z"/>
            <path class="cls-5" d="M280.9,185.98c1.08.47,2.26,1.22,3.48.87,1.17-.34,2.31-1.36,3.2-2.17.09-.08.23,0,.21.11-.37,1.58-1.85,3.05-3.47,3.36-1.58.31-2.8-.69-3.68-1.91-.12-.17.1-.34.26-.27Z"/>
            <path class="cls-5" d="M282.92,180.83c3.51-3.25,9.04-4.79,12.57-5.68.36-.2.41-1.08.33-1.46v-.02c-.06-.12-2.9-6.82-2.9-6.82,1.08.1,6.53.39,5.95-.88-4.82-10.5-10.18-22.18-17.19-31.62-.22-.32-.73-.03-.56.31,4.23,10.28,10.24,19.74,14.66,30-1.7.01-4.51-.09-5.8.44-.31.24,3.43,7.07,3.74,8.23,0,0-7.36.59-11.41,6.1-1.05,1.43-1.07,2.95.61,1.4Z"/>
          </g>
          <path class="cls-5" d="M227.51,180.98c8.06-.74,10.37-13.95,10.51-19.2.14-5.25-7.24-24.84-6.28-33,.96-8.16,8.53-13.53,15.2-14.03,6.67-.5,17.42,4.44,21.69,2.35,4.27-2.09,1.7-12.07,4.78-13.24,6.78-2.58,16.02,11.39,20.06,18.36,0,0-8.75-33.96-44.73-24.05-32.81,9.04-34.72,34.83-33.85,45.43,1.65,20.31,12.63,37.37,12.63,37.37Z"/>
          <g>
            <path class="cls-10" d="M275.68,177.23c-6.38,1.84-13.45-.79-16.96-6.78-4.15-7.08-1.76-16.21,5.32-20.36,7.08-4.15,16.21-1.76,20.36,5.32h0c4.14,7.08,1.76,16.21-5.32,20.36-1.09.64-2.23,1.12-3.4,1.46ZM267.99,150.54c-1.01.29-2,.71-2.94,1.26-6.13,3.59-8.2,11.5-4.61,17.64,3.59,6.13,11.51,8.2,17.64,4.61,6.13-3.59,8.2-11.5,4.61-17.64-3.04-5.18-9.16-7.46-14.69-5.87Z"/>
            <path class="cls-10" d="M307.09,163.84c-5.47,1.58-12.05-2.6-15.05-9.75-1.52-3.61-1.92-7.45-1.13-10.81.81-3.47,2.8-6.03,5.58-7.2,2.79-1.18,6-.79,9.05,1.06,2.95,1.79,5.41,4.76,6.92,8.37,3.17,7.56,1.18,15.64-4.45,18.01-.3.13-.61.23-.92.32ZM297.98,137.67c-.24.07-.48.15-.71.25-2.18.91-3.75,2.98-4.42,5.82-.69,2.95-.33,6.36,1.03,9.58,2.75,6.55,8.74,10.32,13.37,8.37,4.62-1.94,6.14-8.85,3.39-15.4-1.36-3.23-3.53-5.87-6.12-7.44-2.22-1.35-4.51-1.76-6.53-1.17Z"/>
            <path class="cls-10" d="M284.6,157.19l-1.77-.91c1.35-2.62,5.17-6.99,10.03-4.81l-.81,1.81c-4.35-1.96-7.32,3.67-7.44,3.91Z"/>
            <path class="cls-10" d="M224.96,186.38l-1.98-.16c.08-.93.83-9.1,4.65-11.49,3.57-2.22,29.12-10.24,30.21-10.57l.59,1.9c-7.33,2.29-26.99,8.64-29.75,10.36-2.52,1.57-3.54,7.72-3.72,9.96Z"/>
          </g>
          <g>
            <path class="cls-12" d="M240.23,174.75s-15.27-13.17-21.52-7.34c-6.25,5.84,8.06,26.92,17.4,27.93,9.34,1.01,10.44-7.62,10.44-7.62l-6.32-12.98Z"/>
            <path class="cls-5" d="M222.96,173.35c-.14.02-.12.22.01.24,6.6.9,11.16,5.65,14.82,10.85-2.34-1.76-5.07-2.36-7.5.51-.13.15.08.36.24.28,2.32-1.15,4.19-1.17,6.35.37,1.52,1.09,2.77,2.65,4.02,4.04.42.46,1.31-.07.95-.63-.03-.04-.06-.08-.08-.13-1.79-7.67-10.43-16.84-18.81-15.53Z"/>
          </g>
        </g>
        <path class="cls-2" d="M256.53,260.94s-27.29-42.86-59.69-46.1l3.52,24.14s19.25-.6,54.12,29.02l2.05-7.06Z"/>
        <g>
          <path class="cls-5" d="M191.68,239.71c5.88-.93,11.79.18,17.39,1.74,5.64,1.58,10.98,4.04,16.1,6.86,5.16,2.75,10.01,6.07,14.77,9.49l6.93,5.43,6.69,5.75.75.65.8-.44c5.96-3.31,11.61-7,17.03-11.06,2.7-2.04,5.37-4.13,7.81-6.48,2.45-2.33,4.82-4.77,6.77-7.53-4.61,4.92-10.09,8.81-15.62,12.55-2.78,1.86-5.64,3.59-8.53,5.27-2.89,1.67-5.8,3.35-8.73,4.87l1.55.2-6.7-5.95c-2.31-1.89-4.67-3.74-7.04-5.56-2.47-1.69-4.91-3.44-7.44-5.04-2.59-1.52-5.13-3.12-7.85-4.4-5.32-2.78-11.03-4.86-16.88-6.2-1.46-.36-2.95-.56-4.43-.81-1.5-.14-2.99-.31-4.49-.33-2.99-.1-6.03.1-8.87,1Z"/>
          <path class="cls-5" d="M183.17,255.3c3.25-2.31,6.21-4.93,9.09-7.63,2.85-2.74,5.62-5.55,8.09-8.69-3.26,2.31-6.21,4.93-9.09,7.63-2.84,2.74-5.62,5.56-8.09,8.69Z"/>
        </g>
        <g>
          <path class="cls-8" d="M244.18,252.4s-1.6,12.67-.41,30.7c.47,7.14,5.43,32.45,13.26,30.84,7.84-1.61-6.49-16.98-9.92-30.26-3.49-13.48-.69-23.46-.91-31.57l-2.02.29Z"/>
          <g class="cls-13">
            <path class="cls-8" d="M244.18,252.4s-1.6,12.67-.41,30.7c.47,7.14,5.43,32.45,13.26,30.84,7.84-1.61-6.49-16.98-9.92-30.26-3.49-13.48-.69-23.46-.91-31.57l-2.02.29Z"/>
          </g>
        </g>
        <g>
          <path class="cls-8" d="M270.92,253.67s4.64,10.61,8.25,26.59c1.43,6.33,3.62,29.62-3.61,30.23-7.23.61,1.28-16.44.86-28.87-.43-12.62-5.43-20.58-7.32-27.69l1.83-.26Z"/>
          <g class="cls-13">
            <path class="cls-8" d="M270.92,253.67s4.64,10.61,8.25,26.59c1.43,6.33,3.62,29.62-3.61,30.23-7.23.61,1.28-16.44.86-28.87-.43-12.62-5.43-20.58-7.32-27.69l1.83-.26Z"/>
          </g>
        </g>
      </g>
      <g>
        <g>
          <path class="cls-12" d="M240.9,437.65c21.27-3.27,56.14-51.21,78.25-106.02,4.21-10.43-76.78-52.6-79.98-41-10.28,37.21-30.41,85.88-29.76,115.91.5,23.35,16.78,33.39,31.49,31.12Z"/>
          <g>
            <g>
              <path class="cls-11" d="M278.78,251.16c-5.17-6.32-5.95-24-10.58-34.42-4.63-10.42-18.17-15.31-20.59-11.48-2.42,3.84,1.16,7.69,2.26,24.81.71,11.01-7.71,33.01-4.12,52.99,1.81,10.04,38.2-25.58,33.03-31.9Z"/>
              <path class="cls-12" d="M278.78,251.16c-5.17-6.32-5.95-24-10.58-34.42-4.63-10.42-18.17-15.31-20.59-11.48-2.42,3.84,1.16,7.69,2.26,24.81.71,11.01-7.71,33.01-4.12,52.99,1.81,10.04,38.2-25.58,33.03-31.9Z"/>
              <path class="cls-6" d="M278.78,251.16c-5.17-6.32-5.95-24-10.58-34.42-4.63-10.42-18.17-15.31-20.59-11.48-2.42,3.84,1.16,7.69,2.26,24.81.71,11.01-7.71,33.01-4.12,52.99,1.81,10.04,38.2-25.58,33.03-31.9Z"/>
            </g>
            <path class="cls-12" d="M319.03,197.39c7.23,6.74-10.91,23.15-10.91,23.15,0,0,6.59-1.78,12.32,1.42,6.56,3.66,3.7,15.55,3.7,15.55,0,0,7.05-.42,12.76,3.57,5.93,4.13,4.75,16.55,4.75,16.55,0,0,6.78,3.22,9.24,10.2,4.22,11.94-8.98,26.28-15.4,36.76-6.87,11.23-15.49,25.18-20.44,32.09l-77.45-39.4s13.27-59.23,23.78-69.37c8.86-8.54,46.6-40.83,57.64-30.52Z"/>
            <g>
              <path class="cls-5" d="M307.78,220.49c-11.59,6.82-21.53,16.4-31.02,25.75-.21.21.12.54.33.33,9.33-9.41,21.4-16.55,31.08-25.57.27-.25-.08-.69-.39-.51Z"/>
              <path class="cls-5" d="M323.17,237.08c-2.58,1.62-4.61,4.09-6.65,6.31-2.2,2.39-4.35,4.83-6.47,7.29-4.24,4.93-8.37,9.97-12.35,15.11-.18.23.13.55.33.32,4.23-4.91,8.54-9.76,12.98-14.48,2.22-2.37,4.46-4.71,6.72-7.04,2.1-2.17,4.49-4.28,6.07-6.88.23-.38-.24-.87-.63-.63Z"/>
              <path class="cls-5" d="M341.47,257.82c-2.3,1.32-4.02,3.99-5.68,6-1.89,2.29-3.78,4.57-5.69,6.83-3.82,4.53-7.64,9.06-11.62,13.46-.2.22.13.55.33.32,4.06-4.45,8.18-8.84,12.21-13.32,1.98-2.2,3.94-4.41,5.89-6.64,1.66-1.89,3.95-4.06,4.81-6.48.05-.14-.12-.25-.24-.18Z"/>
            </g>
            <path class="cls-5" d="M310.39,195.38c-13.15,5.45-28.91,17.02-38.14,24.18-3.41,2.72-6.82,5.49-9.92,8.54-3.06,3.07-5.05,6.98-7,10.85-1.32,2.61-2.46,5.31-3.57,8.04,2-7,4.4-14.44,9.38-20.03,3.05-3.25,6.49-6.08,9.93-8.88,9.31-7.15,18.84-14.39,29.67-19.06l9.65-3.64Z"/>
          </g>
        </g>
        <g>
          <path class="cls-2" d="M222.49,312.26l76.65,67.33s-40.08,64.78-58.76,63.51c-18.69-1.27-38.97-13.37-37.48-58.29.37-11.25,19.59-72.54,19.59-72.54Z"/>
          <path class="cls-4" d="M208.64,361.99c-.32.24-.64.47-.96.72.14-.54.29-1.08.43-1.63,3.55-2.63,7.1-5.27,10.48-8.11,8.53-7.14,16.88-16.62,18.43-27.95l.76.67c-.68,4.26-2.22,8.45-4.27,12.02-5.88,10.21-15.59,17.39-24.87,24.28ZM252.69,351.6c-4.74-3.15-10.7-3.32-15.51-.23-4.81,3.08-7.92,8.53-9.11,14.02-1.73,7.95-.29,16.11-.13,24.13.15,7.68-.84,15.37-2.88,22.78-1.97,7.16-4.94,14.06-8.83,20.41.27.28.55.55.83.81,2.05-3.3,3.79-6.79,5.31-10.32,2.92-6.78,4.92-13.95,5.91-21.27,1.05-7.72.56-15.29.15-23.03-.39-7.42-.15-15.19,4.18-21.53,3.81-5.58,10.47-9.03,17.08-6.22,6.7,2.83,10.26,9.8,10.45,16.82.4,14.47-9.99,26.62-17.13,38.27-3.4,5.54-6.45,11.4-7.88,17.78-1.36,6.04-1.11,12.36.61,18.29.02.08.05.17.08.25.35.06.71.12,1.07.17-2.01-6.59-2.2-13.75-.3-20.48,3.67-13.01,13.24-23.21,19.35-35.04,3.19-6.19,5.62-13.09,5.18-20.15-.38-6.16-3.2-12-8.43-15.46ZM275.15,404.27c-5.4.53-10.14,3.98-11.3,9.45-.82,3.9.14,7.9,1.81,11.57.23-.27.48-.54.72-.81-2.57-6.1-3.02-13.88,3.52-17.64,3.56-2.05,7.62-2.15,11.31-.92.2-.27.39-.54.6-.81-2.09-.75-4.34-1.07-6.66-.84ZM298.31,378.86c-2.33.56-4.75.71-7.28.18-9.44-1.98-16.56-11.28-15.77-20.42l-1.03-.91c-1.55,10.45,7.17,20.9,17.45,22.5,2.59.4,5.04.13,7.41-.53.03-.06.05-.09.05-.09l-.83-.73Z"/>
          <path class="cls-5" d="M221.64,340.11c3.75,3.13,7.25,6.59,10.81,9.93,3.56,3.35,7.1,6.73,10.58,10.16,6.97,6.86,13.91,13.75,20.75,20.73,1.87,1.91,3.74,3.82,5.58,5.77,1.97,2.08,3.68,4.41,5.66,6.47.15.16-.08.4-.25.24-1.74-1.65-3.72-3.06-5.5-4.68-1.84-1.68-3.65-3.4-5.44-5.12-3.52-3.39-7.03-6.8-10.52-10.22-6.98-6.84-13.93-13.73-20.68-20.8-3.81-3.99-7.78-7.91-11.35-12.12-.21-.25.11-.56.36-.35Z"/>
        </g>
        <path class="cls-5" d="M231.17,319.89l-8.86-7.42.43-.12c-4.22,15.88-8.87,31.65-13.23,47.47-1.85,6.88-3.83,13.77-4.98,20.8-1.17,9.09-1.15,18.31-.08,27.5-2.2-9-2.91-18.46-2.1-27.75,2.17-15.35,7.09-30.16,11.67-44.91,2.6-7.95,5.37-15.84,8.36-23.66l.29.26,8.5,7.82h0Z"/>
      </g>
    </g>
  </g>
  <g id="Plant">
    <g>
      <g>
        <g>
          <path class="cls-8" d="M450.93,342.3c-13.11,17.76-26.79,38.37-30.11,60.64-.04.34.5.45.58.11,1.52-6.11,3.45-12.04,5.8-17.83,8.62-2.37,17.08-4.32,21.61-12.88,4.62-8.8,4.03-20.26,3.15-29.85-.06-.51-.76-.54-1.02-.2Z"/>
          <g>
            <path class="cls-4" d="M427.32,385.05c5.89-13.22,13.45-26.49,23.07-37.36.06-.07.17.03.11.11-6.29,7.74-11.08,16.17-15.75,24.75,4.34-4.41,9.1-8.36,13.21-13.03.08-.09.21.04.13.13-4.08,4.9-8.55,10.23-13.86,13.85-1.43,2.63-2.87,5.27-4.33,7.91.36-.2.73-.38,1.09-.56.06-.03.12.06.06.1-.41.21-.81.42-1.23.6-.69,1.25-1.37,2.5-2.09,3.75-.16.28-.54.03-.42-.25Z"/>
            <path class="cls-4" d="M431.7,380.44c3.51-2.02,6.9-4.18,10.07-6.72.09-.07.21.05.12.12-3.11,2.63-6.42,4.98-10.04,6.84-.16.08-.31-.15-.14-.25Z"/>
          </g>
        </g>
        <g>
          <path class="cls-8" d="M419.29,399.63c.03.27.49.26.48-.02.07-7.33,0-14.7.12-22.07,1.88-3.79,5.91-5.89,8.72-8.93,2.02-2.19,3.75-4.67,5.23-7.28,3.47-6.21,5.35-13.18,6.07-20.23.77-7.85-2.2-33.73-5.51-32.83-1.72.47-7.26,13.29-8.74,17.53-2.41,6.97-4.11,14.2-5.22,21.49-2.68,17.26-2.46,34.98-1.15,52.35Z"/>
          <g>
            <path class="cls-4" d="M419.24,367.99s.02-.02.03-.03c.4-9.28,2.49-18.65,4.45-27.65,2.11-9.7,4.57-18.83,9.56-27.47.09-.16.33-.02.25.14-3.4,6.69-5.82,13.79-7.68,21.09.33-.52.74-1.02,1.09-1.51.14-.19.46-.01.32.19-.49.73-.93,1.58-1.56,2.2-.02.02-.04.02-.06.03-1.72,6.93-2.95,14.02-4.01,21.09.08-.09.16-.19.23-.27.05-.06.14.02.11.08-.13.23-.28.47-.42.7-.53,3.59-1.02,7.17-1.52,10.72,6.39-5.46,11.85-11.9,14.93-19.83.01-.04.07-.02.06.02-3.02,8.23-7.77,15.54-15.09,20.54-.13.96-.27,1.91-.4,2.87-.03.2-.34.15-.34-.05,0-.84.04-1.69.08-2.54-.09-.08-.13-.22-.02-.31Z"/>
            <path class="cls-4" d="M422.25,354.54c4.88-7.29,9.45-14.37,13.02-22.42.04-.09.19-.03.16.07-3.01,8.01-7.23,16.12-12.93,22.55-.12.13-.34-.04-.24-.19Z"/>
            <path class="cls-4" d="M428.74,330.32c2.02-3.58,4.16-7.06,6.06-10.71.05-.1.19-.01.15.09-1.6,3.73-3.51,7.52-5.9,10.81-.13.18-.43.02-.31-.18Z"/>
            <path class="cls-4" d="M427.95,331.87s.04.06,0,.06-.04-.06,0-.06Z"/>
          </g>
        </g>
        <g>
          <path class="cls-8" d="M414.33,378.42c-.13,4.86-.65,9.72-1.71,14.45.08.52.15,1.04.23,1.58,1.53-5.26,2.33-10.66,2.58-16.11.08-.15.12-.31.02-.5v-.02c.28-7.27-.4-14.63-1.62-21.82-2.27-13.48-7.23-26.41-16.63-36.52-.3-.31-.89-.15-1.04.21-3.79,9.64-2.47,21.15.76,30.78,1.76,5.18,4.27,10.16,7.45,14.62,3.22,4.53,7.34,8.37,9.96,13.32Z"/>
          <g>
            <path class="cls-4" d="M398.31,324c8.91,14.46,15.11,31.6,15.87,48.68.01.3-.5.38-.54.07-.21-1.53-.45-3.06-.69-4.57,0,0-.01,0-.02,0-3.69-3.53-7.47-7.25-10.11-11.67-.05-.08.07-.17.13-.1,3.21,3.66,6.2,7.42,9.82,10.69-.64-3.78-1.39-7.49-2.29-11.15-.24-.27-.47-.55-.7-.83-.15-.18.1-.45.26-.26.07.08.14.16.21.24-1.26-5.03-2.8-9.95-4.66-14.79-2.27-2.71-4.8-5.04-6.46-8.3-.04-.08.07-.14.12-.07,1.33,1.86,2.61,3.74,4.12,5.47.6.69,1.26,1.33,1.88,2.01-2.03-5.16-4.43-10.23-7.29-15.2-.13-.22.21-.42.34-.2Z"/>
            <path class="cls-4" d="M400.11,341.84c2.88,3.88,6.16,7.57,8.84,11.58.08.11-.09.23-.19.14-3.44-3.23-6.35-7.63-8.85-11.61-.08-.13.11-.23.19-.11Z"/>
            <path class="cls-4" d="M409.35,354.31l.12.12c.09.09-.05.22-.13.13l-.12-.12c-.09-.09.05-.22.13-.13Z"/>
          </g>
        </g>
        <g>
          <path class="cls-8" d="M384.35,351.8c.72,7.44,4.63,16.32,9.4,22.06,2.11,2.54,4.68,4.47,7.62,5.95,3.3,1.63,6.76,3.52,10.17,4.86,1.6,4.08,2.82,8.35,3.6,12.8.11-.37.22-.76.33-1.13-2.19-18.83-14.38-34.93-29.97-45.26-.56-.37-1.22.11-1.16.74Z"/>
          <g>
            <path class="cls-4" d="M389.74,357.36c-.11-.1.04-.29.16-.21,8.26,6.12,15.7,15.04,19.86,24.48.11.26-.24.48-.39.23-.72-1.27-1.46-2.5-2.21-3.72,0,0,0,0-.01,0-3.56-.67-6.93-3.17-9.57-5.55-.07-.06.03-.17.11-.11,1.38,1.22,2.86,2.33,4.5,3.16,1.45.74,3.01,1.2,4.52,1.79-1.32-2.09-2.69-4.1-4.13-6.05-3.83-1.3-7.48-3.66-10.69-6.01-.1-.07-.01-.24.1-.17,3.28,1.97,6.51,3.71,9.94,5.31-2.16-2.86-4.49-5.56-7.02-8.18-1.21-.64-2.44-1.28-3.61-1.96-.1-.06-.03-.22.08-.18.93.31,1.88.8,2.77,1.36-1.41-1.42-2.86-2.83-4.41-4.2Z"/>
            <path class="cls-4" d="M390.07,363.86c.22.14.41.26.6.43.06.05-.02.12-.08.1-.23-.1-.42-.22-.63-.35-.11-.07,0-.24.1-.17Z"/>
          </g>
        </g>
      </g>
      <g>
        <g>
          <polygon class="cls-2" points="439.81 438.24 397.09 438.24 400.54 399.34 401.3 390.76 435.61 390.76 436.36 399.34 439.81 438.24"/>
          <polygon class="cls-5" points="436.36 399.34 400.54 399.34 401.3 390.76 435.61 390.76 436.36 399.34"/>
        </g>
        <rect class="cls-2" x="399.26" y="384.76" width="38.39" height="8.49"/>
      </g>
    </g>
  </g>
  <g id="Speech_Bubble" data-name="Speech Bubble">
    <g>
      <g>
        <path class="cls-4" d="M355.93,133.68c.5,5.77-3.77,10.85-9.54,11.35-5.77.5-10.85-3.77-11.35-9.54s3.77-10.85,9.54-11.35c5.77-.5,10.85,3.77,11.35,9.54Z"/>
        <path class="cls-5" d="M355.93,133.68c.9,9.33-10.19,15.22-17.47,9.25-4.62-3.63-5.27-11-1.33-15.37,6.14-7.13,18.08-3.22,18.8,6.12h0ZM355.93,133.68c-.81-9.12-12.41-12.67-18.14-5.57-3.48,4.09-2.91,10.74,1.22,14.17,6.86,6.02,17.68.52,16.92-8.6h0Z"/>
      </g>
      <g>
        <path class="cls-4" d="M328.15,144.56c.28,3.21-2.1,6.04-5.31,6.32-3.21.28-6.04-2.1-6.32-5.31-.28-3.21,2.1-6.04,5.31-6.32,3.21-.28,6.04,2.1,6.32,5.31Z"/>
        <path class="cls-5" d="M328.15,144.56c.54,5.2-5.75,8.63-9.84,5.3-2.69-2.04-3.07-6.35-.76-8.83,3.47-3.99,10.25-1.69,10.61,3.53h0ZM328.15,144.56c-.88-7.37-11.54-6.39-11.13.96.85,7.32,11.52,6.44,11.13-.96h0Z"/>
      </g>
      <g>
        <path class="cls-4" d="M447.48,88.73c2.04,16.78-9.91,32.03-26.69,34.08-5.5.67-10.84-.17-15.6-2.18-4.05,5.29-10.15,9.01-17.29,9.88-9.38,1.14-18.21-2.95-23.56-9.97-1.1.33-2.26.58-3.44.72-11.42,1.38-21.8-6.74-23.19-18.16-.64-5.32.77-10.41,3.63-14.47-3.37-4.27-5.64-9.47-6.34-15.25-2.04-16.79,9.91-32.05,26.69-34.08,7.64-.92,14.96,1.04,20.87,5.05,4.05-5.06,10.01-8.6,16.96-9.45,12-1.46,23.07,5.61,27.14,16.45,1.05-.36,2.15-.6,3.29-.74,9.22-1.12,17.59,5.45,18.7,14.65.62,5.05-1.08,9.86-4.26,13.34,1.59,3.09,2.65,6.5,3.09,10.14Z"/>
        <path class="cls-5" d="M447.48,88.73c1.33,10.7-3.26,21.71-11.92,28.18-8.5,6.57-20.54,8.13-30.44,3.88l.21-.06c-4.79,6.36-12.62,10.25-20.59,10.2-7.99.06-15.81-3.86-20.65-10.21,0,0,.34.11.34.11-1.56.48-3.18.76-4.82.84-17.61,1.1-28.75-18.84-18.64-33.31,0,0,.01.54.01.54-15.1-18.93-3.13-47.36,20.91-50.01,7.27-.84,14.81,1.05,20.83,5.19l-.41.06c12.49-15.59,37.48-11.58,44.48,7.14,0,0-.19-.09-.19-.09,1.32-.44,2.7-.73,4.09-.79,6.03-.53,12.18,2.56,15.42,7.67,4.17,6.22,3.43,15.1-1.7,20.54,1.6,2.99,2.66,6.65,3.07,10.12h0ZM447.48,88.73c-.43-3.53-1.49-6.99-3.13-10.14,5.08-5.43,5.78-14.26,1.61-20.42-3.99-6.3-12.39-9.17-19.4-6.64-6.87-18.42-31.52-22.45-43.77-7,0,0-.18.22-.18.22l-.23-.16c-5.93-4.03-13.3-5.83-20.4-4.96-23.36,2.7-34.77,30.25-20.28,48.72,0,0,.21.27.21.27l-.19.28c-9.8,13.89.88,33.12,17.86,32.14,1.66-.07,3.3-.35,4.88-.85,4.69,6.33,12.39,10.28,20.29,10.27,7.84.09,15.55-3.7,20.3-9.93l.09-.11.13.05c9.77,4.26,21.74,2.77,30.19-3.7,8.67-6.41,13.29-17.36,12.03-28.04h0Z"/>
      </g>
    </g>
  </g>
  <g id="Symbol">
    <path class="cls-8" d="M395.25,87.05l-.24,4.23c-.1,1.82-1.55,3.11-3.37,3.01-1.69-.1-3.11-1.55-3.01-3.36l.38-6.76c0-.06.07-.06.07-.13q-.06-.07-.06-.13c.1-1.69,1.68-3.1,3.36-3.01,4.1.23,7.6-2.83,7.82-6.86.23-4.1-2.91-7.47-7-7.7-2.67-.15-5.09,1.15-6.44,3.22-1,1.51-2.98,1.92-4.49.92-1.44-.99-1.86-2.91-.86-4.42,2.57-3.9,7.14-6.38,12.15-6.1,7.54.43,13.38,6.89,12.95,14.43-.36,6.44-5.15,11.58-11.28,12.67ZM394.45,101.29l-.07,1.17c-.1,1.82-1.55,3.11-3.37,3.01-1.69-.1-3.11-1.55-3-3.37l.07-1.17c.1-1.76,1.68-3.1,3.36-3.01,1.82.1,3.11,1.61,3.01,3.36Z"/>
  </g>
</svg>